<?xml version="1.0" encoding="utf-8"?>
<svg version="1.1" xmlns:xlink="http://www.w3.org/1999/xlink" width="12px" height="12px" viewBox="178 433  12 12" xmlns="http://www.w3.org/2000/svg">
  <path d="M 184 433  C 187.36 433  190 435.64  190 439  C 190 442.36  187.36 445  184 445  C 180.64 445  178 442.36  178 439  C 178 435.64  180.64 433  184 433  Z " fill-rule="nonzero" fill="#f0f0f0" stroke="none" />
  <path d="M 184 433.5  C 187.08 433.5  189.5 435.92  189.5 439  C 189.5 442.08  187.08 444.5  184 444.5  C 180.92 444.5  178.5 442.08  178.5 439  C 178.5 435.92  180.92 433.5  184 433.5  Z " stroke-width="1" stroke="#797979" fill="none" />
  <path d="M 184 442  C 182.32 442  181 440.68  181 439  C 181 437.32  182.32 436  184 436  C 185.68 436  187 437.32  187 439  C 187 440.68  185.68 442  184 442  " fill-rule="nonzero" fill="#797979" stroke="none" />
</svg>