<?xml version="1.0" encoding="utf-8"?>
<svg version="1.1" xmlns:xlink="http://www.w3.org/1999/xlink" width="12px" height="12px" viewBox="180 280  12 12" xmlns="http://www.w3.org/2000/svg">
  <path d="M 186 280  C 189.36 280  192 282.64  192 286  C 192 289.36  189.36 292  186 292  C 182.64 292  180 289.36  180 286  C 180 282.64  182.64 280  186 280  Z " fill-rule="nonzero" fill="#f0f0f0" stroke="none" />
  <path d="M 186 280.5  C 189.08 280.5  191.5 282.92  191.5 286  C 191.5 289.08  189.08 291.5  186 291.5  C 182.92 291.5  180.5 289.08  180.5 286  C 180.5 282.92  182.92 280.5  186 280.5  Z " stroke-width="1" stroke="#797979" fill="none" />
  <path d="M 186 289  C 184.32 289  183 287.68  183 286  C 183 284.32  184.32 283  186 283  C 187.68 283  189 284.32  189 286  C 189 287.68  187.68 289  186 289  " fill-rule="nonzero" fill="#797979" stroke="none" />
</svg>