<?xml version="1.0" encoding="utf-8"?>
<svg version="1.1" xmlns:xlink="http://www.w3.org/1999/xlink" width="12px" height="12px" viewBox="341 433  12 12" xmlns="http://www.w3.org/2000/svg">
  <path d="M 347 433  C 350.36 433  353 435.64  353 439  C 353 442.36  350.36 445  347 445  C 343.64 445  341 442.36  341 439  C 341 435.64  343.64 433  347 433  Z " fill-rule="nonzero" fill="#ffffff" stroke="none" />
  <path d="M 347 433.5  C 350.08 433.5  352.5 435.92  352.5 439  C 352.5 442.08  350.08 444.5  347 444.5  C 343.92 444.5  341.5 442.08  341.5 439  C 341.5 435.92  343.92 433.5  347 433.5  Z " stroke-width="1" stroke="#797979" fill="none" />
  <path d="M 347 442  C 345.32 442  344 440.68  344 439  C 344 437.32  345.32 436  347 436  C 348.68 436  350 437.32  350 439  C 350 440.68  348.68 442  347 442  " fill-rule="nonzero" fill="#797979" stroke="none" />
</svg>