<?xml version="1.0" encoding="utf-8"?>
<svg version="1.1" xmlns:xlink="http://www.w3.org/1999/xlink" width="18px" height="21px" xmlns="http://www.w3.org/2000/svg">
  <g transform="matrix(1 0 0 1 -1096 -250 )">
    <path d="M 6.43039772727273 7.998046875  C 6.50710227272727 8.080078125  6.54545454545455 8.18489583333333  6.54545454545455 8.3125  L 6.54545454545455 16.1875  C 6.54545454545455 16.3151041666667  6.50710227272727 16.419921875  6.43039772727273 16.501953125  C 6.35369318181818 16.583984375  6.25568181818182 16.625  6.13636363636364 16.625  L 5.31818181818182 16.625  C 5.19886363636364 16.625  5.10085227272727 16.583984375  5.02414772727273 16.501953125  C 4.94744318181818 16.419921875  4.90909090909091 16.3151041666667  4.90909090909091 16.1875  L 4.90909090909091 8.3125  C 4.90909090909091 8.18489583333333  4.94744318181818 8.080078125  5.02414772727273 7.998046875  C 5.10085227272727 7.916015625  5.19886363636364 7.875  5.31818181818182 7.875  L 6.13636363636364 7.875  C 6.25568181818182 7.875  6.35369318181818 7.916015625  6.43039772727273 7.998046875  Z M 9.703125 7.998046875  C 9.77982954545454 8.080078125  9.81818181818182 8.18489583333333  9.81818181818182 8.3125  L 9.81818181818182 16.1875  C 9.81818181818182 16.3151041666667  9.77982954545454 16.419921875  9.703125 16.501953125  C 9.62642045454546 16.583984375  9.52840909090909 16.625  9.40909090909091 16.625  L 8.59090909090909 16.625  C 8.47159090909091 16.625  8.37357954545454 16.583984375  8.296875 16.501953125  C 8.22017045454546 16.419921875  8.18181818181818 16.3151041666667  8.18181818181818 16.1875  L 8.18181818181818 8.3125  C 8.18181818181818 8.18489583333333  8.22017045454546 8.080078125  8.296875 7.998046875  C 8.37357954545454 7.916015625  8.47159090909091 7.875  8.59090909090909 7.875  L 9.40909090909091 7.875  C 9.52840909090909 7.875  9.62642045454546 7.916015625  9.703125 7.998046875  Z M 12.9758522727273 7.998046875  C 13.0525568181818 8.080078125  13.0909090909091 8.18489583333333  13.0909090909091 8.3125  L 13.0909090909091 16.1875  C 13.0909090909091 16.3151041666667  13.0525568181818 16.419921875  12.9758522727273 16.501953125  C 12.8991477272727 16.583984375  12.8011363636364 16.625  12.6818181818182 16.625  L 11.8636363636364 16.625  C 11.7443181818182 16.625  11.6463068181818 16.583984375  11.5696022727273 16.501953125  C 11.4928977272727 16.419921875  11.4545454545455 16.3151041666667  11.4545454545455 16.1875  L 11.4545454545455 8.3125  C 11.4545454545455 8.18489583333333  11.4928977272727 8.080078125  11.5696022727273 7.998046875  C 11.6463068181818 7.916015625  11.7443181818182 7.875  11.8636363636364 7.875  L 12.6818181818182 7.875  C 12.8011363636364 7.875  12.8991477272727 7.916015625  12.9758522727273 7.998046875  Z M 14.6377840909091 18.7646484375  C 14.6974431818182 18.5960286458333  14.7272727272727 18.4114583333333  14.7272727272727 18.2109375  L 14.7272727272727 5.25  L 3.27272727272727 5.25  L 3.27272727272727 18.2109375  C 3.27272727272727 18.4114583333333  3.30255681818182 18.5960286458333  3.36221590909091 18.7646484375  C 3.421875 18.9332682291667  3.48366477272727 19.0563151041667  3.54758522727273 19.1337890625  C 3.61150568181818 19.2112630208333  3.65625 19.25  3.68181818181818 19  L 14.3181818181818 19  C 14.34375 19.25  14.3884943181818 19.2112630208333  14.4524147727273 19.1337890625  C 14.5163352272727 19.0563151041667  14.578125 18.9332682291667  14.6377840909091 18.7646484375  Z M 6.76278409090909 1.900390625  L 6.13636363636364 3.5  L 11.8636363636364 3.5  L 11.25 1.900390625  C 11.1903409090909 1.818359375  11.1178977272727 1.76822916666667  11.0326704545455 1.75  L 6.98011363636364 1.75  C 6.89488636363636 1.76822916666667  6.82244318181818 1.818359375  6.76278409090909 1.900390625  Z M 17.8849431818182 3.623046875  C 17.9616477272727 3.705078125  18 3.80989583333333  18 3.9375  L 18 4.8125  C 18 4.94010416666667  17.9616477272727 5.044921875  17.8849431818182 5.126953125  C 17.8082386363636 5.208984375  17.7102272727273 5.25  17.5909090909091 5.25  L 16.3636363636364 5.25  L 16.3636363636364 18.2109375  C 16.3636363636364 18.9674479166667  16.1633522727273 19.6214192708333  15.7627840909091 20.1728515625  C 15.3622159090909 20.7242838541667  14.8806818181818 21  14.3181818181818 21  L 3.68181818181818 21  C 3.11931818181818 21  2.63778409090909 20.7333984375  2.23721590909091 20.2001953125  C 1.83664772727273 19.6669921875  1.63636363636364 19.0221354166667  1.63636363636364 18.265625  L 1.63636363636364 5.25  L 0.409090909090909 5.25  C 0.289772727272727 5.25  0.191761363636364 5.208984375  0.115056818181818 5.126953125  C 0.0383522727272727 5.044921875  0 4.94010416666667  0 4.8125  L 0 3.9375  C 0 3.80989583333333  0.0383522727272727 3.705078125  0.115056818181818 3.623046875  C 0.191761363636364 3.541015625  0.289772727272727 3.5  0.409090909090909 3.5  L 4.359375 3.5  L 5.25426136363636 1.216796875  C 5.38210227272727 0.879557291666665  5.61221590909091 0.592447916666665  5.94460227272727 0.355468750000001  C 6.27698863636364 0.118489583333332  6.61363636363636 0  6.95454545454545 0  L 11.0454545454545 0  C 11.3863636363636 0  11.7230113636364 0.118489583333332  12.0553977272727 0.355468750000001  C 12.3877840909091 0.592447916666665  12.6178977272727 0.879557291666665  12.7457386363636 1.216796875  L 13.640625 3.5  L 17.5909090909091 3.5  C 17.7102272727273 3.5  17.8082386363636 3.541015625  17.8849431818182 3.623046875  Z " fill-rule="nonzero" fill="#000000" stroke="none" transform="matrix(1 0 0 1 1096 250 )" />
  </g>
</svg>