<?xml version="1.0" encoding="utf-8"?>
<svg version="1.1" xmlns:xlink="http://www.w3.org/1999/xlink" width="56px" height="32px" xmlns="http://www.w3.org/2000/svg">
  <g transform="matrix(1 0 0 1 -763 -1083 )">
    <path d="M 763.5 1085  A 1.5 1.5 0 0 1 765 1083.5 L 817 1083.5  A 1.5 1.5 0 0 1 818.5 1085 L 818.5 1113  A 1.5 1.5 0 0 1 817 1114.5 L 765 1114.5  A 1.5 1.5 0 0 1 763.5 1113 L 763.5 1085  Z " fill-rule="nonzero" fill="#ffffff" stroke="none" />
    <path d="M 763.5 1085  A 1.5 1.5 0 0 1 765 1083.5 L 817 1083.5  A 1.5 1.5 0 0 1 818.5 1085 L 818.5 1113  A 1.5 1.5 0 0 1 817 1114.5 L 765 1114.5  A 1.5 1.5 0 0 1 763.5 1113 L 763.5 1085  Z " stroke-width="1" stroke="#cccccc" fill="none" />
  </g>
</svg>