<?xml version="1.0" encoding="utf-8"?>
<svg version="1.1" xmlns:xlink="http://www.w3.org/1999/xlink" width="26px" height="15px" xmlns="http://www.w3.org/2000/svg">
  <g transform="matrix(1 0 0 1 -1248 -271 )">
    <path d="M 2 11.5178571428571  L 2 13.9285714285714  L 6.5 13.9285714285714  L 6.5 11.5178571428571  L 2 11.5178571428571  Z M 7.5 11.5178571428571  L 7.5 13.9285714285714  L 12.5 13.9285714285714  L 12.5 11.5178571428571  L 7.5 11.5178571428571  Z M 2 8.30357142857143  L 2 10.9821428571429  L 6.5 10.9821428571429  L 6.5 8.30357142857143  L 2 8.30357142857143  Z M 7.5 8.30357142857143  L 7.5 10.9821428571429  L 12.5 10.9821428571429  L 12.5 8.30357142857143  L 7.5 8.30357142857143  Z M 2 5.35714285714286  L 2 7.76785714285714  L 6.5 7.76785714285714  L 6.5 5.35714285714286  L 2 5.35714285714286  Z M 13.5 11.5178571428571  L 13.5 13.9285714285714  L 18.5 13.9285714285714  L 18.5 11.5178571428571  L 13.5 11.5178571428571  Z M 7.5 5.35714285714286  L 7.5 7.76785714285714  L 12.5 7.76785714285714  L 12.5 5.35714285714286  L 7.5 5.35714285714286  Z M 19.5 11.5178571428571  L 19.5 13.9285714285714  L 24 13.9285714285714  L 24 11.5178571428571  L 19.5 11.5178571428571  Z M 13.5 8.30357142857143  L 13.5 10.9821428571429  L 18.5 10.9821428571429  L 18.5 8.30357142857143  L 13.5 8.30357142857143  Z M 7.8515625 3.93833705357143  C 7.95052083333333 3.88532366071428  8 3.82254464285714  8 3.75  L 8 1.33928571428571  C 8 1.26674107142857  7.95052083333333 1.20396205357143  7.8515625 1.15094866071429  C 7.75260416666667 1.09793526785714  7.63541666666667 1.07142857142857  7.5 1.07142857142857  L 6.5 1.07142857142857  C 6.36458333333333 1.07142857142857  6.24739583333333 1.09793526785714  6.1484375 1.15094866071429  C 6.04947916666667 1.20396205357143  6 1.26674107142857  6 1.33928571428571  L 6 3.75  C 6 3.82254464285714  6.04947916666667 3.88532366071428  6.1484375 3.93833705357143  C 6.24739583333333 3.99135044642857  6.36458333333333 4.01785714285714  6.5 4.01785714285714  L 7.5 4.01785714285714  C 7.63541666666667 4.01785714285714  7.75260416666667 3.99135044642857  7.8515625 3.93833705357143  Z M 19.5 8.30357142857143  L 19.5 10.9821428571429  L 24 10.9821428571429  L 24 8.30357142857143  L 19.5 8.30357142857143  Z M 13.5 5.35714285714286  L 13.5 7.76785714285714  L 18.5 7.76785714285714  L 18.5 5.35714285714286  L 13.5 5.35714285714286  Z M 19.5 5.35714285714286  L 19.5 7.76785714285714  L 24 7.76785714285714  L 24 5.35714285714286  L 19.5 5.35714285714286  Z M 19.8515625 3.93833705357143  C 19.9505208333333 3.88532366071428  20 3.82254464285714  20 3.75  L 20 1.33928571428571  C 20 1.26674107142857  19.9505208333333 1.20396205357143  19.8515625 1.15094866071429  C 19.7526041666667 1.09793526785714  19.6354166666667 1.07142857142857  19.5 1.07142857142857  L 18.5 1.07142857142857  C 18.3645833333333 1.07142857142857  18.2473958333333 1.09793526785714  18.1484375 1.15094866071429  C 18.0494791666667 1.20396205357143  18 1.26674107142857  18 1.33928571428571  L 18 3.75  C 18 3.82254464285714  18.0494791666667 3.88532366071428  18.1484375 3.93833705357143  C 18.2473958333333 3.99135044642857  18.3645833333333 4.01785714285714  18.5 4.01785714285714  L 19.5 4.01785714285714  C 19.6354166666667 4.01785714285714  19.7526041666667 3.99135044642857  19.8515625 3.93833705357143  Z M 25.40625 2.4609375  C 25.8020833333333 2.67299107142857  26 2.92410714285714  26 3.21428571428571  L 26 13.9285714285714  C 26 14.21875  25.8020833333333 14.4698660714286  25.40625 14.6819196428571  C 25.0104166666667 14.8939732142857  24.5416666666667 15  24 15  L 2 15  C 1.45833333333333 15  0.989583333333333 14.8939732142857  0.59375 14.6819196428571  C 0.197916666666667 14.4698660714286  0 14.21875  0 13.9285714285714  L 0 3.21428571428571  C 0 2.92410714285714  0.197916666666667 2.67299107142857  0.59375 2.4609375  C 0.989583333333333 2.24888392857143  1.45833333333333 2.14285714285714  2 2.14285714285714  L 4 2.14285714285714  L 4 1.33928571428571  C 4 0.970982142857144  4.24479166666667 0.655691964285713  4.734375 0.393415178571429  C 5.22395833333333 0.131138392857143  5.8125 0  6.5 0  L 7.5 0  C 8.1875 0  8.77604166666667 0.131138392857143  9.265625 0.393415178571429  C 9.75520833333333 0.655691964285713  10 0.970982142857144  10 1.33928571428571  L 10 2.14285714285714  L 16 2.14285714285714  L 16 1.33928571428571  C 16 0.970982142857144  16.2447916666667 0.655691964285713  16.734375 0.393415178571429  C 17.2239583333333 0.131138392857143  17.8125 0  18.5 0  L 19.5 0  C 20.1875 0  20.7760416666667 0.131138392857143  21.265625 0.393415178571429  C 21.7552083333333 0.655691964285713  22 0.970982142857144  22 1.33928571428571  L 22 2.14285714285714  L 24 2.14285714285714  C 24.5416666666667 2.14285714285714  25.0104166666667 2.24888392857143  25.40625 2.4609375  Z " fill-rule="nonzero" fill="#8c8c8c" stroke="none" transform="matrix(1 0 0 1 1248 271 )" />
  </g>
</svg>