<?xml version="1.0" encoding="utf-8"?>
<svg version="1.1" xmlns:xlink="http://www.w3.org/1999/xlink" width="20px" height="8px" xmlns="http://www.w3.org/2000/svg">
  <g transform="matrix(1 0 0 1 -334 -346 )">
    <path d="M 14.8493303571429 6.26736111111111  C 16.3411458333333 5.70486111111111  17.5818452380952 4.94907407407407  18.5714285714286 4  C 17.4404761904762 2.90740740740741  16.0230654761905 2.09027777777778  14.3191964285714 1.54861111111111  C 14.7730654761905 2.03009259259259  15 2.55092592592593  15 3.11111111111111  C 15 3.96759259259259  14.5107886904762 4.70023148148148  13.5323660714286 5.30902777777778  C 12.553943452381 5.91782407407407  11.3764880952381 6.22222222222222  10 6.22222222222222  C 8.62351190476191 6.22222222222222  7.44605654761905 5.91782407407407  6.46763392857143 5.30902777777778  C 5.48921130952381 4.70023148148148  5 3.96759259259259  5 3.11111111111111  C 5 2.55092592592593  5.22693452380952 2.03009259259259  5.68080357142857 1.54861111111111  C 3.97693452380952 2.09027777777778  2.55952380952381 2.90740740740741  1.42857142857143 4  C 2.41815476190476 4.94907407407407  3.65885416666667 5.70486111111111  5.15066964285714 6.26736111111111  C 6.64248511904762 6.82986111111111  8.25892857142857 7.11111111111111  10 7.11111111111111  C 11.7410714285714 7.11111111111111  13.3575148809524 6.82986111111111  14.8493303571429 6.26736111111111  Z M 10.3794642857143 1.56944444444444  C 10.483630952381 1.50462962962963  10.5357142857143 1.42592592592593  10.5357142857143 1.33333333333333  C 10.5357142857143 1.24074074074074  10.483630952381 1.16203703703704  10.3794642857143 1.09722222222222  C 10.2752976190476 1.03240740740741  10.1488095238095 0.999999999999999  10 1  C 9.06994047619048 0.999999999999999  8.27194940476191 1.20717592592593  7.60602678571429 1.62152777777778  C 6.94010416666667 2.03587962962963  6.60714285714286 2.53240740740741  6.60714285714286 3.11111111111111  C 6.60714285714286 3.2037037037037  6.65922619047619 3.28240740740741  6.76339285714286 3.34722222222222  C 6.86755952380952 3.41203703703704  6.99404761904762 3.44444444444444  7.14285714285714 3.44444444444444  C 7.29166666666667 3.44444444444444  7.41815476190476 3.41203703703704  7.52232142857143 3.34722222222222  C 7.62648809523809 3.28240740740741  7.67857142857143 3.2037037037037  7.67857142857143 3.11111111111111  C 7.67857142857143 2.71296296296296  7.90550595238095 2.37268518518519  8.359375 2.09027777777778  C 8.81324404761905 1.80787037037037  9.36011904761905 1.66666666666667  10 1.66666666666667  C 10.1488095238095 1.66666666666667  10.2752976190476 1.63425925925926  10.3794642857143 1.56944444444444  Z M 19.7767857142857 3.52083333333333  C 19.9255952380952 3.68287037037037  20 3.84259259259259  20 4  C 20 4.15740740740741  19.9255952380952 4.31712962962963  19.7767857142857 4.47916666666667  C 18.7351190476191 5.54398148148148  17.3344494047619 6.39699074074074  15.5747767857143 7.03819444444444  C 13.8151041666667 7.67939814814815  11.9568452380952 8  10 8  C 8.04315476190476 8  6.18489583333333 7.67824074074074  4.42522321428571 7.03472222222222  C 2.6655505952381 6.3912037037037  1.26488095238095 5.53935185185185  0.223214285714286 4.47916666666667  C 0.0744047619047619 4.31712962962963  0 4.15740740740741  0 4  C 0 3.84259259259259  0.0744047619047619 3.68287037037037  0.223214285714286 3.52083333333333  C 1.26488095238095 2.46064814814815  2.6655505952381 1.6087962962963  4.42522321428571 0.965277777777778  C 6.18489583333333 0.321759259259259  8.04315476190476 0  10 0  C 11.9568452380952 0  13.8151041666667 0.321759259259259  15.5747767857143 0.965277777777778  C 17.3344494047619 1.6087962962963  18.7351190476191 2.46064814814815  19.7767857142857 3.52083333333333  Z " fill-rule="nonzero" fill="#000000" stroke="none" transform="matrix(1 0 0 1 334 346 )" />
  </g>
</svg>