<?xml version="1.0" encoding="utf-8"?>
<svg version="1.1" xmlns:xlink="http://www.w3.org/1999/xlink" width="15px" height="19px" xmlns="http://www.w3.org/2000/svg">
  <g transform="matrix(1 0 0 1 -294 -148 )">
    <path d="M 9.19921875 11.65234375  C 9.98948317307692 10.6513421474359  10.3846153846154 9.44671474358974  10.3846153846154 8.03846153846154  C 10.3846153846154 6.63020833333333  9.98948317307692 5.42558092948718  9.19921875 4.42457932692308  C 8.40895432692308 3.42357772435897  7.45793269230769 2.92307692307692  6.34615384615385 2.92307692307692  C 5.234375 2.92307692307692  4.28335336538462 3.42357772435897  3.49308894230769 4.42457932692308  C 2.70282451923077 5.42558092948718  2.30769230769231 6.63020833333333  2.30769230769231 8.03846153846154  C 2.30769230769231 9.44671474358974  2.70282451923077 10.6513421474359  3.49308894230769 11.65234375  C 4.28335336538462 12.6533453525641  5.234375 13.1538461538462  6.34615384615385 13.1538461538462  C 7.45793269230769 13.1538461538462  8.40895432692308 12.6533453525641  9.19921875 11.65234375  Z M 14.6664663461538 16.5108173076923  C 14.8888221153846 16.7924679487179  15 17.135016025641  15 17.5384615384615  C 15 17.9342948717949  14.8858173076923 18.2768429487179  14.6574519230769 18.5661057692308  C 14.4290865384615 18.8553685897436  14.1586538461538 19  13.8461538461538 19  C 13.5216346153846 19  13.2512019230769 18.8553685897436  13.0348557692308 18.5661057692308  L 9.94290865384615 14.6610576923077  C 8.8671875 15.604967948718  7.66826923076923 16.0769230769231  6.34615384615385 16.0769230769231  C 5.48677884615385 16.0769230769231  4.66496394230769 15.8656850961538  3.88070913461538 15.4432091346154  C 3.09645432692308 15.0207331730769  2.42037259615385 14.4498197115385  1.85246394230769 13.73046875  C 1.28455528846154 13.0111177884615  0.833834134615385 12.1547475961538  0.500300480769231 11.1613581730769  C 0.166766826923077 10.16796875  0 9.1270032051282  0 8.03846153846154  C 0 6.94991987179487  0.166766826923077 5.90895432692308  0.500300480769231 4.91556490384615  C 0.833834134615385 3.92217548076923  1.28455528846154 3.06580528846154  1.85246394230769 2.34645432692308  C 2.42037259615385 1.62710336538462  3.09645432692308 1.05618990384615  3.88070913461538 0.633713942307693  C 4.66496394230769 0.21123798076923  5.48677884615385 0  6.34615384615385 0  C 7.20552884615385 0  8.02734375 0.21123798076923  8.81159855769231 0.633713942307693  C 9.59585336538461 1.05618990384615  10.2719350961538 1.62710336538462  10.83984375 2.34645432692308  C 11.4077524038462 3.06580528846154  11.8584735576923 3.92217548076923  12.1920072115385 4.91556490384615  C 12.5255408653846 5.90895432692308  12.6923076923077 6.94991987179487  12.6923076923077 8.03846153846154  C 12.6923076923077 9.71314102564103  12.3197115384615 11.2317708333333  11.5745192307692 12.5943509615385  L 14.6664663461538 16.5108173076923  Z " fill-rule="nonzero" fill="#000000" stroke="none" transform="matrix(1 0 0 1 294 148 )" />
  </g>
</svg>