<?xml version="1.0" encoding="utf-8"?>
<svg version="1.1" xmlns:xlink="http://www.w3.org/1999/xlink" width="21px" height="15px" xmlns="http://www.w3.org/2000/svg">
  <g transform="matrix(1 0 0 1 -417 -210 )">
    <path d="M 9.79372197309417 11.25  L 10.4529147982063 11.25  L 11.8183856502242 10.0142045454545  L 10.0291479820628 8.39488636363636  L 8.66367713004484 9.63068181818182  L 8.66367713004484 10.2272727272727  L 9.79372197309417 10.2272727272727  L 9.79372197309417 11.25  Z M 15.6205156950673 3.93110795454545  C 15.7539237668161 3.81036931818182  15.7578475336323 3.69318181818182  15.6322869955157 3.57954545454545  C 15.5067264573991 3.46590909090909  15.3772421524664 3.46946022727273  15.2438340807175 3.59019886363636  L 11.1238789237668 7.31889204545454  C 10.9904708520179 7.43963068181818  10.9865470852018 7.55681818181818  11.1121076233184 7.67045454545454  C 11.237668161435 7.78409090909091  11.3671524663677 7.78053977272727  11.5005605381166 7.65980113636364  L 15.6205156950673 3.93110795454545  Z M 16.3385650224215 9.59872159090909  C 16.4955156950673 9.65553977272727  16.5739910313901 9.75852272727273  16.5739910313901 9.90767045454546  L 16.5739910313901 11.9318181818182  C 16.5739910313901 12.7769886363636  16.242432735426 13.4996448863636  15.5793161434978 14.0997869318182  C 14.9161995515695 14.6999289772727  14.1177130044843 15  13.1838565022422 15  L 3.39013452914798 15  C 2.45627802690583 15  1.65779147982063 14.6999289772727  0.994674887892377 14.0997869318182  C 0.331558295964126 13.4996448863636  0 12.7769886363636  0 11.9318181818182  L 0 3.06818181818182  C 0 2.22301136363636  0.331558295964126 1.50035511363636  0.994674887892377 0.900213068181819  C 1.65779147982063 0.300071022727271  2.45627802690583 0  3.39013452914798 0  L 13.1838565022422 0  C 13.6782511210762 0  14.137331838565 0.0887784090909083  14.5610986547085 0.266335227272727  C 14.6788116591928 0.316051136363635  14.7494394618834 0.397727272727272  14.7729820627803 0.511363636363636  C 14.7965246636771 0.632102272727272  14.7612107623318 0.735085227272727  14.6670403587444 0.8203125  L 14.0902466367713 1.34232954545455  C 13.9803811659193 1.44176136363636  13.8548206278027 1.47017045454545  13.7135650224215 1.42755681818182  C 13.5330717488789 1.38494318181818  13.3565022421525 1.36363636363636  13.1838565022422 1.36363636363636  L 3.39013452914798 1.36363636363636  C 2.87219730941704 1.36363636363636  2.42881165919283 1.53053977272727  2.05997757847534 1.86434659090909  C 1.69114349775785 2.19815340909091  1.5067264573991 2.59943181818182  1.5067264573991 3.06818181818182  L 1.5067264573991 11.9318181818182  C 1.5067264573991 12.4005681818182  1.69114349775785 12.8018465909091  2.05997757847534 13.1356534090909  C 2.42881165919283 13.4694602272727  2.87219730941704 13.6363636363636  3.39013452914798 13.6363636363636  L 13.1838565022422 13.6363636363636  C 13.7017937219731 13.6363636363636  14.1451793721973 13.4694602272727  14.5140134529148 13.1356534090909  C 14.8828475336323 12.8018465909091  15.067264573991 12.4005681818182  15.067264573991 11.9318181818182  L 15.067264573991 10.5894886363636  C 15.067264573991 10.4971590909091  15.1025784753363 10.4190340909091  15.1732062780269 10.3551136363636  L 15.9265695067265 9.67329545454546  C 16.0442825112108 9.56676136363636  16.1816143497758 9.54190340909091  16.3385650224215 9.59872159090909  Z M 7.53363228699552 9.20454545454546  L 15.4439461883408 2.04545454545455  L 18.8340807174888 5.11363636363636  L 10.9237668161435 12.2727272727273  L 7.53363228699552 12.2727272727273  L 7.53363228699552 9.20454545454546  Z M 21 2.72727272727273  C 21 3.01136363636364  20.890134529148 3.25284090909091  20.6704035874439 3.45170454545455  L 19.5874439461883 4.43181818181818  L 16.1973094170404 1.36363636363636  L 17.280269058296 0.383522727272727  C 17.5 0.184659090909089  17.7668161434978 0.0852272727272735  18.0807174887892 0.0852272727272735  C 18.3946188340807 0.0852272727272735  18.6614349775785 0.184659090909089  18.8811659192825 0.383522727272727  L 20.6704035874439 2.00284090909091  C 20.890134529148 2.20170454545454  21 2.44318181818182  21 2.72727272727273  Z " fill-rule="nonzero" fill="#000000" stroke="none" transform="matrix(1 0 0 1 417 210 )" />
  </g>
</svg>