<?xml version="1.0" encoding="utf-8"?>
<svg version="1.1" xmlns:xlink="http://www.w3.org/1999/xlink" width="12px" height="12px" viewBox="179 447  12 12" xmlns="http://www.w3.org/2000/svg">
  <path d="M 185 447  C 188.36 447  191 449.64  191 453  C 191 456.36  188.36 459  185 459  C 181.64 459  179 456.36  179 453  C 179 449.64  181.64 447  185 447  Z " fill-rule="nonzero" fill="#f0f0f0" stroke="none" />
  <path d="M 185 447.5  C 188.08 447.5  190.5 449.92  190.5 453  C 190.5 456.08  188.08 458.5  185 458.5  C 181.92 458.5  179.5 456.08  179.5 453  C 179.5 449.92  181.92 447.5  185 447.5  Z " stroke-width="1" stroke="#797979" fill="none" />
  <path d="M 185 456  C 183.32 456  182 454.68  182 453  C 182 451.32  183.32 450  185 450  C 186.68 450  188 451.32  188 453  C 188 454.68  186.68 456  185 456  " fill-rule="nonzero" fill="#797979" stroke="none" />
</svg>