<?xml version="1.0" encoding="utf-8"?>
<svg version="1.1" xmlns:xlink="http://www.w3.org/1999/xlink" width="12px" height="12px" viewBox="342 447  12 12" xmlns="http://www.w3.org/2000/svg">
  <path d="M 348 447  C 351.36 447  354 449.64  354 453  C 354 456.36  351.36 459  348 459  C 344.64 459  342 456.36  342 453  C 342 449.64  344.64 447  348 447  Z " fill-rule="nonzero" fill="#f0f0f0" stroke="none" />
  <path d="M 348 447.5  C 351.08 447.5  353.5 449.92  353.5 453  C 353.5 456.08  351.08 458.5  348 458.5  C 344.92 458.5  342.5 456.08  342.5 453  C 342.5 449.92  344.92 447.5  348 447.5  Z " stroke-width="1" stroke="#797979" fill="none" />
  <path d="M 348 456  C 346.32 456  345 454.68  345 453  C 345 451.32  346.32 450  348 450  C 349.68 450  351 451.32  351 453  C 351 454.68  349.68 456  348 456  " fill-rule="nonzero" fill="#797979" stroke="none" />
</svg>