<?xml version="1.0" encoding="utf-8"?>
<svg version="1.1" xmlns:xlink="http://www.w3.org/1999/xlink" width="12px" height="12px" viewBox="342 376  12 12" xmlns="http://www.w3.org/2000/svg">
  <path d="M 348 376  C 351.36 376  354 378.64  354 382  C 354 385.36  351.36 388  348 388  C 344.64 388  342 385.36  342 382  C 342 378.64  344.64 376  348 376  Z " fill-rule="nonzero" fill="#ffffff" stroke="none" />
  <path d="M 348 376.5  C 351.08 376.5  353.5 378.92  353.5 382  C 353.5 385.08  351.08 387.5  348 387.5  C 344.92 387.5  342.5 385.08  342.5 382  C 342.5 378.92  344.92 376.5  348 376.5  Z " stroke-width="1" stroke="#797979" fill="none" />
  <path d="M 348 385  C 346.32 385  345 383.68  345 382  C 345 380.32  346.32 379  348 379  C 349.68 379  351 380.32  351 382  C 351 383.68  349.68 385  348 385  " fill-rule="nonzero" fill="#797979" stroke="none" />
</svg>