<?xml version="1.0" encoding="utf-8"?>
<svg version="1.1" xmlns:xlink="http://www.w3.org/1999/xlink" width="24px" height="19px" xmlns="http://www.w3.org/2000/svg">
  <g transform="matrix(1 0 0 1 -122 -267 )">
    <path d="M 13.609375 12.9759114583333  C 13.703125 13.0501302083333  13.75 13.1449652777778  13.75 13.2604166666667  L 13.75 15.2395833333333  C 13.75 15.3550347222222  13.703125 15.4498697916667  13.609375 15.5240885416667  C 13.515625 15.5983072916667  13.3958333333333 15.6354166666667  13.25 15.6354166666667  L 10.75 15.6354166666667  C 10.6041666666667 15.6354166666667  10.484375 15.5983072916667  10.390625 15.5240885416667  C 10.296875 15.4498697916667  10.25 15.3550347222222  10.25 15.2395833333333  L 10.25 13.2604166666667  C 10.25 13.1449652777778  10.296875 13.0501302083333  10.390625 12.9759114583333  C 10.484375 12.9016927083333  10.6041666666667 12.8645833333333  10.75 12.8645833333333  L 13.25 12.8645833333333  C 13.3958333333333 12.8645833333333  13.515625 12.9016927083333  13.609375 12.9759114583333  Z M 16.0390625 4.4716796875  C 17.1796875 5.20974392361111  17.75 6.09418402777778  17.75 7.125  C 17.75 7.53732638888889  17.671875 7.90842013888889  17.515625 8.23828125  C 17.359375 8.56814236111111  17.1223958333333 8.85264756944444  16.8046875 9.091796875  C 16.4869791666667 9.33094618055555  16.2161458333333 9.51236979166667  15.9921875 9.63606770833333  C 15.7682291666667 9.759765625  15.4583333333333 9.908203125  15.0625 10.0813802083333  C 14.7291666666667 10.2298177083333  14.4869791666667 10.3452690972222  14.3359375 10.427734375  C 14.1848958333333 10.5101996527778  14.0494791666667 10.6091579861111  13.9296875 10.724609375  C 13.8098958333333 10.8400607638889  13.75 10.9596354166667  13.75 11.0833333333333  L 13.75 11.4791666666667  C 13.75 11.5946180555556  13.703125 11.689453125  13.609375 11.763671875  C 13.515625 11.837890625  13.3958333333333 11.875  13.25 11.875  L 10.75 11.875  C 10.6041666666667 11.875  10.484375 11.837890625  10.390625 11.763671875  C 10.296875 11.689453125  10.25 11.5946180555556  10.25 11.4791666666667  L 10.25 10.6380208333333  C 10.25 10.3493923611111  10.3046875 10.0834418402778  10.4140625 9.84016927083333  C 10.5234375 9.59689670138889  10.6484375 9.40104166666667  10.7890625 9.25260416666667  C 10.9296875 9.10416666666667  11.1328125 8.95779079861111  11.3984375 8.8134765625  C 11.6640625 8.66916232638889  11.8776041666667 8.56401909722222  12.0390625 8.498046875  C 12.2005208333333 8.43207465277778  12.4322916666667 8.34548611111111  12.734375 8.23828125  C 13.2864583333333 8.03211805555555  13.6770833333333 7.85481770833333  13.90625 7.70638020833333  C 14.1354166666667 7.55794270833333  14.25 7.35590277777778  14.25 7.10026041666667  C 14.25 6.75390625  14.0234375 6.45909288194444  13.5703125 6.2158203125  C 13.1171875 5.97254774305555  12.6197916666667 5.85091145833333  12.078125 5.85091145833333  C 11.4947916666667 5.85091145833333  11 5.96223958333333  10.59375 6.18489583333333  C 10.2916666666667 6.34982638888889  9.875 6.69205729166667  9.34375 7.21158854166667  C 9.25 7.310546875  9.11979166666667 7.36002604166667  8.953125 7.36002604166667  C 8.83854166666667 7.36002604166667  8.73958333333333 7.33528645833333  8.65625 7.28580729166667  L 6.96875 6.271484375  C 6.86458333333333 6.21375868055555  6.80208333333333 6.13129340277778  6.78125 6.02408854166667  C 6.76041666666667 5.91688368055555  6.78645833333333 5.82204861111111  6.859375 5.73958333333333  C 8.13020833333333 4.15625  9.94791666666667 3.36458333333333  12.3125 3.36458333333333  C 13.65625 3.36458333333333  14.8984375 3.73361545138889  16.0390625 4.4716796875  Z M 15.8828125 2.21419270833333  C 14.6484375 1.79361979166667  13.3541666666667 1.58333333333333  12 1.58333333333333  C 10.6458333333333 1.58333333333333  9.3515625 1.79361979166667  8.1171875 2.21419270833333  C 6.8828125 2.634765625  5.8203125 3.19759114583333  4.9296875 3.90266927083333  C 4.0390625 4.60774739583333  3.328125 5.44889322916667  2.796875 6.42610677083333  C 2.265625 7.4033203125  2 8.42795138888889  2 9.5  C 2 10.5720486111111  2.265625 11.5966796875  2.796875 12.5738932291667  C 3.328125 13.5511067708333  4.0390625 14.3922526041667  4.9296875 15.0973307291667  C 5.8203125 15.8024088541667  6.8828125 16.365234375  8.1171875 16.7858072916667  C 9.3515625 17.2063802083333  10.6458333333333 17.4166666666667  12 17.4166666666667  C 13.3541666666667 17.4166666666667  14.6484375 17.2063802083333  15.8828125 16.7858072916667  C 17.1171875 16.365234375  18.1796875 15.8024088541667  19.0703125 15.0973307291667  C 19.9609375 14.3922526041667  20.671875 13.5511067708333  21.203125 12.5738932291667  C 21.734375 11.5966796875  22 10.5720486111111  22 9.5  C 22 8.42795138888889  21.734375 7.4033203125  21.203125 6.42610677083333  C 20.671875 5.44889322916667  19.9609375 4.60774739583333  19.0703125 3.90266927083333  C 18.1796875 3.19759114583333  17.1171875 2.634765625  15.8828125 2.21419270833333  Z M 22.390625 4.7314453125  C 23.4635416666667 6.18695746527778  24 7.77647569444444  24 9.5  C 24 11.2235243055556  23.4635416666667 12.8130425347222  22.390625 14.2685546875  C 21.3177083333333 15.7240668402778  19.8619791666667 16.8765190972222  18.0234375 17.7259114583333  C 16.1848958333333 18.5753038194444  14.1770833333333 19  12 19  C 9.82291666666667 19  7.81510416666667 18.5753038194444  5.9765625 17.7259114583333  C 4.13802083333333 16.8765190972222  2.68229166666667 15.7240668402778  1.609375 14.2685546875  C 0.536458333333333 12.8130425347222  0 11.2235243055556  0 9.5  C 0 7.77647569444444  0.536458333333333 6.18695746527778  1.609375 4.7314453125  C 2.68229166666667 3.27593315972222  4.13802083333333 2.12348090277778  5.9765625 1.27408854166667  C 7.81510416666667 0.424696180555554  9.82291666666667 0  12 0  C 14.1770833333333 0  16.1848958333333 0.424696180555554  18.0234375 1.27408854166667  C 19.8619791666667 2.12348090277778  21.3177083333333 3.27593315972222  22.390625 4.7314453125  Z " fill-rule="nonzero" fill="#000000" stroke="none" transform="matrix(1 0 0 1 122 267 )" />
  </g>
</svg>