<?xml version="1.0" encoding="utf-8"?>
<svg version="1.1" xmlns:xlink="http://www.w3.org/1999/xlink" width="12px" height="12px" viewBox="178 477  12 12" xmlns="http://www.w3.org/2000/svg">
  <path d="M 184 477  C 187.36 477  190 479.64  190 483  C 190 486.36  187.36 489  184 489  C 180.64 489  178 486.36  178 483  C 178 479.64  180.64 477  184 477  Z " fill-rule="nonzero" fill="#ffffff" stroke="none" />
  <path d="M 184 477.5  C 187.08 477.5  189.5 479.92  189.5 483  C 189.5 486.08  187.08 488.5  184 488.5  C 180.92 488.5  178.5 486.08  178.5 483  C 178.5 479.92  180.92 477.5  184 477.5  Z " stroke-width="1" stroke="#797979" fill="none" />
  <path d="M 184 486  C 182.32 486  181 484.68  181 483  C 181 481.32  182.32 480  184 480  C 185.68 480  187 481.32  187 483  C 187 484.68  185.68 486  184 486  " fill-rule="nonzero" fill="#797979" stroke="none" />
</svg>