<?xml version="1.0" encoding="utf-8"?>
<svg version="1.1" xmlns:xlink="http://www.w3.org/1999/xlink" width="12px" height="12px" viewBox="304 477  12 12" xmlns="http://www.w3.org/2000/svg">
  <path d="M 310 477  C 313.36 477  316 479.64  316 483  C 316 486.36  313.36 489  310 489  C 306.64 489  304 486.36  304 483  C 304 479.64  306.64 477  310 477  Z " fill-rule="nonzero" fill="#ffffff" stroke="none" />
  <path d="M 310 477.5  C 313.08 477.5  315.5 479.92  315.5 483  C 315.5 486.08  313.08 488.5  310 488.5  C 306.92 488.5  304.5 486.08  304.5 483  C 304.5 479.92  306.92 477.5  310 477.5  Z " stroke-width="1" stroke="#797979" fill="none" />
  <path d="M 310 486  C 308.32 486  307 484.68  307 483  C 307 481.32  308.32 480  310 480  C 311.68 480  313 481.32  313 483  C 313 484.68  311.68 486  310 486  " fill-rule="nonzero" fill="#797979" stroke="none" />
</svg>