<?xml version="1.0" encoding="utf-8"?>
<svg version="1.1" xmlns:xlink="http://www.w3.org/1999/xlink" width="14px" height="15px" xmlns="http://www.w3.org/2000/svg">
  <g transform="matrix(1 0 0 1 -643 -182 )">
    <path d="M 13.92578125 9.74888392857143  C 13.9752604166667 9.81956845238095  14 9.90327380952381  14 10  L 14 12.1428571428571  C 14 12.2395833333333  13.9752604166667 12.3232886904762  13.92578125 12.3939732142857  C 13.8763020833333 12.4646577380952  13.8177083333333 12.5  13.75 12.5  L 3 12.5  L 3 14.6428571428571  C 3 14.7395833333333  2.97526041666667 14.8232886904762  2.92578125 14.8939732142857  C 2.87630208333333 14.9646577380952  2.81770833333333 15  2.75 15  C 2.6875 15  2.625 14.9627976190476  2.5625 14.8883928571429  L 0.0703125 11.3169642857143  C 0.0234375 11.25  0 11.1681547619048  0 11.0714285714286  C 0 10.9672619047619  0.0234375 10.8816964285714  0.0703125 10.8147321428571  L 2.5703125 7.24330357142857  C 2.6171875 7.17633928571429  2.67708333333333 7.14285714285714  2.75 7.14285714285714  C 2.81770833333333 7.14285714285714  2.87630208333333 7.17819940476191  2.92578125 7.24888392857143  C 2.97526041666667 7.31956845238095  3 7.40327380952381  3 7.5  L 3 9.64285714285714  L 13.75 9.64285714285714  C 13.8177083333333 9.64285714285714  13.8763020833333 9.67819940476191  13.92578125 9.74888392857143  Z M 13.9296875 3.671875  C 13.9765625 3.73883928571428  14 3.82440476190476  14 3.92857142857143  C 14 4.03273809523809  13.9765625 4.11830357142857  13.9296875 4.18526785714286  L 11.4296875 7.75669642857143  C 11.3828125 7.82366071428571  11.3229166666667 7.85714285714286  11.25 7.85714285714286  C 11.1822916666667 7.85714285714286  11.1236979166667 7.82180059523809  11.07421875 7.75111607142857  C 11.0247395833333 7.68043154761905  11 7.59672619047619  11 7.5  L 11 5.35714285714286  L 0.25 5.35714285714286  C 0.182291666666667 5.35714285714286  0.123697916666667 5.3218005952381  0.07421875 5.25111607142857  C 0.0247395833333333 5.18043154761905  0 5.09672619047619  0 5  L 0 2.85714285714286  C 0 2.76041666666667  0.0247395833333333 2.67671130952381  0.07421875 2.60602678571429  C 0.123697916666667 2.53534226190476  0.182291666666667 2.5  0.25 2.5  L 11 2.5  L 11 0.357142857142858  C 11 0.25297619047619  11.0234375 0.167410714285715  11.0703125 0.100446428571429  C 11.1171875 0.0334821428571436  11.1770833333333 0  11.25 0  C 11.3125 0  11.375 0.0372023809523808  11.4375 0.111607142857142  L 13.9296875 3.671875  Z " fill-rule="nonzero" fill="#027db4" stroke="none" transform="matrix(1 0 0 1 643 182 )" />
  </g>
</svg>