<?xml version="1.0" encoding="utf-8"?>
<svg version="1.1" xmlns:xlink="http://www.w3.org/1999/xlink" width="12px" height="12px" viewBox="179 376  12 12" xmlns="http://www.w3.org/2000/svg">
  <path d="M 185 376  C 188.36 376  191 378.64  191 382  C 191 385.36  188.36 388  185 388  C 181.64 388  179 385.36  179 382  C 179 378.64  181.64 376  185 376  Z " fill-rule="nonzero" fill="#f0f0f0" stroke="none" />
  <path d="M 185 376.5  C 188.08 376.5  190.5 378.92  190.5 382  C 190.5 385.08  188.08 387.5  185 387.5  C 181.92 387.5  179.5 385.08  179.5 382  C 179.5 378.92  181.92 376.5  185 376.5  Z " stroke-width="1" stroke="#797979" fill="none" />
  <path d="M 185 385  C 183.32 385  182 383.68  182 382  C 182 380.32  183.32 379  185 379  C 186.68 379  188 380.32  188 382  C 188 383.68  186.68 385  185 385  " fill-rule="nonzero" fill="#797979" stroke="none" />
</svg>