<?xml version="1.0" encoding="utf-8"?>
<svg version="1.1" xmlns:xlink="http://www.w3.org/1999/xlink" width="12px" height="12px" viewBox="341 404  12 12" xmlns="http://www.w3.org/2000/svg">
  <path d="M 347 404  C 350.36 404  353 406.64  353 410  C 353 413.36  350.36 416  347 416  C 343.64 416  341 413.36  341 410  C 341 406.64  343.64 404  347 404  Z " fill-rule="nonzero" fill="#ffffff" stroke="none" />
  <path d="M 347 404.5  C 350.08 404.5  352.5 406.92  352.5 410  C 352.5 413.08  350.08 415.5  347 415.5  C 343.92 415.5  341.5 413.08  341.5 410  C 341.5 406.92  343.92 404.5  347 404.5  Z " stroke-width="1" stroke="#797979" fill="none" />
  <path d="M 347 413  C 345.32 413  344 411.68  344 410  C 344 408.32  345.32 407  347 407  C 348.68 407  350 408.32  350 410  C 350 411.68  348.68 413  347 413  " fill-rule="nonzero" fill="#797979" stroke="none" />
</svg>