<?xml version="1.0" encoding="utf-8"?>
<svg version="1.1" xmlns:xlink="http://www.w3.org/1999/xlink" width="12px" height="12px" viewBox="178 404  12 12" xmlns="http://www.w3.org/2000/svg">
  <path d="M 184 404  C 187.36 404  190 406.64  190 410  C 190 413.36  187.36 416  184 416  C 180.64 416  178 413.36  178 410  C 178 406.64  180.64 404  184 404  Z " fill-rule="nonzero" fill="#f0f0f0" stroke="none" />
  <path d="M 184 404.5  C 187.08 404.5  189.5 406.92  189.5 410  C 189.5 413.08  187.08 415.5  184 415.5  C 180.92 415.5  178.5 413.08  178.5 410  C 178.5 406.92  180.92 404.5  184 404.5  Z " stroke-width="1" stroke="#797979" fill="none" />
  <path d="M 184 413  C 182.32 413  181 411.68  181 410  C 181 408.32  182.32 407  184 407  C 185.68 407  187 408.32  187 410  C 187 411.68  185.68 413  184 413  " fill-rule="nonzero" fill="#797979" stroke="none" />
</svg>