<?xml version="1.0" encoding="utf-8"?>
<svg version="1.1" xmlns:xlink="http://www.w3.org/1999/xlink" width="10px" height="7px" xmlns="http://www.w3.org/2000/svg">
  <g transform="matrix(1 0 0 1 -621 -284 )">
    <path d="M 9.8997995991984 5.72508591065292  C 9.96659986639947 5.80526918671248  10 5.89747995418098  10 6.00171821305842  C 10 6.10595647193585  9.96659986639947 6.19816723940435  9.8997995991984 6.27835051546392  L 9.39879759519038 6.87972508591065  C 9.33199732798931 6.95990836197022  9.25517702070808 7  9.16833667334669 7  C 9.0814963259853 7  9.00467601870407 6.95990836197022  8.93787575150301 6.87972508591065  L 5 2.15292096219931  L 1.06212424849699 6.87972508591065  C 0.995323981295925 6.95990836197022  0.918503674014696 7  0.831663326653307 7  C 0.744822979291917 7  0.668002672010688 6.95990836197022  0.601202404809619 6.87972508591065  L 0.100200400801603 6.27835051546392  C 0.0334001336005345 6.19816723940435  0 6.10595647193585  0 6.00171821305842  C 0 5.89747995418098  0.0334001336005345 5.80526918671248  0.100200400801603 5.72508591065292  L 4.76953907815631 0.120274914089347  C 4.83633934535738 0.0400916380297814  4.91315965263861 0  5 0  C 5.08684034736139 0  5.16366065464262 0.0400916380297814  5.23046092184369 0.120274914089347  L 9.8997995991984 5.72508591065292  Z " fill-rule="nonzero" fill="#333333" stroke="none" transform="matrix(1 0 0 1 621 284 )" />
  </g>
</svg>