<?xml version="1.0" encoding="utf-8"?>
<svg version="1.1" xmlns:xlink="http://www.w3.org/1999/xlink" width="12px" height="12px" viewBox="270 197  12 12" xmlns="http://www.w3.org/2000/svg">
  <path d="M 276 197  C 279.36 197  282 199.64  282 203  C 282 206.36  279.36 209  276 209  C 272.64 209  270 206.36  270 203  C 270 199.64  272.64 197  276 197  Z " fill-rule="nonzero" fill="#f0f0f0" stroke="none" />
  <path d="M 276 197.5  C 279.08 197.5  281.5 199.92  281.5 203  C 281.5 206.08  279.08 208.5  276 208.5  C 272.92 208.5  270.5 206.08  270.5 203  C 270.5 199.92  272.92 197.5  276 197.5  Z " stroke-width="1" stroke="#797979" fill="none" />
  <path d="M 276 206  C 274.32 206  273 204.68  273 203  C 273 201.32  274.32 200  276 200  C 277.68 200  279 201.32  279 203  C 279 204.68  277.68 206  276 206  " fill-rule="nonzero" fill="#797979" stroke="none" />
</svg>