<?xml version="1.0" encoding="utf-8"?>
<svg version="1.1" xmlns:xlink="http://www.w3.org/1999/xlink" width="12px" height="12px" viewBox="160 148  12 12" xmlns="http://www.w3.org/2000/svg">
  <path d="M 166 148  C 169.36 148  172 150.64  172 154  C 172 157.36  169.36 160  166 160  C 162.64 160  160 157.36  160 154  C 160 150.64  162.64 148  166 148  Z " fill-rule="nonzero" fill="#ffffff" stroke="none" />
  <path d="M 166 148.5  C 169.08 148.5  171.5 150.92  171.5 154  C 171.5 157.08  169.08 159.5  166 159.5  C 162.92 159.5  160.5 157.08  160.5 154  C 160.5 150.92  162.92 148.5  166 148.5  Z " stroke-width="1" stroke="#797979" fill="none" />
  <path d="M 166 157  C 164.32 157  163 155.68  163 154  C 163 152.32  164.32 151  166 151  C 167.68 151  169 152.32  169 154  C 169 155.68  167.68 157  166 157  " fill-rule="nonzero" fill="#797979" stroke="none" />
</svg>