<?xml version="1.0" encoding="utf-8"?>
<svg version="1.1" xmlns:xlink="http://www.w3.org/1999/xlink" width="12px" height="12px" viewBox="401 197  12 12" xmlns="http://www.w3.org/2000/svg">
  <path d="M 407 197  C 410.36 197  413 199.64  413 203  C 413 206.36  410.36 209  407 209  C 403.64 209  401 206.36  401 203  C 401 199.64  403.64 197  407 197  Z " fill-rule="nonzero" fill="#f0f0f0" stroke="none" />
  <path d="M 407 197.5  C 410.08 197.5  412.5 199.92  412.5 203  C 412.5 206.08  410.08 208.5  407 208.5  C 403.92 208.5  401.5 206.08  401.5 203  C 401.5 199.92  403.92 197.5  407 197.5  Z " stroke-width="1" stroke="#797979" fill="none" />
  <path d="M 407 206  C 405.32 206  404 204.68  404 203  C 404 201.32  405.32 200  407 200  C 408.68 200  410 201.32  410 203  C 410 204.68  408.68 206  407 206  " fill-rule="nonzero" fill="#797979" stroke="none" />
</svg>