<?xml version="1.0" encoding="utf-8"?>
<svg version="1.1" xmlns:xlink="http://www.w3.org/1999/xlink" width="12px" height="12px" viewBox="401 148  12 12" xmlns="http://www.w3.org/2000/svg">
  <path d="M 407 148  C 410.36 148  413 150.64  413 154  C 413 157.36  410.36 160  407 160  C 403.64 160  401 157.36  401 154  C 401 150.64  403.64 148  407 148  Z " fill-rule="nonzero" fill="#f0f0f0" stroke="none" />
  <path d="M 407 148.5  C 410.08 148.5  412.5 150.92  412.5 154  C 412.5 157.08  410.08 159.5  407 159.5  C 403.92 159.5  401.5 157.08  401.5 154  C 401.5 150.92  403.92 148.5  407 148.5  Z " stroke-width="1" stroke="#797979" fill="none" />
  <path d="M 407 157  C 405.32 157  404 155.68  404 154  C 404 152.32  405.32 151  407 151  C 408.68 151  410 152.32  410 154  C 410 155.68  408.68 157  407 157  " fill-rule="nonzero" fill="#797979" stroke="none" />
</svg>