<?xml version="1.0" encoding="utf-8"?>
<svg version="1.1" xmlns:xlink="http://www.w3.org/1999/xlink" width="12px" height="12px" viewBox="162 378  12 12" xmlns="http://www.w3.org/2000/svg">
  <path d="M 168 378  C 171.36 378  174 380.64  174 384  C 174 387.36  171.36 390  168 390  C 164.64 390  162 387.36  162 384  C 162 380.64  164.64 378  168 378  Z " fill-rule="nonzero" fill="#f0f0f0" stroke="none" />
  <path d="M 168 378.5  C 171.08 378.5  173.5 380.92  173.5 384  C 173.5 387.08  171.08 389.5  168 389.5  C 164.92 389.5  162.5 387.08  162.5 384  C 162.5 380.92  164.92 378.5  168 378.5  Z " stroke-width="1" stroke="#797979" fill="none" />
  <path d="M 168 387  C 166.32 387  165 385.68  165 384  C 165 382.32  166.32 381  168 381  C 169.68 381  171 382.32  171 384  C 171 385.68  169.68 387  168 387  " fill-rule="nonzero" fill="#797979" stroke="none" />
</svg>