<?xml version="1.0" encoding="utf-8"?>
<svg version="1.1" xmlns:xlink="http://www.w3.org/1999/xlink" width="12px" height="12px" viewBox="288 378  12 12" xmlns="http://www.w3.org/2000/svg">
  <path d="M 294 378  C 297.36 378  300 380.64  300 384  C 300 387.36  297.36 390  294 390  C 290.64 390  288 387.36  288 384  C 288 380.64  290.64 378  294 378  Z " fill-rule="nonzero" fill="#ffffff" stroke="none" />
  <path d="M 294 378.5  C 297.08 378.5  299.5 380.92  299.5 384  C 299.5 387.08  297.08 389.5  294 389.5  C 290.92 389.5  288.5 387.08  288.5 384  C 288.5 380.92  290.92 378.5  294 378.5  Z " stroke-width="1" stroke="#797979" fill="none" />
  <path d="M 294 387  C 292.32 387  291 385.68  291 384  C 291 382.32  292.32 381  294 381  C 295.68 381  297 382.32  297 384  C 297 385.68  295.68 387  294 387  " fill-rule="nonzero" fill="#797979" stroke="none" />
</svg>