<?xml version="1.0" encoding="utf-8"?>
<svg version="1.1" xmlns:xlink="http://www.w3.org/1999/xlink" width="12px" height="12px" viewBox="162 336  12 12" xmlns="http://www.w3.org/2000/svg">
  <path d="M 168 336  C 171.36 336  174 338.64  174 342  C 174 345.36  171.36 348  168 348  C 164.64 348  162 345.36  162 342  C 162 338.64  164.64 336  168 336  Z " fill-rule="nonzero" fill="#f0f0f0" stroke="none" />
  <path d="M 168 336.5  C 171.08 336.5  173.5 338.92  173.5 342  C 173.5 345.08  171.08 347.5  168 347.5  C 164.92 347.5  162.5 345.08  162.5 342  C 162.5 338.92  164.92 336.5  168 336.5  Z " stroke-width="1" stroke="#797979" fill="none" />
  <path d="M 168 345  C 166.32 345  165 343.68  165 342  C 165 340.32  166.32 339  168 339  C 169.68 339  171 340.32  171 342  C 171 343.68  169.68 345  168 345  " fill-rule="nonzero" fill="#797979" stroke="none" />
</svg>