<?xml version="1.0" encoding="utf-8"?>
<svg version="1.1" xmlns:xlink="http://www.w3.org/1999/xlink" width="12px" height="12px" viewBox="288 380  12 12" xmlns="http://www.w3.org/2000/svg">
  <path d="M 294 380  C 297.36 380  300 382.64  300 386  C 300 389.36  297.36 392  294 392  C 290.64 392  288 389.36  288 386  C 288 382.64  290.64 380  294 380  Z " fill-rule="nonzero" fill="#ffffff" stroke="none" />
  <path d="M 294 380.5  C 297.08 380.5  299.5 382.92  299.5 386  C 299.5 389.08  297.08 391.5  294 391.5  C 290.92 391.5  288.5 389.08  288.5 386  C 288.5 382.92  290.92 380.5  294 380.5  Z " stroke-width="1" stroke="#797979" fill="none" />
  <path d="M 294 389  C 292.32 389  291 387.68  291 386  C 291 384.32  292.32 383  294 383  C 295.68 383  297 384.32  297 386  C 297 387.68  295.68 389  294 389  " fill-rule="nonzero" fill="#797979" stroke="none" />
</svg>