<?xml version="1.0" encoding="utf-8"?>
<svg version="1.1" xmlns:xlink="http://www.w3.org/1999/xlink" width="12px" height="12px" viewBox="288 336  12 12" xmlns="http://www.w3.org/2000/svg">
  <path d="M 294 336  C 297.36 336  300 338.64  300 342  C 300 345.36  297.36 348  294 348  C 290.64 348  288 345.36  288 342  C 288 338.64  290.64 336  294 336  Z " fill-rule="nonzero" fill="#f0f0f0" stroke="none" />
  <path d="M 294 336.5  C 297.08 336.5  299.5 338.92  299.5 342  C 299.5 345.08  297.08 347.5  294 347.5  C 290.92 347.5  288.5 345.08  288.5 342  C 288.5 338.92  290.92 336.5  294 336.5  Z " stroke-width="1" stroke="#797979" fill="none" />
  <path d="M 294 345  C 292.32 345  291 343.68  291 342  C 291 340.32  292.32 339  294 339  C 295.68 339  297 340.32  297 342  C 297 343.68  295.68 345  294 345  " fill-rule="nonzero" fill="#797979" stroke="none" />
</svg>