<?xml version="1.0" encoding="utf-8"?>
<svg version="1.1" xmlns:xlink="http://www.w3.org/1999/xlink" width="12px" height="12px" viewBox="401 209  12 12" xmlns="http://www.w3.org/2000/svg">
  <path d="M 407 209  C 410.36 209  413 211.64  413 215  C 413 218.36  410.36 221  407 221  C 403.64 221  401 218.36  401 215  C 401 211.64  403.64 209  407 209  Z " fill-rule="nonzero" fill="#ffffff" stroke="none" />
  <path d="M 407 209.5  C 410.08 209.5  412.5 211.92  412.5 215  C 412.5 218.08  410.08 220.5  407 220.5  C 403.92 220.5  401.5 218.08  401.5 215  C 401.5 211.92  403.92 209.5  407 209.5  Z " stroke-width="1" stroke="#797979" fill="none" />
  <path d="M 407 218  C 405.32 218  404 216.68  404 215  C 404 213.32  405.32 212  407 212  C 408.68 212  410 213.32  410 215  C 410 216.68  408.68 218  407 218  " fill-rule="nonzero" fill="#797979" stroke="none" />
</svg>