<?xml version="1.0" encoding="utf-8"?>
<svg version="1.1" xmlns:xlink="http://www.w3.org/1999/xlink" width="12px" height="12px" viewBox="162 380  12 12" xmlns="http://www.w3.org/2000/svg">
  <path d="M 168 380  C 171.36 380  174 382.64  174 386  C 174 389.36  171.36 392  168 392  C 164.64 392  162 389.36  162 386  C 162 382.64  164.64 380  168 380  Z " fill-rule="nonzero" fill="#ffffff" stroke="none" />
  <path d="M 168 380.5  C 171.08 380.5  173.5 382.92  173.5 386  C 173.5 389.08  171.08 391.5  168 391.5  C 164.92 391.5  162.5 389.08  162.5 386  C 162.5 382.92  164.92 380.5  168 380.5  Z " stroke-width="1" stroke="#797979" fill="none" />
  <path d="M 168 389  C 166.32 389  165 387.68  165 386  C 165 384.32  166.32 383  168 383  C 169.68 383  171 384.32  171 386  C 171 387.68  169.68 389  168 389  " fill-rule="nonzero" fill="#797979" stroke="none" />
</svg>