<?xml version="1.0" encoding="utf-8"?>
<svg version="1.1" xmlns:xlink="http://www.w3.org/1999/xlink" width="12px" height="12px" viewBox="270 209  12 12" xmlns="http://www.w3.org/2000/svg">
  <path d="M 276 209  C 279.36 209  282 211.64  282 215  C 282 218.36  279.36 221  276 221  C 272.64 221  270 218.36  270 215  C 270 211.64  272.64 209  276 209  Z " fill-rule="nonzero" fill="#ffffff" stroke="none" />
  <path d="M 276 209.5  C 279.08 209.5  281.5 211.92  281.5 215  C 281.5 218.08  279.08 220.5  276 220.5  C 272.92 220.5  270.5 218.08  270.5 215  C 270.5 211.92  272.92 209.5  276 209.5  Z " stroke-width="1" stroke="#797979" fill="none" />
  <path d="M 276 218  C 274.32 218  273 216.68  273 215  C 273 213.32  274.32 212  276 212  C 277.68 212  279 213.32  279 215  C 279 216.68  277.68 218  276 218  " fill-rule="nonzero" fill="#797979" stroke="none" />
</svg>