<?xml version="1.0" encoding="utf-8"?>
<svg version="1.1" xmlns:xlink="http://www.w3.org/1999/xlink" width="12px" height="12px" viewBox="160 209  12 12" xmlns="http://www.w3.org/2000/svg">
  <path d="M 166 209  C 169.36 209  172 211.64  172 215  C 172 218.36  169.36 221  166 221  C 162.64 221  160 218.36  160 215  C 160 211.64  162.64 209  166 209  Z " fill-rule="nonzero" fill="#f0f0f0" stroke="none" />
  <path d="M 166 209.5  C 169.08 209.5  171.5 211.92  171.5 215  C 171.5 218.08  169.08 220.5  166 220.5  C 162.92 220.5  160.5 218.08  160.5 215  C 160.5 211.92  162.92 209.5  166 209.5  Z " stroke-width="1" stroke="#797979" fill="none" />
  <path d="M 166 218  C 164.32 218  163 216.68  163 215  C 163 213.32  164.32 212  166 212  C 167.68 212  169 213.32  169 215  C 169 216.68  167.68 218  166 218  " fill-rule="nonzero" fill="#797979" stroke="none" />
</svg>