<?xml version="1.0" encoding="utf-8"?>
<svg version="1.1" xmlns:xlink="http://www.w3.org/1999/xlink" width="12px" height="12px" viewBox="288 332  12 12" xmlns="http://www.w3.org/2000/svg">
  <path d="M 294 332  C 297.36 332  300 334.64  300 338  C 300 341.36  297.36 344  294 344  C 290.64 344  288 341.36  288 338  C 288 334.64  290.64 332  294 332  Z " fill-rule="nonzero" fill="#f0f0f0" stroke="none" />
  <path d="M 294 332.5  C 297.08 332.5  299.5 334.92  299.5 338  C 299.5 341.08  297.08 343.5  294 343.5  C 290.92 343.5  288.5 341.08  288.5 338  C 288.5 334.92  290.92 332.5  294 332.5  Z " stroke-width="1" stroke="#797979" fill="none" />
  <path d="M 294 341  C 292.32 341  291 339.68  291 338  C 291 336.32  292.32 335  294 335  C 295.68 335  297 336.32  297 338  C 297 339.68  295.68 341  294 341  " fill-rule="nonzero" fill="#797979" stroke="none" />
</svg>