<?xml version="1.0" encoding="utf-8"?>
<svg version="1.1" xmlns:xlink="http://www.w3.org/1999/xlink" width="12px" height="12px" viewBox="270 148  12 12" xmlns="http://www.w3.org/2000/svg">
  <path d="M 276 148  C 279.36 148  282 150.64  282 154  C 282 157.36  279.36 160  276 160  C 272.64 160  270 157.36  270 154  C 270 150.64  272.64 148  276 148  Z " fill-rule="nonzero" fill="#ffffff" stroke="none" />
  <path d="M 276 148.5  C 279.08 148.5  281.5 150.92  281.5 154  C 281.5 157.08  279.08 159.5  276 159.5  C 272.92 159.5  270.5 157.08  270.5 154  C 270.5 150.92  272.92 148.5  276 148.5  Z " stroke-width="1" stroke="#797979" fill="none" />
  <path d="M 276 157  C 274.32 157  273 155.68  273 154  C 273 152.32  274.32 151  276 151  C 277.68 151  279 152.32  279 154  C 279 155.68  277.68 157  276 157  " fill-rule="nonzero" fill="#797979" stroke="none" />
</svg>