<?xml version="1.0" encoding="utf-8"?>
<svg version="1.1" xmlns:xlink="http://www.w3.org/1999/xlink" width="12px" height="12px" viewBox="160 197  12 12" xmlns="http://www.w3.org/2000/svg">
  <path d="M 166 197  C 169.36 197  172 199.64  172 203  C 172 206.36  169.36 209  166 209  C 162.64 209  160 206.36  160 203  C 160 199.64  162.64 197  166 197  Z " fill-rule="nonzero" fill="#f0f0f0" stroke="none" />
  <path d="M 166 197.5  C 169.08 197.5  171.5 199.92  171.5 203  C 171.5 206.08  169.08 208.5  166 208.5  C 162.92 208.5  160.5 206.08  160.5 203  C 160.5 199.92  162.92 197.5  166 197.5  Z " stroke-width="1" stroke="#797979" fill="none" />
  <path d="M 166 206  C 164.32 206  163 204.68  163 203  C 163 201.32  164.32 200  166 200  C 167.68 200  169 201.32  169 203  C 169 204.68  167.68 206  166 206  " fill-rule="nonzero" fill="#797979" stroke="none" />
</svg>