<?xml version="1.0" encoding="utf-8"?>
<svg version="1.1" xmlns:xlink="http://www.w3.org/1999/xlink" width="12px" height="12px" viewBox="325 339  12 12" xmlns="http://www.w3.org/2000/svg">
  <path d="M 331 339  C 334.36 339  337 341.64  337 345  C 337 348.36  334.36 351  331 351  C 327.64 351  325 348.36  325 345  C 325 341.64  327.64 339  331 339  Z " fill-rule="nonzero" fill="#f0f0f0" stroke="none" />
  <path d="M 331 339.5  C 334.08 339.5  336.5 341.92  336.5 345  C 336.5 348.08  334.08 350.5  331 350.5  C 327.92 350.5  325.5 348.08  325.5 345  C 325.5 341.92  327.92 339.5  331 339.5  Z " stroke-width="1" stroke="#797979" fill="none" />
  <path d="M 331 348  C 329.32 348  328 346.68  328 345  C 328 343.32  329.32 342  331 342  C 332.68 342  334 343.32  334 345  C 334 346.68  332.68 348  331 348  " fill-rule="nonzero" fill="#797979" stroke="none" />
</svg>