<?xml version="1.0" encoding="utf-8"?>
<svg version="1.1" xmlns:xlink="http://www.w3.org/1999/xlink" width="19px" height="23px" xmlns="http://www.w3.org/2000/svg">
  <g transform="matrix(1 0 0 1 -399 -666 )">
    <path d="M 10.9720052083333 19.0319010416667  C 11.0462239583333 18.9420572916667  11.0833333333333 18.8272569444444  11.0833333333333 18.6875  L 11.0833333333333 15.8125  C 11.0833333333333 15.6727430555556  11.0462239583333 15.5579427083333  10.9720052083333 15.4680989583333  C 10.8977864583333 15.3782552083333  10.8029513888889 15.3333333333333  10.6875 15.3333333333333  L 8.3125 15.3333333333333  C 8.19704861111111 15.3333333333333  8.10221354166667 15.3782552083333  8.02799479166667 15.4680989583333  C 7.95377604166667 15.5579427083333  7.91666666666667 15.6727430555556  7.91666666666667 15.8125  L 7.91666666666667 18.6875  C 7.91666666666667 18.8272569444444  7.95377604166667 18.9420572916667  8.02799479166667 19.0319010416667  C 8.10221354166667 19.1217447916667  8.19704861111111 19.1666666666667  8.3125 19.1666666666667  L 10.6875 19.1666666666667  C 10.8029513888889 19.1666666666667  10.8977864583333 19.1217447916667  10.9720052083333 19.0319010416667  Z M 14.0953776041667 9.837890625  C 14.1984592013889 9.46853298611111  14.25 9.06423611111111  14.25 8.625  C 14.25 7.74652777777778  14.0211588541667 6.93294270833333  13.5634765625 6.18424479166667  C 13.1057942708333 5.435546875  12.5347222222222 4.85655381944444  11.8502604166667 4.447265625  C 11.1657986111111 4.03797743055555  10.46484375 3.83333333333333  9.74739583333333 3.83333333333333  C 7.74348958333333 3.83333333333333  6.21375868055556 4.896484375  5.158203125 7.02278645833333  C 5.03450520833333 7.26236979166667  5.06749131944444 7.47200520833333  5.25716145833333 7.65169270833333  L 6.88997395833333 9.14908854166667  C 6.94769965277778 9.208984375  7.02604166666667 9.23893229166667  7.125 9.23893229166667  C 7.25694444444444 9.23893229166667  7.36002604166667 9.17903645833333  7.43424479166667 9.05924479166667  C 7.87131076388889 8.38042534722222  8.22591145833333 7.92122395833333  8.498046875 7.681640625  C 8.77842881944444 7.44205729166667  9.13302951388889 7.322265625  9.56184895833333 7.322265625  C 9.95768229166667 7.322265625  10.3102213541667 7.45203993055555  10.6194661458333 7.71158854166667  C 10.9287109375 7.97113715277778  11.0833333333333 8.265625  11.0833333333333 8.59505208333333  C 11.0833333333333 8.97439236111111  11.0008680555556 9.27886284722222  10.8359375 9.50846354166667  C 10.6710069444444 9.73806423611111  10.390625 9.96267361111111  9.99479166666667 10.1822916666667  C 9.47526041666667 10.4618055555556  8.9990234375 10.8935546875  8.56608072916667 11.4775390625  C 8.13313802083333 12.0615234375  7.91666666666667 12.6879340277778  7.91666666666667 13.3567708333333  L 7.91666666666667 13.8958333333333  C 7.91666666666667 14.0355902777778  7.95377604166667 14.150390625  8.02799479166667 14.240234375  C 8.10221354166667 14.330078125  8.19704861111111 14.375  8.3125 14.375  L 10.6875 14.375  C 10.8029513888889 14.375  10.8977864583333 14.330078125  10.9720052083333 14.240234375  C 11.0462239583333 14.150390625  11.0833333333333 14.0355902777778  11.0833333333333 13.8958333333333  C 11.0833333333333 13.7061631944444  11.1719835069444 13.4590928819444  11.3492838541667 13.1546223958333  C 11.5265842013889 12.8501519097222  11.7513020833333 12.6030815972222  12.0234375 12.4134114583333  C 12.2873263888889 12.2337239583333  12.4893663194444 12.0914713541667  12.6295572916667 11.9866536458333  C 12.7697482638889 11.8818359375  12.9594184027778 11.7071397569444  13.1985677083333 11.4625651041667  C 13.4377170138889 11.2179904513889  13.6212022569444 10.9784071180556  13.7490234375 10.7438151041667  C 13.8768446180556 10.5092230902778  13.9922960069444 10.2072482638889  14.0953776041667 9.837890625  Z M 17.7259114583333 5.7275390625  C 18.5753038194444 7.48947482638889  19 9.41362847222222  19 11.5  C 19 13.5863715277778  18.5753038194444 15.5105251736111  17.7259114583333 17.2724609375  C 16.8765190972222 19.0343967013889  15.7240668402778 20.4294704861111  14.2685546875 21.4576822916667  C 12.8130425347222 22.4858940972222  11.2235243055556 23  9.5 23  C 7.77647569444444 23  6.18695746527778 22.4858940972222  4.7314453125 21.4576822916667  C 3.27593315972222 20.4294704861111  2.12348090277778 19.0343967013889  1.27408854166667 17.2724609375  C 0.424696180555555 15.5105251736111  0 13.5863715277778  0 11.5  C 0 9.41362847222222  0.424696180555555 7.48947482638889  1.27408854166667 5.7275390625  C 2.12348090277778 3.96560329861111  3.27593315972222 2.57052951388889  4.7314453125 1.54231770833333  C 6.18695746527778 0.514105902777776  7.77647569444444 0  9.5 0  C 11.2235243055556 0  12.8130425347222 0.514105902777776  14.2685546875 1.54231770833333  C 15.7240668402778 2.57052951388889  16.8765190972222 3.96560329861111  17.7259114583333 5.7275390625  Z " fill-rule="nonzero" fill="#000000" stroke="none" transform="matrix(1 0 0 1 399 666 )" />
  </g>
</svg>