<?xml version="1.0" encoding="utf-8"?>
<svg version="1.1" xmlns:xlink="http://www.w3.org/1999/xlink" width="188px" height="51px" xmlns="http://www.w3.org/2000/svg">
  <defs>
    <mask fill="white" id="clip3">
      <path d="M 0 51  L 0 0  L 188 0  L 188 51  L 160.666666666667 51  L 36 51  L 0 51  Z " fill-rule="evenodd" />
    </mask>
  </defs>
  <g transform="matrix(1 0 0 1 -75 -122 )">
    <path d="M 0 51  L 0 0  L 188 0  L 188 51  L 160.666666666667 51  L 36 51  L 0 51  Z " fill-rule="nonzero" fill="#ffffff" stroke="none" transform="matrix(1 0 0 1 75 122 )" />
    <path d="M 0 51  L 0 0  L 188 0  L 188 51  L 160.666666666667 51  L 36 51  L 0 51  Z " stroke-width="2" stroke="#797979" fill="none" transform="matrix(1 0 0 1 75 122 )" mask="url(#clip3)" />
  </g>
</svg>