<?xml version="1.0" encoding="utf-8"?>
<svg version="1.1" xmlns:xlink="http://www.w3.org/1999/xlink" width="12px" height="12px" viewBox="61 176  12 12" xmlns="http://www.w3.org/2000/svg">
  <path d="M 67 176  C 70.36 176  73 178.64  73 182  C 73 185.36  70.36 188  67 188  C 63.64 188  61 185.36  61 182  C 61 178.64  63.64 176  67 176  Z " fill-rule="nonzero" fill="#ffffff" stroke="none" />
  <path d="M 67 176.5  C 70.08 176.5  72.5 178.92  72.5 182  C 72.5 185.08  70.08 187.5  67 187.5  C 63.92 187.5  61.5 185.08  61.5 182  C 61.5 178.92  63.92 176.5  67 176.5  Z " stroke-width="1" stroke="#797979" fill="none" />
  <path d="M 67 185  C 65.32 185  64 183.68  64 182  C 64 180.32  65.32 179  67 179  C 68.68 179  70 180.32  70 182  C 70 183.68  68.68 185  67 185  " fill-rule="nonzero" fill="#797979" stroke="none" />
</svg>