<?xml version="1.0" encoding="utf-8"?>
<svg version="1.1" xmlns:xlink="http://www.w3.org/1999/xlink" width="24px" height="15px" xmlns="http://www.w3.org/2000/svg">
  <g transform="matrix(1 0 0 1 -312 -258 )">
    <path d="M 24 7.5  C 24 11.6421328125  20.6421328125 15  16.5 15  C 16.5 15  7.5 15  7.5 15  C 3.35786718750001 15  0 11.6421328125  0 7.5  C 0 3.35786718750001  3.35786718750001 0  7.5 0  C 7.5 0  16.5 0  16.5 0  C 20.6421328125 0  24 3.35786718750001  24 7.5  Z M 7.5 13.5  C 7.5 13.5  16.5 13.5  16.5 13.5  C 19.8137109375 13.5  22.5 10.8137109375  22.5 7.5  C 22.5 4.18628906250001  19.8137109375 1.5  16.5 1.5  C 16.5 1.5  7.5 1.5  7.5 1.5  C 4.18628906250001 1.5  1.5 4.18628906250001  1.5 7.5  C 1.5 10.8137109375  4.18628906250001 13.5  7.5 13.5  Z M 16.5 11.25  C 16.5 11.25  7.5 11.25  7.5 11.25  C 5.42892187500001 11.25  3.75 9.57107812499999  3.75 7.5  C 3.75 5.42892187499999  5.42892187500001 3.75  7.5 3.75  C 7.5 3.75  16.5 3.75  16.5 3.75  C 18.571078125 3.75  20.25 5.42892187499999  20.25 7.5  C 20.25 9.57107812499999  18.571078125 11.25  16.5 11.25  Z M 18.75 7.5  C 18.75 6.25734374999999  17.74265625 5.25  16.5 5.25  C 16.5 5.25  7.5 5.25  7.5 5.25  C 6.25734375000002 5.25  5.25 6.25734374999999  5.25 7.5  C 5.25 8.74265625000001  6.25734375000002 9.75  7.5 9.75  C 7.5 9.75  16.5 9.75  16.5 9.75  C 17.74265625 9.75  18.75 8.74265625000001  18.75 7.5  Z " fill-rule="nonzero" fill="#5a5b5c" stroke="none" transform="matrix(1 0 0 1 312 258 )" />
  </g>
</svg>