<?xml version="1.0" encoding="utf-8"?>
<svg version="1.1" xmlns:xlink="http://www.w3.org/1999/xlink" width="16px" height="16px" xmlns="http://www.w3.org/2000/svg">
  <g transform="matrix(1 0 0 1 -431 -288 )">
    <path d="M 8 16  C 12.4177777777778 16  16 12.4177777777778  16 8  C 16 3.58222222222221  12.4177777777778 0  8 0  C 3.58222222222224 0  0 3.58222222222221  0 8  C 0 12.4177777777778  3.58222222222224 16  8 16  Z M 8.90488888888882 8.00000000000003  L 10.7146666666666 9.80977777777781  C 10.9635555555554 10.0586666666667  10.9635555555554 10.4657777777778  10.7146666666666 10.7146666666667  C 10.4657777777777 10.9635555555556  10.0586666666666 10.9635555555556  9.8097777777777 10.7146666666667  C 9.8097777777777 10.7146666666667  7.99999999999989 8.90488888888891  7.99999999999989 8.90488888888891  C 7.99999999999989 8.90488888888891  6.19022222222213 10.7146666666667  6.19022222222213 10.7146666666667  C 5.94133333333326 10.9635555555556  5.53422222222213 10.9635555555556  5.28533333333326 10.7146666666667  C 5.03644444444438 10.4657777777778  5.03644444444438 10.0586666666667  5.28533333333326 9.80977777777781  C 5.28533333333326 9.80977777777781  7.09511111111101 8.00000000000003  7.09511111111101 8.00000000000003  C 7.09511111111101 8.00000000000003  5.28533333333326 6.19022222222225  5.28533333333326 6.19022222222225  C 5.03644444444438 5.94133333333338  5.03644444444438 5.53422222222227  5.28533333333326 5.28533333333337  C 5.53422222222213 5.03644444444447  5.94133333333326 5.03644444444447  6.19022222222213 5.28533333333337  C 6.19022222222213 5.28533333333337  7.99999999999989 7.09511111111115  7.99999999999989 7.09511111111115  C 7.99999999999989 7.09511111111115  9.8097777777777 5.28533333333337  9.8097777777777 5.28533333333337  C 10.0586666666666 5.03644444444447  10.4657777777777 5.03644444444447  10.7146666666666 5.28533333333337  C 10.9635555555554 5.53422222222227  10.9635555555554 5.94133333333338  10.7146666666666 6.19022222222225  C 10.7146666666666 6.19022222222225  8.90488888888882 8.00000000000003  8.90488888888882 8.00000000000003  Z " fill-rule="nonzero" fill="#ffffff" stroke="none" transform="matrix(1 0 0 1 431 288 )" />
  </g>
</svg>