<?xml version="1.0" encoding="utf-8"?>
<svg version="1.1" xmlns:xlink="http://www.w3.org/1999/xlink" width="72px" height="36px" xmlns="http://www.w3.org/2000/svg">
  <g transform="matrix(1 0 0 1 -222 -28 )">
    <path d="M 36 36  C 55.875 36  72 27.93875  72 18  C 72 8.06125  55.875 0  36 0  C 16.125 0  0 8.06125  0 18  C 0 27.93875  16.125 36  36 36  Z M 36 6  C 51.4625 6  64 11.375  64 18  C 64 24.625  51.4625 30  36 30  C 20.5375 30  8 24.625  8 18  C 8 11.375  20.5375 6  36 6  Z " fill-rule="nonzero" fill="#ffffff" stroke="none" transform="matrix(1 0 0 1 222 28 )" />
  </g>
</svg>