<?xml version="1.0" encoding="utf-8"?>
<svg version="1.1" xmlns:xlink="http://www.w3.org/1999/xlink" width="72px" height="94px" xmlns="http://www.w3.org/2000/svg">
  <g transform="matrix(1 0 0 1 -222 -46 )">
    <path d="M 36 94  C 42.0751322481387 94  47 89.0751322481387  47 83  C 47 76.9248677518613  42.0751322481387 72  36 72  C 29.9248677518613 72  25 76.9248677518613  25 83  C 25 89.0751322481387  29.9248677518613 94  36 94  Z M 0 48  C 0 57.93875  16.125 66  36 66  C 55.875 66  72 57.93875  72 48  C 72 48  64 48  64 48  C 64 54.625  51.4625 60  36 60  C 20.5375 60  8 54.625  8 48  C 8 48  0 48  0 48  Z M 0 48  L 0 0  L 8 0  L 8 48  L 0 48  Z M 64 48  L 64 0  L 72 0  L 72 48  L 64 48  Z M 36 79  C 38.2091389993232 79  40 80.7908610006768  40 83  C 40 85.2091389993232  38.2091389993232 87  36 87  C 33.7908610006768 87  32 85.2091389993232  32 83  C 32 80.7908610006768  33.7908610006768 79  36 79  Z " fill-rule="nonzero" fill="#ffffff" stroke="none" transform="matrix(1 0 0 1 222 46 )" />
  </g>
</svg>