<?xml version="1.0" encoding="utf-8"?>
<svg version="1.1" xmlns:xlink="http://www.w3.org/1999/xlink" width="44px" height="14px" xmlns="http://www.w3.org/2000/svg">
  <g transform="matrix(1 0 0 1 -459 -255 )">
    <path d="M 20 0  L 20 14  L 18 14  L 18 0  L 20 0  Z M 0 14  L 0 0  L 2 0  L 2 14  L 0 14  Z M 6 14  L 6 0  L 8 0  L 8 14  L 6 14  Z M 12 0  L 14 0  L 14 14  L 12 14  L 12 0  Z M 24 14  L 24 0  L 26 0  L 26 14  L 24 14  Z M 30 0  L 32 0  L 32 14  L 30 14  L 30 0  Z M 38 0  L 38 14  L 36 14  L 36 0  L 38 0  Z M 44 14  L 42 14  L 42 0  L 44 0  L 44 14  Z M 18 14  L 20 14  L 20 0  L 18 0  L 18 14  Z " fill-rule="nonzero" fill="#6a6b6c" stroke="none" transform="matrix(1 0 0 1 459 255 )" />
  </g>
</svg>