<?xml version="1.0" encoding="utf-8"?>
<svg version="1.1" xmlns:xlink="http://www.w3.org/1999/xlink" width="12px" height="7px" xmlns="http://www.w3.org/2000/svg">
  <g transform="matrix(1 0 0 1 -244 -218 )">
    <path d="M 11.8343663589128 1.02710940210696  C 12.054818772941 0.792663923688892  12.054818772941 0.41027958723161  11.8367115973599 0.175834108813538  C 11.6174318025553 -0.0586113696045329  11.2597829393714 -0.0586113696045329  11.0405031445668 0.175834108813538  C 11.0405031445668 0.175834108813538  6.00058572173169 5.5643189550214  6.00058572173169 5.5643189550214  C 6.00058572173169 5.5643189550214  0.960668298896612 0.175834108813538  0.960668298896612 0.175834108813538  C 0.741388504092015 -0.0586113696045329  0.383739640908046 -0.0586113696045329  0.164459846103448 0.175834108813538  C -0.0548199487011494 0.410279587231609  -0.0548199487011494 0.792663923688891  0.164459846103448 1.02710940210696  C 0.164459846103448 1.02710940210696  5.58665113581713 6.82430668662654  5.58665113581713 6.82430668662654  C 5.70039520050187 6.94591744281132  5.85049046111678 7.00358852306389  5.99941310250814 6.99982736565611  C 6.1483357438995 7.00358852306389  6.29960362373796 6.94591744281132  6.41217506919914 6.82430668662654  C 6.41217506919914 6.82430668662654  11.8343663589128 1.02710940210696  11.8343663589128 1.02710940210696  Z " fill-rule="nonzero" fill="#f1f2f3" stroke="none" transform="matrix(1 0 0 1 244 218 )" />
  </g>
</svg>