<?xml version="1.0" encoding="utf-8"?>
<svg version="1.1" xmlns:xlink="http://www.w3.org/1999/xlink" width="12px" height="12px" viewBox="535 834  12 12" xmlns="http://www.w3.org/2000/svg">
  <path d="M 541 834  C 544.36 834  547 836.64  547 840  C 547 843.36  544.36 846  541 846  C 537.64 846  535 843.36  535 840  C 535 836.64  537.64 834  541 834  Z " fill-rule="nonzero" fill="#ffffff" stroke="none" />
  <path d="M 541 834.5  C 544.08 834.5  546.5 836.92  546.5 840  C 546.5 843.08  544.08 845.5  541 845.5  C 537.92 845.5  535.5 843.08  535.5 840  C 535.5 836.92  537.92 834.5  541 834.5  Z " stroke-width="1" stroke="#797979" fill="none" />
  <path d="M 541 843  C 539.32 843  538 841.68  538 840  C 538 838.32  539.32 837  541 837  C 542.68 837  544 838.32  544 840  C 544 841.68  542.68 843  541 843  " fill-rule="nonzero" fill="#797979" stroke="none" />
</svg>