<?xml version="1.0" encoding="utf-8"?>
<svg version="1.1" xmlns:xlink="http://www.w3.org/1999/xlink" width="12px" height="12px" viewBox="698 834  12 12" xmlns="http://www.w3.org/2000/svg">
  <path d="M 704 834  C 707.36 834  710 836.64  710 840  C 710 843.36  707.36 846  704 846  C 700.64 846  698 843.36  698 840  C 698 836.64  700.64 834  704 834  Z " fill-rule="nonzero" fill="#ffffff" stroke="none" />
  <path d="M 704 834.5  C 707.08 834.5  709.5 836.92  709.5 840  C 709.5 843.08  707.08 845.5  704 845.5  C 700.92 845.5  698.5 843.08  698.5 840  C 698.5 836.92  700.92 834.5  704 834.5  Z " stroke-width="1" stroke="#797979" fill="none" />
  <path d="M 704 843  C 702.32 843  701 841.68  701 840  C 701 838.32  702.32 837  704 837  C 705.68 837  707 838.32  707 840  C 707 841.68  705.68 843  704 843  " fill-rule="nonzero" fill="#797979" stroke="none" />
</svg>