<?xml version="1.0" encoding="utf-8"?>
<svg version="1.1" xmlns:xlink="http://www.w3.org/1999/xlink" width="12px" height="12px" viewBox="697 767  12 12" xmlns="http://www.w3.org/2000/svg">
  <path d="M 703 767  C 706.36 767  709 769.64  709 773  C 709 776.36  706.36 779  703 779  C 699.64 779  697 776.36  697 773  C 697 769.64  699.64 767  703 767  Z " fill-rule="nonzero" fill="#ffffff" stroke="none" />
  <path d="M 703 767.5  C 706.08 767.5  708.5 769.92  708.5 773  C 708.5 776.08  706.08 778.5  703 778.5  C 699.92 778.5  697.5 776.08  697.5 773  C 697.5 769.92  699.92 767.5  703 767.5  Z " stroke-width="1" stroke="#797979" fill="none" />
  <path d="M 703 776  C 701.32 776  700 774.68  700 773  C 700 771.32  701.32 770  703 770  C 704.68 770  706 771.32  706 773  C 706 774.68  704.68 776  703 776  " fill-rule="nonzero" fill="#797979" stroke="none" />
</svg>