<?xml version="1.0" encoding="utf-8"?>
<svg version="1.1" xmlns:xlink="http://www.w3.org/1999/xlink" width="12px" height="12px" viewBox="534 845  12 12" xmlns="http://www.w3.org/2000/svg">
  <path d="M 540 845  C 543.36 845  546 847.64  546 851  C 546 854.36  543.36 857  540 857  C 536.64 857  534 854.36  534 851  C 534 847.64  536.64 845  540 845  Z " fill-rule="nonzero" fill="#f0f0f0" stroke="none" />
  <path d="M 540 845.5  C 543.08 845.5  545.5 847.92  545.5 851  C 545.5 854.08  543.08 856.5  540 856.5  C 536.92 856.5  534.5 854.08  534.5 851  C 534.5 847.92  536.92 845.5  540 845.5  Z " stroke-width="1" stroke="#797979" fill="none" />
  <path d="M 540 854  C 538.32 854  537 852.68  537 851  C 537 849.32  538.32 848  540 848  C 541.68 848  543 849.32  543 851  C 543 852.68  541.68 854  540 854  " fill-rule="nonzero" fill="#797979" stroke="none" />
</svg>