<?xml version="1.0" encoding="utf-8"?>
<svg version="1.1" xmlns:xlink="http://www.w3.org/1999/xlink" width="12px" height="12px" viewBox="534 767  12 12" xmlns="http://www.w3.org/2000/svg">
  <path d="M 540 767  C 543.36 767  546 769.64  546 773  C 546 776.36  543.36 779  540 779  C 536.64 779  534 776.36  534 773  C 534 769.64  536.64 767  540 767  Z " fill-rule="nonzero" fill="#f0f0f0" stroke="none" />
  <path d="M 540 767.5  C 543.08 767.5  545.5 769.92  545.5 773  C 545.5 776.08  543.08 778.5  540 778.5  C 536.92 778.5  534.5 776.08  534.5 773  C 534.5 769.92  536.92 767.5  540 767.5  Z " stroke-width="1" stroke="#797979" fill="none" />
  <path d="M 540 776  C 538.32 776  537 774.68  537 773  C 537 771.32  538.32 770  540 770  C 541.68 770  543 771.32  543 773  C 543 774.68  541.68 776  540 776  " fill-rule="nonzero" fill="#797979" stroke="none" />
</svg>