<?xml version="1.0" encoding="utf-8"?>
<svg version="1.1" xmlns:xlink="http://www.w3.org/1999/xlink" width="25px" height="18px" xmlns="http://www.w3.org/2000/svg">
  <g transform="matrix(1 0 0 1 -42 0 )">
    <path d="M 54.5 0  C 61.5 0  67 3.96  67 9  C 67 14.04  61.5 18  54.5 18  C 47.5 18  42 14.04  42 9  C 42 3.96  47.5 0  54.5 0  Z " fill-rule="nonzero" fill="#ffffff" stroke="none" />
    <path d="M 54.5 0.5  C 61.22 0.5  66.5 4.24  66.5 9  C 66.5 13.76  61.22 17.5  54.5 17.5  C 47.78 17.5  42.5 13.76  42.5 9  C 42.5 4.24  47.78 0.5  54.5 0.5  Z " stroke-width="1" stroke="#169bd5" fill="none" />
  </g>
</svg>