<?xml version="1.0" encoding="utf-8"?>
<svg version="1.1" xmlns:xlink="http://www.w3.org/1999/xlink" width="21px" height="15px" xmlns="http://www.w3.org/2000/svg">
  <g transform="matrix(1 0 0 1 -18 0 )">
    <path d="M 28.5 0  C 34.38 0  39 3.3  39 7.5  C 39 11.7  34.38 15  28.5 15  C 22.62 15  18 11.7  18 7.5  C 18 3.3  22.62 0  28.5 0  Z " fill-rule="nonzero" fill="#ffffff" stroke="none" />
    <path d="M 28.5 0.5  C 34.1 0.5  38.5 3.58  38.5 7.5  C 38.5 11.42  34.1 14.5  28.5 14.5  C 22.9 14.5  18.5 11.42  18.5 7.5  C 18.5 3.58  22.9 0.5  28.5 0.5  Z " stroke-width="1" stroke="#8c8c8c" fill="none" />
  </g>
</svg>