<?xml version="1.0" encoding="utf-8"?>
<svg version="1.1" xmlns:xlink="http://www.w3.org/1999/xlink" width="27px" height="24px" xmlns="http://www.w3.org/2000/svg">
  <defs>
    <filter x="361px" y="120px" width="27px" height="24px" filterUnits="userSpaceOnUse" id="filter12">
      <feOffset dx="1" dy="1" in="SourceAlpha" result="shadowOffsetInner" />
      <feGaussianBlur stdDeviation="2.5" in="shadowOffsetInner" result="shadowGaussian" />
      <feComposite in2="shadowGaussian" operator="atop" in="SourceAlpha" result="shadowComposite" />
      <feColorMatrix type="matrix" values="0 0 0 0 0  0 0 0 0 0  0 0 0 0 0  0 0 0 0.698039215686274 0  " in="shadowComposite" />
    </filter>
    <g id="widget13">
      <path d="M 373.5 124  C 378.26 124  382 127.08  382 131  C 382 134.92  378.26 138  373.5 138  C 368.74 138  365 134.92  365 131  C 365 127.08  368.74 124  373.5 124  Z " fill-rule="nonzero" fill="#00d97e" stroke="none" />
      <path d="M 373.5 124.5  C 377.98 124.5  381.5 127.36  381.5 131  C 381.5 134.64  377.98 137.5  373.5 137.5  C 369.02 137.5  365.5 134.64  365.5 131  C 365.5 127.36  369.02 124.5  373.5 124.5  Z " stroke-width="1" stroke="#ffffff" fill="none" />
    </g>
  </defs>
  <g transform="matrix(1 0 0 1 -361 -120 )">
    <use xlink:href="#widget13" filter="url(#filter12)" />
    <use xlink:href="#widget13" />
  </g>
</svg>