<?xml version="1.0" encoding="utf-8"?>
<svg version="1.1" xmlns:xlink="http://www.w3.org/1999/xlink" width="45px" height="40px" xmlns="http://www.w3.org/2000/svg">
  <defs>
    <path d="M 0 0  L 1024 0  L 1024 1024  L 0 1024  Z " fill-rule="evenodd" fill="black" id="path247" />
    <clipPath id="clip248">
      <use xlink:href="#path247" />
    </clipPath>
    <defs>
      <style type="text/css"></style>
    </defs>
    <path d="M194.74 471.86C212.93 326.93 328 211.92 472.87 193.72v-81c-189.59 18.81-340.33 169.54-359.16 359.14zM553.13 193.72c144.92 18.2 259.94 133.21 278.13 278.14h81c-18.8-189.6-169.54-340.33-359.13-359.16zM472.87 830.25C328 812.05 212.93 697 194.74 552.12h-81c18.83 189.59 169.57 340.32 359.16 359.16zM831.26 552.12C813.07 697 698.05 812.05 553.13 830.25v81c189.59-18.84 340.33-169.57 359.16-359.16z" fill="#13227a" p-id="2671"></path>
    <path d="M83.299767 139.052228m26.664997-26.664996l3.422397-3.422397q26.664997-26.664997 53.329993 0l87.129698 87.129697q26.664997 26.664997 0 53.329994l-3.422397 3.422397q-26.664997 26.664997-53.329994 0l-87.129697-87.129698q-26.664997-26.664997 0-53.329993Z" fill="#13227a" p-id="2672"></path>
    <path d="M140.066178 941.686112m-26.664997-26.664997l-3.422396-3.422397q-26.664997-26.664997 0-53.329993l87.129697-87.129698q26.664997-26.664997 53.329994 0l3.422396 3.422397q26.664997 26.664997 0 53.329993l-87.129697 87.129698q-26.664997 26.664997-53.329994 0Z" fill="#13227a" p-id="2673"></path>
    <path d="M942.691576 884.927357m-26.664997 26.664997l-3.422396 3.422397q-26.664997 26.664997-53.329994 0l-87.129697-87.129698q-26.664997-26.664997 0-53.329993l3.422396-3.422397q26.664997-26.664997 53.329994 0l87.129697 87.129698q26.664997 26.664997 0 53.329993Z" fill="#13227a" p-id="2674"></path>
    <path d="M885.932943 82.293666m26.664997 26.664997l3.422397 3.422397q26.664997 26.664997 0 53.329993l-87.129698 87.129698q-26.664997 26.664997-53.329993 0l-3.422397-3.422397q-26.664997-26.664997 0-53.329993l87.129698-87.129698q26.664997-26.664997 53.329993 0Z" fill="#13227a" p-id="2675"></path>
    <path d="M513 511.99m-160.53 0a160.53 160.53 0 1 0 321.06 0 160.53 160.53 0 1 0-321.06 0Z" fill="#13227a" p-id="2676"></path>
    <filter x="-50.00%" y="-50.00%" width="200.00%" height="200.00%" filterUnits="objectBoundingBox" id="filter249">
      <feColorMatrix type="matrix" values="1 0 0 0 0  0 1 0 0 0  0 0 1 0 0  0 0 0 1 0  " in="SourceGraphic" />
    </filter>
  </defs>
  <g transform="matrix(1 0 0 1 -32 -75 )">
    <g transform="matrix(0.0390625 0 0 0.0390625 34.5 75 )" clip-path="url(#clip248)" filter="url(#filter249)">
      <path d="M194.74 471.86C212.93 326.93 328 211.92 472.87 193.72v-81c-189.59 18.81-340.33 169.54-359.16 359.14zM553.13 193.72c144.92 18.2 259.94 133.21 278.13 278.14h81c-18.8-189.6-169.54-340.33-359.13-359.16zM472.87 830.25C328 812.05 212.93 697 194.74 552.12h-81c18.83 189.59 169.57 340.32 359.16 359.16zM831.26 552.12C813.07 697 698.05 812.05 553.13 830.25v81c189.59-18.84 340.33-169.57 359.16-359.16z" fill="#13227a" p-id="2671"></path>
      <path d="M83.299767 139.052228m26.664997-26.664996l3.422397-3.422397q26.664997-26.664997 53.329993 0l87.129698 87.129697q26.664997 26.664997 0 53.329994l-3.422397 3.422397q-26.664997 26.664997-53.329994 0l-87.129697-87.129698q-26.664997-26.664997 0-53.329993Z" fill="#13227a" p-id="2672"></path>
      <path d="M140.066178 941.686112m-26.664997-26.664997l-3.422396-3.422397q-26.664997-26.664997 0-53.329993l87.129697-87.129698q26.664997-26.664997 53.329994 0l3.422396 3.422397q26.664997 26.664997 0 53.329993l-87.129697 87.129698q-26.664997 26.664997-53.329994 0Z" fill="#13227a" p-id="2673"></path>
      <path d="M942.691576 884.927357m-26.664997 26.664997l-3.422396 3.422397q-26.664997 26.664997-53.329994 0l-87.129697-87.129698q-26.664997-26.664997 0-53.329993l3.422396-3.422397q26.664997-26.664997 53.329994 0l87.129697 87.129698q26.664997 26.664997 0 53.329993Z" fill="#13227a" p-id="2674"></path>
      <path d="M885.932943 82.293666m26.664997 26.664997l3.422397 3.422397q26.664997 26.664997 0 53.329993l-87.129698 87.129698q-26.664997 26.664997-53.329993 0l-3.422397-3.422397q-26.664997-26.664997 0-53.329993l87.129698-87.129698q26.664997-26.664997 53.329993 0Z" fill="#13227a" p-id="2675"></path>
      <path d="M513 511.99m-160.53 0a160.53 160.53 0 1 0 321.06 0 160.53 160.53 0 1 0-321.06 0Z" fill="#13227a" p-id="2676"></path>
    </g>
  </g>
</svg>