<?xml version="1.0" encoding="utf-8"?>
<svg version="1.1" xmlns:xlink="http://www.w3.org/1999/xlink" width="26px" height="24px" xmlns="http://www.w3.org/2000/svg">
  <defs>
    <filter x="43px" y="120px" width="26px" height="24px" filterUnits="userSpaceOnUse" id="filter28">
      <feOffset dx="1" dy="1" in="SourceAlpha" result="shadowOffsetInner" />
      <feGaussianBlur stdDeviation="2.5" in="shadowOffsetInner" result="shadowGaussian" />
      <feComposite in2="shadowGaussian" operator="atop" in="SourceAlpha" result="shadowComposite" />
      <feColorMatrix type="matrix" values="0 0 0 0 0  0 0 0 0 0  0 0 0 0 0  0 0 0 0.698039215686274 0  " in="shadowComposite" />
    </filter>
    <g id="widget29">
      <path d="M 55 124  C 59.48 124  63 127.08  63 131  C 63 134.92  59.48 138  55 138  C 50.52 138  47 134.92  47 131  C 47 127.08  50.52 124  55 124  Z " fill-rule="nonzero" fill="#00d97e" stroke="none" />
      <path d="M 55 124.5  C 59.2 124.5  62.5 127.36  62.5 131  C 62.5 134.64  59.2 137.5  55 137.5  C 50.8 137.5  47.5 134.64  47.5 131  C 47.5 127.36  50.8 124.5  55 124.5  Z " stroke-width="1" stroke="#ffffff" fill="none" />
    </g>
  </defs>
  <g transform="matrix(1 0 0 1 -43 -120 )">
    <use xlink:href="#widget29" filter="url(#filter28)" />
    <use xlink:href="#widget29" />
  </g>
</svg>