<?xml version="1.0" encoding="utf-8"?>
<svg version="1.1" xmlns:xlink="http://www.w3.org/1999/xlink" width="22px" height="31px" xmlns="http://www.w3.org/2000/svg">
  <g transform="matrix(1 0 0 1 -1340 -502 )">
    <path d="M 21.505859375 18.2750651041667  C 21.5965711805556 18.4028862847222  21.6419270833333 18.5542534722222  21.6419270833333 18.7291666666667  C 21.6419270833333 18.7964409722222  21.6371527777778 18.8435329861111  21.6276041666667 18.8704427083333  C 21.0164930555556 22.4763454861111  19.7369791666667 25.3994140625  17.7890625 27.6396484375  C 15.8411458333333 29.8798828125  13.5590277777778 31  10.9427083333333 31  C 9.54861111111111 31  8.19986979166667 30.6299913194444  6.896484375 29.8899739583333  C 5.59309895833333 29.1499565972222  4.43055555555556 28.09375  3.40885416666667 26.7213541666667  L 1.56119791666667 29.3248697916667  C 1.37977430555556 29.5805121527778  1.16493055555556 29.7083333333333  0.916666666666667 29.7083333333333  C 0.668402777777778 29.7083333333333  0.453559027777778 29.5805121527778  0.272135416666667 29.3248697916667  C 0.0907118055555556 29.0692274305556  0 28.7664930555556  0 28.4166666666667  L 0 19.375  C 0 19.0251736111111  0.0907118055555556 18.7224392361111  0.272135416666667 18.466796875  C 0.453559027777778 18.2111545138889  0.668402777777778 18.0833333333333  0.916666666666667 18.0833333333333  L 7.33333333333333 18.0833333333333  C 7.58159722222222 18.0833333333333  7.79644097222222 18.2111545138889  7.97786458333333 18.466796875  C 8.15928819444445 18.7224392361111  8.25 19.0251736111111  8.25 19.375  C 8.25 19.7248263888889  8.15928819444445 20.0275607638889  7.97786458333333 20.283203125  L 6.015625 23.0481770833333  C 6.69357638888889 23.9361979166667  7.46223958333333 24.6223958333333  8.32161458333333 25.1067708333333  C 9.18098958333333 25.5911458333333  10.0737847222222 25.8333333333333  11 25.8333333333333  C 12.2795138888889 25.8333333333333  13.4730902777778 25.3960503472222  14.5807291666667 24.521484375  C 15.6883680555556 23.6469184027778  16.5763888888889 22.4427083333333  17.2447916666667 20.9088541666667  C 17.3498263888889 20.6801215277778  17.6028645833333 19.8930121527778  18.00390625 18.5475260416667  C 18.0802951388889 18.2380642361111  18.2235243055556 18.0833333333333  18.43359375 18.0833333333333  L 21.18359375 18.0833333333333  C 21.3077256944444 18.0833333333333  21.4151475694444 18.1472439236111  21.505859375 18.2750651041667  Z M 21.7278645833333 1.67513020833333  C 21.9092881944444 1.93077256944444  22 2.23350694444444  22 2.58333333333333  L 22 11.625  C 22 11.9748263888889  21.9092881944444 12.2775607638889  21.7278645833333 12.533203125  C 21.5464409722222 12.7888454861111  21.3315972222222 12.9166666666667  21.0833333333333 12.9166666666667  L 14.6666666666667 12.9166666666667  C 14.4184027777778 12.9166666666667  14.2035590277778 12.7888454861111  14.0221354166667 12.533203125  C 13.8407118055556 12.2775607638889  13.75 11.9748263888889  13.75 11.625  C 13.75 11.2751736111111  13.8407118055556 10.9724392361111  14.0221354166667 10.716796875  L 15.9986979166667 7.931640625  C 14.5855034722222 6.08832465277777  12.9192708333333 5.16666666666667  11 5.16666666666667  C 9.72048611111111 5.16666666666667  8.52690972222222 5.60394965277777  7.41927083333333 6.478515625  C 6.31163194444445 7.35308159722222  5.42361111111111 8.55729166666667  4.75520833333333 10.0911458333333  C 4.65017361111111 10.3198784722222  4.39713541666667 11.1069878472222  3.99609375 12.4524739583333  C 3.91970486111111 12.7619357638889  3.77647569444445 12.9166666666667  3.56640625 12.9166666666667  L 0.716145833333333 12.9166666666667  C 0.592013888888889 12.9166666666667  0.484592013888889 12.8527560763889  0.393880208333333 12.7249348958333  C 0.303168402777778 12.5971137152778  0.2578125 12.4457465277778  0.2578125 12.2708333333333  L 0.2578125 12.1295572916667  C 0.878472222222222 8.52365451388889  2.16753472222222 5.6005859375  4.125 3.3603515625  C 6.08246527777778 1.1201171875  8.37413194444445 0  11 0  C 12.3940972222222 0  13.75 0.373372395833334  15.0677083333333 1.1201171875  C 16.3854166666667 1.86686197916667  17.5551215277778 2.91970486111111  18.5768229166667 4.27864583333333  L 20.4388020833333 1.67513020833333  C 20.6202256944444 1.41948784722222  20.8350694444444 1.29166666666667  21.0833333333333 1.29166666666667  C 21.3315972222222 1.29166666666667  21.5464409722222 1.41948784722222  21.7278645833333 1.67513020833333  Z " fill-rule="nonzero" fill="#000000" stroke="none" transform="matrix(1 0 0 1 1340 502 )" />
  </g>
</svg>