<?xml version="1.0" encoding="utf-8"?>
<svg version="1.1" xmlns:xlink="http://www.w3.org/1999/xlink" width="13px" height="11px" xmlns="http://www.w3.org/2000/svg">
  <g transform="matrix(1 0 0 1 -499 -377 )">
    <path d="M 1.8671875 8.29218749999999  C 1.83124999999973 8.42499999999999  1.91093749999982 8.56249999999999  2.04374999999982 8.59843749999999  L 2.87031249999973 8.41249999999999  C 2.87031249999973 8.41249999999999  3.73906249999982 5.17031249999999  3.73906249999982 5.17031249999999  C 3.77500000000009 5.03749999999999  3.6953125 4.89999999999999  3.5625 4.86406249999999  C 3.5625 4.86406249999999  3.07968750000009 4.73437499999999  3.07968750000009 4.73437499999999  C 2.94687500000009 4.69843749999999  2.80937499999982 4.77812499999999  2.7734375 4.91093749999999  C 2.7734375 4.91093749999999  1.8671875 8.29218749999999  1.8671875 8.29218749999999  Z M 10.1061875 1.796234375  L 9.39909375000025 2.503328125  L 7.96279687500009 1.06703125  L 8.66989062499988 0.359937500000001  L 10.1061875 1.796234375  Z M 12.5 9.75  C 12.5 9.75  12.5 10.25  12.5 10.25  C 12.5 10.3875  12.3874999999998 10.5  12.25 10.5  C 12.25 10.5  0.25 10.5  0.25 10.5  C 0.112500000000182 10.5  0 10.3875  0 10.25  C 0 10.25  0 9.75  0 9.75  C 0 9.6125  0.112500000000182 9.5  0.25 9.5  C 0.25 9.5  12.25 9.5  12.25 9.5  C 12.3874999999998 9.5  12.5 9.6125  12.5 9.75  Z " fill-rule="nonzero" fill="#aaabac" stroke="none" transform="matrix(1 0 0 1 499 377 )" />
  </g>
</svg>