<?xml version="1.0" standalone="no"?><!DOCTYPE svg PUBLIC "-//W3C//DTD SVG 1.1//EN" "http://www.w3.org/Graphics/SVG/1.1/DTD/svg11.dtd"><svg t="1614138568126" class="icon" viewBox="0 0 1024 1024" version="1.1" xmlns="http://www.w3.org/2000/svg" p-id="10393" xmlns:xlink="http://www.w3.org/1999/xlink" width="200" height="200"><defs><style type="text/css"></style></defs><path d="M1008 589.5H16c-8.8 0-16 5.8-16 12.8v230.4c0 7 7.2 12.8 16 12.8h992c8.8 0 16-5.8 16-12.8V602.3c0-7-7.2-12.8-16-12.8zM128 750H64v-64h64v64z m128 0h-64v-64h64v64z m128 0h-64v-64h64v64z m576-1H576v-64h384v64zM865 263.1c-5-9-7.2-16-16-16l-675-2c-8.8 0-12 6-16 16L1 533.1l-0.1 9.7c2.2-5 8.1-8.7 15.1-8.7h992c8.8 0 16 5.8 16 12.8v-13.8l-159-270z" p-id="10394" fill="#1296db"></path></svg>