<?xml version="1.0" encoding="utf-8"?>
<svg version="1.1" xmlns:xlink="http://www.w3.org/1999/xlink" width="33px" height="22px" xmlns="http://www.w3.org/2000/svg">
  <g transform="matrix(1 0 0 1 -821 -452 )">
    <path d="M 837.5 452  C 846.74 452  854 456.84  854 463  C 854 469.16  846.74 474  837.5 474  C 828.26 474  821 469.16  821 463  C 821 456.84  828.26 452  837.5 452  Z " fill-rule="nonzero" fill="#ffffff" stroke="none" />
    <path d="M 837.5 452.5  C 846.46 452.5  853.5 457.12  853.5 463  C 853.5 468.88  846.46 473.5  837.5 473.5  C 828.54 473.5  821.5 468.88  821.5 463  C 821.5 457.12  828.54 452.5  837.5 452.5  Z " stroke-width="1" stroke="#797979" fill="none" />
  </g>
</svg>