<?xml version="1.0" encoding="utf-8"?>
<svg version="1.1" xmlns:xlink="http://www.w3.org/1999/xlink" width="16px" height="14px" xmlns="http://www.w3.org/2000/svg">
  <g transform="matrix(1 0 0 1 -750 -686 )">
    <path d="M 9.07291666666667 9.56119791666667  C 9.13541666666667 9.61588541666667  9.16666666666667 9.68576388888889  9.16666666666667 9.77083333333333  L 9.16666666666667 11.2291666666667  C 9.16666666666667 11.3142361111111  9.13541666666667 11.3841145833333  9.07291666666667 11.4388020833333  C 9.01041666666667 11.4934895833333  8.93055555555556 11.5208333333333  8.83333333333333 11.5208333333333  L 7.16666666666667 11.5208333333333  C 7.06944444444445 11.5208333333333  6.98958333333333 11.4934895833333  6.92708333333333 11.4388020833333  C 6.86458333333333 11.3841145833333  6.83333333333333 11.3142361111111  6.83333333333333 11.2291666666667  L 6.83333333333333 9.77083333333333  C 6.83333333333333 9.68576388888889  6.86458333333333 9.61588541666667  6.92708333333333 9.56119791666667  C 6.98958333333333 9.50651041666667  7.06944444444445 9.47916666666667  7.16666666666667 9.47916666666667  L 8.83333333333333 9.47916666666667  C 8.93055555555556 9.47916666666667  9.01041666666667 9.50651041666667  9.07291666666667 9.56119791666667  Z M 10.6927083333333 3.294921875  C 11.453125 3.83875868055555  11.8333333333333 4.49045138888889  11.8333333333333 5.25  C 11.8333333333333 5.55381944444444  11.78125 5.82725694444444  11.6770833333333 6.0703125  C 11.5729166666667 6.31336805555555  11.4149305555556 6.52300347222222  11.203125 6.69921875  C 10.9913194444444 6.87543402777778  10.8107638888889 7.00911458333333  10.6614583333333 7.10026041666667  C 10.5121527777778 7.19140625  10.3055555555556 7.30078125  10.0416666666667 7.42838541666667  C 9.81944444444444 7.53776041666667  9.65798611111111 7.62282986111111  9.55729166666667 7.68359375  C 9.45659722222222 7.74435763888889  9.36631944444444 7.81727430555556  9.28645833333333 7.90234375  C 9.20659722222222 7.98741319444444  9.16666666666667 8.07552083333333  9.16666666666667 8.16666666666667  L 9.16666666666667 8.45833333333333  C 9.16666666666667 8.54340277777778  9.13541666666667 8.61328125  9.07291666666667 8.66796875  C 9.01041666666667 8.72265625  8.93055555555556 8.75  8.83333333333333 8.75  L 7.16666666666667 8.75  C 7.06944444444445 8.75  6.98958333333333 8.72265625  6.92708333333333 8.66796875  C 6.86458333333333 8.61328125  6.83333333333333 8.54340277777778  6.83333333333333 8.45833333333333  L 6.83333333333333 7.83854166666667  C 6.83333333333333 7.62586805555556  6.86979166666667 7.42990451388889  6.94270833333333 7.25065104166667  C 7.015625 7.07139756944444  7.09895833333333 6.92708333333333  7.19270833333333 6.81770833333333  C 7.28645833333333 6.70833333333333  7.421875 6.60047743055555  7.59895833333333 6.494140625  C 7.77604166666667 6.38780381944444  7.91840277777778 6.31032986111111  8.02604166666667 6.26171875  C 8.13368055555556 6.21310763888889  8.28819444444444 6.14930555555555  8.48958333333333 6.0703125  C 8.85763888888889 5.91840277777778  9.11805555555556 5.78776041666667  9.27083333333333 5.67838541666667  C 9.42361111111111 5.56901041666667  9.5 5.42013888888889  9.5 5.23177083333333  C 9.5 4.9765625  9.34895833333333 4.75933159722222  9.046875 4.580078125  C 8.74479166666667 4.40082465277778  8.41319444444444 4.31119791666667  8.05208333333333 4.31119791666667  C 7.66319444444445 4.31119791666667  7.33333333333333 4.39322916666667  7.0625 4.55729166666667  C 6.86111111111111 4.67881944444444  6.58333333333333 4.93098958333333  6.22916666666667 5.31380208333333  C 6.16666666666667 5.38671875  6.07986111111111 5.42317708333333  5.96875 5.42317708333333  C 5.89236111111111 5.42317708333333  5.82638888888889 5.40494791666667  5.77083333333333 5.36848958333333  L 4.64583333333333 4.62109375  C 4.57638888888889 4.57855902777778  4.53472222222222 4.51779513888889  4.52083333333333 4.43880208333333  C 4.50694444444445 4.35980902777778  4.52430555555556 4.28993055555555  4.57291666666667 4.22916666666667  C 5.42013888888889 3.0625  6.63194444444445 2.47916666666667  8.20833333333333 2.47916666666667  C 9.10416666666667 2.47916666666667  9.93229166666667 2.75108506944444  10.6927083333333 3.294921875  Z M 10.5885416666667 1.63151041666667  C 9.765625 1.32161458333333  8.90277777777778 1.16666666666667  8 1.16666666666667  C 7.09722222222222 1.16666666666667  6.234375 1.32161458333333  5.41145833333333 1.63151041666667  C 4.58854166666667 1.94140625  3.88020833333333 2.35611979166667  3.28645833333333 2.87565104166667  C 2.69270833333333 3.39518229166667  2.21875 4.01497395833333  1.86458333333333 4.73502604166667  C 1.51041666666667 5.455078125  1.33333333333333 6.21006944444444  1.33333333333333 7  C 1.33333333333333 7.78993055555556  1.51041666666667 8.544921875  1.86458333333333 9.26497395833333  C 2.21875 9.98502604166667  2.69270833333333 10.6048177083333  3.28645833333333 11.1243489583333  C 3.88020833333333 11.6438802083333  4.58854166666667 12.05859375  5.41145833333333 12.3684895833333  C 6.234375 12.6783854166667  7.09722222222222 12.8333333333333  8 12.8333333333333  C 8.90277777777778 12.8333333333333  9.765625 12.6783854166667  10.5885416666667 12.3684895833333  C 11.4114583333333 12.05859375  12.1197916666667 11.6438802083333  12.7135416666667 11.1243489583333  C 13.3072916666667 10.6048177083333  13.78125 9.98502604166667  14.1354166666667 9.26497395833333  C 14.4895833333333 8.544921875  14.6666666666667 7.78993055555556  14.6666666666667 7  C 14.6666666666667 6.21006944444444  14.4895833333333 5.455078125  14.1354166666667 4.73502604166667  C 13.78125 4.01497395833333  13.3072916666667 3.39518229166667  12.7135416666667 2.87565104166667  C 12.1197916666667 2.35611979166667  11.4114583333333 1.94140625  10.5885416666667 1.63151041666667  Z M 14.9270833333333 3.486328125  C 15.6423611111111 4.55881076388889  16 5.73003472222222  16 7  C 16 8.26996527777778  15.6423611111111 9.44118923611111  14.9270833333333 10.513671875  C 14.2118055555556 11.5861545138889  13.2413194444444 12.4353298611111  12.015625 13.0611979166667  C 10.7899305555556 13.6870659722222  9.45138888888889 14  8 14  C 6.54861111111111 14  5.21006944444444 13.6870659722222  3.984375 13.0611979166667  C 2.75868055555556 12.4353298611111  1.78819444444444 11.5861545138889  1.07291666666667 10.513671875  C 0.357638888888889 9.44118923611111  0 8.26996527777778  0 7  C 0 5.73003472222222  0.357638888888889 4.55881076388889  1.07291666666667 3.486328125  C 1.78819444444444 2.41384548611111  2.75868055555556 1.56467013888889  3.984375 0.938802083333333  C 5.21006944444444 0.312934027777777  6.54861111111111 0  8 0  C 9.45138888888889 0  10.7899305555556 0.312934027777777  12.015625 0.938802083333333  C 13.2413194444444 1.56467013888889  14.2118055555556 2.41384548611111  14.9270833333333 3.486328125  Z " fill-rule="nonzero" fill="#000000" stroke="none" transform="matrix(1 0 0 1 750 686 )" />
  </g>
</svg>