<?xml version="1.0" encoding="utf-8"?>
<svg version="1.1" xmlns:xlink="http://www.w3.org/1999/xlink" width="35px" height="29px" xmlns="http://www.w3.org/2000/svg">
  <g transform="matrix(1 0 0 1 -539 -239 )">
    <path d="M 34.3039772727273 11.1221590909091  C 34.7679924242424 11.5066287878788  35 11.9734848484848  35 12.5227272727273  L 35 16.4772727272727  C 35 17.0265151515152  34.7679924242424 17.4933712121212  34.3039772727273 17.8778409090909  C 33.8399621212121 18.2623106060606  33.2765151515152 18.4545454545455  32.6136363636364 18  L 22.2727272727273 18  L 22.2727272727273 27.0227272727273  C 22.2727272727273 27.5719696969697  22.0407196969697 28.0388257575758  21.5767045454545 28.4232954545455  C 21.1126893939394 28.8077651515152  20.5492424242424 29  19.8863636363636 29  L 15.1136363636364 29  C 14.4507575757576 29  13.8873106060606 28.8077651515152  13.4232954545455 28.4232954545455  C 12.9592803030303 28.0388257575758  12.7272727272727 27.5719696969697  12.7272727272727 27.0227272727273  L 12.7272727272727 18  L 2.38636363636364 18  C 1.72348484848485 18.4545454545455  1.16003787878788 18.2623106060606  0.696022727272727 17.8778409090909  C 0.232007575757576 17.4933712121212  0 17.0265151515152  0 16.4772727272727  L 0 12.5227272727273  C 0 11.9734848484848  0.232007575757576 11.5066287878788  0.696022727272727 11.1221590909091  C 1.16003787878788 10.7376893939394  1.72348484848485 10.5454545454545  2.38636363636364 11  L 12.7272727272727 11  L 12.7272727272727 1.97727272727273  C 12.7272727272727 1.4280303030303  12.9592803030303 0.961174242424241  13.4232954545455 0.576704545454546  C 13.8873106060606 0.192234848484848  14.4507575757576 0  15.1136363636364 0  L 19.8863636363636 0  C 20.5492424242424 0  21.1126893939394 0.192234848484848  21.5767045454545 0.576704545454546  C 22.0407196969697 0.961174242424241  22.2727272727273 1.4280303030303  22.2727272727273 1.97727272727273  L 22.2727272727273 11  L 32.6136363636364 11  C 33.2765151515152 10.5454545454545  33.8399621212121 10.7376893939394  34.3039772727273 11.1221590909091  Z " fill-rule="nonzero" fill="#000000" stroke="none" transform="matrix(1 0 0 1 539 239 )" />
  </g>
</svg>