<?xml version="1.0" encoding="utf-8"?>
<svg version="1.1" xmlns:xlink="http://www.w3.org/1999/xlink" width="69px" height="64px" xmlns="http://www.w3.org/2000/svg">
  <defs>
    <path d="M 0 0  L 1024 0  L 1024 1024  L 0 1024  Z " fill-rule="evenodd" fill="black" id="path436" />
    <clipPath id="clip437">
      <use xlink:href="#path436" />
    </clipPath>
    <defs>
      <style type="text/css"></style>
    </defs>
    <path d="M1008 589.5H16c-8.8 0-16 5.8-16 12.8v230.4c0 7 7.2 12.8 16 12.8h992c8.8 0 16-5.8 16-12.8V602.3c0-7-7.2-12.8-16-12.8zM128 750H64v-64h64v64z m128 0h-64v-64h64v64z m128 0h-64v-64h64v64z m576-1H576v-64h384v64zM865 263.1c-5-9-7.2-16-16-16l-675-2c-8.8 0-12 6-16 16L1 533.1l-0.1 9.7c2.2-5 8.1-8.7 15.1-8.7h992c8.8 0 16 5.8 16 12.8v-13.8l-159-270z" p-id="10394" fill="#1296db"></path>
    <filter x="-50.00%" y="-50.00%" width="200.00%" height="200.00%" filterUnits="objectBoundingBox" id="filter438">
      <feColorMatrix type="matrix" values="1 0 0 0 0  0 1 0 0 0  0 0 1 0 0  0 0 0 1 0  " in="SourceGraphic" />
    </filter>
  </defs>
  <g transform="matrix(1 0 0 1 -723 -67 )">
    <g transform="matrix(0.0625 0 0 0.0625 725.5 67 )" clip-path="url(#clip437)" filter="url(#filter438)">
      <path d="M1008 589.5H16c-8.8 0-16 5.8-16 12.8v230.4c0 7 7.2 12.8 16 12.8h992c8.8 0 16-5.8 16-12.8V602.3c0-7-7.2-12.8-16-12.8zM128 750H64v-64h64v64z m128 0h-64v-64h64v64z m128 0h-64v-64h64v64z m576-1H576v-64h384v64zM865 263.1c-5-9-7.2-16-16-16l-675-2c-8.8 0-12 6-16 16L1 533.1l-0.1 9.7c2.2-5 8.1-8.7 15.1-8.7h992c8.8 0 16 5.8 16 12.8v-13.8l-159-270z" p-id="10394" fill="#1296db"></path>
    </g>
  </g>
</svg>