<?xml version="1.0" encoding="utf-8"?>
<svg version="1.1" xmlns:xlink="http://www.w3.org/1999/xlink" width="39px" height="36px" xmlns="http://www.w3.org/2000/svg">
  <defs>
    <path d="M 0 0  L 1024 0  L 1024 1024  L 0 1024  Z " fill-rule="evenodd" fill="black" id="path382" />
    <clipPath id="clip383">
      <use xlink:href="#path382" />
    </clipPath>
    <defs>
      <style type="text/css"></style>
    </defs>
    <path d="M32.8 1023.2c-8.2 0-16.4-3.1-22.6-9.4-12.5-12.5-12.5-32.8 0-45.3L394 584.7c12.5-12.5 32.8-12.5 45.3 0s12.5 32.8 0 45.3L55.4 1013.8c-6.2 6.3-14.4 9.4-22.6 9.4zM734.4 961.4c-8.2 0-16.4-3.1-22.6-9.4-12.5-12.5-12.5-32.8 0-45.3L968.6 650c12.5-12.5 32.8-12.5 45.3 0s12.5 32.8 0 45.3L757 952c-6.2 6.3-14.4 9.4-22.6 9.4zM94.6 321.6c-8.2 0-16.4-3.1-22.6-9.4-12.5-12.5-12.5-32.8 0-45.3L328.8 10.2c12.5-12.5 32.8-12.5 45.3 0s12.5 32.8 0 45.3L117.2 312.2c-6.2 6.3-14.4 9.4-22.6 9.4z" p-id="1969" fill="#13227a"></path>
    <path d="M607.8 831.7c-8.2 0-16.4-3.1-22.6-9.4L201 438.2c-6-6-9.4-14.1-9.4-22.6S195 399 201 393l256.1-256.1c12.5-12.5 32.8-12.5 45.3 0L886.6 521c6 6 9.4 14.1 9.4 22.6s-3.4 16.6-9.4 22.6L630.4 822.4c-6.2 6.2-14.4 9.3-22.6 9.3zM268.9 415.6l338.9 338.9 210.9-210.9-338.9-338.9-210.9 210.9z" p-id="1970" fill="#13227a"></path>
    <filter x="-50.00%" y="-50.00%" width="200.00%" height="200.00%" filterUnits="objectBoundingBox" id="filter384">
      <feColorMatrix type="matrix" values="1 0 0 0 0  0 1 0 0 0  0 0 1 0 0  0 0 0 1 0  " in="SourceGraphic" />
    </filter>
  </defs>
  <g transform="matrix(1 0 0 1 -317 -38 )">
    <g transform="matrix(0.03515625 0 0 0.03515625 318.5 38 )" clip-path="url(#clip383)" filter="url(#filter384)">
      <path d="M32.8 1023.2c-8.2 0-16.4-3.1-22.6-9.4-12.5-12.5-12.5-32.8 0-45.3L394 584.7c12.5-12.5 32.8-12.5 45.3 0s12.5 32.8 0 45.3L55.4 1013.8c-6.2 6.3-14.4 9.4-22.6 9.4zM734.4 961.4c-8.2 0-16.4-3.1-22.6-9.4-12.5-12.5-12.5-32.8 0-45.3L968.6 650c12.5-12.5 32.8-12.5 45.3 0s12.5 32.8 0 45.3L757 952c-6.2 6.3-14.4 9.4-22.6 9.4zM94.6 321.6c-8.2 0-16.4-3.1-22.6-9.4-12.5-12.5-12.5-32.8 0-45.3L328.8 10.2c12.5-12.5 32.8-12.5 45.3 0s12.5 32.8 0 45.3L117.2 312.2c-6.2 6.3-14.4 9.4-22.6 9.4z" p-id="1969" fill="#13227a"></path>
      <path d="M607.8 831.7c-8.2 0-16.4-3.1-22.6-9.4L201 438.2c-6-6-9.4-14.1-9.4-22.6S195 399 201 393l256.1-256.1c12.5-12.5 32.8-12.5 45.3 0L886.6 521c6 6 9.4 14.1 9.4 22.6s-3.4 16.6-9.4 22.6L630.4 822.4c-6.2 6.2-14.4 9.3-22.6 9.3zM268.9 415.6l338.9 338.9 210.9-210.9-338.9-338.9-210.9 210.9z" p-id="1970" fill="#13227a"></path>
    </g>
  </g>
</svg>