<?xml version="1.0" encoding="utf-8"?>
<svg version="1.1" xmlns:xlink="http://www.w3.org/1999/xlink" width="22px" height="24px" xmlns="http://www.w3.org/2000/svg">
  <g transform="matrix(1 0 0 1 -1354 -935 )">
    <path d="M 21.505859375 14.1484375  C 21.5965711805556 14.2473958333333  21.6419270833333 14.3645833333333  21.6419270833333 14.5  C 21.6419270833333 14.5520833333333  21.6371527777778 14.5885416666667  21.6276041666667 14.609375  C 21.0164930555556 17.4010416666667  19.7369791666667 19.6640625  17.7890625 21.3984375  C 15.8411458333333 23.1328125  13.5590277777778 24  10.9427083333333 24  C 9.54861111111111 24  8.19986979166667 23.7135416666667  6.896484375 23.140625  C 5.59309895833333 22.5677083333333  4.43055555555556 21.75  3.40885416666667 20.6875  L 1.56119791666667 22.703125  C 1.37977430555556 22.9010416666667  1.16493055555556 23  0.916666666666667 23  C 0.668402777777778 23  0.453559027777778 22.9010416666667  0.272135416666667 22.703125  C 0.0907118055555556 22.5052083333333  0 22.2708333333333  0 22  L 0 15  C 0 14.7291666666667  0.0907118055555556 14.4947916666667  0.272135416666667 14.296875  C 0.453559027777778 14.0989583333333  0.668402777777778 14  0.916666666666667 14  L 7.33333333333333 14  C 7.58159722222222 14  7.79644097222222 14.0989583333333  7.97786458333333 14.296875  C 8.15928819444445 14.4947916666667  8.25 14.7291666666667  8.25 15  C 8.25 15.2708333333333  8.15928819444445 15.5052083333333  7.97786458333333 15.703125  L 6.015625 17.84375  C 6.69357638888889 18.53125  7.46223958333333 19.0625  8.32161458333333 19.4375  C 9.18098958333333 19.8125  10.0737847222222 20  11 20  C 12.2795138888889 20  13.4730902777778 19.6614583333333  14.5807291666667 18.984375  C 15.6883680555556 18.3072916666667  16.5763888888889 17.375  17.2447916666667 16.1875  C 17.3498263888889 16.0104166666667  17.6028645833333 15.4010416666667  18.00390625 14.359375  C 18.0802951388889 14.1197916666667  18.2235243055556 14  18.43359375 14  L 21.18359375 14  C 21.3077256944444 14  21.4151475694444 14.0494791666667  21.505859375 14.1484375  Z M 21.7278645833333 1.296875  C 21.9092881944444 1.49479166666667  22 1.72916666666667  22 2  L 22 9  C 22 9.27083333333333  21.9092881944444 9.50520833333333  21.7278645833333 9.703125  C 21.5464409722222 9.90104166666667  21.3315972222222 10  21.0833333333333 10  L 14.6666666666667 10  C 14.4184027777778 10  14.2035590277778 9.90104166666667  14.0221354166667 9.703125  C 13.8407118055556 9.50520833333333  13.75 9.27083333333333  13.75 9  C 13.75 8.72916666666666  13.8407118055556 8.49479166666666  14.0221354166667 8.296875  L 15.9986979166667 6.140625  C 14.5855034722222 4.71354166666666  12.9192708333333 4  11 4  C 9.72048611111111 4  8.52690972222222 4.33854166666666  7.41927083333333 5.015625  C 6.31163194444445 5.69270833333333  5.42361111111111 6.625  4.75520833333333 7.8125  C 4.65017361111111 7.98958333333333  4.39713541666667 8.59895833333333  3.99609375 9.640625  C 3.91970486111111 9.88020833333333  3.77647569444445 10  3.56640625 10  L 0.716145833333333 10  C 0.592013888888889 10  0.484592013888889 9.95052083333333  0.393880208333333 9.8515625  C 0.303168402777778 9.75260416666667  0.2578125 9.63541666666667  0.2578125 9.5  L 0.2578125 9.390625  C 0.878472222222222 6.59895833333333  2.16753472222222 4.3359375  4.125 2.6015625  C 6.08246527777778 0.8671875  8.37413194444445 0  11 0  C 12.3940972222222 0  13.75 0.289062500000001  15.0677083333333 0.8671875  C 16.3854166666667 1.4453125  17.5551215277778 2.26041666666666  18.5768229166667 3.3125  L 20.4388020833333 1.296875  C 20.6202256944444 1.09895833333333  20.8350694444444 0.999999999999999  21.0833333333333 0.999999999999999  C 21.3315972222222 0.999999999999999  21.5464409722222 1.09895833333333  21.7278645833333 1.296875  Z " fill-rule="nonzero" fill="#000000" stroke="none" transform="matrix(1 0 0 1 1354 935 )" />
  </g>
</svg>