<?xml version="1.0" encoding="utf-8"?>
<svg version="1.1" xmlns:xlink="http://www.w3.org/1999/xlink" width="22px" height="23px" xmlns="http://www.w3.org/2000/svg">
  <g transform="matrix(1 0 0 1 -1354 -1262 )">
    <path d="M 21.505859375 13.5589192708333  C 21.5965711805556 13.6537543402778  21.6419270833333 13.7660590277778  21.6419270833333 13.8958333333333  C 21.6419270833333 13.9457465277778  21.6371527777778 13.9806857638889  21.6276041666667 14.0006510416667  C 21.0164930555556 16.6759982638889  19.7369791666667 18.8447265625  17.7890625 20.5068359375  C 15.8411458333333 22.1689453125  13.5590277777778 23  10.9427083333333 23  C 9.54861111111111 23  8.19986979166667 22.7254774305556  6.896484375 22.1764322916667  C 5.59309895833333 21.6273871527778  4.43055555555556 20.84375  3.40885416666667 19.8255208333333  L 1.56119791666667 21.7571614583333  C 1.37977430555556 21.9468315972222  1.16493055555556 22.0416666666667  0.916666666666667 22.0416666666667  C 0.668402777777778 22.0416666666667  0.453559027777778 21.9468315972222  0.272135416666667 21.7571614583333  C 0.0907118055555556 21.5674913194444  0 21.3428819444444  0 21.0833333333333  L 0 14.375  C 0 14.1154513888889  0.0907118055555556 13.8908420138889  0.272135416666667 13.701171875  C 0.453559027777778 13.5115017361111  0.668402777777778 13.4166666666667  0.916666666666667 13.4166666666667  L 7.33333333333333 13.4166666666667  C 7.58159722222222 13.4166666666667  7.79644097222222 13.5115017361111  7.97786458333333 13.701171875  C 8.15928819444445 13.8908420138889  8.25 14.1154513888889  8.25 14.375  C 8.25 14.6345486111111  8.15928819444445 14.8591579861111  7.97786458333333 15.048828125  L 6.015625 17.1002604166667  C 6.69357638888889 17.7591145833333  7.46223958333333 18.2682291666667  8.32161458333333 18.6276041666667  C 9.18098958333333 18.9869791666667  10.0737847222222 19.1666666666667  11 19.1666666666667  C 12.2795138888889 19.1666666666667  13.4730902777778 18.8422309027778  14.5807291666667 18.193359375  C 15.6883680555556 17.5444878472222  16.5763888888889 16.6510416666667  17.2447916666667 15.5130208333333  C 17.3498263888889 15.3433159722222  17.6028645833333 14.7593315972222  18.00390625 13.7610677083333  C 18.0802951388889 13.5314670138889  18.2235243055556 13.4166666666667  18.43359375 13.4166666666667  L 21.18359375 13.4166666666667  C 21.3077256944444 13.4166666666667  21.4151475694444 13.4640842013889  21.505859375 13.5589192708333  Z M 21.7278645833333 1.24283854166667  C 21.9092881944444 1.43250868055555  22 1.65711805555555  22 1.91666666666667  L 22 8.625  C 22 8.88454861111111  21.9092881944444 9.10915798611111  21.7278645833333 9.298828125  C 21.5464409722222 9.48849826388889  21.3315972222222 9.58333333333333  21.0833333333333 9.58333333333333  L 14.6666666666667 9.58333333333333  C 14.4184027777778 9.58333333333333  14.2035590277778 9.48849826388889  14.0221354166667 9.298828125  C 13.8407118055556 9.10915798611111  13.75 8.88454861111111  13.75 8.625  C 13.75 8.36545138888889  13.8407118055556 8.14084201388889  14.0221354166667 7.951171875  L 15.9986979166667 5.884765625  C 14.5855034722222 4.51714409722222  12.9192708333333 3.83333333333333  11 3.83333333333333  C 9.72048611111111 3.83333333333333  8.52690972222222 4.15776909722222  7.41927083333333 4.806640625  C 6.31163194444445 5.45551215277778  5.42361111111111 6.34895833333333  4.75520833333333 7.48697916666667  C 4.65017361111111 7.65668402777778  4.39713541666667 8.24066840277778  3.99609375 9.23893229166667  C 3.91970486111111 9.46853298611111  3.77647569444445 9.58333333333333  3.56640625 9.58333333333333  L 0.716145833333333 9.58333333333333  C 0.592013888888889 9.58333333333333  0.484592013888889 9.53591579861111  0.393880208333333 9.44108072916667  C 0.303168402777778 9.34624565972222  0.2578125 9.23394097222222  0.2578125 9.10416666666667  L 0.2578125 8.99934895833333  C 0.878472222222222 6.32400173611111  2.16753472222222 4.1552734375  4.125 2.4931640625  C 6.08246527777778 0.8310546875  8.37413194444445 0  11 0  C 12.3940972222222 0  13.75 0.277018229166668  15.0677083333333 0.8310546875  C 16.3854166666667 1.38509114583333  17.5551215277778 2.16623263888889  18.5768229166667 3.17447916666667  L 20.4388020833333 1.24283854166667  C 20.6202256944444 1.05316840277778  20.8350694444444 0.958333333333332  21.0833333333333 0.958333333333332  C 21.3315972222222 0.958333333333332  21.5464409722222 1.05316840277778  21.7278645833333 1.24283854166667  Z " fill-rule="nonzero" fill="#000000" stroke="none" transform="matrix(1 0 0 1 1354 1262 )" />
  </g>
</svg>