<?xml version="1.0" encoding="utf-8"?>
<svg version="1.1" xmlns:xlink="http://www.w3.org/1999/xlink" width="22px" height="19px" xmlns="http://www.w3.org/2000/svg">
  <g transform="matrix(1 0 0 1 -252 -406 )">
    <path d="M 21.5142663043478 7.61585365853659  C 21.8380887681159 7.92073170731707  22 8.28861788617886  22 8.71951219512195  L 22 10.280487804878  C 22 10.7113821138211  21.8380887681159 11.0792682926829  21.5142663043478 11.3841463414634  C 21.1904438405797 11.6890243902439  20.7694746376812 11.8414634146341  20.2513586956522 11.8414634146341  L 9.72961956521739 11.8414634146341  L 14.1086956521739 15.4268292682927  C 14.4873188405797 15.719512195122  14.6766304347826 16.0853658536585  14.6766304347826 16.5243902439024  C 14.6766304347826 16.9634146341463  14.4873188405797 17.3292682926829  14.1086956521739 17.6219512195122  L 12.9877717391304 18.5487804878049  C 12.6191123188406 18.849593495935  12.1707427536232 19  11.6426630434783 19  C 11.1245471014493 19  10.6711956521739 18.849593495935  10.2826086956522 18.5487804878049  L 0.552989130434783 10.5975609756098  C 0.184329710144928 10.2967479674797  0 9.93089430894309  0 9.5  C 0 9.07723577235772  0.184329710144928 8.70731707317073  0.552989130434783 8.39024390243902  L 10.2826086956522 0.463414634146342  C 10.661231884058 0.154471544715446  11.1145833333333 0  11.6426630434783 0  C 12.1607789855072 0  12.6091485507246 0.154471544715446  12.9877717391304 0.463414634146342  L 14.1086956521739 1.36585365853659  C 14.4873188405797 1.67479674796748  14.6766304347826 2.04471544715447  14.6766304347826 2.47560975609756  C 14.6766304347826 2.90650406504065  14.4873188405797 3.27642276422764  14.1086956521739 3.58536585365854  L 9.72961956521739 7.15853658536585  L 20.2513586956522 7.15853658536585  C 20.7694746376812 7.15853658536585  21.1904438405797 7.3109756097561  21.5142663043478 7.61585365853659  Z " fill-rule="nonzero" fill="#000000" stroke="none" transform="matrix(1 0 0 1 252 406 )" />
  </g>
</svg>