<?xml version="1.0" encoding="utf-8"?>
<svg version="1.1" xmlns:xlink="http://www.w3.org/1999/xlink" width="17px" height="16px" xmlns="http://www.w3.org/2000/svg">
  <g transform="matrix(1 0 0 1 -491 -298 )">
    <path d="M 13.248046875 9.13541666666667  C 13.3882378472222 9.00347222222222  13.4583333333333 8.84722222222222  13.4583333333333 8.66666666666667  L 13.4583333333333 7.33333333333333  C 13.4583333333333 7.15277777777778  13.3882378472222 6.99652777777778  13.248046875 6.86458333333333  C 13.1078559027778 6.73263888888889  12.9418402777778 6.66666666666667  12.75 6.66666666666667  L 9.91666666666667 6.66666666666667  L 9.91666666666667 4  C 9.91666666666667 3.81944444444444  9.84657118055556 3.66319444444444  9.70638020833333 3.53125  C 9.56618923611111 3.39930555555556  9.40017361111111 3.33333333333333  9.20833333333333 3.33333333333333  L 7.79166666666667 3.33333333333333  C 7.59982638888889 3.33333333333333  7.43381076388889 3.39930555555556  7.29361979166667 3.53125  C 7.15342881944444 3.66319444444444  7.08333333333333 3.81944444444444  7.08333333333333 4  L 7.08333333333333 6.66666666666667  L 4.25 6.66666666666667  C 4.05815972222222 6.66666666666667  3.89214409722222 6.73263888888889  3.751953125 6.86458333333333  C 3.61176215277778 6.99652777777778  3.54166666666667 7.15277777777778  3.54166666666667 7.33333333333333  L 3.54166666666667 8.66666666666667  C 3.54166666666667 8.84722222222222  3.61176215277778 9.00347222222222  3.751953125 9.13541666666667  C 3.89214409722222 9.26736111111111  4.05815972222222 9.33333333333333  4.25 9.33333333333333  L 7.08333333333333 9.33333333333333  L 7.08333333333333 12  C 7.08333333333333 12.1805555555556  7.15342881944444 12.3368055555556  7.29361979166667 12.46875  C 7.43381076388889 12.6006944444444  7.59982638888889 12.6666666666667  7.79166666666667 12.6666666666667  L 9.20833333333333 12.6666666666667  C 9.40017361111111 12.6666666666667  9.56618923611111 12.6006944444444  9.70638020833333 12.46875  C 9.84657118055556 12.3368055555556  9.91666666666667 12.1805555555556  9.91666666666667 12  L 9.91666666666667 9.33333333333333  L 12.75 9.33333333333333  C 12.9418402777778 9.33333333333333  13.1078559027778 9.26736111111111  13.248046875 9.13541666666667  Z M 15.8600260416667 3.984375  C 16.6200086805556 5.21006944444444  17 6.54861111111111  17 8  C 17 9.45138888888889  16.6200086805556 10.7899305555556  15.8600260416667 12.015625  C 15.1000434027778 13.2413194444444  14.0689019097222 14.2118055555556  12.7666015625 14.9270833333333  C 11.4643012152778 15.6423611111111  10.0421006944444 16  8.5 16  C 6.95789930555556 16  5.53569878472222 15.6423611111111  4.2333984375 14.9270833333333  C 2.93109809027778 14.2118055555556  1.89995659722222 13.2413194444444  1.13997395833333 12.015625  C 0.379991319444444 10.7899305555556  0 9.45138888888889  0 8  C 0 6.54861111111111  0.379991319444444 5.21006944444444  1.13997395833333 3.984375  C 1.89995659722222 2.75868055555556  2.93109809027778 1.78819444444444  4.2333984375 1.07291666666667  C 5.53569878472222 0.357638888888888  6.95789930555556 0  8.5 0  C 10.0421006944444 0  11.4643012152778 0.357638888888888  12.7666015625 1.07291666666667  C 14.0689019097222 1.78819444444444  15.1000434027778 2.75868055555556  15.8600260416667 3.984375  Z " fill-rule="nonzero" fill="#000000" stroke="none" transform="matrix(1 0 0 1 491 298 )" />
  </g>
</svg>