<?xml version="1.0" encoding="utf-8"?>
<svg version="1.1" xmlns:xlink="http://www.w3.org/1999/xlink" width="25px" height="16px" xmlns="http://www.w3.org/2000/svg">
  <g transform="matrix(1 0 0 1 -531 -138 )">
    <path d="M 6.77392739273927 4.33531353135314  C 7.18646864686469 4.07128712871287  7.39273927392739 3.75269526952695  7.39273927392739 3.37953795379538  C 7.39273927392739 3.0063806380638  7.18646864686469 2.68778877887789  6.77392739273927 2.42376237623762  C 6.36138613861386 2.15973597359736  5.86358635863586 2.02772277227723  5.28052805280528 2.02772277227723  C 4.6974697469747 2.02772277227723  4.1996699669967 2.15973597359736  3.78712871287129 2.42376237623762  C 3.37458745874587 2.68778877887789  3.16831683168317 3.0063806380638  3.16831683168317 3.37953795379538  C 3.16831683168317 3.75269526952695  3.37458745874587 4.07128712871287  3.78712871287129 4.33531353135314  C 4.1996699669967 4.5993399339934  4.6974697469747 4.73135313531353  5.28052805280528 4.73135313531353  C 5.86358635863586 4.73135313531353  6.36138613861386 4.5993399339934  6.77392739273927 4.33531353135314  Z M 24.3894389438944 8.5016501650165  C 24.7964796479648 8.77623762376238  25 9.0965896589659  25 9.46270627062706  C 25 9.83586358635863  24.7964796479648 10.152695269527  24.3894389438944 10.413201320132  L 16.2871287128713 15.6092409240924  C 15.8580858085809 15.8697469746975  15.3575357535754 16  14.7854785478548 16  C 14.2024202420242 16  13.7073707370737 15.8697469746975  13.3003300330033 15.6092409240924  L 1.5016501650165 8.04752475247525  C 1.08360836083608 7.78701870187019  0.728822882288229 7.43146314631463  0.437293729372937 6.98085808580858  C 0.145764576457646 6.53025302530253  0 6.11837183718372  0 5.74521452145214  L 0 1.35181518151815  C 0 0.985698569856986  0.209020902090209 0.668866886688669  0.627062706270627 0.4013201320132  C 1.04510451045105 0.133773377337732  1.54015401540154 0  2.11221122112211 0  L 8.97689768976898 0  C 9.55995599559956 0  10.2035203520352 0.093289328932892  10.9075907590759 0.27986798679868  C 11.6116611661166 0.466446644664465  12.1727172717272 0.693509350935091  12.5907590759076 0.961056105610561  L 24.3894389438944 8.5016501650165  Z " fill-rule="nonzero" fill="#000000" stroke="none" transform="matrix(1 0 0 1 531 138 )" />
  </g>
</svg>