<?xml version="1.0" encoding="utf-8"?>
<svg version="1.1" xmlns:xlink="http://www.w3.org/1999/xlink" width="12px" height="12px" viewBox="178 351  12 12" xmlns="http://www.w3.org/2000/svg">
  <path d="M 184 351  C 187.36 351  190 353.64  190 357  C 190 360.36  187.36 363  184 363  C 180.64 363  178 360.36  178 357  C 178 353.64  180.64 351  184 351  Z " fill-rule="nonzero" fill="#f0f0f0" stroke="none" />
  <path d="M 184 351.5  C 187.08 351.5  189.5 353.92  189.5 357  C 189.5 360.08  187.08 362.5  184 362.5  C 180.92 362.5  178.5 360.08  178.5 357  C 178.5 353.92  180.92 351.5  184 351.5  Z " stroke-width="1" stroke="#797979" fill="none" />
  <path d="M 184 360  C 182.32 360  181 358.68  181 357  C 181 355.32  182.32 354  184 354  C 185.68 354  187 355.32  187 357  C 187 358.68  185.68 360  184 360  " fill-rule="nonzero" fill="#797979" stroke="none" />
</svg>