<?xml version="1.0" encoding="utf-8"?>
<svg version="1.1" xmlns:xlink="http://www.w3.org/1999/xlink" width="12px" height="12px" viewBox="267 351  12 12" xmlns="http://www.w3.org/2000/svg">
  <path d="M 273 351  C 276.36 351  279 353.64  279 357  C 279 360.36  276.36 363  273 363  C 269.64 363  267 360.36  267 357  C 267 353.64  269.64 351  273 351  Z " fill-rule="nonzero" fill="#ffffff" stroke="none" />
  <path d="M 273 351.5  C 276.08 351.5  278.5 353.92  278.5 357  C 278.5 360.08  276.08 362.5  273 362.5  C 269.92 362.5  267.5 360.08  267.5 357  C 267.5 353.92  269.92 351.5  273 351.5  Z " stroke-width="1" stroke="#797979" fill="none" />
  <path d="M 273 360  C 271.32 360  270 358.68  270 357  C 270 355.32  271.32 354  273 354  C 274.68 354  276 355.32  276 357  C 276 358.68  274.68 360  273 360  " fill-rule="nonzero" fill="#797979" stroke="none" />
</svg>