<?xml version="1.0" encoding="utf-8"?>
<svg version="1.1" xmlns:xlink="http://www.w3.org/1999/xlink" width="12px" height="12px" viewBox="178 566  12 12" xmlns="http://www.w3.org/2000/svg">
  <path d="M 184 566  C 187.36 566  190 568.64  190 572  C 190 575.36  187.36 578  184 578  C 180.64 578  178 575.36  178 572  C 178 568.64  180.64 566  184 566  Z " fill-rule="nonzero" fill="#ffffff" stroke="none" />
  <path d="M 184 566.5  C 187.08 566.5  189.5 568.92  189.5 572  C 189.5 575.08  187.08 577.5  184 577.5  C 180.92 577.5  178.5 575.08  178.5 572  C 178.5 568.92  180.92 566.5  184 566.5  Z " stroke-width="1" stroke="#797979" fill="none" />
  <path d="M 184 575  C 182.32 575  181 573.68  181 572  C 181 570.32  182.32 569  184 569  C 185.68 569  187 570.32  187 572  C 187 573.68  185.68 575  184 575  " fill-rule="nonzero" fill="#797979" stroke="none" />
</svg>