<?xml version="1.0" encoding="utf-8"?>
<svg version="1.1" xmlns:xlink="http://www.w3.org/1999/xlink" width="12px" height="12px" viewBox="181 264  12 12" xmlns="http://www.w3.org/2000/svg">
  <path d="M 187 264  C 190.36 264  193 266.64  193 270  C 193 273.36  190.36 276  187 276  C 183.64 276  181 273.36  181 270  C 181 266.64  183.64 264  187 264  Z " fill-rule="nonzero" fill="#ffffff" stroke="none" />
  <path d="M 187 264.5  C 190.08 264.5  192.5 266.92  192.5 270  C 192.5 273.08  190.08 275.5  187 275.5  C 183.92 275.5  181.5 273.08  181.5 270  C 181.5 266.92  183.92 264.5  187 264.5  Z " stroke-width="1" stroke="#797979" fill="none" />
  <path d="M 187 273  C 185.32 273  184 271.68  184 270  C 184 268.32  185.32 267  187 267  C 188.68 267  190 268.32  190 270  C 190 271.68  188.68 273  187 273  " fill-rule="nonzero" fill="#797979" stroke="none" />
</svg>