<?xml version="1.0" encoding="utf-8"?>
<svg version="1.1" xmlns:xlink="http://www.w3.org/1999/xlink" width="12px" height="12px" viewBox="178 431  12 12" xmlns="http://www.w3.org/2000/svg">
  <path d="M 184 431  C 187.36 431  190 433.64  190 437  C 190 440.36  187.36 443  184 443  C 180.64 443  178 440.36  178 437  C 178 433.64  180.64 431  184 431  Z " fill-rule="nonzero" fill="#ffffff" stroke="none" />
  <path d="M 184 431.5  C 187.08 431.5  189.5 433.92  189.5 437  C 189.5 440.08  187.08 442.5  184 442.5  C 180.92 442.5  178.5 440.08  178.5 437  C 178.5 433.92  180.92 431.5  184 431.5  Z " stroke-width="1" stroke="#797979" fill="none" />
  <path d="M 184 440  C 182.32 440  181 438.68  181 437  C 181 435.32  182.32 434  184 434  C 185.68 434  187 435.32  187 437  C 187 438.68  185.68 440  184 440  " fill-rule="nonzero" fill="#797979" stroke="none" />
</svg>