<?xml version="1.0" encoding="utf-8"?>
<svg version="1.1" xmlns:xlink="http://www.w3.org/1999/xlink" width="12px" height="12px" viewBox="341 431  12 12" xmlns="http://www.w3.org/2000/svg">
  <path d="M 347 431  C 350.36 431  353 433.64  353 437  C 353 440.36  350.36 443  347 443  C 343.64 443  341 440.36  341 437  C 341 433.64  343.64 431  347 431  Z " fill-rule="nonzero" fill="#ffffff" stroke="none" />
  <path d="M 347 431.5  C 350.08 431.5  352.5 433.92  352.5 437  C 352.5 440.08  350.08 442.5  347 442.5  C 343.92 442.5  341.5 440.08  341.5 437  C 341.5 433.92  343.92 431.5  347 431.5  Z " stroke-width="1" stroke="#797979" fill="none" />
  <path d="M 347 440  C 345.32 440  344 438.68  344 437  C 344 435.32  345.32 434  347 434  C 348.68 434  350 435.32  350 437  C 350 438.68  348.68 440  347 440  " fill-rule="nonzero" fill="#797979" stroke="none" />
</svg>