<?xml version="1.0" encoding="utf-8"?>
<svg version="1.1" xmlns:xlink="http://www.w3.org/1999/xlink" width="12px" height="12px" viewBox="344 264  12 12" xmlns="http://www.w3.org/2000/svg">
  <path d="M 350 264  C 353.36 264  356 266.64  356 270  C 356 273.36  353.36 276  350 276  C 346.64 276  344 273.36  344 270  C 344 266.64  346.64 264  350 264  Z " fill-rule="nonzero" fill="#ffffff" stroke="none" />
  <path d="M 350 264.5  C 353.08 264.5  355.5 266.92  355.5 270  C 355.5 273.08  353.08 275.5  350 275.5  C 346.92 275.5  344.5 273.08  344.5 270  C 344.5 266.92  346.92 264.5  350 264.5  Z " stroke-width="1" stroke="#797979" fill="none" />
  <path d="M 350 273  C 348.32 273  347 271.68  347 270  C 347 268.32  348.32 267  350 267  C 351.68 267  353 268.32  353 270  C 353 271.68  351.68 273  350 273  " fill-rule="nonzero" fill="#797979" stroke="none" />
</svg>