<?xml version="1.0" encoding="utf-8"?>
<svg version="1.1" xmlns:xlink="http://www.w3.org/1999/xlink" width="16px" height="16px" xmlns="http://www.w3.org/2000/svg">
  <g transform="matrix(1 0 0 1 -54 -593 )">
    <path d="M 11.28125 12.7062500000001  C 11.28125 12.7062500000001  12.6234375 13.23125  12.6234375 13.23125  C 13.1 13.50625  13.7140625 13.3421875  13.9890625 12.865625  C 13.9890625 12.865625  14.9890625 11.1328125  14.9890625 11.1328125  C 15.265625 10.6578125  15.1015625 10.0421875  14.625 9.76718750000003  C 14.625 9.76718750000003  13.5 8.86875000000003  13.5 8.86875000000003  C 13.540625 8.58437500000002  13.5625 8.29531250000002  13.5625 8  C 13.5625 7.70468750000003  13.540625 7.4140625  13.5 7.13125000000002  C 13.5 7.13125000000002  14.625 6.23281250000002  14.625 6.23281250000002  C 15.1015625 5.95781249999999  15.265625 5.34375  14.990625 4.8671875  C 14.990625 4.8671875  13.990625 3.13437499999998  13.990625 3.13437499999998  C 13.715625 2.65781249999998  13.1015625 2.49374999999998  12.625 2.76875000000001  C 12.625 2.76875000000001  11.284375 3.29374999999999  11.284375 3.29374999999999  C 10.83125 2.93437499999999  10.325 2.640625  9.7796875 2.42343749999998  C 9.7796875 2.42343749999998  9.5625 1  9.5625 1  C 9.5625 0.449999999999989  9.1125 0  8.5625 0  C 8.5625 0  6.5625 0  6.5625 0  C 6.0125 0  5.5625 0.449999999999989  5.5625 1  C 5.5625 1  5.346875 2.421875  5.346875 2.421875  C 4.8015625 2.63906250000002  4.2953125 2.93281250000001  3.8421875 3.29218750000001  C 3.8421875 3.29218750000001  2.5 2.76718749999998  2.5 2.76718749999998  C 2.0234375 2.4921875  1.409375 2.65625  1.134375 3.1328125  C 1.134375 3.1328125  0.134375000000002 4.86562500000002  0.134375000000002 4.86562500000002  C -0.140625 5.34218750000002  0.0234375 5.95781249999999  0.5 6.23281250000002  C 0.5 6.23281250000002  1.625 7.13125000000002  1.625 7.13125000000002  C 1.584375 7.41562500000003  1.5625 7.70468750000003  1.5625 8  C 1.5625 8.29531250000002  1.584375 8.5859375  1.625 8.86875000000003  C 1.625 8.86875000000003  0.5 9.76718750000003  0.5 9.76718750000003  C 0.0234375 10.0421875  -0.140625 10.65625  0.134375000000002 11.1328125  C 0.134375000000002 11.1328125  1.134375 12.865625  1.134375 12.865625  C 1.409375 13.3421875  2.0234375 13.50625  2.5 13.23125  C 2.5 13.23125  3.840625 12.7062500000001  3.840625 12.7062500000001  C 4.29375 13.0656250000001  4.8 13.359375  5.3453125 13.5765625  C 5.3453125 13.5765625  5.5609375 14.9984375  5.5609375 14.9984375  C 5.5609375 15.5484375  6.0109375 15.9984375  6.5609375 15.9984375  C 6.5609375 15.9984375  8.5609375 15.9984375  8.5609375 15.9984375  C 9.11093750000001 15.9984375  9.5609375 15.5484375  9.5609375 14.9984375  C 9.5609375 14.9984375  9.7765625 13.5765625  9.7765625 13.5765625  C 10.321875 13.359375  10.828125 13.0656250000001  11.28125 12.7062500000001  Z M 12.5625 8  C 12.5625 8.46249999999998  12.5 8.90937500000001  12.3828125 9.33281249999999  C 12.3828125 9.33281249999999  13.6921875 10.3828125  13.6921875 10.3828125  C 13.9296875 10.521875  14.0125 10.828125  13.875 11.0671875  C 13.875 11.0671875  13.375 11.9328125  13.375 11.9328125  C 13.2375 12.1703125  12.9296875 12.253125  12.6921875 12.115625  C 12.6921875 12.115625  11.1265625 11.50625  11.1265625 11.50625  C 10.5015625 12.140625  9.7078125 12.6109375  8.81875000000001 12.840625  C 8.81875000000001 12.840625  8.56250000000001 14.5  8.56250000000001 14.5  C 8.56250000000001 14.775  8.33750000000001 15  8.06250000000001 15  C 8.06250000000001 15  7.06250000000001 15  7.06250000000001 15  C 6.78750000000001 15  6.56250000000001 14.775  6.56250000000001 14.5  C 6.56250000000001 14.5  6.30781250000001 12.840625  6.30781250000001 12.840625  C 5.41875000000001 12.6109375  4.62500000000001 12.1421875  4.00000000000001 11.50625  C 4.00000000000001 11.50625  2.43437500000001 12.115625  2.43437500000001 12.115625  C 2.19687500000001 12.253125  1.88906250000001 12.1703125  1.75156250000001 11.9328125  C 1.75156250000001 11.9328125  1.25156250000001 11.0671875  1.25156250000001 11.0671875  C 1.11406250000001 10.8296875  1.19687500000001 10.521875  1.43437500000001 10.384375  C 1.43437500000001 10.384375  2.74375000000001 9.33437500000002  2.74375000000001 9.33437500000002  C 2.62500000000001 8.90937500000001  2.56250000000001 8.46249999999998  2.56250000000001 8  C 2.56250000000001 7.53750000000002  2.62500000000001 7.09062499999999  2.74218750000001 6.66718750000001  C 2.74218750000001 6.66718750000001  1.43281250000001 5.6171875  1.43281250000001 5.6171875  C 1.19531250000001 5.47968750000001  1.11250000000001 5.171875  1.25000000000001 4.93437499999999  C 1.25000000000001 4.93437499999999  1.75000000000001 4.06875000000002  1.75000000000001 4.06875000000002  C 1.88750000000001 3.83125000000001  2.19531250000001 3.74843750000002  2.43281250000001 3.88593750000001  C 2.43281250000001 3.88593750000001  3.99843750000001 4.49531250000001  3.99843750000001 4.49531250000001  C 4.6234375 3.86093749999998  5.4171875 3.390625  6.30625000000001 3.16093749999999  C 6.30625000000001 3.16093749999999  6.56250000000001 1.5  6.56250000000001 1.5  C 6.56250000000001 1.22500000000002  6.78750000000001 1  7.06250000000001 1  C 7.06250000000001 1  8.06250000000001 1  8.06250000000001 1  C 8.33750000000001 1  8.56250000000001 1.22500000000002  8.56250000000001 1.5  C 8.56250000000001 1.5  8.81718750000001 3.15937500000001  8.81718750000001 3.15937500000001  C 9.70625 3.38906250000002  10.5 3.85781250000002  11.125 4.49374999999998  C 11.125 4.49374999999998  12.690625 3.88437499999998  12.690625 3.88437499999998  C 12.928125 3.74687499999999  13.2359375 3.82968749999998  13.3734375 4.06718749999999  C 13.3734375 4.06718749999999  13.8734375 4.93281250000001  13.8734375 4.93281250000001  C 14.0109375 5.17031250000002  13.928125 5.47812499999998  13.690625 5.61562500000002  C 13.690625 5.61562500000002  12.38125 6.66562499999998  12.38125 6.66562499999998  C 12.5 7.09062499999999  12.5625 7.53750000000002  12.5625 8  Z M 5.0625 8  C 5.0625 9.38125000000002  6.18125 10.5  7.5625 10.5  C 8.94375 10.5  10.0625 9.38125000000002  10.0625 8  C 10.0625 6.61874999999998  8.94375 5.5  7.5625 5.5  C 6.18125 5.5  5.0625 6.61874999999998  5.0625 8  Z M 7.5625 6.5  C 8.390625 6.5  9.0625 7.171875  9.0625 8  C 9.0625 8.828125  8.390625 9.5  7.5625 9.5  C 6.734375 9.5  6.0625 8.828125  6.0625 8  C 6.0625 7.171875  6.734375 6.5  7.5625 6.5  Z " fill-rule="nonzero" fill="#ffffff" stroke="none" transform="matrix(1 0 0 1 54 593 )" />
  </g>
</svg>