<?xml version="1.0" encoding="utf-8"?>
<svg version="1.1" xmlns:xlink="http://www.w3.org/1999/xlink" width="16px" height="15px" xmlns="http://www.w3.org/2000/svg">
  <g transform="matrix(1 0 0 1 -54 -418 )">
    <path d="M 7.36496674057649 0.468292682926858  C 7.36496674057649 0.468292682926858  0.166740576496675 12.9348115299335  0.166740576496675 12.9348115299335  C -0.182705099778268 13.539689578714  0.102882483370291 14.0345898004435  0.80177383592018 14.0345898004435  C 0.80177383592018 14.0345898004435  15.1982261640798 14.0345898004435  15.1982261640798 14.0345898004435  C 15.8971175166297 14.0345898004435  16.1827050997783 13.539689578714  15.8332594235033 12.9348115299335  C 15.8332594235033 12.9348115299335  8.6350332594235 0.468292682926858  8.6350332594235 0.468292682926858  C 8.28558758314855 -0.136585365853591  7.71441241685144 -0.136585365853591  7.36496674057649 0.468292682926858  Z M 14.2084257206208 12.7379157427938  L 1.79157427937916 12.7379157427938  L 8 1.98492239467851  L 14.2084257206208 12.7379157427938  Z M 8.63858093126385 9.07317073170731  C 8.63858093126385 9.07317073170731  8.63858093126385 5.89800443458978  8.63858093126385 5.89800443458978  C 8.63858093126385 5.55210643015522  8.35476718403547 5.26829268292681  8.00886917960089 5.26829268292681  C 7.66297117516629 5.26829268292681  7.36141906873614 5.55210643015522  7.36141906873614 5.89800443458978  C 7.36141906873614 5.89800443458978  7.36141906873614 9.07317073170731  7.36141906873614 9.07317073170731  C 7.36141906873614 9.41906873614187  7.64523281596452 9.70288248337027  7.99113082039911 9.70288248337027  C 8.33702882483369 9.70288248337027  8.63858093126385 9.41906873614187  8.63858093126385 9.07317073170731  Z M 8 10.4124168514412  C 7.64732149013022 10.4124168514412  7.36141906873614 10.6983192728353  7.36141906873614 11.0509977827051  C 7.36141906873614 11.4036762925748  7.64732149013022 11.6895787139689  8 11.6895787139689  C 8.35267850986977 11.6895787139689  8.63858093126385 11.4036762925748  8.63858093126385 11.0509977827051  C 8.63858093126385 10.6983192728353  8.35267850986977 10.4124168514412  8 10.4124168514412  Z " fill-rule="nonzero" fill="#ffffff" stroke="none" transform="matrix(1 0 0 1 54 418 )" />
  </g>
</svg>