<?xml version="1.0" encoding="utf-8"?>
<svg version="1.1" xmlns:xlink="http://www.w3.org/1999/xlink" width="19px" height="17px" xmlns="http://www.w3.org/2000/svg">
  <g transform="matrix(1 0 0 1 -1343 -570 )">
    <path d="M 8.8609865470852 12.75  L 9.45739910313901 12.75  L 10.6928251121076 11.3494318181818  L 9.07399103139013 9.51420454545454  L 7.83856502242153 10.9147727272727  L 7.83856502242153 11.5909090909091  L 8.8609865470852 11.5909090909091  L 8.8609865470852 12.75  Z M 14.1328475336323 4.45525568181818  C 14.2535500747384 4.31841856060606  14.2571001494768 4.18560606060606  14.1434977578475 4.05681818181818  C 14.0298953662182 3.9280303030303  13.9127428998505 3.93205492424242  13.7920403587444 4.06889204545455  L 10.0644618834081 8.29474431818182  C 9.94375934230194 8.43158143939394  9.94020926756353 8.56439393939394  10.0538116591928 8.69318181818182  C 10.1674140508221 8.8219696969697  10.2845665171898 8.81794507575757  10.405269058296 8.68110795454546  L 14.1328475336323 4.45525568181818  Z M 14.7825112107623 10.8785511363636  C 14.924514200299 10.9429450757576  14.9955156950673 11.0596590909091  14.9955156950673 11.2286931818182  L 14.9955156950673 13.5227272727273  C 14.9955156950673 14.4805871212121  14.6955343796712 15.2995975378788  14.0955717488789 15.9797585227273  C 13.4956091180867 16.6599195075758  12.7731689088191 17  11.9282511210762 17  L 3.06726457399103 17  C 2.22234678624813 17  1.49990657698057 16.6599195075758  0.899943946188341 15.9797585227273  C 0.299981315396114 15.2995975378788  0 14.4805871212121  0 13.5227272727273  L 0 3.47727272727273  C 0 2.51941287878788  0.299981315396114 1.70040246212121  0.899943946188341 1.02024147727273  C 1.49990657698057 0.340080492424241  2.22234678624813 0  3.06726457399103 0  L 11.9282511210762 0  C 12.3755605381166 0  12.7909192825112 0.100615530303029  13.1743273542601 0.30184659090909  C 13.2808295964126 0.358191287878787  13.344730941704 0.450757575757575  13.3660313901345 0.579545454545454  C 13.387331838565 0.716382575757575  13.3553811659193 0.83309659090909  13.2701793721973 0.9296875  L 12.7483183856502 1.52130681818182  C 12.6489162929746 1.63399621212121  12.5353139013453 1.66619318181818  12.4075112107623 1.61789772727273  C 12.2442077727952 1.56960227272727  12.0844544095665 1.54545454545455  11.9282511210762 1.54545454545455  L 3.06726457399103 1.54545454545455  C 2.59865470852018 1.54545454545455  2.19749626307922 1.73461174242424  1.86378923766816 2.11292613636364  C 1.5300822122571 2.49124053030303  1.36322869955157 2.94602272727273  1.36322869955157 3.47727272727273  L 1.36322869955157 13.5227272727273  C 1.36322869955157 14.0539772727273  1.5300822122571 14.508759469697  1.86378923766816 14.8870738636364  C 2.19749626307922 15.2653882575758  2.59865470852018 15.4545454545455  3.06726457399103 15.4545454545455  L 11.9282511210762 15.4545454545455  C 12.3968609865471 15.4545454545455  12.798019431988 15.2653882575758  13.1317264573991 14.8870738636364  C 13.4654334828102 14.508759469697  13.6322869955157 14.0539772727273  13.6322869955157 13.5227272727273  L 13.6322869955157 12.0014204545455  C 13.6322869955157 11.8967803030303  13.6642376681614 11.8082386363636  13.7281390134529 11.7357954545455  L 14.4097533632287 10.9630681818182  C 14.5162556053812 10.8423295454545  14.6405082212257 10.8141571969697  14.7825112107623 10.8785511363636  Z M 6.81614349775785 10.4318181818182  L 13.9730941704036 2.31818181818182  L 17.0403587443946 5.79545454545455  L 9.88340807174888 13.9090909090909  L 6.81614349775785 13.9090909090909  L 6.81614349775785 10.4318181818182  Z M 19 3.09090909090909  C 19 3.41287878787879  18.9005979073244 3.68655303030303  18.7017937219731 3.91193181818182  L 17.7219730941704 5.02272727272727  L 14.6547085201794 1.54545454545455  L 15.6345291479821 0.43465909090909  C 15.8333333333333 0.209280303030301  16.0747384155456 0.0965909090909099  16.3587443946188 0.0965909090909099  C 16.6427503736921 0.0965909090909099  16.8841554559043 0.209280303030301  17.0829596412556 0.43465909090909  L 18.7017937219731 2.26988636363636  C 18.9005979073244 2.49526515151515  19 2.76893939393939  19 3.09090909090909  Z " fill-rule="nonzero" fill="#000000" stroke="none" transform="matrix(1 0 0 1 1343 570 )" />
  </g>
</svg>