<?xml version="1.0" encoding="utf-8"?>
<svg version="1.1" xmlns:xlink="http://www.w3.org/1999/xlink" width="12px" height="12px" viewBox="271 187  12 12" xmlns="http://www.w3.org/2000/svg">
  <path d="M 277 187  C 280.36 187  283 189.64  283 193  C 283 196.36  280.36 199  277 199  C 273.64 199  271 196.36  271 193  C 271 189.64  273.64 187  277 187  Z " fill-rule="nonzero" fill="#f0f0f0" stroke="none" />
  <path d="M 277 187.5  C 280.08 187.5  282.5 189.92  282.5 193  C 282.5 196.08  280.08 198.5  277 198.5  C 273.92 198.5  271.5 196.08  271.5 193  C 271.5 189.92  273.92 187.5  277 187.5  Z " stroke-width="1" stroke="#797979" fill="none" />
  <path d="M 277 196  C 275.32 196  274 194.68  274 193  C 274 191.32  275.32 190  277 190  C 278.68 190  280 191.32  280 193  C 280 194.68  278.68 196  277 196  " fill-rule="nonzero" fill="#797979" stroke="none" />
</svg>