<?xml version="1.0" encoding="utf-8"?>
<svg version="1.1" xmlns:xlink="http://www.w3.org/1999/xlink" width="64px" height="90px" xmlns="http://www.w3.org/2000/svg">
  <defs>
    <path d="M 0 0  L 1089 0  L 1089 1024  L 0 1024  Z " fill-rule="evenodd" fill="black" id="path102" />
    <clipPath id="clip103">
      <use xlink:href="#path102" />
    </clipPath>
    <defs>
      <style type="text/css"></style>
    </defs>
    <path d="M1030.122053 822.318782H1080.022561l9.471855-15.82493h-58.275014A27.375973 27.375973 0 0 1 1004.940778 785.470953h69.306261l9.4141-15.767174H1004.940778a27.433728 27.433728 0 0 1 26.105358-21.13841h47.186013l9.471856-15.824929h-57.755218a45.049069 45.049069 0 0 0 0 89.578342zM900.981387 732.682685v80.857304a8.663283 8.663283 0 0 0 2.42572 5.775521 7.85471 7.85471 0 0 0 5.775521 2.598985h73.349126l9.471856-15.767174h-75.081783v-73.464636zM678.508291 762.368866a29.33965 29.33965 0 0 0-27.89577-29.859447h-70.40361v89.520587h16.113706v-73.580147h53.192555a14.034518 14.034518 0 0 1 13.572476 14.381049 14.092273 14.092273 0 0 1-13.514721 14.61207h-45.3956l47.994585 44.818049h23.102087l-32.342922-28.877609h7.392668a29.33965 29.33965 0 0 0 27.953525-30.610265z m-197.407332-29.686181a45.049069 45.049069 0 0 0 0 89.578342h48.629893a43.143147 43.143147 0 0 0 43.258657-43.258658 43.662944 43.662944 0 0 0-40.428652-46.204174H481.100959z m74.61974 44.818048a28.069036 28.069036 0 0 1-27.087196 28.877609h-46.204174a28.877609 28.877609 0 0 1 0-57.755217h46.49295a28.01128 28.01128 0 0 1 27.029441 28.877608z m328.280655 44.818049l9.471855-15.767175h-59.083587a28.877609 28.877609 0 0 1 0.577552-58.043993h47.763565l9.471855-15.824929H833.407783a43.778455 43.778455 0 0 0-40.024365 46.72397 43.316413 43.316413 0 0 0 40.948449 42.854372z m-154.668472-15.82493h43.489679l8.952058 15.82493h19.001467l-50.940102-85.13119a11.551043 11.551043 0 0 0-16.922278-2.887761 12.417372 12.417372 0 0 0-2.772251 3.003271l-50.70908 85.01568h19.001466l41.641512-70.807896 22.6978 39.158037h-42.969882z" fill="#d81e06" p-id="3576"></path>
    <path d="M397.240384 446.159052c211.730626 0 383.667908-67.573604 383.667907-151.434179V173.900959c0-83.860575-171.995037-151.434179-383.667907-151.43418S13.572476 90.040384 13.572476 173.900959V294.551607c0 83.571799 171.532995 151.607445 383.667908 151.607445zM13.976763 657.774168v181.466892c0 83.398534 171.532995 151.491935 383.667907 151.491935q17.788607 0 35.172927-0.635307A316.325324 316.325324 0 0 1 359.00643 808.57304c-193.768754-7.681444-345.029667-72.078511-345.029667-150.798872z m673.599097-173.265651h93.332431V385.516074c0 37.887422-35.172927 72.482798-93.332431 98.992443zM365.359504 717.897349c14.843091-76.814439 55.618274-142.308855 111.294303-184.239143q-38.464975 3.465313-79.413423 3.465313C185.509757 537.123519 13.572476 469.318895 13.572476 385.516074v181.466893c0 79.124647 154.610716 144.503553 351.787028 150.914382zM970.287648 890.181162a131.508629 131.508629 0 0 1-98.876932 46.723971h-239.972927C579.458094 935.634518 537.123519 909.067118 514.021433 860.552735H423.114721c27.318218 100.320812 105.865313 163.447265 202.720812 163.447265h251.061929c57.23542 0 112.218387-25.989848 152.762549-72.251777a253.256627 253.256627 0 0 0 51.517654-94.256514l-86.170784 0.404286c-6.52634 13.976763-14.843091 20.849633-24.834743 32.400677z m-545.960068-193.306712l88.480993 1.270615c23.102087-51.979695 63.935025-79.240158 118.629216-80.453018h239.857417A131.681895 131.681895 0 0 1 970.287648 664.184997c9.818387 11.262267 15.189622 16.05595 21.600451 29.859447h88.538748c-28.531077-98.183869-107.944501-163.447265-203.413875-163.447264h-251.177439c-96.913254 0.231021-168.760745 72.829329-201.507953 166.27727z" fill="#d81e06" p-id="3577"></path>
    <path d="M8.663283 138.901297a388.23057 130.238015 0 1 0 776.461139 0 388.23057 130.238015 0 1 0-776.461139 0Z" fill="#d81e06" p-id="3578"></path>
    <filter x="-50.00%" y="-50.00%" width="200.00%" height="200.00%" filterUnits="objectBoundingBox" id="filter104">
      <feColorMatrix type="matrix" values="1 0 0 0 0  0 1 0 0 0  0 0 1 0 0  0 0 0 1 0  " in="SourceGraphic" />
    </filter>
  </defs>
  <g transform="matrix(1 0 0 1 -110 -62 )">
    <g transform="matrix(0.0587695133149679 0 0 0.0587695133149679 110 76.9100091827365 )" clip-path="url(#clip103)" filter="url(#filter104)">
      <path d="M1030.122053 822.318782H1080.022561l9.471855-15.82493h-58.275014A27.375973 27.375973 0 0 1 1004.940778 785.470953h69.306261l9.4141-15.767174H1004.940778a27.433728 27.433728 0 0 1 26.105358-21.13841h47.186013l9.471856-15.824929h-57.755218a45.049069 45.049069 0 0 0 0 89.578342zM900.981387 732.682685v80.857304a8.663283 8.663283 0 0 0 2.42572 5.775521 7.85471 7.85471 0 0 0 5.775521 2.598985h73.349126l9.471856-15.767174h-75.081783v-73.464636zM678.508291 762.368866a29.33965 29.33965 0 0 0-27.89577-29.859447h-70.40361v89.520587h16.113706v-73.580147h53.192555a14.034518 14.034518 0 0 1 13.572476 14.381049 14.092273 14.092273 0 0 1-13.514721 14.61207h-45.3956l47.994585 44.818049h23.102087l-32.342922-28.877609h7.392668a29.33965 29.33965 0 0 0 27.953525-30.610265z m-197.407332-29.686181a45.049069 45.049069 0 0 0 0 89.578342h48.629893a43.143147 43.143147 0 0 0 43.258657-43.258658 43.662944 43.662944 0 0 0-40.428652-46.204174H481.100959z m74.61974 44.818048a28.069036 28.069036 0 0 1-27.087196 28.877609h-46.204174a28.877609 28.877609 0 0 1 0-57.755217h46.49295a28.01128 28.01128 0 0 1 27.029441 28.877608z m328.280655 44.818049l9.471855-15.767175h-59.083587a28.877609 28.877609 0 0 1 0.577552-58.043993h47.763565l9.471855-15.824929H833.407783a43.778455 43.778455 0 0 0-40.024365 46.72397 43.316413 43.316413 0 0 0 40.948449 42.854372z m-154.668472-15.82493h43.489679l8.952058 15.82493h19.001467l-50.940102-85.13119a11.551043 11.551043 0 0 0-16.922278-2.887761 12.417372 12.417372 0 0 0-2.772251 3.003271l-50.70908 85.01568h19.001466l41.641512-70.807896 22.6978 39.158037h-42.969882z" fill="#d81e06" p-id="3576"></path>
      <path d="M397.240384 446.159052c211.730626 0 383.667908-67.573604 383.667907-151.434179V173.900959c0-83.860575-171.995037-151.434179-383.667907-151.43418S13.572476 90.040384 13.572476 173.900959V294.551607c0 83.571799 171.532995 151.607445 383.667908 151.607445zM13.976763 657.774168v181.466892c0 83.398534 171.532995 151.491935 383.667907 151.491935q17.788607 0 35.172927-0.635307A316.325324 316.325324 0 0 1 359.00643 808.57304c-193.768754-7.681444-345.029667-72.078511-345.029667-150.798872z m673.599097-173.265651h93.332431V385.516074c0 37.887422-35.172927 72.482798-93.332431 98.992443zM365.359504 717.897349c14.843091-76.814439 55.618274-142.308855 111.294303-184.239143q-38.464975 3.465313-79.413423 3.465313C185.509757 537.123519 13.572476 469.318895 13.572476 385.516074v181.466893c0 79.124647 154.610716 144.503553 351.787028 150.914382zM970.287648 890.181162a131.508629 131.508629 0 0 1-98.876932 46.723971h-239.972927C579.458094 935.634518 537.123519 909.067118 514.021433 860.552735H423.114721c27.318218 100.320812 105.865313 163.447265 202.720812 163.447265h251.061929c57.23542 0 112.218387-25.989848 152.762549-72.251777a253.256627 253.256627 0 0 0 51.517654-94.256514l-86.170784 0.404286c-6.52634 13.976763-14.843091 20.849633-24.834743 32.400677z m-545.960068-193.306712l88.480993 1.270615c23.102087-51.979695 63.935025-79.240158 118.629216-80.453018h239.857417A131.681895 131.681895 0 0 1 970.287648 664.184997c9.818387 11.262267 15.189622 16.05595 21.600451 29.859447h88.538748c-28.531077-98.183869-107.944501-163.447265-203.413875-163.447264h-251.177439c-96.913254 0.231021-168.760745 72.829329-201.507953 166.27727z" fill="#d81e06" p-id="3577"></path>
      <path d="M8.663283 138.901297a388.23057 130.238015 0 1 0 776.461139 0 388.23057 130.238015 0 1 0-776.461139 0Z" fill="#d81e06" p-id="3578"></path>
    </g>
  </g>
</svg>