<?xml version="1.0" encoding="utf-8"?>
<svg version="1.1" xmlns:xlink="http://www.w3.org/1999/xlink" width="12px" height="12px" viewBox="167 481  12 12" xmlns="http://www.w3.org/2000/svg">
  <path d="M 173 481  C 176.36 481  179 483.64  179 487  C 179 490.36  176.36 493  173 493  C 169.64 493  167 490.36  167 487  C 167 483.64  169.64 481  173 481  Z " fill-rule="nonzero" fill="#f0f0f0" stroke="none" />
  <path d="M 173 481.5  C 176.08 481.5  178.5 483.92  178.5 487  C 178.5 490.08  176.08 492.5  173 492.5  C 169.92 492.5  167.5 490.08  167.5 487  C 167.5 483.92  169.92 481.5  173 481.5  Z " stroke-width="1" stroke="#797979" fill="none" />
  <path d="M 173 490  C 171.32 490  170 488.68  170 487  C 170 485.32  171.32 484  173 484  C 174.68 484  176 485.32  176 487  C 176 488.68  174.68 490  173 490  " fill-rule="nonzero" fill="#797979" stroke="none" />
</svg>