<?xml version="1.0" encoding="utf-8"?>
<svg version="1.1" xmlns:xlink="http://www.w3.org/1999/xlink" width="75px" height="86px" xmlns="http://www.w3.org/2000/svg">
  <defs>
    <path d="M 0 0  L 1024 0  L 1024 1024  L 0 1024  Z " fill-rule="evenodd" fill="black" id="path207" />
    <clipPath id="clip208">
      <use xlink:href="#path207" />
    </clipPath>
    <defs>
      <style type="text/css"></style>
    </defs>
    <path d="M889.4976 692.5824c-43.6992 22.784-270.1824 115.8912-318.3872 141.056-48.2304 25.1136-75.008 24.8832-113.1008 6.656-38.0928-18.176-279.0912-115.5328-322.5088-136.2944C113.8176 693.632 102.4 684.8768 102.4 676.608v-82.816s313.7536-68.3008 364.416-86.4768c50.6368-18.176 68.224-18.816 111.3344-3.0208 43.1104 15.7952 300.8512 62.2848 343.4496 77.9008v81.6128c0 8.192-9.8304 17.152-32.1024 28.7744" fill="#912626" p-id="3763"></path>
    <path d="M889.4976 610.2528c-43.7248 22.784-270.1824 115.9168-318.4128 141.056-48.2048 25.1392-75.008 24.8832-113.0752 6.656-38.0928-18.176-279.0912-115.5328-322.4832-136.2688-43.4176-20.7616-44.3392-35.0464-1.6896-51.7376 42.6496-16.7168 282.3168-110.7456 332.9792-128.9216 50.6624-18.176 68.224-18.816 111.3344-3.0208 43.0848 15.7696 268.2112 105.3952 310.784 120.9856 42.624 15.616 44.288 28.4672 0.5632 51.2512" fill="#C6302B" p-id="3764"></path>
    <path d="M889.4976 558.592c-43.6992 22.784-270.1824 115.9168-318.3872 141.056-48.2304 25.1392-75.008 24.8832-113.1008 6.656-38.0928-18.176-279.0912-115.5328-322.5088-136.2944C113.8176 559.6416 102.4 550.912 102.4 542.6176v-82.7904s313.7536-68.3008 364.416-86.4768c50.6368-18.176 68.224-18.8416 111.3344-3.0464 43.1104 15.7952 300.8512 62.2848 343.4496 77.9008v81.6384c0 8.192-9.8304 17.152-32.1024 28.7488" fill="#912626" p-id="3765"></path>
    <path d="M889.4976 476.288c-43.7248 22.784-270.1824 115.8912-318.4128 141.056-48.2048 25.1136-75.008 24.8576-113.0752 6.656-38.0928-18.176-279.0912-115.5584-322.4832-136.2944-43.4176-20.736-44.3392-35.0464-1.6896-51.7376 42.6496-16.6912 282.3168-110.7456 332.9792-128.896 50.6624-18.176 68.224-18.8416 111.3344-3.0464 43.0848 15.7952 268.2112 105.3952 310.784 120.9856 42.624 15.616 44.288 28.4928 0.5632 51.2768" fill="#C6302B" p-id="3766"></path>
    <path d="M889.4976 419.6608c-43.6992 22.784-270.1824 115.8912-318.3872 141.056-48.2304 25.1136-75.008 24.8832-113.1008 6.656-38.0928-18.176-279.0912-115.5584-322.5088-136.2944C113.8176 420.7104 102.4 411.9552 102.4 403.6864v-82.816s313.7536-68.3008 364.416-86.4512c50.6368-18.176 68.224-18.8416 111.3344-3.072 43.1104 15.8208 300.8512 62.3104 343.4496 77.9008v81.664c0 8.1664-9.8304 17.152-32.1024 28.7488" fill="#912626" p-id="3767"></path>
    <path d="M889.4976 337.3312c-43.7248 22.784-270.1824 115.9168-318.4128 141.056-48.2048 25.1136-75.008 24.8832-113.0752 6.656-38.0928-18.176-279.0912-115.5328-322.4832-136.2944-43.4176-20.736-44.3136-35.0208-1.6896-51.712 42.6496-16.7168 282.3168-110.7456 332.9792-128.9216 50.6624-18.176 68.224-18.816 111.3344-3.0208 43.0848 15.7952 268.2112 105.3952 310.784 120.9856 42.624 15.616 44.288 28.4672 0.5632 51.2512" fill="#C6302B" p-id="3768"></path>
    <path d="M612.096 256.768l-70.4 7.3216-15.7952 37.9392-25.4464-42.3424-81.3312-7.296 60.672-21.888-18.2016-33.5872 56.832 22.2208 53.5296-17.536-14.464 34.7392 54.6048 20.4544m-90.3936 184.064l-131.456-54.528 188.3648-28.928-56.9088 83.456m-182.2464-162.9952c55.6032 0 100.6848 17.4848 100.6848 39.04 0 21.5552-45.056 39.0144-100.6848 39.0144-55.6032 0-100.6592-17.4848-100.6592-39.0144 0-21.5552 45.056-39.04 100.6592-39.04" fill="#FFFFFF" p-id="3769"></path>
    <path d="M695.3472 267.1616l111.4624 44.032-111.36 44.032-0.1024-88.064" fill="#621B1C" p-id="3770"></path>
    <path d="M572.0064 315.9296l123.3408-48.768 0.1024 88.064-12.1088 4.7104-111.3344-44.0064" fill="#9A2928" p-id="3771"></path>
    <filter x="-50.00%" y="-50.00%" width="200.00%" height="200.00%" filterUnits="objectBoundingBox" id="filter209">
      <feColorMatrix type="matrix" values="1 0 0 0 0  0 1 0 0 0  0 0 1 0 0  0 0 0 1 0  " in="SourceGraphic" />
    </filter>
  </defs>
  <g transform="matrix(1 0 0 1 -982 -283 )">
    <g transform="matrix(0.0732421875 0 0 0.0732421875 982 288.5 )" clip-path="url(#clip208)" filter="url(#filter209)">
      <path d="M889.4976 692.5824c-43.6992 22.784-270.1824 115.8912-318.3872 141.056-48.2304 25.1136-75.008 24.8832-113.1008 6.656-38.0928-18.176-279.0912-115.5328-322.5088-136.2944C113.8176 693.632 102.4 684.8768 102.4 676.608v-82.816s313.7536-68.3008 364.416-86.4768c50.6368-18.176 68.224-18.816 111.3344-3.0208 43.1104 15.7952 300.8512 62.2848 343.4496 77.9008v81.6128c0 8.192-9.8304 17.152-32.1024 28.7744" fill="#912626" p-id="3763"></path>
      <path d="M889.4976 610.2528c-43.7248 22.784-270.1824 115.9168-318.4128 141.056-48.2048 25.1392-75.008 24.8832-113.0752 6.656-38.0928-18.176-279.0912-115.5328-322.4832-136.2688-43.4176-20.7616-44.3392-35.0464-1.6896-51.7376 42.6496-16.7168 282.3168-110.7456 332.9792-128.9216 50.6624-18.176 68.224-18.816 111.3344-3.0208 43.0848 15.7696 268.2112 105.3952 310.784 120.9856 42.624 15.616 44.288 28.4672 0.5632 51.2512" fill="#C6302B" p-id="3764"></path>
      <path d="M889.4976 558.592c-43.6992 22.784-270.1824 115.9168-318.3872 141.056-48.2304 25.1392-75.008 24.8832-113.1008 6.656-38.0928-18.176-279.0912-115.5328-322.5088-136.2944C113.8176 559.6416 102.4 550.912 102.4 542.6176v-82.7904s313.7536-68.3008 364.416-86.4768c50.6368-18.176 68.224-18.8416 111.3344-3.0464 43.1104 15.7952 300.8512 62.2848 343.4496 77.9008v81.6384c0 8.192-9.8304 17.152-32.1024 28.7488" fill="#912626" p-id="3765"></path>
      <path d="M889.4976 476.288c-43.7248 22.784-270.1824 115.8912-318.4128 141.056-48.2048 25.1136-75.008 24.8576-113.0752 6.656-38.0928-18.176-279.0912-115.5584-322.4832-136.2944-43.4176-20.736-44.3392-35.0464-1.6896-51.7376 42.6496-16.6912 282.3168-110.7456 332.9792-128.896 50.6624-18.176 68.224-18.8416 111.3344-3.0464 43.0848 15.7952 268.2112 105.3952 310.784 120.9856 42.624 15.616 44.288 28.4928 0.5632 51.2768" fill="#C6302B" p-id="3766"></path>
      <path d="M889.4976 419.6608c-43.6992 22.784-270.1824 115.8912-318.3872 141.056-48.2304 25.1136-75.008 24.8832-113.1008 6.656-38.0928-18.176-279.0912-115.5584-322.5088-136.2944C113.8176 420.7104 102.4 411.9552 102.4 403.6864v-82.816s313.7536-68.3008 364.416-86.4512c50.6368-18.176 68.224-18.8416 111.3344-3.072 43.1104 15.8208 300.8512 62.3104 343.4496 77.9008v81.664c0 8.1664-9.8304 17.152-32.1024 28.7488" fill="#912626" p-id="3767"></path>
      <path d="M889.4976 337.3312c-43.7248 22.784-270.1824 115.9168-318.4128 141.056-48.2048 25.1136-75.008 24.8832-113.0752 6.656-38.0928-18.176-279.0912-115.5328-322.4832-136.2944-43.4176-20.736-44.3136-35.0208-1.6896-51.712 42.6496-16.7168 282.3168-110.7456 332.9792-128.9216 50.6624-18.176 68.224-18.816 111.3344-3.0208 43.0848 15.7952 268.2112 105.3952 310.784 120.9856 42.624 15.616 44.288 28.4672 0.5632 51.2512" fill="#C6302B" p-id="3768"></path>
      <path d="M612.096 256.768l-70.4 7.3216-15.7952 37.9392-25.4464-42.3424-81.3312-7.296 60.672-21.888-18.2016-33.5872 56.832 22.2208 53.5296-17.536-14.464 34.7392 54.6048 20.4544m-90.3936 184.064l-131.456-54.528 188.3648-28.928-56.9088 83.456m-182.2464-162.9952c55.6032 0 100.6848 17.4848 100.6848 39.04 0 21.5552-45.056 39.0144-100.6848 39.0144-55.6032 0-100.6592-17.4848-100.6592-39.0144 0-21.5552 45.056-39.04 100.6592-39.04" fill="#FFFFFF" p-id="3769"></path>
      <path d="M695.3472 267.1616l111.4624 44.032-111.36 44.032-0.1024-88.064" fill="#621B1C" p-id="3770"></path>
      <path d="M572.0064 315.9296l123.3408-48.768 0.1024 88.064-12.1088 4.7104-111.3344-44.0064" fill="#9A2928" p-id="3771"></path>
    </g>
  </g>
</svg>