<?xml version="1.0" encoding="utf-8"?>
<svg version="1.1" xmlns:xlink="http://www.w3.org/1999/xlink" width="16px" height="16px" xmlns="http://www.w3.org/2000/svg">
  <g transform="matrix(1 0 0 1 -431 -253 )">
    <path d="M 8 16  C 12.4177777777778 16  16 12.4177777777778  16 8  C 16 3.58222222222221  12.4177777777778 0  8 0  C 3.58222222222224 0  0 3.58222222222221  0 8  C 0 12.4177777777778  3.58222222222224 16  8 16  Z M 11.7653333333334 4.98311111111116  C 12.0142222222223 5.23200000000006  12.0142222222223 5.63911111111116  11.7653333333334 5.88800000000003  C 11.7653333333334 5.88800000000003  6.63644444444446 11.0168888888889  6.63644444444446 11.0168888888889  C 6.38755555555559 11.2657777777778  5.98044444444452 11.2657777777778  5.73155555555559 11.0168888888889  C 5.6853333333334 10.9706666666667  5.64622222222226 10.9173333333334  5.6177777777778 10.8622222222223  C 5.6177777777778 10.8622222222223  4.13155555555562 8.28977777777783  4.13155555555562 8.28977777777783  C 3.95555555555558 7.98577777777783  4.0604444444445 7.59111111111116  4.36622222222229 7.41511111111114  C 4.67022222222226 7.23911111111116  5.06488888888896 7.34400000000005  5.24088888888895 7.64977777777781  C 5.24088888888895 7.64977777777781  6.32177777777781 9.52177777777783  6.32177777777781 9.52177777777783  C 6.32177777777781 9.52177777777783  10.8604444444445 4.98311111111116  10.8604444444445 4.98311111111116  C 11.1093333333334 4.73422222222226  11.5164444444445 4.73422222222226  11.7653333333334 4.98311111111116  Z " fill-rule="nonzero" fill="#ffffff" stroke="none" transform="matrix(1 0 0 1 431 253 )" />
  </g>
</svg>