<?xml version="1.0" encoding="utf-8"?>
<svg version="1.1" xmlns:xlink="http://www.w3.org/1999/xlink" width="16px" height="16px" xmlns="http://www.w3.org/2000/svg">
  <g transform="matrix(1 0 0 1 -311 -334 )">
    <path d="M 8 16  C 12.4177777777777 16  16 12.4177777777777  16 8  C 16 3.5822222222223  12.4177777777777 0  8 0  C 3.5822222222223 0  0 3.5822222222223  0 8  C 0 12.4177777777777  3.5822222222223 16  8 16  Z M 11.7653333333337 4.9831111111107  C 12.0142222222221 5.23199999999997  12.0142222222221 5.63911111111065  11.7653333333337 5.88799999999992  C 11.7653333333337 5.88799999999992  6.63644444444435 11.0168888888888  6.63644444444435 11.0168888888888  C 6.38755555555599 11.2657777777777  5.9804444444444 11.2657777777777  5.73155555555604 11.0168888888888  C 5.6853333333338 10.9706666666666  5.6462222222226 10.9173333333333  5.61777777777752 10.862222222222  C 5.61777777777752 10.862222222222  4.13155555555568 8.28977777777754  4.13155555555568 8.28977777777754  C 3.95555555555529 7.98577777777746  4.06044444444433 7.59111111111088  4.36622222222195 7.41511111111095  C 4.67022222222204 7.23911111111101  5.06488888888907 7.3439999999996  5.24088888888946 7.64977777777767  C 5.24088888888946 7.64977777777767  6.32177777777815 9.52177777777752  6.32177777777815 9.52177777777752  C 6.32177777777815 9.52177777777752  10.8604444444445 4.9831111111107  10.8604444444445 4.9831111111107  C 11.1093333333338 4.73422222222189  11.5164444444445 4.73422222222189  11.7653333333337 4.9831111111107  Z " fill-rule="nonzero" fill="#73d13d" stroke="none" transform="matrix(1 0 0 1 311 334 )" />
  </g>
</svg>