<?xml version="1.0" encoding="utf-8"?>
<svg version="1.1" xmlns:xlink="http://www.w3.org/1999/xlink" width="16px" height="16px" xmlns="http://www.w3.org/2000/svg">
  <g transform="matrix(1 0 0 1 -53 -309 )">
    <path d="M 15.6487193756755 15.3109375  C 15.4159068761232 15.14375  15.1752818765859 14.9515625  14.9330943770517 14.7984375  C 14.5221568778419 14.540625  14.0455943787584 14.3921875  13.6190318795786 14.1328125  C 13.3784068800414 13.9875  13.1471568804861 13.8078125  12.9237193809158 13.640625  C 12.7190318813094 13.4875  12.526844381679 13.171875  12.3909068819404 12.953125  C 12.3205943820756 12.8390625  12.2674693821777 12.7234375  12.178406882349 12.63125  C 12.2049693822979 12.4296875  12.4315318818622 12.396875  12.5940318815497 12.328125  C 13.0627818806483 12.171875  13.8612193791129 12.040625  14.7346568774333 12.0640625  C 14.7080943774843 11.8421875  14.167469378524 11.571875  13.9909068788635 11.4484375  C 13.6377818795426 11.2015625  13.2737193802427 10.934375  12.8987193809638 10.709375  C 12.7018443813424 10.5921875  12.3612193819975 10.5015625  12.1549693823941 10.4140625  C 11.858094382965 10.290625  11.2065318842179 10.1703125  11.0377818845425 9.94531249999997  C 10.7174693851584 9.52031249999999  10.4955943855851 9.00312499999998  10.2690318860208 8.49218749999997  C 10.0409068864595 7.97968749999998  9.75340688701235 7.44062499999998  9.52371938745404 6.91562499999998  C 9.41121938767038 6.65624999999997  9.35496938777856 6.42187499999997  9.22684438802494 6.17656249999996  C 8.42684438956337 4.65468749999997  7.2580943918109 3.37812499999995  5.82684439456324 2.48281249999997  C 5.35653189546766 2.18906249999998  4.83934439646223 1.91718749999995  4.26278189757097 1.74374999999998  C 3.93621939819896 1.64531249999996  3.54559439895014 1.69999999999996  3.1955943996232 1.62031249999995  C 3.1955943996232 1.62031249999995  2.97215690005288 1.62031249999995  2.97215690005288 1.62031249999995  C 2.77684440042847 1.56249999999997  2.61278190074397 1.35781249999997  2.45028190105646 1.24999999999997  C 2.11278190170548 1.02968749999997  1.78153190234249 0.873437499999966  1.38309440310869 0.709374999999966  C 1.23309440339715 0.646874999999966  0.83309440416636 0.499999999999972  0.687781904445797 0.610937499999977  C 0.603406904608055 0.639062499999966  0.565906904680167 0.673437499999977  0.539344404731247 0.759374999999977  C 0.454969404893505 0.885937499999955  0.531531904746271 1.08124999999995  0.589344404635096 1.20312499999997  C 0.748719404328614 1.54687499999997  0.978406903886919 1.75624999999997  1.1846569034903 2.04062499999998  C 1.37059440313273 2.29687499999997  1.59715690269704 2.58906249999995  1.72996940244164 2.87812499999995  C 2.0096569019038 3.48124999999996  2.13465690166342 4.15156249999998  2.40028190115261 4.74999999999997  C 2.5034069009543 4.97812499999998  2.65028190067186 5.24062499999997  2.79715690038941 5.43906249999998  C 2.91590690016105 5.59999999999997  3.1299693997494 5.72031249999998  3.19403189962621 5.93124999999998  C 3.3299693993648 6.14218749999998  2.99559440000781 6.86093749999998  2.92215690014903 7.08906249999998  C 2.6362194006989 7.97187499999998  2.69715690058171 9.20468749999998  3.02059439995974 9.97187499999998  C 3.14871939971335 10.275  3.27059439947898 10.628125  3.61590689881493 10.709375  C 3.68934439867371 10.11875  3.76434439852948 9.52656249999998  3.96278189814788 9.06093749999997  C 4.0877818979075 8.76874999999998  4.32371939745379 8.56874999999997  4.4846568971443 8.32187499999998  C 4.60340689691594 8.38906249999997  4.60184439691895 8.58593749999997  4.65809439681078 8.71562499999999  C 4.80496939652833 9.05312499999997  4.95653189623687 9.41874999999999  5.12996939590335 9.74999999999997  C 5.49403189520325 10.44375  5.89403189443404 11.1109375  6.34559439356567 11.7203125  C 6.50653189325618 11.9375  7.10028189211438 12.4828125  7.16434439199119 12.5828125  C 6.83153189263119 12.46875  5.3112193955548 11.0421875  4.9799693961918 10.5140625  C 4.9799693961918 10.5140625  4.53309439705115 9.60312499999998  4.53309439705115 9.60312499999998  C 4.48309439714731 9.68906249999998  4.49090689713228 9.77499999999998  4.45809439719538 9.89843749999997  C 4.31746939746581 10.440625  4.42684439725548 11.0546875  3.93621939819896 11.253125  C 3.37528189927766 11.4796875  2.9674694000619 10.8890625  2.79559440039242 10.6125  C 2.23153190147713 9.71406249999998  2.08621940175656 8.20624999999998  2.47371940101139 6.99218749999997  C 2.55965690084613 6.72343749999999  2.5674694008311 6.39218749999998  2.72215690053364 6.17968749999997  C 2.69715690058171 5.98906249999999  2.54090690088219 5.93437499999999  2.44871940105947 5.81093749999997  C 2.30028190134492 5.60937499999997  2.17059440159431 5.37187499999999  2.05184440182267 5.14531249999999  C 1.81903190227037 4.69999999999999  1.66121940257385 4.17499999999998  1.48153190291939 3.69218749999999  C 1.40809440306062 3.49687499999999  1.39246940309067 3.31093749999997  1.30809440325292 3.12656249999998  C 1.17840690350231 2.84531249999998  0.944031903953023 2.56406249999998  0.76278190430157 2.31406249999998  C 0.50340690480036 1.95312499999997  -0.22315559380244 1.26562499999997  0.0674694056386822 0.562499999999972  C 0.528406904752286 -0.554687500000028  2.12528190168145 0.295312499999966  2.74871940048256 0.68437499999996  C 2.90496940018209 0.782812499999977  3.07840689984856 0.985937499999977  3.24559439952706 1.05468749999997  C 3.24559439952706 1.05468749999997  4.06434439795258 1.10312499999998  4.06434439795258 1.10312499999998  C 4.57215689697604 1.22343749999996  5.05496939604758 1.31406249999998  5.45340689528137 1.54687499999997  C 7.33309439166668 2.63906249999997  8.54559438933501 3.74843749999997  9.6721568871686 5.58593749999997  C 9.90653188671789 5.96874999999997  10.0299693864805 6.39062499999997  10.2174693861199 6.81718749999996  C 10.4940318855881 7.44999999999996  10.7924693850142 8.07499999999999  11.1112193844012 8.68906249999998  C 11.2596568841158 8.97343749999999  11.3643443839145 9.28281249999998  11.5580943835419 9.52656249999998  C 11.6393443833856 9.62968749999999  11.856531882968 9.66249999999997  11.9799693827306 9.72343749999999  C 12.3471568820245 9.90781249999998  12.7752818812012 10.046875  13.1221568805342 10.2640625  C 13.7471568793323 10.6546875  14.3534068781664 11.125  14.9080943770997 11.59375  C 15.1205943766911 11.7734375  15.2596568764237 12.0359375  15.4534068760511 12.234375  C 15.2799693763846 12.2828124999999  15.1065318767181 12.43125  14.9315318770547 12.4796875  C 14.5455943777968 12.578125  14.2127818784368 12.553125  13.839344379155 12.6515625  C 13.6174693795817 12.7109375  13.3346568801255 12.7984375  13.0940318805882 12.825  C 13.2346568803178 13.2171875  14.0205943788064 13.5671875  14.3596568781544 13.809375  C 14.7846568773371 14.1125  15.1846568765679 14.478125  15.5002818759609 14.8921875  C 15.5002818759609 14.8921875  15.823719375339 15.2125  15.823719375339 15.2125  C 15.8971568751977 15.3171875  15.9174693751587 15.45625  15.9971568750054 15.5578125  C 15.8455943752969 15.5046875  15.7659068754502 15.3953125  15.6487193756755 15.3109375  Z M 4.06278189795561 3.14687500000005  C 4.06278189795561 3.40937500000007  3.99403189808781 3.58125000000007  3.83934439838528 3.68750000000006  C 3.83934439838528 3.68750000000006  3.5674693989081 3.19687500000006  3.5674693989081 3.19687500000006  C 3.45965689911543 3.04531250000005  3.3065318994099 2.93125000000006  3.21903189957816 2.75312500000007  C 3.36590689929572 2.71875000000006  3.49090689905534 2.67656250000007  3.64090689876688 2.67968750000006  C 3.72996939859561 2.76562500000006  3.8674693983312 2.82343750000007  3.93778189819598 2.92500000000007  C 3.99090689809382 3.00156250000006  4.0002818980758 3.08281250000007  4.06278189795561 3.14687500000005  Z " fill-rule="nonzero" fill="#f1f2f3" stroke="none" transform="matrix(1 0 0 1 53 309 )" />
  </g>
</svg>