<?xml version="1.0" encoding="utf-8"?>
<svg version="1.1" xmlns:xlink="http://www.w3.org/1999/xlink" width="13px" height="16px" xmlns="http://www.w3.org/2000/svg">
  <g transform="matrix(1 0 0 1 -56 -351 )">
    <path d="M 2.63087248322148 14.8545861297539  C 2.63087248322148 14.8545861297539  0.572706935123044 14.8545861297539  0.572706935123044 14.8545861297539  C 0.255928411633111 14.8545861297539  0 15.110514541387  0 15.4272930648769  C 0 15.7440715883669  0.255928411633111 16  0.572706935123044 16  C 0.572706935123044 16  12.0268456375839 16  12.0268456375839 16  C 12.3436241610738 16  12.5995525727069 15.7440715883669  12.5995525727069 15.4272930648769  C 12.5995525727069 15.110514541387  12.3436241610738 14.8545861297539  12.0268456375839 14.8545861297539  C 12.0268456375839 14.8545861297539  9.96868008948546 14.8545861297539  9.96868008948546 14.8545861297539  C 9.96868008948546 14.8545861297539  9.17762863534676 11.9051454138702  9.17762863534676 11.9051454138702  C 11.2089485458613 10.8599552572707  12.5995525727069 8.74272930648772  12.5995525727069 6.29977628635345  C 12.5995525727069 2.82058165548096  9.77897091722595 0  6.29977628635347 0  C 2.82058165548099 0  0 2.82058165548096  0 6.29977628635345  C 0 8.74272930648772  1.39060402684564 10.8599552572707  3.42192393736018 11.9051454138702  C 3.42192393736018 11.9051454138702  2.63087248322148 14.8545861297539  2.63087248322148 14.8545861297539  Z M 6.29977628635346 11.4541387024609  C 3.45234899328858 11.4541387024609  1.14541387024608 9.14720357941837  1.14541387024608 6.29977628635345  C 1.14541387024608 3.45234899328858  3.45234899328858 1.1454138702461  6.29977628635346 1.1454138702461  C 9.14720357941833 1.1454138702461  11.4541387024608 3.45234899328858  11.4541387024608 6.29977628635345  C 11.4541387024608 9.14720357941837  9.14720357941833 11.4541387024609  6.29977628635346 11.4541387024609  Z M 6.29977628635347 12.599552572707  C 6.92796420581656 12.599552572707  7.53467561521253 12.5082774049217  8.10738255033557 12.3364653243848  C 8.10738255033557 12.3364653243848  8.78210290827741 14.8545861297539  8.78210290827741 14.8545861297539  L 3.81744966442953 14.8545861297539  C 3.81744966442953 14.8545861297539  4.49217002237136 12.3364653243848  4.49217002237136 12.3364653243848  C 5.06487695749441 12.5082774049217  5.67158836689038 12.599552572707  6.29977628635347 12.599552572707  Z M 6.29977628635346 2.8635346756152  C 4.71767337807606 2.8635346756152  3.43624161073825 4.14496644295298  3.43624161073825 5.7270693512304  C 3.43624161073825 7.30917225950782  4.71767337807606 8.5906040268456  6.29977628635346 8.5906040268456  C 7.88187919463087 8.5906040268456  9.16331096196868 7.30917225950782  9.16331096196868 5.7270693512304  C 9.16331096196868 4.14496644295298  7.88187919463087 2.8635346756152  6.29977628635346 2.8635346756152  Z M 8.0178970917226 5.7270693512304  C 8.0178970917226 6.67561521252799  7.24832214765101 7.44519015659955  6.29977628635347 7.44519015659955  C 5.35123042505593 7.44519015659955  4.58165548098434 6.67561521252799  4.58165548098434 5.7270693512304  C 4.58165548098434 4.77852348993287  5.35123042505593 4.0089485458613  6.29977628635347 4.0089485458613  C 7.24832214765101 4.0089485458613  8.0178970917226 4.77852348993287  8.0178970917226 5.7270693512304  Z " fill-rule="nonzero" fill="#ffffff" stroke="none" transform="matrix(1 0 0 1 56 351 )" />
  </g>
</svg>