<?xml version="1.0" encoding="utf-8"?>
<svg version="1.1" xmlns:xlink="http://www.w3.org/1999/xlink" width="12px" height="16px" xmlns="http://www.w3.org/2000/svg">
  <g transform="matrix(1 0 0 1 -56 -445 )">
    <path d="M 0 0.53333333333336  C 0 0.53333333333336  0 15.4666666666666  0 15.4666666666666  C 0 15.76  0.239999999999998 16  0.533333333333335 16  C 0.533333333333335 16  11.2 16  11.2 16  C 11.4933333333333 16  11.7333333333333 15.76  11.7333333333333 15.4666666666666  C 11.7333333333333 15.4666666666666  11.7333333333333 4.80000000000001  11.7333333333333 4.80000000000001  C 11.7333333333333 4.75666666666666  11.7283333333333 4.71333333333331  11.7183333333333 4.67333333333335  C 11.705 4.56  11.6533333333333 4.44999999999999  11.5666666666667 4.36166666666668  C 11.5666666666667 4.36166666666668  7.37166666666667 0.166666666666686  7.37166666666667 0.166666666666686  C 7.285 0.0799999999999841  7.175 0.0299999999999727  7.06 0.0149999999999864  C 7.02 0.00499999999999545  6.97666666666667 0  6.93333333333333 0  C 6.93333333333333 0  0.533333333333335 0  0.533333333333335 0  C 0.239999999999998 0  0 0.240000000000009  0 0.53333333333336  Z M 6.40000000000001 1.06666666666672  C 6.40000000000001 1.06666666666672  6.40000000000001 4.80000000000007  6.40000000000001 4.80000000000007  C 6.40000000000001 5.09333333333336  6.64 5.33333333333337  6.93333333333334 5.33333333333337  C 6.93333333333334 5.33333333333337  10.6666666666667 5.33333333333337  10.6666666666667 5.33333333333337  L 10.6666666666667 14.9333333333334  L 1 14.9333333333334  L 1 1.06666666666672  L 6.40000000000001 1.06666666666672  Z M 2.66666666666667 12.2666666666667  C 2.66666666666667 12.5599999999999  2.90666666666667 12.8  3.2 12.8  C 3.2 12.8  8.53333333333334 12.8  8.53333333333334 12.8  C 8.82666666666667 12.8  9.06666666666667 12.5599999999999  9.06666666666667 12.2666666666667  C 9.06666666666667 11.9733333333333  8.82666666666667 11.7333333333333  8.53333333333334 11.7333333333333  C 8.53333333333334 11.7333333333333  3.2 11.7333333333333  3.2 11.7333333333333  C 2.90666666666667 11.7333333333333  2.66666666666667 11.9733333333333  2.66666666666667 12.2666666666667  Z M 3.2 10.6666666666667  C 3.2 10.6666666666667  8.53333333333334 10.6666666666667  8.53333333333334 10.6666666666667  C 8.82666666666667 10.6666666666667  9.06666666666667 10.4266666666667  9.06666666666667 10.1333333333333  C 9.06666666666667 9.84000000000003  8.82666666666667 9.60000000000002  8.53333333333334 9.60000000000002  C 8.53333333333334 9.60000000000002  3.2 9.60000000000002  3.2 9.60000000000002  C 2.90666666666667 9.60000000000002  2.66666666666667 9.84000000000003  2.66666666666667 10.1333333333333  C 2.66666666666667 10.4266666666667  2.90666666666667 10.6666666666667  3.2 10.6666666666667  Z M 8.53333333333334 8.53333333333325  C 8.82666666666667 8.53333333333325  9.06666666666667 8.29333333333324  9.06666666666667 7.99999999999989  C 9.06666666666667 7.70666666666659  8.82666666666667 7.46666666666658  8.53333333333334 7.46666666666658  C 8.53333333333334 7.46666666666658  3.2 7.46666666666658  3.2 7.46666666666658  C 2.90666666666667 7.46666666666658  2.66666666666667 7.70666666666659  2.66666666666667 7.99999999999989  C 2.66666666666667 8.29333333333324  2.90666666666667 8.53333333333325  3.2 8.53333333333325  C 3.2 8.53333333333325  8.53333333333334 8.53333333333325  8.53333333333334 8.53333333333325  Z M 7.46666666666667 1.77166666666659  L 9.96166666666667 4.26666666666659  L 7.46666666666667 4.26666666666659  L 7.46666666666667 1.77166666666659  Z " fill-rule="nonzero" fill="#f1f2f3" stroke="none" transform="matrix(1 0 0 1 56 445 )" />
  </g>
</svg>