<?xml version="1.0" encoding="utf-8"?>
<svg version="1.1" xmlns:xlink="http://www.w3.org/1999/xlink" width="15px" height="16px" xmlns="http://www.w3.org/2000/svg">
  <g transform="matrix(1 0 0 1 -57 -505 )">
    <path d="M 14 0.457812499999989  C 14 0.206250000000011  13.775 0  13.5 0  C 13.5 0  1.5 0  1.5 0  C 1.225 0  1 0.206250000000011  1 0.457812499999989  C 1 0.457812499999989  0.0171874999999986 10.371875  0.0171874999999986 10.371875  C 0.00625000000000142 10.4125  0 10.45625  0 10.5  C 0 10.5  0 15.5  0 15.5  C 0 15.775  0.225000000000001 16  0.5 16  C 0.5 16  14.5 16  14.5 16  C 14.775 16  15 15.775  15 15.5  C 15 15.5  15 10.5  15 10.5  C 15 10.45625  14.99375 10.4125  14.9828125 10.371875  C 14.9828125 10.371875  14.246875 2.94999999999999  14.246875 2.94999999999999  L 13.278125 3.50937499999998  L 14 10  L 1 10  L 2 1  L 13 1  L 13.1578125 2.42500000000001  L 14.1390625 1.859375  C 14.1390625 1.859375  14 0.457812499999989  14 0.457812499999989  Z M 1 15  L 1 11  L 14 11  L 14 15  L 1 15  Z M 11.5 5.625  C 11.5 4.24374999999998  9.709375 3.125  7.5 3.125  C 5.290625 3.125  3.5 4.24374999999998  3.5 5.625  C 3.5 7.00625000000002  5.290625 8.125  7.5 8.125  C 9.709375 8.125  11.5 7.00625000000002  11.5 5.625  Z M 13.25 13  C 13.25 12.171875  12.578125 11.5  11.75 11.5  C 10.921875 11.5  10.25 12.171875  10.25 13  C 10.25 13.828125  10.921875 14.5  11.75 14.5  C 12.578125 14.5  13.25 13.828125  13.25 13  Z M 7.5 4.125  C 9.15625 4.125  10.5 4.796875  10.5 5.625  C 10.5 6.453125  9.15625 7.125  7.5 7.125  C 5.84375 7.125  4.5 6.453125  4.5 5.625  C 4.5 4.796875  5.84375 4.125  7.5 4.125  Z M 1.75 11.875  C 1.75 11.875  1.75 14.125  1.75 14.125  C 1.75 14.33125  1.91875 14.5  2.125 14.5  C 2.33125 14.5  2.5 14.33125  2.5 14.125  C 2.5 14.125  2.5 11.875  2.5 11.875  C 2.5 11.66875  2.33125 11.5  2.125 11.5  C 1.91875 11.5  1.75 11.66875  1.75 11.875  Z M 3.25 14.125  C 3.25 14.33125  3.41875 14.5  3.625 14.5  C 3.83125 14.5  4 14.33125  4 14.125  C 4 14.125  4 11.875  4 11.875  C 4 11.66875  3.83125 11.5  3.625 11.5  C 3.41875 11.5  3.25 11.66875  3.25 11.875  C 3.25 11.875  3.25 14.125  3.25 14.125  Z M 5.125 14.5  C 5.33125 14.5  5.5 14.33125  5.5 14.125  C 5.5 14.125  5.5 11.875  5.5 11.875  C 5.5 11.66875  5.33125 11.5  5.125 11.5  C 4.91875 11.5  4.75 11.66875  4.75 11.875  C 4.75 11.875  4.75 14.125  4.75 14.125  C 4.75 14.33125  4.91875 14.5  5.125 14.5  Z M 7 14.125  C 7 14.125  7 11.875  7 11.875  C 7 11.66875  6.83125 11.5  6.625 11.5  C 6.41875 11.5  6.25 11.66875  6.25 11.875  C 6.25 11.875  6.25 14.125  6.25 14.125  C 6.25 14.33125  6.41875 14.5  6.625 14.5  C 6.83125 14.5  7 14.33125  7 14.125  Z M 8.5 11.875  C 8.5 11.66875  8.33125 11.5  8.125 11.5  C 7.91875 11.5  7.75 11.66875  7.75 11.875  C 7.75 11.875  7.75 14.125  7.75 14.125  C 7.75 14.33125  7.91875 14.5  8.125 14.5  C 8.33125 14.5  8.5 14.33125  8.5 14.125  C 8.5 14.125  8.5 11.875  8.5 11.875  Z M 11.75 13.75  C 11.3359375 13.75  11 13.4140625  11 13  C 11 12.5859375  11.3359375 12.25  11.75 12.25  C 12.1640625 12.25  12.5 12.5859375  12.5 13  C 12.5 13.4140625  12.1640625 13.75  11.75 13.75  Z " fill-rule="nonzero" fill="#f1f2f3" stroke="none" transform="matrix(1 0 0 1 57 505 )" />
  </g>
</svg>