<?xml version="1.0" encoding="utf-8"?>
<svg version="1.1" xmlns:xlink="http://www.w3.org/1999/xlink" width="16px" height="15px" xmlns="http://www.w3.org/2000/svg">
  <g transform="matrix(1 0 0 1 -62 -170 )">
    <path d="M 16 8  C 16 3.58222222222223  12.4177777777778 0  8 0  C 3.58222222222222 0  0 3.58222222222223  0 8  C 0 10.5546666666667  1.19644444444445 12.8284444444444  3.05955555555555 14.2933333333333  C 3.05955555555555 14.2933333333333  5.63733333333333 14.2933333333333  5.63733333333333 14.2933333333333  C 5.63733333333333 14.2933333333333  10.4053333333333 14.2755555555556  10.4053333333333 14.2755555555556  C 10.4053333333333 14.2755555555556  12.9368888888889 14.2933333333333  12.9368888888889 14.2933333333333  C 14.8035555555556 12.8284444444444  16 10.5546666666667  16 8  Z M 1.28 8.00000000000001  C 1.28 4.28800000000001  4.288 1.28  8 1.28  C 11.712 1.28  14.72 4.28800000000001  14.72 8.00000000000001  C 14.72 9.98400000000001  13.8613333333333 11.7653333333333  12.4942222222222 12.9955555555556  C 12.4942222222222 12.9955555555556  3.50577777777778 12.9955555555556  3.50577777777778 12.9955555555556  C 2.13866666666667 11.7653333333333  1.28 9.98400000000001  1.28 8.00000000000001  Z M 7.34933333333333 3.48444444444441  C 7.34933333333333 3.83644444444441  7.63733333333333 4.12444444444441  7.98933333333333 4.12444444444441  C 8.34133333333332 4.12444444444441  8.62933333333333 3.83644444444441  8.62933333333333 3.48444444444441  C 8.62933333333333 3.48444444444441  8.62933333333333 2.84444444444441  8.62933333333333 2.84444444444441  C 8.62933333333333 2.4924444444444  8.34133333333332 2.20444444444441  7.98933333333333 2.20444444444441  C 7.63733333333333 2.20444444444441  7.34933333333333 2.4924444444444  7.34933333333333 2.84444444444441  C 7.34933333333333 2.84444444444441  7.34933333333333 3.48444444444441  7.34933333333333 3.48444444444441  Z M 5.09511111111111 5.72799999999999  C 5.344 5.47911111111111  5.344 5.07199999999999  5.09511111111111 4.8231111111111  C 5.09511111111111 4.8231111111111  4.64177777777778 4.36977777777777  4.64177777777778 4.36977777777777  C 4.39288888888889 4.12088888888889  3.98577777777778 4.12088888888889  3.73688888888889 4.36977777777777  C 3.488 4.61866666666666  3.488 5.02577777777778  3.73688888888889 5.27466666666666  C 3.73688888888889 5.27466666666666  4.19022222222222 5.72799999999999  4.19022222222222 5.72799999999999  C 4.43911111111111 5.97688888888888  4.84622222222222 5.97688888888888  5.09511111111111 5.72799999999999  Z M 12.2595555555556 5.27466666666666  C 12.5084444444445 5.02577777777778  12.5084444444445 4.61866666666666  12.2595555555556 4.36977777777777  C 12.0106666666667 4.12088888888889  11.6035555555556 4.12088888888889  11.3546666666667 4.36977777777777  C 11.3546666666667 4.36977777777777  10.9013333333333 4.8231111111111  10.9013333333333 4.8231111111111  C 10.6524444444444 5.07199999999999  10.6524444444444 5.47911111111111  10.9013333333333 5.72799999999999  C 11.1502222222222 5.97688888888888  11.5573333333333 5.97688888888888  11.8062222222222 5.72799999999999  C 11.8062222222222 5.72799999999999  12.2595555555556 5.27466666666666  12.2595555555556 5.27466666666666  Z M 2.16888888888889 8.6044444444444  C 2.16888888888889 8.9564444444444  2.45688888888889 9.2444444444444  2.80888888888889 9.2444444444444  C 2.80888888888889 9.2444444444444  3.44888888888889 9.2444444444444  3.44888888888889 9.2444444444444  C 3.80088888888889 9.2444444444444  4.08888888888889 8.9564444444444  4.08888888888889 8.6044444444444  C 4.08888888888889 8.25244444444439  3.80088888888889 7.9644444444444  3.44888888888889 7.9644444444444  C 3.44888888888889 7.9644444444444  2.80888888888889 7.9644444444444  2.80888888888889 7.9644444444444  C 2.45688888888889 7.9644444444444  2.16888888888889 8.25244444444439  2.16888888888889 8.6044444444444  Z M 12.48 9.2444444444444  C 12.48 9.2444444444444  13.12 9.2444444444444  13.12 9.2444444444444  C 13.472 9.2444444444444  13.76 8.9564444444444  13.76 8.6044444444444  C 13.76 8.25244444444439  13.472 7.9644444444444  13.12 7.9644444444444  C 13.12 7.9644444444444  12.48 7.9644444444444  12.48 7.9644444444444  C 12.128 7.9644444444444  11.84 8.25244444444439  11.84 8.6044444444444  C 11.84 8.9564444444444  12.128 9.2444444444444  12.48 9.2444444444444  Z M 9.408 6.31822222222226  C 9.65688888888889 6.06933333333338  10.064 6.06933333333338  10.3128888888889 6.31822222222226  C 10.5617777777778 6.56711111111115  10.5617777777778 6.97422222222225  10.3111111111111 7.22488888888893  C 10.3111111111111 7.22488888888893  9.21066666666667 8.32533333333338  9.21066666666667 8.32533333333338  C 9.232 8.41600000000004  9.24266666666666 8.51022222222225  9.24266666666666 8.60622222222226  C 9.24266666666666 9.31377777777782  8.67022222222222 9.88622222222226  7.96266666666667 9.88622222222226  C 7.25511111111111 9.88622222222226  6.68266666666667 9.31377777777782  6.68266666666667 8.60622222222226  C 6.68266666666667 7.8986666666667  7.25511111111111 7.32622222222226  7.96266666666667 7.32622222222226  C 8.096 7.32622222222226  8.22222222222222 7.34577777777781  8.34311111111111 7.38311111111115  C 8.34311111111111 7.38311111111115  9.408 6.31822222222226  9.408 6.31822222222226  Z " fill-rule="nonzero" fill="#f1f2f3" stroke="none" transform="matrix(1 0 0 1 62 170 )" />
  </g>
</svg>