<?xml version="1.0" encoding="utf-8"?>
<svg version="1.1" xmlns:xlink="http://www.w3.org/1999/xlink" width="105px" height="32px" xmlns="http://www.w3.org/2000/svg">
  <g transform="matrix(1 0 0 1 -218 -99 )">
    <path d="M 52.5 24.5919219317236  C 52.5 24.5919219317236  99.9802355396997 0.397507237559542  99.9802355396997 0.397507237559542  C 101.079577137555 -0.187879778529628  102.403307077495 -0.122942838560816  103.442409476376 0.567347757369651  C 104.481511875257 1.25763835330011  105.074187174426 2.46579684259155  104.992533041451 3.72724820744903  C 104.910878908476 4.98869957230651  104.167609781021 6.10702209883924  103.048536064901 6.65218552837716  C 103.048536064901 6.65218552837716  54.034150324826 31.6309329397382  54.034150324826 31.6309329397382  C 53.0683601324882 32.1230223534206  51.9316398675117 32.1230223534206  50.965849675174 31.6309329397382  C 50.965849675174 31.6309329397382  1.95146393509888 6.65218552837716  1.95146393509888 6.65218552837716  C 0.832390218979119 6.10702209883922  0.0891210915239064 4.98869957230649  0.00746695854882768 3.72724820744903  C -0.0741871744262528 2.46579684259156  0.518488124743264 1.25763835330011  1.55759052362434 0.567347757369651  C 2.59669292250542 -0.122942838560816  3.92042286244498 -0.187879778529628  5.01976446030027 0.397507237559542  C 5.01976446030027 0.397507237559542  52.5 24.5919219317236  52.5 24.5919219317236  Z " fill-rule="nonzero" fill="#ffffff" stroke="none" transform="matrix(1 0 0 1 218 99 )" />
  </g>
</svg>