<?xml version="1.0" encoding="utf-8"?>
<svg version="1.1" xmlns:xlink="http://www.w3.org/1999/xlink" width="6px" height="4px" xmlns="http://www.w3.org/2000/svg">
  <g transform="matrix(1 0 0 1 -1136 -90 )">
    <path d="M 5.97260915668537 3.48272846977951  C 5.88281438458011 3.78886055938549  5.58914429942025 4.00046274495798  5.25471982702693 3.9999992400461  C 5.11943208682757 3.99998029323475  4.9867339711813 3.9647480479856  4.87102791038827 3.8981264467416  C 4.87102791038827 3.8981264467416  0.359741132939773 1.31263472946897  0.359741132939773 1.31263472946897  C 0.132105384451395 1.18213148006538  -0.00497448926764175 0.946135526521722  0.000138174418919374 0.693544262058776  C 0.00525083810548182 0.440952997595831  0.151779303944207 0.210141044885274  0.384527716031173 0.0880530341720998  C 0.617276128118141 -0.0340349765410731  0.900884465154679 -0.0288509717365306  1.12852020955033 0.101652284113934  C 1.12852020955033 0.101652284113934  5.63980698699882 2.68714400138656  5.63980698699882 2.68714400138656  C 5.92626310948114 2.85114320942369  6.06240392879062 3.17659638017354  5.97260915668537 3.48272846977951  Z " fill-rule="nonzero" fill="#ffffff" stroke="none" transform="matrix(1 0 0 1 1136 90 )" />
  </g>
</svg>