<?xml version="1.0" encoding="utf-8"?>
<svg version="1.1" xmlns:xlink="http://www.w3.org/1999/xlink" width="5px" height="12px" xmlns="http://www.w3.org/2000/svg">
  <g transform="matrix(1 0 0 1 -1250 -87 )">
    <path d="M 1.43892949353057 0.752972211487835  C 1.4378188408346 0.337782952341835  1.11652611559788 0.00142158977440244  0.719689649780841 0  C 0.322677512864937 0.00116333349675464  0.00111191231772526 0.337599964836642  0 0.752972211487836  C 0 0.752972211487836  0 7.52972211487835  0 7.52972211487835  C 0.000272852221875816 7.75802969475548  0.099538519760269 7.97387766171076  0.269883618667816 8.11656983220669  C 0.269883618667816 8.11656983220669  3.77229827992939 11.7804855525433  3.77229827992939 11.7804855525433  C 4.05385251229989 12.0731714824856  4.50843019295212 12.0731714824856  4.78998442532261 11.7804855525433  C 5.07000519155913 11.4859362558112  5.07000519155913 11.0100497776523  4.78998442532262 10.7155004809202  C 4.78998442532262 10.7155004809202  1.43892949353057 7.20947362117994  1.43892949353057 7.20947362117994  C 1.43892949353057 7.20947362117994  1.43892949353057 0.752972211487835  1.43892949353057 0.752972211487835  Z " fill-rule="nonzero" fill="#ffffff" stroke="none" transform="matrix(1 0 0 1 1250 87 )" />
  </g>
</svg>