<?xml version="1.0" encoding="utf-8"?>
<svg version="1.1" xmlns:xlink="http://www.w3.org/1999/xlink" width="19px" height="17px" xmlns="http://www.w3.org/2000/svg">
  <g transform="matrix(1 0 0 1 -1127 -86 )">
    <path d="M 18.6897656250001 11.211328125  C 18.5859375000002 12.0365625  18.2158593750003 12.84375  17.5921875000001 13.612734375  C 17.1213281250002 14.193046875  16.5023437500001 14.753671875  15.7530468750001 15.279375  C 14.5042968750001 16.155234375  13.3155468750001 16.63875  13.2646875 16.65890625  C 13.2646875 16.65890625  13.129921875 16.71328125  13.129921875 16.71328125  L 0.0157031250000728 16.71328125  L 0.0157031250000728 11.105625  C 0.0157031250000728 11.105625  0.178359375000127 10.90078125  0.178359375000127 10.90078125  C 0.499226046143349 10.5122756165023  0.853980496921395 10.1530504596235  1.23843750000015 9.82734375  C 2.12906250000015 9.071015625  3.00492187500004 8.648671875  3.84000000000015 8.572265625  C 5.54132812500006 8.41640625  7.14726562500005 9.3065625  8.2096875000002 9.895546875  C 8.4935156250001 10.0528125  8.76210937500014 10.201640625  8.92078125000012 10.264453125  C 9.19781250000005 10.328203125  10.3945312500002 10.32984375  10.90921875 10.330546875  C 11.3831250000001 10.330546875  11.65921875 10.331953125  11.8167187500001 10.345078125  C 12.1549218750001 10.37296875  12.5503125 10.563984375  12.8617968750002 10.87078125  C 13.1550000000002 10.678828125  13.5916406250001 10.394765625  14.0435156250001 10.108359375  C 15.7389843750002 9.034453125  15.9958593750002 8.97515625  16.1491406250002 8.939765625  C 16.7709375000002 8.796328125  17.3346093750001 9.288984375  17.8514062500001 9.842578125  C 18.2238281250002 10.241015625  18.5310937500001 10.648359375  18.5444531250002 10.66546875  C 18.5444531250002 10.66546875  18.7282031250002 10.908984375  18.7282031250002 10.908984375  C 18.7282031250002 10.908984375  18.6897656250001 11.211328125  18.6897656250001 11.211328125  Z M 7.09781249999992 0.0142968749999994  C 8.97164062499996 0.0142968749999994  10.4962499999999 1.537734375  10.4962499999999 3.412734375  C 10.4962499999999 5.287734375  8.97187499999995 6.811171875  7.09781249999992 6.811171875  C 5.22398437499987 6.811171875  3.69937499999992 5.2865625  3.69937499999992 3.412734375  C 3.69937499999992 1.53890625  5.22398437499987 0.0142968749999994  7.09781249999992 0.0142968749999994  Z M 7.48195312500002 11.207578125  C 6.58031249999999 10.70765625  5.21765625000012 9.95249999999999  3.97617187500009 10.0659375  C 3.46242187500002 10.1128125  2.85117187500009 10.4259375  2.20921874999999 10.97109375  C 1.96350991183499 11.1804076050735  1.73183775888583 11.4056596442876  1.51570312500007 11.645390625  C 1.51570312500007 11.645390625  1.51570312500007 15.21328125  1.51570312500007 15.21328125  C 1.51570312500007 15.21328125  12.8306250000001 15.21328125  12.8306250000001 15.21328125  C 13.5608115340247 14.8869459582901  14.2585893424218 14.4924645094809  14.9146875000001 14.035078125  C 15.7952343750001 13.413984375  16.8600000000001 12.456328125  17.1461718750002 11.314453125  C 16.8569531250002 10.96125  16.5414843750002 10.630078125  16.3457812500001 10.473984375  C 15.8242968750001 10.74703125  14.5085156250002 11.576953125  13.3926562500001 12.31734375  C 13.3616674197308 12.5479604957499  13.2873120970416 12.7706288417704  13.1735156250002 12.97359375  C 12.9525000000001 13.37484375  12.5875781250002 13.7409375  12.0571875000001 14.092734375  C 10.7882812500002 14.93484375  9.1764843750002 15.07359375  7.39640625000015 14.493515625  C 6.15210937500001 14.0878125  4.97109375000014 13.350703125  4.546875 12.871875  C 4.546875 12.871875  5.671875 11.878125  5.671875 11.878125  C 5.84578125000007 12.074765625  6.72257812500015 12.695859375  7.86117187500008 13.066875  C 8.78789062500005 13.36875  10.1240625 13.575  11.2277343750002 12.84234375  C 11.7946875000002 12.466171875  11.9184375000002 12.18609375  11.9048437500001 12.09234375  C 11.8900781250002 11.991328125  11.7440625000002 11.871328125  11.6636718750001 11.83828125  C 11.5331250000002 11.831484375  11.2155468750002 11.831015625  10.9073437500001 11.83078125  C 9.43265625000004 11.828671875  8.75953125000001 11.80734375  8.40867187500021 11.6746875  C 8.14875000000006 11.578125  7.85460937500011 11.4140625  7.48195312500002 11.207578125  Z M 8.99624999999992 3.412734375  C 8.99495863351171 2.36479166284742  8.14575521215261 1.51558824148819  7.09781249999992 1.514296875  C 6.04933442024299 1.514296875  5.19937499999992 2.3642562952431  5.19937499999992 3.412734375  C 5.19937499999992 4.4612124547569  6.04933442024299 5.311171875  7.09781249999992 5.311171875  C 8.14629057975685 5.311171875  8.99624999999992 4.4612124547569  8.99624999999992 3.412734375  Z " fill-rule="nonzero" fill="#ffffff" stroke="none" transform="matrix(1 0 0 1 1127 86 )" />
  </g>
</svg>