<?xml version="1.0" encoding="utf-8"?>
<svg version="1.1" xmlns:xlink="http://www.w3.org/1999/xlink" width="88px" height="68px" xmlns="http://www.w3.org/2000/svg">
  <g transform="matrix(1 0 0 1 -213 -93 )">
    <path d="M 44 22.5  C 68.3 22.5  88 12.65  88 0.5  C 88 0.5  80 0.5  80 0.5  C 80 9.33750000000001  63.8875 16.5  44 16.5  C 24.1125 16.5  8 9.33750000000001  8 0.5  C 8 0.5  0 0.5  0 0.5  C 0 12.65  19.7 22.5  44 22.5  Z M 44 67.5  C 68.3 67.5  88 57.65  88 45.5  C 88 45.5  80 45.5  80 45.5  C 80 54.3375  63.8875 61.5  44 61.5  C 24.1125 61.5  8 54.3375  8 45.5  C 8 45.5  0 45.5  0 45.5  C 0 57.65  19.7 67.5  44 67.5  Z M 88 23  C 88 23  80 23  80 23  C 80 31.8375  63.8875 39  44 39  C 24.1125 39  8 31.8375  8 23  C 8 23  0 23  0 23  C 0 35.15  19.7 45  44 45  C 68.3 45  88 35.15  88 23  Z " fill-rule="nonzero" fill="#ffffff" stroke="none" transform="matrix(1 0 0 1 213 93 )" />
  </g>
</svg>