<?xml version="1.0" encoding="utf-8"?>
<svg version="1.1" xmlns:xlink="http://www.w3.org/1999/xlink" width="12px" height="8px" xmlns="http://www.w3.org/2000/svg">
  <g transform="matrix(1 0 0 1 -325 -426 )">
    <path d="M 4.765625 1.53125  C 4.765625 1.17031249999991  4.47031249999964 0.875  4.109375 0.875  C 3.74843750000036 0.875  3.453125 1.17031249999991  3.453125 1.53125  C 3.453125 1.53125  3.453125 6.78125  3.453125 6.78125  C 3.453125 7.14218750000009  3.74843750000036 7.4375  4.109375 7.4375  C 4.47031249999964 7.4375  4.765625 7.14218750000009  4.765625 6.78125  C 4.765625 6.78125  4.765625 1.53125  4.765625 1.53125  Z M 8.046875 1.53125  C 8.046875 1.17031249999991  7.75156249999964 0.875  7.390625 0.875  C 7.02968750000036 0.875  6.734375 1.17031249999991  6.734375 1.53125  C 6.734375 1.53125  6.734375 6.78125  6.734375 6.78125  C 6.734375 7.14218750000009  7.02968750000036 7.4375  7.390625 7.4375  C 7.75156249999964 7.4375  8.046875 7.14218750000009  8.046875 6.78125  C 8.046875 6.78125  8.046875 1.53125  8.046875 1.53125  Z M 0.828125 0.875  C 0.467187500000364 0.875  0.171875 1.17031249999991  0.171875 1.53125  C 0.171875 1.53125  0.171875 6.78125  0.171875 6.78125  C 0.171875 7.14218750000009  0.467187500000364 7.4375  0.828125 7.4375  C 1.18906249999964 7.4375  1.484375 7.14218750000009  1.484375 6.78125  C 1.484375 6.78125  1.484375 1.53125  1.484375 1.53125  C 1.484375 1.17031249999991  1.18906249999964 0.875  0.828125 0.875  Z M 10.015625 1.53125  C 10.015625 1.53125  10.015625 6.78125  10.015625 6.78125  C 10.015625 7.14218750000009  10.3109375000004 7.4375  10.671875 7.4375  C 11.0328124999996 7.4375  11.328125 7.14218750000009  11.328125 6.78125  C 11.328125 6.78125  11.328125 1.53125  11.328125 1.53125  C 11.328125 1.17031249999991  11.0328124999996 0.875  10.671875 0.875  C 10.3109375000004 0.875  10.015625 1.17031249999991  10.015625 1.53125  Z " fill-rule="nonzero" fill="#44a0f1" stroke="none" transform="matrix(1 0 0 1 325 426 )" />
  </g>
</svg>