<?xml version="1.0" encoding="utf-8"?>
<svg version="1.1" xmlns:xlink="http://www.w3.org/1999/xlink" width="17px" height="13px" xmlns="http://www.w3.org/2000/svg">
  <g transform="matrix(1 0 0 1 -28 -34 )">
    <path d="M 8.25 4.46875  C 12.8062499999996 4.46875  16.5 2.62187499999982  16.5 0.34375  C 16.5 0.34375  15 0.34375  15 0.34375  C 15 2.00078124999982  11.9789062500004 3.34375  8.25 3.34375  C 4.52109374999964 3.34375  1.5 2.00078124999982  1.5 0.34375  C 1.5 0.34375  0 0.34375  0 0.34375  C 0 2.62187499999982  3.69375000000036 4.46875  8.25 4.46875  Z M 8.25 12.90625  C 12.8062499999996 12.90625  16.5 11.0593749999998  16.5 8.78125  C 16.5 8.78125  15 8.78125  15 8.78125  C 15 10.4382812499998  11.9789062500004 11.78125  8.25 11.78125  C 4.52109374999964 11.78125  1.5 10.4382812499998  1.5 8.78125  C 1.5 8.78125  0 8.78125  0 8.78125  C 0 11.0593749999998  3.69375000000036 12.90625  8.25 12.90625  Z M 16.5 4.5625  C 16.5 4.5625  15 4.5625  15 4.5625  C 15 6.21953124999982  11.9789062500004 7.5625  8.25 7.5625  C 4.52109374999964 7.5625  1.5 6.21953124999982  1.5 4.5625  C 1.5 4.5625  0 4.5625  0 4.5625  C 0 6.84062499999982  3.69375000000036 8.6875  8.25 8.6875  C 12.8062499999996 8.6875  16.5 6.84062499999982  16.5 4.5625  Z " fill-rule="nonzero" fill="#44a0f1" stroke="none" transform="matrix(1 0 0 1 28 34 )" />
  </g>
</svg>