<?xml version="1.0" encoding="utf-8"?>
<svg version="1.1" xmlns:xlink="http://www.w3.org/1999/xlink" width="16px" height="10px" xmlns="http://www.w3.org/2000/svg">
  <g transform="matrix(1 0 0 1 -53 -266 )">
    <path d="M 16 5  C 16 7.761421875  13.761421875 10  11 10  C 11 10  5 10  5 10  C 2.238578125 10  0 7.761421875  0 5  C 0 2.238578125  2.238578125 0  5 0  C 5 0  11 0  11 0  C 13.761421875 0  16 2.238578125  16 5  Z M 5 9  C 5 9  11 9  11 9  C 13.209140625 9  15 7.209140625  15 5  C 15 2.790859375  13.209140625 1  11 1  C 11 1  5 1  5 1  C 2.790859375 1  1 2.790859375  1 5  C 1 7.209140625  2.790859375 9  5 9  Z M 11 7.5  C 11 7.5  5 7.5  5 7.5  C 3.61928125 7.5  2.5 6.38071875  2.5 5  C 2.5 3.61928125  3.61928125 2.5  5 2.5  C 5 2.5  11 2.5  11 2.5  C 12.38071875 2.5  13.5 3.61928125  13.5 5  C 13.5 6.38071875  12.38071875 7.5  11 7.5  Z M 12.5 5  C 12.5 4.17156249999999  11.8284375 3.5  11 3.5  C 11 3.5  5 3.5  5 3.5  C 4.1715625 3.5  3.5 4.17156249999999  3.5 5  C 3.5 5.82843750000001  4.1715625 6.5  5 6.5  C 5 6.5  11 6.5  11 6.5  C 11.8284375 6.5  12.5 5.82843750000001  12.5 5  Z " fill-rule="nonzero" fill="#f1f2f3" stroke="none" transform="matrix(1 0 0 1 53 266 )" />
  </g>
</svg>