<?xml version="1.0" encoding="utf-8"?>
<svg version="1.1" xmlns:xlink="http://www.w3.org/1999/xlink" width="17px" height="17px" xmlns="http://www.w3.org/2000/svg">
  <g transform="matrix(1 0 0 1 -359 -231 )">
    <path d="M 16.3928571428571 6.171875  C 16.3928571428571 6.171875  16.3928571428571 4.625  16.3928571428571 4.625  C 16.3957031250004 4.52656250000018  16.3501674107143 4.42109375000018  16.2590959821442 4.34609374999991  C 16.2590959821442 4.34609374999991  11.7510602678567 0.633593749999818  11.7510602678567 0.633593749999818  C 11.7169084821437 0.60546875  11.6799107142853 0.58203125  11.6372209821424 0.565625000000182  C 11.5632254464299 0.525781249999909  11.4750000000009 0.5  11.3810825892853 0.5  C 11.3810825892853 0.5  0.455357142857143 0.5  0.455357142857143 0.5  C 0.204910714286598 0.5  0 0.668749999999818  0 0.875  C 0 0.875  0 16.625  0 16.625  C 0 16.8312500000002  0.204910714286598 17  0.455357142857143 17  C 0.455357142857143 17  15.9375 17  15.9375 17  C 16.1879464285728 17  16.3928571428571 16.8312500000002  16.3928571428571 16.625  C 16.3928571428571 16.625  16.3928571428571 10.3601562499998  16.3928571428571 10.3601562499998  C 15.8236607142857 10.6953125  15.2117745535714 10.9859375000001  14.5714285714286 11.2320312500001  C 14.5714285714286 11.2320312500001  14.5714285714286 15.5  14.5714285714286 15.5  L 2 15.5  L 2 2  L 10.0178571428571 2  C 10.0178571428571 2  10.0178571428571 5.375  10.0178571428571 5.375  C 10.0178571428571 5.58125000000018  10.2227678571437 5.75  10.4732142857143 5.75  C 10.4732142857143 5.75  14.5714285714286 5.75  14.5714285714286 5.75  C 14.5714285714286 5.75  14.5714285714286 7.29453125000009  14.5714285714286 7.29453125000009  C 15.2316964285723 6.98046875  15.8435825892866 6.60312500000009  16.3928571428571 6.171875  Z M 11.8392857142857 4.25  L 11.8392857142857 2.82499999999982  L 13.569642857142 4.25  L 11.8392857142857 4.25  Z " fill-rule="nonzero" fill="#44a0f1" stroke="none" transform="matrix(1 0 0 1 359 231 )" />
  </g>
</svg>