<?xml version="1.0" encoding="utf-8"?>
<svg version="1.1" xmlns:xlink="http://www.w3.org/1999/xlink" width="30px" height="36px" xmlns="http://www.w3.org/2000/svg">
  <g transform="matrix(1 0 0 1 -52 -77 )">
    <path d="M 30 8.00555941626129  C 30 3.58418902015288  26.4183 0  22 0  C 22 0  8 0  8 0  C 3.5817 0  0 3.58418902015288  0 8.00555941626129  C 0 8.00555941626129  0 22.0152883947186  0 22.0152883947186  C 0 26.436658790827  3.5838 30.0416622654621  8.0021 30.0416622654621  C 8.0021 30.0416622654621  15.4731 30.0300542043085  15.4731 30.0300542043085  C 18.7133 30.1720528144545  21.4799 32.122107018763  22.7508 34.9242529534399  C 22.7508 34.9242529534399  22.7525 34.9242529534399  22.7525 34.9242529534399  C 22.7788 35.5225684503127  23.2705 36  23.875 36  C 24.4795 36  24.9711 35.5225684503127  24.9975 34.9242529534399  C 24.9975 34.9242529534399  25 30.2836302988186  25 30.2836302988186  C 23.621 27.1995886031967  20.3333 24.8547602501737  16.3439 25.0173731758165  C 16.3439 25.0173731758165  9.1 25.0173731758165  9.1 25.0173731758165  C 6.8356 25.0173731758165  5 23.1804975677554  5 20.9145239749826  C 5 20.9145239749826  5 9.10632383599722  5 9.10632383599722  C 5 6.84035024322446  6.8356 5.00347463516331  9.1 5.00347463516331  C 9.1 5.00347463516331  20.9 5.00347463516331  20.9 5.00347463516331  C 23.1644 5.00347463516331  25 6.84035024322446  25 9.10632383599722  C 25 9.10632383599722  25 20.2473606671299  25 20.2473606671299  C 25 20.2473606671299  25.0212 20.2582682418346  25.0212 20.2582682418346  C 25.1672 22.8212480889507  27.2897 24.8547602501737  29.8875 24.8547602501737  C 29.9252 24.8547602501737  29.9625 24.8527588603197  30 24.851958304378  C 30 24.851958304378  30 8.00555941626129  30 8.00555941626129  Z " fill-rule="nonzero" fill="#ffffff" stroke="none" transform="matrix(1 0 0 1 52 77 )" />
  </g>
</svg>