<?xml version="1.0" encoding="utf-8"?>
<svg version="1.1" xmlns:xlink="http://www.w3.org/1999/xlink" width="17px" height="9px" xmlns="http://www.w3.org/2000/svg">
  <g transform="matrix(1 0 0 1 -28 -26 )">
    <path d="M 8.25 8.25  C 12.8062499999996 8.25  16.5 6.40312499999982  16.5 4.125  C 16.5 1.84687500000018  12.8062499999996 0  8.25 0  C 3.69375000000036 0  0 1.84687500000018  0 4.125  C 0 6.40312499999982  3.69375000000036 8.25  8.25 8.25  Z M 8.25 1.125  C 11.9789062500004 1.125  15 2.46796875000018  15 4.125  C 15 5.78203124999982  11.9789062500004 7.125  8.25 7.125  C 4.52109374999964 7.125  1.5 5.78203124999982  1.5 4.125  C 1.5 2.46796875000018  4.52109374999964 1.125  8.25 1.125  Z " fill-rule="nonzero" fill="#44a0f1" stroke="none" transform="matrix(1 0 0 1 28 26 )" />
  </g>
</svg>