<?xml version="1.0" encoding="utf-8"?>
<svg version="1.1" xmlns:xlink="http://www.w3.org/1999/xlink" width="11px" height="12px" xmlns="http://www.w3.org/2000/svg">
  <g transform="matrix(1 0 0 1 -840 -754 )">
    <path d="M 10.1380438245312 7.36459252984378  C 9.79863256953126 8.2696892096875  9.34608422953124 8.94851171968753  8.72383026218745 9.57076568718753  C 7.76216503984369 10.5324309095313  6.40452001984374 11.0981163345313  5.046875 11.0981163345313  C 3.01040747015622 11.0981163345313  1.14364556781243 9.91017694218749  0.295117430468736 8.04341503968755  C 0.181980345468673 7.93027795468754  0.238548887968705 7.6474352421875  0.464823057968715 7.53429815734376  C 0.634528685468695 7.47772961484378  0.917371397968736 7.53429815734376  1.03050848281248 7.76057232734377  C 1.76589953531243 9.28792297468749  3.34981872515618 10.3061567396875  5.046875 10.3061567395313  C 7.02677398734374 10.3627252820312  8.78039880468748 9.06164880468754  9.34608422968745 7.13831835984377  C 9.40265277218748 6.96861273234379  9.62892694218749 6.85547564734378  9.85520111203118 6.85547564734378  C 10.0249067395313 6.91204418984375  10.1380438245312 7.13831835984377  10.1380438245312 7.36459252984378  Z M 10.3643179945312 3.06538330015633  C 10.3643179945312 3.17852038515633  10.3643179945312 3.40479455515629  10.2511809095313 3.51793164015629  C 10.2511809095313 3.51793164015629  10.1380438245312 3.6310687251563  10.1380438245312 3.6310687251563  C 9.91176965453121 3.7442058101563  9.6854954845312 3.6310687251563  9.62892694203128 3.46136309765632  C 8.89353588953122 1.93401245031254  7.30961669968747 0.915778685312546  5.61256042499997 0.915778685468808  C 3.68922998015614 0.915778685468808  1.87903662031249 2.16028662031255  1.31335119531241 4.08361706515632  C 1.25678265281249 4.2533226926563  1.03050848281248 4.3664597776563  0.804234312812468 4.3664597776563  C 0.577960142812458 4.14018560765629  0.464823057812396 3.91391143765628  0.521391600468633 3.7442058101563  C 1.14364556796863 1.53803265281255  3.23668164015623 0.0106820054688228  5.61256042499997 0.0106820054688228  C 7.64902795484375 0.0106820054688228  9.45922131468751 1.25518994031256  10.3643179945312 3.06538330015633  Z " fill-rule="nonzero" fill="#8a8b8c" stroke="none" transform="matrix(1 0 0 1 840 754 )" />
  </g>
</svg>