<?xml version="1.0" encoding="utf-8"?>
<svg version="1.1" xmlns:xlink="http://www.w3.org/1999/xlink" width="11px" height="11px" xmlns="http://www.w3.org/2000/svg">
  <g transform="matrix(1 0 0 1 -843 -513 )">
    <path d="M 10.5905921645312 3.51793164015629  C 10.4774550795313 3.6310687251563  10.4774550795313 3.7442058101563  10.4208865370313 3.80077435265633  C 10.3643179945312 3.85734289515631  10.1946123670313 3.91391143765634  10.1380438245312 3.97047998015631  C 10.1380438245312 3.97047998015631  7.42275378484374 3.97047998015631  7.42275378484374 3.97047998015631  C 7.19647961484372 3.97047998015631  7.02677398734374 3.80077435265633  7.02677398734374 3.57450018265632  C 7.02677398734374 3.34822601265631  7.19647961484372 3.17852038515633  7.42275378484374 3.17852038515633  C 7.42275378484374 3.17852038515633  9.79863256953126 3.17852038515633  9.79863256953126 3.17852038515633  C 9.79863256953126 3.17852038515633  9.79863256953126 0.802641600468803  9.79863256953126 0.802641600468803  C 9.79863256953126 0.576367430468792  9.96833819703124 0.406661802968813  10.1946123670313 0.406661802968813  C 10.4208865370313 0.406661802968813  10.5905921645312 0.576367430468792  10.5905921645312 0.802641600468803  C 10.5905921645312 0.802641600468803  10.5905921645312 3.51793164015629  10.5905921645312 3.51793164015629  Z M 3.1801130976562 7.3080239873438  C 3.4063872676561 7.3080239873438  3.57609289515619 7.47772961484384  3.57609289515619 7.70400378484385  C 3.63266143765611 7.76057232734382  3.57609289515619 7.81714086984385  3.46295581015613 7.9302779548438  C 3.4063872676561 7.98684649734383  3.23668164015612 8.04341503984381  3.1801130976562 8.09998358218758  C 3.1801130976562 8.09998358218758  0.860802855312386 8.0434150396876  0.860802855312386 8.0434150396876  C 0.860802855312386 8.0434150396876  0.860802855312386 10.4192938245313  0.860802855312386 10.4192938245313  C 0.860802855312386 10.6455679945313  0.691097227812406 10.8152736220313  0.464823057968715 10.8152736220313  C 0.238548887968705 10.8152736220313  0.068843260468725 10.6455679945313  0.068843260468725 10.4192938245313  C 0.068843260468725 10.4192938245313  0.012274717968694 7.64743524234382  0.012274717968694 7.64743524234382  C 0.012274717968694 7.42116107234381  0.181980345468673 7.25145544484383  0.408254515468684 7.25145544484383  C 0.408254515468684 7.25145544484383  3.1801130976562 7.3080239873438  3.1801130976562 7.3080239873438  Z " fill-rule="nonzero" fill="#8a8b8c" stroke="none" transform="matrix(1 0 0 1 843 513 )" />
  </g>
</svg>