<?xml version="1.0" encoding="utf-8"?>
<svg version="1.1" xmlns:xlink="http://www.w3.org/1999/xlink" width="106px" height="106px" xmlns="http://www.w3.org/2000/svg">
  <g transform="matrix(1 0 0 1 -218 -50 )">
    <path d="M 1.97830774999969 31.2164615  C 0.81134167844553 30.6325170210245  0.0742955649880059 29.4395295356575  0.0742955649880059 28.134615375  C 0.0742955649880059 26.8297012143425  0.811341678445501 25.6367137289754  1.97830774999969 25.05276925  C 1.97830774999969 25.05276925  51.2090768749997 0.437384624999964  51.2090768749997 0.437384624999964  C 52.1791307329489 -0.0475464241116157  53.3208692670505 -0.0475464241116086  54.2909231249997 0.437384624999972  C 54.2909231249997 0.437384624999972  103.52169225 25.05276925  103.52169225 25.05276925  C 104.688658321554 25.6367137289754  105.425704435011 26.8297012143425  105.425704435011 28.134615375  C 105.425704435011 29.4395295356575  104.688658321554 30.6325170210245  103.52169225 31.2164615  C 103.52169225 31.2164615  54.2909231249997 55.831846125  54.2909231249997 55.831846125  C 53.3208692670505 56.3167771741115  52.1791307329489 56.3167771741115  51.2090768749997 55.831846125  C 51.2090768749997 55.831846125  1.97830774999969 31.2164615  1.97830774999969 31.2164615  Z M 11.2238461249999 28.134615375  L 52.7499999999999 48.89523075  L 94.2761538749999 28.134615375  L 52.7499999999999 7.37400000000002  L 11.2238461249999 28.134615375  Z M 1.58269550898115 74.4509083705221  C 2.62638522423791 73.7706593475419  3.95595902329762 73.7066670373038  5.06015387499951 74.2835385000001  C 5.06015387499951 74.2835385000001  52.7499999999995 98.1260000000001  52.7499999999995 98.1260000000001  C 52.7499999999995 98.1260000000001  100.439846125 74.2835385000001  100.439846125 74.2835385000001  C 101.544040976701 73.7066670373038  102.873614775761 73.7706593475419  103.917304491018 74.4509083705221  C 104.960994206275 75.1311573935023  105.556285983963 76.3217409488787  105.474271373193 77.5648421348722  C 105.392256762423 78.8079433208658  104.645706331178 79.9099977462564  103.52169225 80.4472307500001  C 103.52169225 80.4472307500001  54.2909231249996 105.062615375  54.2909231249996 105.062615375  C 53.3208692670503 105.547546424112  52.1791307329487 105.547546424112  51.2090768749995 105.062615375  C 51.2090768749995 105.062615375  1.97830774999952 80.4472307500001  1.97830774999952 80.4472307500001  C 0.854293668821384 79.9099977462564  0.10774323757596 78.8079433208657  0.0257286268061137 77.5648421348722  C -0.0562859839637611 76.3217409488787  0.539005793724414 75.1311573935023  1.58269550898115 74.4509083705221  Z " fill-rule="nonzero" fill="#ffffff" stroke="none" transform="matrix(1 0 0 1 218 50 )" />
  </g>
</svg>