<?xml version="1.0" encoding="utf-8"?>
<svg version="1.1" xmlns:xlink="http://www.w3.org/1999/xlink" width="100px" height="90px" xmlns="http://www.w3.org/2000/svg">
  <g transform="matrix(1 0 0 1 -214 -50 )">
    <path d="M 98.496175084072 88.385794873087  C 97.5046680885721 89.4070470746437  96.1417333838559 89.983065981892  94.7183424428822 89.9824253075571  C 94.7183424428822 89.9824253075571  5.26213014059755 89.9824253075571  5.26213014059755 89.9824253075571  C 2.35593591232055 89.9824253075571  0 87.6264893952365  0 84.7202951669595  C 0 84.7202951669595  0 28.8364731107205  0 28.8364731107205  C 0 25.9302788824436  2.35593591232055 23.574342970123  5.26213014059755 23.574342970123  C 5.26213014059755 23.574342970123  11.1557159050967 23.574342970123  11.1557159050967 23.574342970123  C 11.1557159050967 23.574342970123  11.1557159050967 16.5757099297012  11.1557159050967 16.5757099297012  C 11.1557159050967 13.6695157014242  13.5116518174172 11.3135797891037  16.4178460456942 11.3135797891037  C 16.4178460456942 11.3135797891037  22.3114318101933 11.3135797891037  22.3114318101933 11.3135797891037  C 22.3114318101933 11.3135797891037  22.3114318101933 5.26213014059753  22.3114318101933 5.26213014059753  C 22.3114318101933 2.35593591232055  24.6673677225139 0  27.5735619507909 0  C 27.5735619507909 0  72.196425483304 0  72.196425483304 0  C 75.102619711581 0  77.4585556239015 2.35593591232055  77.4585556239015 5.26213014059753  C 77.4585556239015 5.26213014059753  77.4585556239015 11.1557159050967  77.4585556239015 11.1557159050967  C 77.4585556239015 11.1557159050967  83.1942774165202 11.1557159050967  83.1942774165202 11.1557159050967  C 84.5898811014883 11.1557159050967  85.9283244929329 11.7101173103016  86.9151653224228 12.6969581397915  C 87.9020061519127 13.6837989692815  88.4564075571177 15.0222423607261  88.4564075571177 16.4178460456942  C 88.4564075571177 16.4178460456942  88.4564075571177 23.258615202109  88.4564075571177 23.258615202109  C 88.4564075571177 23.258615202109  94.7183424428822 23.258615202109  94.7183424428822 23.258615202109  C 97.6245366711592 23.258615202109  99.9804725834798 25.6145511144295  99.9804725834798 28.5207453427065  C 99.9804725834798 28.5207453427065  99.9804725834798 84.5624312829525  99.9804725834798 84.5624312829525  C 100.023174454753 85.9851816937763  99.4876820795719 87.3645426715304  98.496175084072 88.385794873087  Z M 17 17  L 17 29  L 6 29  L 6 84  L 94 84  L 94 29  L 83 29  L 83 17  L 72 17  L 72 6  L 28 6  L 28 17  L 17 17  Z " fill-rule="nonzero" fill="#ffffff" stroke="none" transform="matrix(1 0 0 1 214 50 )" />
  </g>
</svg>