<?xml version="1.0" encoding="utf-8"?>
<svg version="1.1" xmlns:xlink="http://www.w3.org/1999/xlink" width="16px" height="16px" xmlns="http://www.w3.org/2000/svg">
  <g transform="matrix(1 0 0 1 -424 -335 )">
    <path d="M 8 16  C 12.4177777777777 16  16 12.4177777777777  16 8  C 16 3.5822222222223  12.4177777777777 0  8 0  C 3.5822222222223 0  0 3.5822222222223  0 8  C 0 12.4177777777777  3.5822222222223 16  8 16  Z M 8.90488888888922 8  L 10.7146666666667 9.80977777777753  C 10.9635555555551 10.0586666666668  10.9635555555551 10.4657777777775  10.7146666666667 10.7146666666667  C 10.4657777777775 10.9635555555556  10.0586666666668 10.9635555555556  9.80977777777753 10.7146666666667  C 9.80977777777753 10.7146666666667  8 8.90488888888876  8 8.90488888888876  C 8 8.90488888888876  6.19022222222247 10.7146666666667  6.19022222222247 10.7146666666667  C 5.9413333333332 10.9635555555556  5.53422222222252 10.9635555555556  5.28533333333326 10.7146666666667  C 5.0364444444449 10.4657777777775  5.0364444444449 10.0586666666668  5.28533333333326 9.80977777777753  C 5.28533333333326 9.80977777777753  7.09511111111078 8  7.09511111111078 8  C 7.09511111111078 8  5.28533333333326 6.19022222222247  5.28533333333326 6.19022222222247  C 5.0364444444449 5.9413333333332  5.0364444444449 5.53422222222252  5.28533333333326 5.28533333333326  C 5.53422222222252 5.03644444444444  5.9413333333332 5.03644444444444  6.19022222222247 5.28533333333326  C 6.19022222222247 5.28533333333326  8 7.09511111111124  8 7.09511111111124  C 8 7.09511111111124  9.80977777777753 5.28533333333326  9.80977777777753 5.28533333333326  C 10.0586666666668 5.03644444444444  10.4657777777775 5.03644444444444  10.7146666666667 5.28533333333326  C 10.9635555555551 5.53422222222252  10.9635555555551 5.9413333333332  10.7146666666667 6.19022222222247  C 10.7146666666667 6.19022222222247  8.90488888888922 8  8.90488888888922 8  Z " fill-rule="nonzero" fill="#f75257" stroke="none" transform="matrix(1 0 0 1 424 335 )" />
  </g>
</svg>