<?xml version="1.0" encoding="utf-8"?>
<svg version="1.1" xmlns:xlink="http://www.w3.org/1999/xlink" width="18px" height="17px" xmlns="http://www.w3.org/2000/svg">
  <g transform="matrix(1 0 0 1 -659 -418 )">
    <path d="M 16.35 16.5  C 16.5975000000013 16.5  16.8 16.3312500000002  16.8 16.125  C 16.8 16.125  16.8 4.125  16.8 4.125  C 16.8028125000004 4.02656250000018  16.7578125 3.92109375000018  16.6678125000013 3.84609374999991  C 16.6678125000013 3.84609374999991  12.2128124999996 0.133593749999818  12.2128124999996 0.133593749999818  C 12.1790625000009 0.10546875  12.1424999999996 0.08203125  12.1003124999996 0.0656250000001819  C 12.0271875000013 0.0257812499999091  11.9400000000009 0  11.8471874999996 0  C 11.8471874999996 0  1.05 0  1.05 0  C 0.802500000000873 0  0.6 0.168749999999818  0.6 0.375  C 0.6 0.375  0.6 3  0.6 3  L 2.4 3  L 2.4 1.5  L 10.5 1.5  C 10.5 1.5  10.5 4.875  10.5 4.875  C 10.5 5.08125000000018  10.7025000000009 5.25  10.95 5.25  C 10.95 5.25  15 5.25  15 5.25  L 15 15  L 13.2 15  L 13.2 16.5  C 13.2 16.5  16.35 16.5  16.35 16.5  Z M 4.70625000000218 11.3976562500002  C 4.80468750000218 11.3343750000004  4.88343750000131 11.3671875  4.88343750000131 11.4703125000001  C 4.88343750000131 11.4703125000001  4.88062500000087 16.8421875000004  4.88062500000087 16.8421875000004  C 4.88062500000087 16.9453125000005  4.80187500000175 16.9781250000001  4.70343750000175 16.9148437500003  C 4.70343750000175 16.9148437500003  0.80531250000131 14.3789062500005  0.80531250000131 14.3789062500005  C 0.70687500000131 14.3156250000002  0.616875000000436 14.2242187500001  0.602812500000437 14.1750000000002  C 0.588750000000437 14.1257812500003  0.743437500000437 13.9781250000001  0.841875000000437 13.9148437500003  C 0.841875000000437 13.9148437500003  4.70625000000218 11.3976562500002  4.70625000000218 11.3976562500002  Z M 12.3 3.75  L 12.3 2.32499999999982  L 14.0099999999991 3.75  L 12.3 3.75  Z " fill-rule="nonzero" fill="#44a0f1" stroke="none" transform="matrix(1 0 0 1 659 418 )" />
  </g>
</svg>