<?xml version="1.0" encoding="utf-8"?>
<svg version="1.1" xmlns:xlink="http://www.w3.org/1999/xlink" width="21px" height="21px" xmlns="http://www.w3.org/2000/svg">
  <g transform="matrix(1 0 0 1 -1050 -86 )">
    <path d="M 10.5 21  C 16.2989062500001 21  21 16.29890625  21 10.5  C 21 4.70109375  16.2989062500001 0  10.5 0  C 4.70109374999993 0  0 4.70109375  0 10.5  C 0 16.29890625  4.70109374999993 21  10.5 21  Z M 10.5 1.5  C 15.4706249999999 1.5  19.5 5.529375  19.5 10.5  C 19.5 15.470625  15.4706249999999 19.5  10.5 19.5  C 5.52937500000007 19.5  1.5 15.470625  1.5 10.5  C 1.5 5.529375  5.52937500000007 1.5  10.5 1.5  Z " fill-rule="nonzero" fill="#ffffff" stroke="none" transform="matrix(1 0 0 1 1050 86 )" />
  </g>
</svg>