<?xml version="1.0" encoding="utf-8"?>
<svg version="1.1" xmlns:xlink="http://www.w3.org/1999/xlink" width="20px" height="18px" xmlns="http://www.w3.org/2000/svg">
  <g transform="matrix(1 0 0 1 -321 -419 )">
    <path d="M 19.5 16.875  C 19.5 16.875  19.5 4.875  19.5 4.875  C 19.5 4.66874999999982  19.3312500000002 4.5  19.125 4.5  C 19.125 4.5  16.5 4.5  16.5 4.5  C 16.5 4.5  16.5 2.625  16.5 2.625  C 16.5 2.41874999999982  16.3312500000002 2.25  16.125 2.25  C 16.125 2.25  13.5 2.25  13.5 2.25  C 13.5 2.25  13.5 0.375  13.5 0.375  C 13.5 0.168749999999818  13.3312500000002 0  13.125 0  C 13.125 0  6.375 0  6.375 0  C 6.16874999999982 0  6 0.168749999999818  6 0.375  C 6 0.375  6 2.25  6 2.25  C 6 2.25  3.375 2.25  3.375 2.25  C 3.16874999999982 2.25  3 2.41874999999982  3 2.625  C 3 2.625  3 4.5  3 4.5  C 3 4.5  0.375 4.5  0.375 4.5  C 0.168749999999818 4.5  0 4.66874999999982  0 4.875  C 0 4.875  0 16.875  0 16.875  C 0 17.0812500000002  0.168749999999818 17.25  0.375 17.25  C 0.375 17.25  19.125 17.25  19.125 17.25  C 19.3312500000002 17.25  19.5 17.0812500000002  19.5 16.875  Z M 1.5 15.75  L 1.5 6  L 3.375 6  C 3.375 6  4.125 6  4.125 6  C 4.33125000000018 6  4.5 5.83125000000018  4.5 5.625  C 4.5 5.625  4.5 3.75  4.5 3.75  C 4.5 3.75  7.125 3.75  7.125 3.75  C 7.33125000000018 3.75  7.5 3.58125000000018  7.5 3.375  C 7.5 3.375  7.5 1.5  7.5 1.5  L 12 1.5  C 12 1.5  12 3.375  12 3.375  C 12 3.58125000000018  12.1687499999998 3.75  12.375 3.75  C 12.375 3.75  15 3.75  15 3.75  C 15 3.75  15 5.625  15 5.625  C 15 5.83125000000018  15.1687499999998 6  15.375 6  C 15.375 6  18 6  18 6  L 18 15.75  L 1.5 15.75  Z " fill-rule="nonzero" fill="#44a0f1" stroke="none" transform="matrix(1 0 0 1 321 419 )" />
  </g>
</svg>