<?xml version="1.0" encoding="utf-8"?>
<svg version="1.1" xmlns:xlink="http://www.w3.org/1999/xlink" width="16px" height="16px" xmlns="http://www.w3.org/2000/svg">
  <g transform="matrix(1 0 0 1 -55 -213 )">
    <path d="M 11.85296 11.1748  C 12.2216 10.4762  12.9552 10  13.8 10  C 15.01504 10  16 10.98496  16 12.2  C 16 13.41504  15.01504 14.4  13.8 14.4  C 12.58496 14.4  11.6 13.41504  11.6 12.2  C 11.6 12.11192  11.6052 12.025  11.61524 11.9396  C 11.61524 11.9396  9.30504 11.0988  9.30504 11.0988  C 8.82092 12.10528  7.7916 12.8  6.6 12.8  C 5.8304 12.8  5.12852 12.5102  4.59744 12.03384  C 4.59744 12.03384  3.40232 13.22896  3.40232 13.22896  C 3.53240559464153 13.4651014926888  3.60042274304536 13.7303986502429  3.6 14  C 3.6 14.88364  2.88364 15.6  2 15.6  C 1.11636 15.6  0.400000000000002 14.88364  0.400000000000002 14  C 0.400000000000002 13.11636  1.11636 12.4  2 12.4  C 2.30210581154243 12.3995167601453  2.59811706590635 12.4849753216527  2.85348 12.6464  C 2.85348 12.6464  4.07668 11.42324  4.07668 11.42324  C 3.775 10.95532  3.6 10.39812  3.6 9.80000000000001  C 3.6 8.85176000000001  4.03992 8.00631999999999  4.7268 7.45656  C 4.7268 7.45656  2.93556 4.35399999999998  2.93556 4.35399999999998  C 2.69935586102946 4.43765116472343  2.45057901306272 4.48026615581023  2.2 4.47999999999999  C 0.984960000000001 4.47999999999999  0 3.49503999999999  0 2.28  C 0 1.06496000000001  0.984960000000001 0.0800000000000125  2.2 0.0800000000000125  C 3.41504 0.0800000000000125  4.4 1.06496000000001  4.4 2.28  C 4.4 2.94999999999999  4.10052 3.55000000000001  3.62808 3.95352  C 3.62808 3.95352  5.41248 7.04419999999999  5.41248 7.04419999999999  C 5.77668 6.88708  6.17816 6.80000000000001  6.6 6.80000000000001  C 7.23072 6.80000000000001  7.81596 6.99464  8.29896 7.32712000000001  C 8.29896 7.32712000000001  11.72624 3.89984000000001  11.72624 3.89984000000001  C 11.3848406585696 3.47457776670024  11.1991517520721 2.9453446230373  11.2 2.40000000000001  C 11.2 1.07452000000001  12.27452 0  13.6 0  C 14.92548 0  16 1.07452000000001  16 2.40000000000001  C 16 3.72548  14.92548 4.80000000000001  13.6 4.80000000000001  C 13.1312 4.80000000000001  12.6938 4.66560000000001  12.32424 4.4332  C 12.32424 4.4332  8.89256 7.86488  8.89256 7.86488  C 9.33392 8.38728  9.6 9.06255999999999  9.6 9.80000000000001  C 9.6 9.98339999999999  9.58352 10.163  9.552 10.33732  C 9.552 10.33732  11.85296 11.1748  11.85296 11.1748  Z M 4.4 9.80000000000001  C 4.4 11.01504  5.38496 12  6.59999999999999 12  C 7.81504 12  8.8 11.01504  8.8 9.80000000000001  C 8.8 8.58496  7.81504 7.59999999999999  6.59999999999999 7.59999999999999  C 5.38496 7.59999999999999  4.4 8.58496  4.4 9.80000000000001  Z M 0.800000000000001 2.28  C 0.800000000000001 3.0532  1.4268 3.68000000000001  2.2 3.68000000000001  C 2.9732 3.68000000000001  3.6 3.0532  3.6 2.28  C 3.6 1.5068  2.9732 0.879999999999995  2.2 0.879999999999995  C 1.4268 0.879999999999995  0.800000000000001 1.5068  0.800000000000001 2.28  Z M 13.8 13.6  C 14.5732 13.6  15.2 12.9732  15.2 12.2  C 15.2 11.4268  14.5732 10.8  13.8 10.8  C 13.0268 10.8  12.4 11.4268  12.4 12.2  C 12.4 12.9732  13.0268 13.6  13.8 13.6  Z M 15.2 2.40000000000001  C 15.2 1.51636000000002  14.48364 0.800000000000011  13.6 0.800000000000011  C 12.71636 0.800000000000011  12 1.51636000000002  12 2.40000000000001  C 12 3.28363999999999  12.71636 4  13.6 4  C 14.48364 4  15.2 3.28363999999999  15.2 2.40000000000001  Z M 2 13.2  C 1.55816 13.2  1.2 13.55816  1.2 14  C 1.2 14.44184  1.55816 14.8  2 14.8  C 2.44184 14.8  2.8 14.44184  2.8 14  C 2.8 13.55816  2.44184 13.2  2 13.2  Z " fill-rule="nonzero" fill="#fcfcfc" stroke="none" transform="matrix(1 0 0 1 55 213 )" />
  </g>
</svg>