<?xml version="1.0" encoding="utf-8"?>
<svg version="1.1" xmlns:xlink="http://www.w3.org/1999/xlink" width="88px" height="44px" xmlns="http://www.w3.org/2000/svg">
  <g transform="matrix(1 0 0 1 -213 -49 )">
    <path d="M 44 44  C 68.3 44  88 34.15  88 22  C 88 9.85  68.3 0  44 0  C 19.7 0  0 9.85  0 22  C 0 34.15  19.7 44  44 44  Z M 44 6  C 63.8875 6  80 13.1625  80 22  C 80 30.8375  63.8875 38  44 38  C 24.1125 38  8 30.8375  8 22  C 8 13.1625  24.1125 6  44 6  Z " fill-rule="nonzero" fill="#ffffff" stroke="none" transform="matrix(1 0 0 1 213 49 )" />
  </g>
</svg>