<?xml version="1.0" encoding="utf-8"?>
<svg version="1.1" xmlns:xlink="http://www.w3.org/1999/xlink" width="33px" height="23px" xmlns="http://www.w3.org/2000/svg">
  <g transform="matrix(1 0 0 1 -907 -83 )">
    <path d="M 11.6329497274379 10.6762790697674  C 11.6329497274379 10.8617054263566  11.5663234403392 11.0257364341085  11.4330708661417 11.1683720930233  L 2.11871592973955 21.1386046511628  C 1.9854633555421 21.2812403100775  1.83222289521502 21.3525581395349  1.65899454875833 21.3525581395349  C 1.48576620230164 21.3525581395349  1.33252574197456 21.2812403100775  1.1992731677771 21.1386046511628  L 0.199878861296184 20.0688372093023  C 0.0666262870987281 19.9262015503876  0 19.7621705426357  0 19.5767441860465  C 0 19.3913178294574  0.0666262870987281 19.2272868217054  0.199878861296184 19.0846511627907  L 8.05511811023622 10.6762790697674  L 0.199878861296184 2.26790697674419  C 0.0666262870987281 2.12527131782946  0 1.96124031007752  0 1.77581395348837  C 0 1.59038759689922  0.0666262870987281 1.42635658914728  0.199878861296184 1.28372093023256  L 1.1992731677771 0.213953488372092  C 1.33252574197456 0.0713178294573624  1.48576620230164 0  1.65899454875833 0  C 1.83222289521502 0  1.9854633555421 0.0713178294573624  2.11871592973955 0.213953488372092  L 11.4330708661417 10.1841860465116  C 11.5663234403392 10.3268217054264  11.6329497274379 10.4908527131783  11.6329497274379 10.6762790697674  Z M 32.8201090248334 20.4539534883721  C 32.9400363416111 20.5823255813953  33 20.7463565891473  33 20.9460465116279  L 33 22.3153488372093  C 33 22.5150387596899  32.9400363416111 22.6790697674419  32.8201090248334 22.8074418604651  C 32.7001817080557 22.9358139534884  32.5469412477287 23  32.3603876438522 23  L 13.1720169594185 23  C 12.9854633555421 23  12.832222895215 22.9358139534884  12.7122955784373 22.8074418604651  C 12.5923682616596 22.6790697674419  12.5324046032707 22.5150387596899  12.5324046032707 22.3153488372093  L 12.5324046032707 20.9460465116279  C 12.5324046032707 20.7463565891473  12.5923682616596 20.5823255813953  12.7122955784373 20.4539534883721  C 12.832222895215 20.3255813953488  12.9854633555421 20.2613953488372  13.1720169594185 20  L 32.3603876438522 20  C 32.5469412477287 20.2613953488372  32.7001817080557 20.3255813953488  32.8201090248334 20.4539534883721  Z " fill-rule="nonzero" fill="#ffffff" stroke="none" transform="matrix(1 0 0 1 907 83 )" />
  </g>
</svg>