<?xml version="1.0" encoding="utf-8"?>
<svg version="1.1" xmlns:xlink="http://www.w3.org/1999/xlink" width="12px" height="20px" xmlns="http://www.w3.org/2000/svg">
  <g transform="matrix(1 0 0 1 -1466 -750 )">
    <path d="M 11.8797595190381 9.19254658385093  C 11.9599198396794 9.33057280883368  12 9.48930296756384  12 9.66873706004141  C 12 9.84817115251898  11.9599198396794 10.0069013112491  11.8797595190381 10.1449275362319  L 6.27655310621242 19.7929606625259  C 6.19639278557114 19.9309868875086  6.10420841683367 20  6 20  C 5.89579158316633 20  5.80360721442886 19.9309868875086  5.72344689378757 19.7929606625259  L 0.120240480961924 10.1449275362319  C 0.0400801603206414 10.0069013112491  0 9.84817115251898  0 9.66873706004141  C 0 9.48930296756384  0.0400801603206414 9.33057280883368  0.120240480961924 9.19254658385093  L 0.721442885771543 8.15734989648033  C 0.801603206412826 8.01932367149758  0.893787575150301 7.95031055900621  0.997995991983968 7.95031055900621  C 1.10220440881764 7.95031055900621  1.19438877755511 8.01932367149758  1.27454909819639 8.15734989648033  L 6 16.2939958592133  L 10.7254509018036 8.15734989648033  C 10.8056112224449 8.01932367149758  10.8977955911824 7.95031055900621  11.002004008016 7.95031055900621  C 11.1062124248497 7.95031055900621  11.1983967935872 8.01932367149758  11.2785571142285 8.15734989648033  L 11.8797595190381 9.19254658385093  Z M 11.8797595190381 1.24223602484472  C 11.9599198396794 1.38026224982746  12 1.53899240855762  12 1.7184265010352  C 12 1.89786059351276  11.9599198396794 2.05659075224292  11.8797595190381 2.19461697722567  L 6.27655310621242 11.8426501035197  C 6.19639278557114 11.9806763285024  6.10420841683367 12.0496894409938  6 12.0496894409938  C 5.89579158316633 12.0496894409938  5.80360721442886 11.9806763285024  5.72344689378757 11.8426501035197  L 0.120240480961924 2.19461697722567  C 0.0400801603206414 2.05659075224292  0 1.89786059351276  0 1.7184265010352  C 0 1.53899240855762  0.0400801603206414 1.38026224982746  0.120240480961924 1.24223602484472  L 0.721442885771543 0.20703933747412  C 0.801603206412826 0.0690131124913718  0.893787575150301 0  0.997995991983968 0  C 1.10220440881764 0  1.19438877755511 0.0690131124913718  1.27454909819639 0.20703933747412  L 6 8.34368530020704  L 10.7254509018036 0.20703933747412  C 10.8056112224449 0.0690131124913718  10.8977955911824 0  11.002004008016 0  C 11.1062124248497 0  11.1983967935872 0.0690131124913718  11.2785571142285 0.20703933747412  L 11.8797595190381 1.24223602484472  Z " fill-rule="nonzero" fill="#000000" stroke="none" transform="matrix(1 0 0 1 1466 750 )" />
  </g>
</svg>