<?xml version="1.0" encoding="utf-8"?>
<svg version="1.1" xmlns:xlink="http://www.w3.org/1999/xlink" width="50px" height="50px" xmlns="http://www.w3.org/2000/svg">
  <g transform="matrix(1 0 0 1 -2027 -387 )">
    <path d="M 9.15178571428571 38.3522727272727  C 10.1934523809524 39.6780303030303  10.7142857142857 41.2878787878788  10.7142857142857 43.1818181818182  C 10.7142857142857 45.0757575757576  10.1934523809524 46.6856060606061  9.15178571428571 48.0113636363636  C 8.11011904761905 49.3371212121212  6.8452380952381 50  5.35714285714286 50  C 3.86904761904762 50  2.60416666666667 49.3371212121212  1.5625 48.0113636363636  C 0.520833333333333 46.6856060606061  0 45.0757575757576  0 43.1818181818182  C 0 41.2878787878788  0.520833333333333 39.6780303030303  1.5625 38.3522727272727  C 2.60416666666667 37.0265151515151  3.86904761904762 36.3636363636364  5.35714285714286 36.3636363636364  C 6.8452380952381 36.3636363636364  8.11011904761905 37.0265151515151  9.15178571428571 38.3522727272727  Z M 9.15178571428571 20.1704545454545  C 10.1934523809524 21.4962121212121  10.7142857142857 23.1060606060606  10.7142857142857 25  C 10.7142857142857 26.8939393939394  10.1934523809524 28.5037878787879  9.15178571428571 29.8295454545455  C 8.11011904761905 31.155303030303  6.8452380952381 31.8181818181818  5.35714285714286 31.8181818181818  C 3.86904761904762 31.8181818181818  2.60416666666667 31.155303030303  1.5625 29.8295454545455  C 0.520833333333333 28.5037878787879  0 26.8939393939394  0 25  C 0 23.1060606060606  0.520833333333333 21.4962121212121  1.5625 20.1704545454545  C 2.60416666666667 18.844696969697  3.86904761904762 18.1818181818182  5.35714285714286 18.1818181818182  C 6.8452380952381 18.1818181818182  8.11011904761905 18.844696969697  9.15178571428571 20.1704545454545  Z M 49.7349330357143 38.9737215909091  C 49.9116443452381 39.1986268939394  50 39.4649621212121  50 39.7727272727273  L 50 46.5909090909091  C 50 46.8986742424242  49.9116443452381 47.165009469697  49.7349330357143 47.3899147727273  C 49.5582217261905 47.6148200757576  49.3489583333333 47.7272727272727  49.1071428571429 47  L 15.1785714285714 47  C 14.936755952381 47.7272727272727  14.7274925595238 47.6148200757576  14.55078125 47.3899147727273  C 14.3740699404762 47.165009469697  14.2857142857143 46.8986742424242  14.2857142857143 46.5909090909091  L 14.2857142857143 39.7727272727273  C 14.2857142857143 39.4649621212121  14.3740699404762 39.1986268939394  14.55078125 38.9737215909091  C 14.7274925595238 38.7488162878788  14.936755952381 38.6363636363636  15.1785714285714 38  L 49.1071428571429 38  C 49.3489583333333 38.6363636363636  49.5582217261905 38.7488162878788  49.7349330357143 38.9737215909091  Z M 9.15178571428571 1.98863636363636  C 10.1934523809524 3.31439393939394  10.7142857142857 4.92424242424242  10.7142857142857 6.81818181818182  C 10.7142857142857 8.71212121212121  10.1934523809524 10.3219696969697  9.15178571428571 11.6477272727273  C 8.11011904761905 12.9734848484848  6.8452380952381 13.6363636363636  5.35714285714286 13.6363636363636  C 3.86904761904762 13.6363636363636  2.60416666666667 12.9734848484848  1.5625 11.6477272727273  C 0.520833333333333 10.3219696969697  0 8.71212121212121  0 6.81818181818182  C 0 4.92424242424242  0.520833333333333 3.31439393939394  1.5625 1.98863636363636  C 2.60416666666667 0.662878787878785  3.86904761904762 0  5.35714285714286 0  C 6.8452380952381 0  8.11011904761905 0.662878787878785  9.15178571428571 1.98863636363636  Z M 49.7349330357143 20.7919034090909  C 49.9116443452381 21.0168087121212  50 21.2831439393939  50 21.5909090909091  L 50 28.4090909090909  C 50 28.7168560606061  49.9116443452381 28.9831912878788  49.7349330357143 29.2080965909091  C 49.5582217261905 29.4330018939394  49.3489583333333 29.5454545454545  49.1071428571429 29  L 15.1785714285714 29  C 14.936755952381 29.5454545454545  14.7274925595238 29.4330018939394  14.55078125 29.2080965909091  C 14.3740699404762 28.9831912878788  14.2857142857143 28.7168560606061  14.2857142857143 28.4090909090909  L 14.2857142857143 21.5909090909091  C 14.2857142857143 21.2831439393939  14.3740699404762 21.0168087121212  14.55078125 20.7919034090909  C 14.7274925595238 20.5669981060606  14.936755952381 20.4545454545455  15.1785714285714 21  L 49.1071428571429 21  C 49.3489583333333 20.4545454545455  49.5582217261905 20.5669981060606  49.7349330357143 20.7919034090909  Z M 49.7349330357143 2.61008522727273  C 49.9116443452381 2.83499053030303  50 3.10132575757576  50 3.40909090909091  L 50 10.2272727272727  C 50 10.5350378787879  49.9116443452381 10.8013731060606  49.7349330357143 11.0262784090909  C 49.5582217261905 11.2511837121212  49.3489583333333 11.3636363636364  49.1071428571429 12  L 15.1785714285714 12  C 14.936755952381 11.3636363636364  14.7274925595238 11.2511837121212  14.55078125 11.0262784090909  C 14.3740699404762 10.8013731060606  14.2857142857143 10.5350378787879  14.2857142857143 10.2272727272727  L 14.2857142857143 3.40909090909091  C 14.2857142857143 3.10132575757576  14.3740699404762 2.83499053030303  14.55078125 2.61008522727273  C 14.7274925595238 2.38517992424242  14.936755952381 2.27272727272727  15.1785714285714 3  L 49.1071428571429 3  C 49.3489583333333 2.27272727272727  49.5582217261905 2.38517992424242  49.7349330357143 2.61008522727273  Z " fill-rule="nonzero" fill="#000000" stroke="none" transform="matrix(1 0 0 1 2027 387 )" />
  </g>
</svg>