<?xml version="1.0" encoding="utf-8"?>
<svg version="1.1" xmlns:xlink="http://www.w3.org/1999/xlink" width="50px" height="50px" xmlns="http://www.w3.org/2000/svg">
  <g transform="matrix(1 0 0 1 -1960 -387 )">
    <path d="M 21.9350961538462 28.6221590909091  C 22.6963141025641 29.5217803030303  23.0769230769231 30.5871212121212  23 31.8181818181818  L 23 45.4545454545455  C 23.0769230769231 46.6856060606061  22.6963141025641 47.750946969697  21.9350961538462 48.6505681818182  C 21.1738782051282 49.5501893939394  20.2724358974359 50  19.2307692307692 50  L 3.84615384615385 50  C 2.80448717948718 50  1.90304487179487 49.5501893939394  1.14182692307692 48.6505681818182  C 0.380608974358974 47.750946969697  0 46.6856060606061  0 45.4545454545455  L 0 31.8181818181818  C 0 30.5871212121212  0.380608974358974 29.5217803030303  1.14182692307692 28.6221590909091  C 1.90304487179487 27.7225378787879  2.80448717948718 27.2727272727273  3.84615384615385 27  L 19.2307692307692 27  C 20.2724358974359 27.2727272727273  21.1738782051282 27.7225378787879  21.9350961538462 28.6221590909091  Z M 21.9350961538462 1.34943181818182  C 22.6963141025641 2.24905303030303  23.0769230769231 3.31439393939394  23 4.54545454545455  L 23 18.1818181818182  C 23.0769230769231 19.4128787878788  22.6963141025641 20.4782196969697  21.9350961538462 21.3778409090909  C 21.1738782051282 22.2774621212121  20.2724358974359 22.7272727272727  19.2307692307692 23  L 3.84615384615385 23  C 2.80448717948718 22.7272727272727  1.90304487179487 22.2774621212121  1.14182692307692 21.3778409090909  C 0.380608974358974 20.4782196969697  0 19.4128787878788  0 18.1818181818182  L 0 4.54545454545455  C 0 3.31439393939394  0.380608974358974 2.24905303030303  1.14182692307692 1.34943181818182  C 1.90304487179487 0.449810606060602  2.80448717948718 0  3.84615384615385 0  L 19.2307692307692 0  C 20.2724358974359 0  21.1738782051282 0.449810606060602  21.9350961538462 1.34943181818182  Z M 48.8581730769231 28.6221590909091  C 49.619391025641 29.5217803030303  50 30.5871212121212  50 31.8181818181818  L 50 45.4545454545455  C 50 46.6856060606061  49.619391025641 47.750946969697  48.8581730769231 48.6505681818182  C 48.0969551282051 49.5501893939394  47.1955128205128 50  46.1538461538462 50  L 30.7692307692308 50  C 29.7275641025641 50  28.8261217948718 49.5501893939394  28.0649038461538 48.6505681818182  C 27.3036858974359 47.750946969697  26.9230769230769 46.6856060606061  27 45.4545454545455  L 27 31.8181818181818  C 26.9230769230769 30.5871212121212  27.3036858974359 29.5217803030303  28.0649038461538 28.6221590909091  C 28.8261217948718 27.7225378787879  29.7275641025641 27.2727272727273  30.7692307692308 27  L 46.1538461538462 27  C 47.1955128205128 27.2727272727273  48.0969551282051 27.7225378787879  48.8581730769231 28.6221590909091  Z M 48.8581730769231 1.34943181818182  C 49.619391025641 2.24905303030303  50 3.31439393939394  50 4.54545454545455  L 50 18.1818181818182  C 50 19.4128787878788  49.619391025641 20.4782196969697  48.8581730769231 21.3778409090909  C 48.0969551282051 22.2774621212121  47.1955128205128 22.7272727272727  46.1538461538462 23  L 30.7692307692308 23  C 29.7275641025641 22.7272727272727  28.8261217948718 22.2774621212121  28.0649038461538 21.3778409090909  C 27.3036858974359 20.4782196969697  26.9230769230769 19.4128787878788  27 18.1818181818182  L 27 4.54545454545455  C 26.9230769230769 3.31439393939394  27.3036858974359 2.24905303030303  28.0649038461538 1.34943181818182  C 28.8261217948718 0.449810606060602  29.7275641025641 0  30.7692307692308 0  L 46.1538461538462 0  C 47.1955128205128 0  48.0969551282051 0.449810606060602  48.8581730769231 1.34943181818182  Z " fill-rule="nonzero" fill="#000000" stroke="none" transform="matrix(1 0 0 1 1960 387 )" />
  </g>
</svg>