<?xml version="1.0" encoding="utf-8"?>
<svg version="1.1" xmlns:xlink="http://www.w3.org/1999/xlink" width="9px" height="17px" xmlns="http://www.w3.org/2000/svg">
  <g transform="matrix(1 0 0 1 -787 -223 )">
    <path d="M 8.8330078125 10.2748579545455  C 8.9443359375 10.4277935606061  9 10.6089015151515  9 10.8181818181818  C 9 11.0274621212121  8.9443359375 11.2085700757576  8.8330078125 11.3615056818182  L 4.8955078125 16.7705965909091  C 4.7841796875 16.9235321969697  4.65234375 17  4.5 17  C 4.34765625 17  4.2158203125 16.9235321969697  4.1044921875 16.7705965909091  L 0.1669921875 11.3615056818182  C 0.0556640625 11.2085700757576  0 11.0274621212121  0 10.8181818181818  C 0 10.6089015151515  0.0556640625 10.4277935606061  0.1669921875 10.2748579545455  C 0.2783203125 10.1219223484848  0.41015625 10.0454545454545  0.5625 10.0454545454545  L 8.4375 10.0454545454545  C 8.58984375 10.0454545454545  8.7216796875 10.1219223484848  8.8330078125 10.2748579545455  Z M 8.8330078125 5.63849431818182  C 8.9443359375 5.79142992424242  9 5.97253787878788  9 6.18181818181818  C 9 6.39109848484848  8.9443359375 6.57220643939394  8.8330078125 6.72514204545455  C 8.7216796875 6.87807765151515  8.58984375 6.95454545454545  8.4375 6.95454545454545  L 0.5625 6.95454545454545  C 0.41015625 6.95454545454545  0.2783203125 6.87807765151515  0.1669921875 6.72514204545455  C 0.0556640625 6.57220643939394  0 6.39109848484848  0 6.18181818181818  C 0 5.97253787878788  0.0556640625 5.79142992424242  0.1669921875 5.63849431818182  L 4.1044921875 0.22940340909091  C 4.2158203125 0.0764678030303014  4.34765625 0  4.5 0  C 4.65234375 0  4.7841796875 0.0764678030303014  4.8955078125 0.22940340909091  L 8.8330078125 5.63849431818182  Z " fill-rule="nonzero" fill="#000000" stroke="none" transform="matrix(1 0 0 1 787 223 )" />
  </g>
</svg>