<?xml version="1.0" encoding="utf-8"?>
<svg version="1.1" xmlns:xlink="http://www.w3.org/1999/xlink" width="12px" height="12px" viewBox="316 339  12 12" xmlns="http://www.w3.org/2000/svg">
  <path d="M 322 339  C 325.36 339  328 341.64  328 345  C 328 348.36  325.36 351  322 351  C 318.64 351  316 348.36  316 345  C 316 341.64  318.64 339  322 339  Z " fill-rule="nonzero" fill="#ffffff" stroke="none" />
  <path d="M 322 339.5  C 325.08 339.5  327.5 341.92  327.5 345  C 327.5 348.08  325.08 350.5  322 350.5  C 318.92 350.5  316.5 348.08  316.5 345  C 316.5 341.92  318.92 339.5  322 339.5  Z " stroke-width="1" stroke="#797979" fill="none" />
  <path d="M 322 348  C 320.32 348  319 346.68  319 345  C 319 343.32  320.32 342  322 342  C 323.68 342  325 343.32  325 345  C 325 346.68  323.68 348  322 348  " fill-rule="nonzero" fill="#797979" stroke="none" />
</svg>