<?xml version="1.0" encoding="utf-8"?>
<svg version="1.1" xmlns:xlink="http://www.w3.org/1999/xlink" width="12px" height="12px" viewBox="190 339  12 12" xmlns="http://www.w3.org/2000/svg">
  <path d="M 196 339  C 199.36 339  202 341.64  202 345  C 202 348.36  199.36 351  196 351  C 192.64 351  190 348.36  190 345  C 190 341.64  192.64 339  196 339  Z " fill-rule="nonzero" fill="#ffffff" stroke="none" />
  <path d="M 196 339.5  C 199.08 339.5  201.5 341.92  201.5 345  C 201.5 348.08  199.08 350.5  196 350.5  C 192.92 350.5  190.5 348.08  190.5 345  C 190.5 341.92  192.92 339.5  196 339.5  Z " stroke-width="1" stroke="#797979" fill="none" />
  <path d="M 196 348  C 194.32 348  193 346.68  193 345  C 193 343.32  194.32 342  196 342  C 197.68 342  199 343.32  199 345  C 199 346.68  197.68 348  196 348  " fill-rule="nonzero" fill="#797979" stroke="none" />
</svg>