<?xml version="1.0" encoding="utf-8"?>
<svg version="1.1" xmlns:xlink="http://www.w3.org/1999/xlink" width="12px" height="12px" viewBox="355 291  12 12" xmlns="http://www.w3.org/2000/svg">
  <path d="M 361 291  C 364.36 291  367 293.64  367 297  C 367 300.36  364.36 303  361 303  C 357.64 303  355 300.36  355 297  C 355 293.64  357.64 291  361 291  Z " fill-rule="nonzero" fill="#ffffff" stroke="none" />
  <path d="M 361 291.5  C 364.08 291.5  366.5 293.92  366.5 297  C 366.5 300.08  364.08 302.5  361 302.5  C 357.92 302.5  355.5 300.08  355.5 297  C 355.5 293.92  357.92 291.5  361 291.5  Z " stroke-width="1" stroke="#797979" fill="none" />
  <path d="M 361 300  C 359.32 300  358 298.68  358 297  C 358 295.32  359.32 294  361 294  C 362.68 294  364 295.32  364 297  C 364 298.68  362.68 300  361 300  " fill-rule="nonzero" fill="#797979" stroke="none" />
</svg>