<?xml version="1.0" encoding="utf-8"?>
<svg version="1.1" xmlns:xlink="http://www.w3.org/1999/xlink" width="8px" height="30px" xmlns="http://www.w3.org/2000/svg">
  <g transform="matrix(1 0 0 1 -760 -287 )">
    <path d="M 7.8515625 18.1321022727273  C 7.95052083333333 18.4019886363636  8 18.7215909090909  8 19.0909090909091  C 8 19.4602272727273  7.95052083333333 19.7798295454545  7.8515625 20.0497159090909  L 4.3515625 29.5951704545455  C 4.25260416666667 29.8650568181818  4.13541666666667 30  4 30  C 3.86458333333333 30  3.74739583333333 29.8650568181818  3.6484375 29.5951704545455  L 0.1484375 20.0497159090909  C 0.0494791666666667 19.7798295454545  0 19.4602272727273  0 19.0909090909091  C 0 18.7215909090909  0.0494791666666667 18.4019886363636  0.1484375 18.1321022727273  C 0.247395833333333 17.8622159090909  0.364583333333333 17.7272727272727  0.5 17.7272727272727  L 7.5 17.7272727272727  C 7.63541666666667 17.7272727272727  7.75260416666667 17.8622159090909  7.8515625 18.1321022727273  Z M 7.8515625 9.95028409090909  C 7.95052083333333 10.2201704545455  8 10.5397727272727  8 10.9090909090909  C 8 11.2784090909091  7.95052083333333 11.5980113636364  7.8515625 11.8678977272727  C 7.75260416666667 12.1377840909091  7.63541666666667 12.2727272727273  7.5 12.2727272727273  L 0.5 12.2727272727273  C 0.364583333333333 12.2727272727273  0.247395833333333 12.1377840909091  0.1484375 11.8678977272727  C 0.0494791666666667 11.5980113636364  0 11.2784090909091  0 10.9090909090909  C 0 10.5397727272727  0.0494791666666667 10.2201704545455  0.1484375 9.95028409090909  L 3.6484375 0.404829545454547  C 3.74739583333333 0.134943181818179  3.86458333333333 0  4 0  C 4.13541666666667 0  4.25260416666667 0.134943181818179  4.3515625 0.404829545454547  L 7.8515625 9.95028409090909  Z " fill-rule="nonzero" fill="#000000" stroke="none" transform="matrix(1 0 0 1 760 287 )" />
  </g>
</svg>