<?xml version="1.0" encoding="utf-8"?>
<svg version="1.1" xmlns:xlink="http://www.w3.org/1999/xlink" width="22px" height="25px" xmlns="http://www.w3.org/2000/svg">
  <g transform="matrix(1 0 0 1 -1338 -496 )">
    <path d="M 21.505859375 14.7379557291667  C 21.5965711805556 14.8410373263889  21.6419270833333 14.9631076388889  21.6419270833333 15.1041666666667  C 21.6419270833333 15.1584201388889  21.6371527777778 15.1963975694444  21.6276041666667 15.2180989583333  C 21.0164930555556 18.1260850694444  19.7369791666667 20.4833984375  17.7890625 22.2900390625  C 15.8411458333333 24.0966796875  13.5590277777778 25  10.9427083333333 25  C 9.54861111111111 25  8.19986979166667 24.7016059027778  6.896484375 24.1048177083333  C 5.59309895833333 23.5080295138889  4.43055555555556 22.65625  3.40885416666667 21.5494791666667  L 1.56119791666667 23.6490885416667  C 1.37977430555556 23.8552517361111  1.16493055555556 23.9583333333333  0.916666666666667 23.9583333333333  C 0.668402777777778 23.9583333333333  0.453559027777778 23.8552517361111  0.272135416666667 23.6490885416667  C 0.0907118055555556 23.4429253472222  0 23.1987847222222  0 22.9166666666667  L 0 15.625  C 0 15.3428819444444  0.0907118055555556 15.0987413194444  0.272135416666667 14.892578125  C 0.453559027777778 14.6864149305556  0.668402777777778 14.5833333333333  0.916666666666667 14.5833333333333  L 7.33333333333333 14.5833333333333  C 7.58159722222222 14.5833333333333  7.79644097222222 14.6864149305556  7.97786458333333 14.892578125  C 8.15928819444445 15.0987413194444  8.25 15.3428819444444  8.25 15.625  C 8.25 15.9071180555556  8.15928819444445 16.1512586805556  7.97786458333333 16.357421875  L 6.015625 18.5872395833333  C 6.69357638888889 19.3033854166667  7.46223958333333 19.8567708333333  8.32161458333333 20.2473958333333  C 9.18098958333333 20.6380208333333  10.0737847222222 20.8333333333333  11 20.8333333333333  C 12.2795138888889 20.8333333333333  13.4730902777778 20.4806857638889  14.5807291666667 19.775390625  C 15.6883680555556 19.0700954861111  16.5763888888889 18.0989583333333  17.2447916666667 16.8619791666667  C 17.3498263888889 16.6775173611111  17.6028645833333 16.0427517361111  18.00390625 14.9576822916667  C 18.0802951388889 14.7081163194444  18.2235243055556 14.5833333333333  18.43359375 14.5833333333333  L 21.18359375 14.5833333333333  C 21.3077256944444 14.5833333333333  21.4151475694444 14.6348741319444  21.505859375 14.7379557291667  Z M 21.7278645833333 1.35091145833333  C 21.9092881944444 1.55707465277778  22 1.80121527777778  22 2.08333333333333  L 22 9.375  C 22 9.65711805555556  21.9092881944444 9.90125868055556  21.7278645833333 10.107421875  C 21.5464409722222 10.3135850694444  21.3315972222222 10.4166666666667  21.0833333333333 10.4166666666667  L 14.6666666666667 10.4166666666667  C 14.4184027777778 10.4166666666667  14.2035590277778 10.3135850694444  14.0221354166667 10.107421875  C 13.8407118055556 9.90125868055556  13.75 9.65711805555556  13.75 9.375  C 13.75 9.09288194444444  13.8407118055556 8.84874131944444  14.0221354166667 8.642578125  L 15.9986979166667 6.396484375  C 14.5855034722222 4.90993923611111  12.9192708333333 4.16666666666667  11 4.16666666666667  C 9.72048611111111 4.16666666666667  8.52690972222222 4.51931423611111  7.41927083333333 5.224609375  C 6.31163194444445 5.92990451388889  5.42361111111111 6.90104166666667  4.75520833333333 8.13802083333333  C 4.65017361111111 8.32248263888889  4.39713541666667 8.95724826388889  3.99609375 10.0423177083333  C 3.91970486111111 10.2918836805556  3.77647569444445 10.4166666666667  3.56640625 10.4166666666667  L 0.716145833333333 10.4166666666667  C 0.592013888888889 10.4166666666667  0.484592013888889 10.3651258680556  0.393880208333333 10.2620442708333  C 0.303168402777778 10.1589626736111  0.2578125 10.0368923611111  0.2578125 9.89583333333333  L 0.2578125 9.78190104166667  C 0.878472222222222 6.87391493055556  2.16753472222222 4.5166015625  4.125 2.7099609375  C 6.08246527777778 0.9033203125  8.37413194444445 0  11 0  C 12.3940972222222 0  13.75 0.301106770833334  15.0677083333333 0.9033203125  C 16.3854166666667 1.50553385416667  17.5551215277778 2.35460069444444  18.5768229166667 3.45052083333333  L 20.4388020833333 1.35091145833333  C 20.6202256944444 1.14474826388889  20.8350694444444 1.04166666666667  21.0833333333333 1.04166666666667  C 21.3315972222222 1.04166666666667  21.5464409722222 1.14474826388889  21.7278645833333 1.35091145833333  Z " fill-rule="nonzero" fill="#000000" stroke="none" transform="matrix(1 0 0 1 1338 496 )" />
  </g>
</svg>