<?xml version="1.0" encoding="utf-8"?>
<svg version="1.1" xmlns:xlink="http://www.w3.org/1999/xlink" width="12px" height="12px" viewBox="420 149  12 12" xmlns="http://www.w3.org/2000/svg">
  <path d="M 426 149  C 429.36 149  432 151.64  432 155  C 432 158.36  429.36 161  426 161  C 422.64 161  420 158.36  420 155  C 420 151.64  422.64 149  426 149  Z " fill-rule="nonzero" fill="#f0f0f0" stroke="none" />
  <path d="M 426 149.5  C 429.08 149.5  431.5 151.92  431.5 155  C 431.5 158.08  429.08 160.5  426 160.5  C 422.92 160.5  420.5 158.08  420.5 155  C 420.5 151.92  422.92 149.5  426 149.5  Z " stroke-width="1" stroke="#797979" fill="none" />
  <path d="M 426 158  C 424.32 158  423 156.68  423 155  C 423 153.32  424.32 152  426 152  C 427.68 152  429 153.32  429 155  C 429 156.68  427.68 158  426 158  " fill-rule="nonzero" fill="#797979" stroke="none" />
</svg>