<?xml version="1.0" encoding="utf-8"?>
<svg version="1.1" xmlns:xlink="http://www.w3.org/1999/xlink" width="18px" height="21px" xmlns="http://www.w3.org/2000/svg">
  <g transform="matrix(1 0 0 1 -794 -717 )">
    <path d="M 17.6420454545455 8.05397727272727  C 17.8806818181818 8.33238636363636  18 8.67045454545454  18 9.06818181818182  L 18 11.9318181818182  C 18 12.3295454545455  17.8806818181818 12.6676136363636  17.6420454545455 12.9460227272727  C 17.4034090909091 13.2244318181818  17.1136363636364 13.3636363636364  16.7727272727273 13.3636363636364  L 11.4545454545455 13.3636363636364  L 11.4545454545455 19.5681818181818  C 11.4545454545455 19.9659090909091  11.3352272727273 20.3039772727273  11.0965909090909 20.5823863636364  C 10.8579545454545 20.8607954545455  10.5681818181818 21  10.2272727272727 21  L 7.77272727272727 21  C 7.43181818181818 21  7.14204545454546 20.8607954545455  6.90340909090909 20.5823863636364  C 6.66477272727273 20.3039772727273  6.54545454545455 19.9659090909091  6.54545454545455 19.5681818181818  L 6.54545454545455 13.3636363636364  L 1.22727272727273 13.3636363636364  C 0.886363636363636 13.3636363636364  0.596590909090909 13.2244318181818  0.357954545454545 12.9460227272727  C 0.119318181818182 12.6676136363636  0 12.3295454545455  0 11.9318181818182  L 0 9.06818181818182  C 0 8.67045454545454  0.119318181818182 8.33238636363636  0.357954545454545 8.05397727272727  C 0.596590909090909 7.77556818181818  0.886363636363636 7.63636363636364  1.22727272727273 7.63636363636364  L 6.54545454545455 7.63636363636364  L 6.54545454545455 1.43181818181818  C 6.54545454545455 1.03409090909091  6.66477272727273 0.696022727272726  6.90340909090909 0.417613636363637  C 7.14204545454546 0.139204545454545  7.43181818181818 0  7.77272727272727 0  L 10.2272727272727 0  C 10.5681818181818 0  10.8579545454545 0.139204545454545  11.0965909090909 0.417613636363637  C 11.3352272727273 0.696022727272726  11.4545454545455 1.03409090909091  11.4545454545455 1.43181818181818  L 11.4545454545455 7.63636363636364  L 16.7727272727273 7.63636363636364  C 17.1136363636364 7.63636363636364  17.4034090909091 7.77556818181818  17.6420454545455 8.05397727272727  Z " fill-rule="nonzero" fill="#000000" stroke="none" transform="matrix(1 0 0 1 794 717 )" />
  </g>
</svg>