<?xml version="1.0" encoding="utf-8"?>
<svg version="1.1" xmlns:xlink="http://www.w3.org/1999/xlink" width="12px" height="12px" viewBox="373 149  12 12" xmlns="http://www.w3.org/2000/svg">
  <path d="M 379 149  C 382.36 149  385 151.64  385 155  C 385 158.36  382.36 161  379 161  C 375.64 161  373 158.36  373 155  C 373 151.64  375.64 149  379 149  Z " fill-rule="nonzero" fill="#f0f0f0" stroke="none" />
  <path d="M 379 149.5  C 382.08 149.5  384.5 151.92  384.5 155  C 384.5 158.08  382.08 160.5  379 160.5  C 375.92 160.5  373.5 158.08  373.5 155  C 373.5 151.92  375.92 149.5  379 149.5  Z " stroke-width="1" stroke="#797979" fill="none" />
  <path d="M 379 158  C 377.32 158  376 156.68  376 155  C 376 153.32  377.32 152  379 152  C 380.68 152  382 153.32  382 155  C 382 156.68  380.68 158  379 158  " fill-rule="nonzero" fill="#797979" stroke="none" />
</svg>