<?xml version="1.0" encoding="utf-8"?>
<svg version="1.1" xmlns:xlink="http://www.w3.org/1999/xlink" width="10px" height="30px" xmlns="http://www.w3.org/2000/svg">
  <g transform="matrix(1 0 0 1 -769 -300 )">
    <path d="M 9.814453125 18.1321022727273  C 9.93815104166667 18.4019886363636  10 18.7215909090909  10 19.0909090909091  C 10 19.4602272727273  9.93815104166667 19.7798295454545  9.814453125 20.0497159090909  L 5.439453125 29.5951704545455  C 5.31575520833333 29.8650568181818  5.16927083333333 30  5 30  C 4.83072916666667 30  4.68424479166667 29.8650568181818  4.560546875 29.5951704545455  L 0.185546875 20.0497159090909  C 0.0618489583333333 19.7798295454545  0 19.4602272727273  0 19.0909090909091  C 0 18.7215909090909  0.0618489583333333 18.4019886363636  0.185546875 18.1321022727273  C 0.309244791666667 17.8622159090909  0.455729166666667 17.7272727272727  0.625 17.7272727272727  L 9.375 17.7272727272727  C 9.54427083333333 17.7272727272727  9.69075520833333 17.8622159090909  9.814453125 18.1321022727273  Z M 9.814453125 9.95028409090909  C 9.93815104166667 10.2201704545455  10 10.5397727272727  10 10.9090909090909  C 10 11.2784090909091  9.93815104166667 11.5980113636364  9.814453125 11.8678977272727  C 9.69075520833333 12.1377840909091  9.54427083333333 12.2727272727273  9.375 12.2727272727273  L 0.625 12.2727272727273  C 0.455729166666667 12.2727272727273  0.309244791666667 12.1377840909091  0.185546875 11.8678977272727  C 0.0618489583333333 11.5980113636364  0 11.2784090909091  0 10.9090909090909  C 0 10.5397727272727  0.0618489583333333 10.2201704545455  0.185546875 9.95028409090909  L 4.560546875 0.404829545454547  C 4.68424479166667 0.134943181818179  4.83072916666667 0  5 0  C 5.16927083333333 0  5.31575520833333 0.134943181818179  5.439453125 0.404829545454547  L 9.814453125 9.95028409090909  Z " fill-rule="nonzero" fill="#000000" stroke="none" transform="matrix(1 0 0 1 769 300 )" />
  </g>
</svg>