<?xml version="1.0" encoding="utf-8"?>
<svg version="1.1" xmlns:xlink="http://www.w3.org/1999/xlink" width="25px" height="24px" xmlns="http://www.w3.org/2000/svg">
  <g transform="matrix(1 0 0 1 -1365 -151 )">
    <path d="M 1377.5 151  C 1384.5 151  1390 156.28  1390 163  C 1390 169.72  1384.5 175  1377.5 175  C 1370.5 175  1365 169.72  1365 163  C 1365 156.28  1370.5 151  1377.5 151  Z " fill-rule="nonzero" fill="#ffffff" stroke="none" />
    <path d="M 1377.5 151.5  C 1384.22 151.5  1389.5 156.56  1389.5 163  C 1389.5 169.44  1384.22 174.5  1377.5 174.5  C 1370.78 174.5  1365.5 169.44  1365.5 163  C 1365.5 156.56  1370.78 151.5  1377.5 151.5  Z " stroke-width="1" stroke="#797979" fill="none" />
  </g>
</svg>