<?xml version="1.0" encoding="utf-8"?>
<svg version="1.1" xmlns:xlink="http://www.w3.org/1999/xlink" width="25px" height="24px" xmlns="http://www.w3.org/2000/svg">
  <g transform="matrix(1 0 0 1 -1358 -169 )">
    <path d="M 1370.5 169  C 1377.5 169  1383 174.28  1383 181  C 1383 187.72  1377.5 193  1370.5 193  C 1363.5 193  1358 187.72  1358 181  C 1358 174.28  1363.5 169  1370.5 169  Z " fill-rule="nonzero" fill="#ffffff" stroke="none" />
    <path d="M 1370.5 169.5  C 1377.22 169.5  1382.5 174.56  1382.5 181  C 1382.5 187.44  1377.22 192.5  1370.5 192.5  C 1363.78 192.5  1358.5 187.44  1358.5 181  C 1358.5 174.56  1363.78 169.5  1370.5 169.5  Z " stroke-width="1" stroke="#797979" fill="none" />
  </g>
</svg>