<?xml version="1.0" encoding="utf-8"?>
<svg version="1.1" xmlns:xlink="http://www.w3.org/1999/xlink" width="22px" height="15px" xmlns="http://www.w3.org/2000/svg">
  <g transform="matrix(1 0 0 1 -462 -109 )">
    <path d="M 13.4921875 9.19921875  C 14.6512419871795 8.40895432692308  15.2307692307692 7.45793269230769  15.2307692307692 6.34615384615385  C 15.2307692307692 5.234375  14.6512419871795 4.28335336538461  13.4921875 3.49308894230769  C 12.3331330128205 2.70282451923077  10.9383012820513 2.30769230769231  9.30769230769231 2.30769230769231  C 7.67708333333333 2.30769230769231  6.2822516025641 2.70282451923077  5.12319711538461 3.49308894230769  C 3.96414262820513 4.28335336538461  3.38461538461539 5.234375  3.38461538461539 6.34615384615385  C 3.38461538461539 7.45793269230769  3.96414262820513 8.40895432692308  5.12319711538461 9.19921875  C 6.2822516025641 9.98948317307692  7.67708333333333 10.3846153846154  9.30769230769231 10.3846153846154  C 10.9383012820513 10.3846153846154  12.3331330128205 9.98948317307692  13.4921875 9.19921875  Z M 21.5108173076923 13.0348557692308  C 21.8369391025641 13.2572115384615  22 13.5276442307692  22 13.8461538461538  C 22 14.1586538461538  21.8325320512821 14.4290865384615  21.4975961538462 14.6574519230769  C 21.1626602564103 14.8858173076923  20.7660256410256 15  20.3076923076923 15  C 19.8317307692308 15  19.4350961538462 14.8858173076923  19.1177884615385 14.6574519230769  L 14.5829326923077 11.5745192307692  C 13.0052083333333 12.3197115384615  11.2467948717949 12.6923076923077  9.30769230769231 12.6923076923077  C 8.04727564102564 12.6923076923077  6.84194711538461 12.5255408653846  5.69170673076923 12.1920072115385  C 4.54146634615385 11.8584735576923  3.54987980769231 11.4077524038462  2.71694711538462 10.83984375  C 1.88401442307692 10.2719350961538  1.22295673076923 9.59585336538461  0.733774038461538 8.81159855769231  C 0.244591346153846 8.02734375  0 7.20552884615384  0 6.34615384615385  C 0 5.48677884615384  0.244591346153846 4.66496394230769  0.733774038461538 3.88070913461538  C 1.22295673076923 3.09645432692308  1.88401442307692 2.42037259615385  2.71694711538462 1.85246394230769  C 3.54987980769231 1.28455528846154  4.54146634615385 0.833834134615384  5.69170673076923 0.500300480769231  C 6.84194711538461 0.166766826923077  8.04727564102564 0  9.30769230769231 0  C 10.568108974359 0  11.7734375 0.166766826923077  12.9236778846154 0.500300480769231  C 14.0739182692308 0.833834134615384  15.0655048076923 1.28455528846154  15.8984375 1.85246394230769  C 16.7313701923077 2.42037259615385  17.3924278846154 3.09645432692308  17.8816105769231 3.88070913461538  C 18.3707932692308 4.66496394230769  18.6153846153846 5.48677884615384  18.6153846153846 6.34615384615385  C 18.6153846153846 7.66826923076923  18.0689102564103 8.8671875  16.9759615384615 9.94290865384615  L 21.5108173076923 13.0348557692308  Z " fill-rule="nonzero" fill="#000000" stroke="none" transform="matrix(1 0 0 1 462 109 )" />
  </g>
</svg>