<?xml version="1.0" encoding="utf-8"?>
<svg version="1.1" xmlns:xlink="http://www.w3.org/1999/xlink" width="55px" height="32px" xmlns="http://www.w3.org/2000/svg">
  <g transform="matrix(1 0 0 1 -874 -985 )">
    <path d="M 874.5 987  A 1.5 1.5 0 0 1 876 985.5 L 927 985.5  A 1.5 1.5 0 0 1 928.5 987 L 928.5 1015  A 1.5 1.5 0 0 1 927 1016.5 L 876 1016.5  A 1.5 1.5 0 0 1 874.5 1015 L 874.5 987  Z " fill-rule="nonzero" fill="#e1ecff" stroke="none" />
    <path d="M 874.5 987  A 1.5 1.5 0 0 1 876 985.5 L 927 985.5  A 1.5 1.5 0 0 1 928.5 987 L 928.5 1015  A 1.5 1.5 0 0 1 927 1016.5 L 876 1016.5  A 1.5 1.5 0 0 1 874.5 1015 L 874.5 987  Z " stroke-width="1" stroke="#337dff" fill="none" />
  </g>
</svg>