<?xml version="1.0" encoding="utf-8"?>
<svg version="1.1" xmlns:xlink="http://www.w3.org/1999/xlink" width="56px" height="32px" xmlns="http://www.w3.org/2000/svg">
  <g transform="matrix(1 0 0 1 -896 -1133 )">
    <path d="M 897 1135  A 1 1 0 0 1 898 1134 L 950 1134  A 1 1 0 0 1 951 1135 L 951 1163  A 1 1 0 0 1 950 1164 L 898 1164  A 1 1 0 0 1 897 1163 L 897 1135  Z " fill-rule="nonzero" fill="#ffffff" stroke="none" />
    <path d="M 896.5 1135  A 1.5 1.5 0 0 1 898 1133.5 L 950 1133.5  A 1.5 1.5 0 0 1 951.5 1135 L 951.5 1163  A 1.5 1.5 0 0 1 950 1164.5 L 898 1164.5  A 1.5 1.5 0 0 1 896.5 1163 L 896.5 1135  Z " stroke-width="1" stroke="#337dff" fill="none" stroke-opacity="0.8" />
  </g>
</svg>