<?xml version="1.0" encoding="utf-8"?>
<svg version="1.1" xmlns:xlink="http://www.w3.org/1999/xlink" width="61px" height="57px" xmlns="http://www.w3.org/2000/svg">
  <defs>
    <path d="M 0 0  L 1024 0  L 1024 1024  L 0 1024  Z " fill-rule="evenodd" fill="black" id="path363" />
    <clipPath id="clip364">
      <use xlink:href="#path363" />
    </clipPath>
    <defs>
      <style type="text/css"></style>
    </defs>
    <path d="M196.3264 81.5104c0 44.6976 139.9296 80.94208 312.53504 80.94208 172.61056 0 312.54016-36.23936 312.54016-80.9472C821.4016 36.80256 681.472 0.5632 508.86144 0.5632c-172.60544 0-312.53504 36.24448-312.53504 80.9472z" fill="#1296db" p-id="10160"></path>
    <path d="M848.384 104.27392c0-52.15744-152.0128-94.57664-339.52256-94.57664-187.50976 0-339.51744 42.49088-339.51744 94.6432 0 0.37888 0.04096 1.33632 0.0512 1.33632h-0.0512v125.35296c0 46.5664 152.0128 84.31616 339.51744 84.31616 187.51488 0 339.51744-37.74976 339.51744-84.31616V105.6768h-0.0512c0.01536 0 0.0512-1.02912 0.0512-1.40288zM246.07232 226.2528a22.48192 22.48192 0 1 1 0-44.96896 22.48192 22.48192 0 0 1 0 44.96896z m70.91712 29.51168a22.48192 22.48192 0 1 1 0-44.96896 22.48192 22.48192 0 0 1 0 44.96896zM398.6944 272.9984a22.48192 22.48192 0 1 1 0-44.96896 22.48192 22.48192 0 0 1 0 44.96896z m449.6896 385.13664c0-13.12256-9.6256-25.6-27.02336-36.93568a23.296 23.296 0 0 1 2.29376 9.86112c0 45.12256-140.93312 81.69472-314.78784 81.69472-173.8496 0-314.7776-36.57216-314.7776-81.6896 0-3.38944 0.80384-6.72256 2.35008-10.00448-17.4336 11.33568-27.0848 23.82336-27.0848 36.96128 0 0.37376 0.03584 0.768 0.0512 0.768h-0.0512v126.85312c0 46.57152 152.00256 84.32128 339.51232 84.32128 187.51488 0 339.51744-37.74976 339.51744-84.32128v-126.848h-0.0512c0.01536 0 0.0512-0.2816 0.0512-0.66048zM246.07744 780.87168a22.48192 22.48192 0 1 1 0-44.96896 22.48192 22.48192 0 0 1 0 44.96896z m70.91712 29.51168a22.48192 22.48192 0 1 1 0-44.96896 22.48192 22.48192 0 0 1 0 44.96896z m81.69472 17.23904a22.48192 22.48192 0 1 1 0-44.96896 22.48192 22.48192 0 0 1 0 44.96896z" fill="#1296db" p-id="10161"></path>
    <path d="M848.384 478.26432c0-13.12256-9.63584-25.6-27.02848-36.9408a23.296 23.296 0 0 1 2.29376 9.86624c0 45.11744-140.93312 81.69472-314.78784 81.69472-173.8496 0-314.7776-36.57728-314.7776-81.69472 0-3.38432 0.80384-6.72256 2.35008-9.99936-17.4336 11.33056-27.0848 23.81824-27.0848 36.95616 0 0.37888 0.03584 0.77312 0.0512 0.77312h-0.0512v126.85312c0 46.5664 152.00256 84.31616 339.51232 84.31616 187.51488 0 339.51744-37.74976 339.51744-84.31616V478.9248h-0.0512c0.01536 0 0.0512-0.27648 0.0512-0.65536z m-602.30656 122.7264a22.48192 22.48192 0 1 1 0-44.96384 22.48192 22.48192 0 0 1 0 44.96896z m70.91712 29.5168a22.48192 22.48192 0 1 1 0-44.96896 22.48192 22.48192 0 0 1 0 44.96896z m81.69472 17.23392a22.48192 22.48192 0 1 1 0-44.96896 22.48192 22.48192 0 0 1 0 44.96896z" fill="#1296db" p-id="10162"></path>
    <path d="M847.99488 293.03808c0-13.12256-9.63072-25.4208-27.02336-36.75136a23.7056 23.7056 0 0 1 2.28864 9.9584c0 45.11744-140.93312 81.7408-314.78272 81.7408s-314.78272-36.5568-314.78272-81.66912c0-3.38944 0.80896-6.71232 2.35008-9.99424-17.42848 11.33568-27.0848 23.4496-27.0848 36.59264 0 0.37376 0.03584 0.40448 0.0512 0.40448H168.96V420.9152c0 46.5664 152.00768 84.31616 339.51744 84.31616s339.51744-37.74976 339.51744-84.31616V293.31968h-0.0512c0.01536 0 0.0512 0.09216 0.0512-0.2816zM245.68832 416.14336a22.48192 22.48192 0 1 1 0-44.96896 22.48192 22.48192 0 0 1 0 44.96896z m70.92224 29.50656a22.48192 22.48192 0 1 1 0-44.96384 22.48192 22.48192 0 0 1 0 44.96384z m81.69472 17.23904a22.48192 22.48192 0 1 1 0-44.96384 22.48192 22.48192 0 0 1 0 44.96384z" fill="#1296db" p-id="10163"></path>
    <path d="M476.16 839.68h71.68v179.2H476.16z" fill="#1296db" p-id="10164"></path>
    <path d="M102.4 952.32h819.2v71.68H102.4z" fill="#1296db" p-id="10165"></path>
    <filter x="-50.00%" y="-50.00%" width="200.00%" height="200.00%" filterUnits="objectBoundingBox" id="filter365">
      <feColorMatrix type="matrix" values="1 0 0 0 0  0 1 0 0 0  0 0 1 0 0  0 0 0 1 0  " in="SourceGraphic" />
    </filter>
  </defs>
  <g transform="matrix(1 0 0 1 -478 -245 )">
    <g transform="matrix(0.0556640625 0 0 0.0556640625 480 245 )" clip-path="url(#clip364)" filter="url(#filter365)">
      <path d="M196.3264 81.5104c0 44.6976 139.9296 80.94208 312.53504 80.94208 172.61056 0 312.54016-36.23936 312.54016-80.9472C821.4016 36.80256 681.472 0.5632 508.86144 0.5632c-172.60544 0-312.53504 36.24448-312.53504 80.9472z" fill="#1296db" p-id="10160"></path>
      <path d="M848.384 104.27392c0-52.15744-152.0128-94.57664-339.52256-94.57664-187.50976 0-339.51744 42.49088-339.51744 94.6432 0 0.37888 0.04096 1.33632 0.0512 1.33632h-0.0512v125.35296c0 46.5664 152.0128 84.31616 339.51744 84.31616 187.51488 0 339.51744-37.74976 339.51744-84.31616V105.6768h-0.0512c0.01536 0 0.0512-1.02912 0.0512-1.40288zM246.07232 226.2528a22.48192 22.48192 0 1 1 0-44.96896 22.48192 22.48192 0 0 1 0 44.96896z m70.91712 29.51168a22.48192 22.48192 0 1 1 0-44.96896 22.48192 22.48192 0 0 1 0 44.96896zM398.6944 272.9984a22.48192 22.48192 0 1 1 0-44.96896 22.48192 22.48192 0 0 1 0 44.96896z m449.6896 385.13664c0-13.12256-9.6256-25.6-27.02336-36.93568a23.296 23.296 0 0 1 2.29376 9.86112c0 45.12256-140.93312 81.69472-314.78784 81.69472-173.8496 0-314.7776-36.57216-314.7776-81.6896 0-3.38944 0.80384-6.72256 2.35008-10.00448-17.4336 11.33568-27.0848 23.82336-27.0848 36.96128 0 0.37376 0.03584 0.768 0.0512 0.768h-0.0512v126.85312c0 46.57152 152.00256 84.32128 339.51232 84.32128 187.51488 0 339.51744-37.74976 339.51744-84.32128v-126.848h-0.0512c0.01536 0 0.0512-0.2816 0.0512-0.66048zM246.07744 780.87168a22.48192 22.48192 0 1 1 0-44.96896 22.48192 22.48192 0 0 1 0 44.96896z m70.91712 29.51168a22.48192 22.48192 0 1 1 0-44.96896 22.48192 22.48192 0 0 1 0 44.96896z m81.69472 17.23904a22.48192 22.48192 0 1 1 0-44.96896 22.48192 22.48192 0 0 1 0 44.96896z" fill="#1296db" p-id="10161"></path>
      <path d="M848.384 478.26432c0-13.12256-9.63584-25.6-27.02848-36.9408a23.296 23.296 0 0 1 2.29376 9.86624c0 45.11744-140.93312 81.69472-314.78784 81.69472-173.8496 0-314.7776-36.57728-314.7776-81.69472 0-3.38432 0.80384-6.72256 2.35008-9.99936-17.4336 11.33056-27.0848 23.81824-27.0848 36.95616 0 0.37888 0.03584 0.77312 0.0512 0.77312h-0.0512v126.85312c0 46.5664 152.00256 84.31616 339.51232 84.31616 187.51488 0 339.51744-37.74976 339.51744-84.31616V478.9248h-0.0512c0.01536 0 0.0512-0.27648 0.0512-0.65536z m-602.30656 122.7264a22.48192 22.48192 0 1 1 0-44.96384 22.48192 22.48192 0 0 1 0 44.96896z m70.91712 29.5168a22.48192 22.48192 0 1 1 0-44.96896 22.48192 22.48192 0 0 1 0 44.96896z m81.69472 17.23392a22.48192 22.48192 0 1 1 0-44.96896 22.48192 22.48192 0 0 1 0 44.96896z" fill="#1296db" p-id="10162"></path>
      <path d="M847.99488 293.03808c0-13.12256-9.63072-25.4208-27.02336-36.75136a23.7056 23.7056 0 0 1 2.28864 9.9584c0 45.11744-140.93312 81.7408-314.78272 81.7408s-314.78272-36.5568-314.78272-81.66912c0-3.38944 0.80896-6.71232 2.35008-9.99424-17.42848 11.33568-27.0848 23.4496-27.0848 36.59264 0 0.37376 0.03584 0.40448 0.0512 0.40448H168.96V420.9152c0 46.5664 152.00768 84.31616 339.51744 84.31616s339.51744-37.74976 339.51744-84.31616V293.31968h-0.0512c0.01536 0 0.0512 0.09216 0.0512-0.2816zM245.68832 416.14336a22.48192 22.48192 0 1 1 0-44.96896 22.48192 22.48192 0 0 1 0 44.96896z m70.92224 29.50656a22.48192 22.48192 0 1 1 0-44.96384 22.48192 22.48192 0 0 1 0 44.96384z m81.69472 17.23904a22.48192 22.48192 0 1 1 0-44.96384 22.48192 22.48192 0 0 1 0 44.96384z" fill="#1296db" p-id="10163"></path>
      <path d="M476.16 839.68h71.68v179.2H476.16z" fill="#1296db" p-id="10164"></path>
      <path d="M102.4 952.32h819.2v71.68H102.4z" fill="#1296db" p-id="10165"></path>
    </g>
  </g>
</svg>