<?xml version="1.0" encoding="utf-8"?>
<svg version="1.1" xmlns:xlink="http://www.w3.org/1999/xlink" width="22px" height="21px" xmlns="http://www.w3.org/2000/svg">
  <g transform="matrix(1 0 0 1 -1239 -86 )">
    <path d="M 22 10.4999941235517  C 22 4.70109111897767  17.3363904692299 0  11.5837218576878 0  C 5.8310532461456 0  1.16744371537554 4.70109111897767  1.16744371537554 10.4999941235517  C 1.16744371537554 10.4999941235517  0.0544364951244538 10.4999941235517  0.0544364951244538 10.4999941235517  C -0.0181454983748179 10.573207434318  -0.0181454983748179 10.6918587894312  0.0544364951244538 10.7650721001976  C 0.0544364951244538 10.7650721001976  1.89565316050326 12.6213210613255  1.89565316050326 12.6213210613255  C 1.93054178795081 12.6565292371889  1.97788423614512 12.6763122786269  2.02725167453337 12.6763122786269  C 2.07661911292161 12.6763122786269  2.12396156111592 12.6565292371889  2.15885018856347 12.6213210613255  C 2.15885018856347 12.6213210613255  4.00006685394228 10.7650721001976  4.00006685394228 10.7650721001976  C 4.07264884744155 10.6918587894312  4.07264884744155 10.573207434318  4.00006685394228 10.4999941235517  C 4.00006685394228 10.4999941235517  2.65548344999157 10.4999941235517  2.65548344999157 10.4999941235517  C 2.65548344999157 5.52937190542034  6.65273018710389 1.49999916050738  11.5837218576878 1.49999916050738  C 16.5147135282717 1.49999916050738  20.511960265384 5.52937190542034  20.511960265384 10.4999941235517  C 20.511960265384 15.470616341683  16.5147135282717 19.499989086596  11.5837218576878 19.499989086596  C 9.27224565569411 19.5031241895298  7.05027003315763 18.5994407624398  5.3881289188888 16.9802248718124  C 5.22199598661962 16.7708896721525  4.95769423686251 16.6667991670264  4.69478358464508 16.7071632438264  C 4.43187293242764 16.7475273206264  4.21029576196157 16.9262137155955  4.1135180521287 17.1759129905025  C 4.01674034229583 17.4256122654094  4.05946493011197 17.7083891586297  4.22559787622002 17.9177243471295  C 4.22559787622002 17.9177243471295  4.21769266512987 17.9256930926697  4.21769266512987 17.9256930926697  C 6.16935665747174 19.8977320493941  8.82036386010071 21.0041597303548  11.5837218576878 20.9999882471034  C 17.3363904692299 20.9999882471034  22 16.2988971281257  22 10.4999941235517  Z " fill-rule="nonzero" fill="#ffffff" stroke="none" transform="matrix(1 0 0 1 1239 86 )" />
  </g>
</svg>