<?xml version="1.0" encoding="utf-8"?>
<svg version="1.1" xmlns:xlink="http://www.w3.org/1999/xlink" width="23px" height="15px" xmlns="http://www.w3.org/2000/svg">
  <g transform="matrix(1 0 0 1 -420 -238 )">
    <path d="M 10.7264573991031 11.25  L 11.4484304932735 11.25  L 12.9439461883408 10.0142045454545  L 10.9843049327354 8.39488636363636  L 9.48878923766816 9.63068181818182  L 9.48878923766816 10.2272727272727  L 10.7264573991031 10.2272727272727  L 10.7264573991031 11.25  Z M 17.1081838565022 3.93110795454545  C 17.2542974588939 3.81036931818182  17.2585949177877 3.69318181818182  17.1210762331839 3.57954545454545  C 16.98355754858 3.46590909090909  16.8417414050822 3.46946022727273  16.6956278026906 3.59019886363636  L 12.1832959641256 7.31889204545454  C 12.0371823617339 7.43963068181818  12.0328849028401 7.55681818181818  12.1704035874439 7.67045454545454  C 12.3079222720478 7.78409090909091  12.4497384155456 7.78053977272727  12.5958520179372 7.65980113636364  L 17.1081838565022 3.93110795454545  Z M 17.8946188340807 9.59872159090909  C 18.0665171898356 9.65553977272727  18.152466367713 9.75852272727273  18.152466367713 9.90767045454546  L 18.152466367713 11.9318181818182  C 18.152466367713 12.7769886363636  17.7893310911809 13.4996448863636  17.0630605381166 14.0997869318182  C 16.3367899850523 14.6999289772727  15.4622571001495 15  14.4394618834081 15  L 3.71300448430493 15  C 2.69020926756353 15  1.81567638266069 14.6999289772727  1.08940582959641 14.0997869318182  C 0.363135276532137 13.4996448863636  0 12.7769886363636  0 11.9318181818182  L 0 3.06818181818182  C 0 2.22301136363636  0.363135276532137 1.50035511363636  1.08940582959641 0.900213068181819  C 1.81567638266069 0.300071022727271  2.69020926756353 0  3.71300448430493 0  L 14.4394618834081 0  C 14.9809417040359 0  15.4837443946188 0.0887784090909083  15.947869955157 0.266335227272727  C 16.0767937219731 0.316051136363635  16.1541479820628 0.397727272727272  16.179932735426 0.511363636363636  C 16.2057174887892 0.632102272727272  16.1670403587444 0.735085227272727  16.0639013452915 0.8203125  L 15.4321748878924 1.34232954545455  C 15.311846038864 1.44176136363636  15.1743273542601 1.47017045454545  15.0196188340807 1.42755681818182  C 14.8219357249626 1.38494318181818  14.6285500747384 1.36363636363636  14.4394618834081 1.36363636363636  L 3.71300448430493 1.36363636363636  C 3.1457399103139 1.36363636363636  2.66012705530643 1.53053977272727  2.25616591928251 1.86434659090909  C 1.8522047832586 2.19815340909091  1.65022421524664 2.59943181818182  1.65022421524664 3.06818181818182  L 1.65022421524664 11.9318181818182  C 1.65022421524664 12.4005681818182  1.8522047832586 12.8018465909091  2.25616591928251 13.1356534090909  C 2.66012705530643 13.4694602272727  3.1457399103139 13.6363636363636  3.71300448430493 13.6363636363636  L 14.4394618834081 13.6363636363636  C 15.0067264573991 13.6363636363636  15.4923393124066 13.4694602272727  15.8963004484305 13.1356534090909  C 16.3002615844544 12.8018465909091  16.5022421524664 12.4005681818182  16.5022421524664 11.9318181818182  L 16.5022421524664 10.5894886363636  C 16.5022421524664 10.4971590909091  16.5409192825112 10.4190340909091  16.6182735426009 10.3551136363636  L 17.4433856502242 9.67329545454546  C 17.5723094170404 9.56676136363636  17.7227204783259 9.54190340909091  17.8946188340807 9.59872159090909  Z M 8.25112107623318 9.20454545454546  L 16.914798206278 2.04545454545455  L 20.627802690583 5.11363636363636  L 11.9641255605381 12.2727272727273  L 8.25112107623318 12.2727272727273  L 8.25112107623318 9.20454545454546  Z M 23 2.72727272727273  C 23 3.01136363636364  22.8796711509716 3.25284090909091  22.6390134529148 3.45170454545455  L 21.4529147982063 4.43181818181818  L 17.7399103139013 1.36363636363636  L 18.9260089686099 0.383522727272727  C 19.1666666666667 0.184659090909089  19.4588938714499 0.0852272727272735  19.8026905829596 0.0852272727272735  C 20.1464872944694 0.0852272727272735  20.4387144992526 0.184659090909089  20.6793721973094 0.383522727272727  L 22.6390134529148 2.00284090909091  C 22.8796711509716 2.20170454545454  23 2.44318181818182  23 2.72727272727273  Z " fill-rule="nonzero" fill="#000000" stroke="none" transform="matrix(1 0 0 1 420 238 )" />
  </g>
</svg>