<?xml version="1.0" encoding="utf-8"?>
<svg version="1.1" xmlns:xlink="http://www.w3.org/1999/xlink" width="16px" height="20px" xmlns="http://www.w3.org/2000/svg">
  <g transform="matrix(1 0 0 1 -1356 -161 )">
    <path d="M 15.640625 11.7903645833333  C 15.7065972222222 11.8728298611111  15.7395833333333 11.9704861111111  15.7395833333333 12.0833333333333  C 15.7395833333333 12.1267361111111  15.7361111111111 12.1571180555556  15.7291666666667 12.1744791666667  C 15.2847222222222 14.5008680555556  14.3541666666667 16.38671875  12.9375 17.83203125  C 11.5208333333333 19.27734375  9.86111111111111 20  7.95833333333333 20  C 6.94444444444445 20  5.96354166666667 19.7612847222222  5.015625 19.2838541666667  C 4.06770833333333 18.8064236111111  3.22222222222222 18.125  2.47916666666667 17.2395833333333  L 1.13541666666667 18.9192708333333  C 1.00347222222222 19.0842013888889  0.847222222222222 19.1666666666667  0.666666666666667 19.1666666666667  C 0.486111111111111 19.1666666666667  0.329861111111111 19.0842013888889  0.197916666666667 18.9192708333333  C 0.0659722222222222 18.7543402777778  0 18.5590277777778  0 18.3333333333333  L 0 12.5  C 0 12.2743055555556  0.0659722222222222 12.0789930555556  0.197916666666667 11.9140625  C 0.329861111111111 11.7491319444444  0.486111111111111 11.6666666666667  0.666666666666667 11.6666666666667  L 5.33333333333333 11.6666666666667  C 5.51388888888889 11.6666666666667  5.67013888888889 11.7491319444444  5.80208333333333 11.9140625  C 5.93402777777778 12.0789930555556  6 12.2743055555556  6 12.5  C 6 12.7256944444444  5.93402777777778 12.9210069444444  5.80208333333333 13.0859375  L 4.375 14.8697916666667  C 4.86805555555556 15.4427083333333  5.42708333333333 15.8854166666667  6.05208333333333 16.1979166666667  C 6.67708333333333 16.5104166666667  7.32638888888889 16.6666666666667  8 16.6666666666667  C 8.93055555555556 16.6666666666667  9.79861111111111 16.3845486111111  10.6041666666667 15.8203125  C 11.4097222222222 15.2560763888889  12.0555555555556 14.4791666666667  12.5416666666667 13.4895833333333  C 12.6180555555556 13.3420138888889  12.8020833333333 12.8342013888889  13.09375 11.9661458333333  C 13.1493055555556 11.7664930555556  13.2534722222222 11.6666666666667  13.40625 11.6666666666667  L 15.40625 11.6666666666667  C 15.4965277777778 11.6666666666667  15.5746527777778 11.7078993055556  15.640625 11.7903645833333  Z M 15.8020833333333 1.08072916666667  C 15.9340277777778 1.24565972222222  16 1.44097222222222  16 1.66666666666667  L 16 7.5  C 16 7.72569444444444  15.9340277777778 7.92100694444444  15.8020833333333 8.0859375  C 15.6701388888889 8.25086805555556  15.5138888888889 8.33333333333333  15.3333333333333 8.33333333333333  L 10.6666666666667 8.33333333333333  C 10.4861111111111 8.33333333333333  10.3298611111111 8.25086805555556  10.1979166666667 8.0859375  C 10.0659722222222 7.92100694444444  10 7.72569444444444  10 7.5  C 10 7.27430555555555  10.0659722222222 7.07899305555555  10.1979166666667 6.9140625  L 11.6354166666667 5.1171875  C 10.6076388888889 3.92795138888889  9.39583333333333 3.33333333333333  8 3.33333333333333  C 7.06944444444445 3.33333333333333  6.20138888888889 3.61545138888889  5.39583333333333 4.1796875  C 4.59027777777778 4.74392361111111  3.94444444444445 5.52083333333333  3.45833333333333 6.51041666666667  C 3.38194444444444 6.65798611111111  3.19791666666667 7.16579861111111  2.90625 8.03385416666667  C 2.85069444444444 8.23350694444444  2.74652777777778 8.33333333333333  2.59375 8.33333333333333  L 0.520833333333333 8.33333333333333  C 0.430555555555556 8.33333333333333  0.352430555555556 8.29210069444444  0.286458333333333 8.20963541666667  C 0.220486111111111 8.12717013888889  0.1875 8.02951388888889  0.1875 7.91666666666667  L 0.1875 7.82552083333333  C 0.638888888888889 5.49913194444444  1.57638888888889 3.61328125  3 2.16796875  C 4.42361111111111 0.72265625  6.09027777777778 0  8 0  C 9.01388888888889 0  10 0.240885416666667  10.9583333333333 0.72265625  C 11.9166666666667 1.20442708333333  12.7673611111111 1.88368055555555  13.5104166666667 2.76041666666667  L 14.8645833333333 1.08072916666667  C 14.9965277777778 0.915798611111109  15.1527777777778 0.833333333333333  15.3333333333333 0.833333333333333  C 15.5138888888889 0.833333333333333  15.6701388888889 0.915798611111109  15.8020833333333 1.08072916666667  Z " fill-rule="nonzero" fill="#000000" stroke="none" transform="matrix(1 0 0 1 1356 161 )" />
  </g>
</svg>