<?xml version="1.0" encoding="utf-8"?>
<svg version="1.1" xmlns:xlink="http://www.w3.org/1999/xlink" width="17px" height="19px" xmlns="http://www.w3.org/2000/svg">
  <g transform="matrix(1 0 0 1 -382 -251 )">
    <path d="M 12.1428571428571 4.07142857142857  L 16.0892857142857 4.07142857142857  C 16.3422619047619 4.07142857142857  16.5572916666667 4.1703869047619  16.734375 4.36830357142857  C 16.9114583333333 4.56622023809524  17 4.80654761904762  17 5.08928571428572  L 17 17.9821428571429  C 17 18.264880952381  16.9114583333333 18.5052083333333  16.734375 18.703125  C 16.5572916666667 18.9010416666667  16.3422619047619 19  16.0892857142857 19  L 6.98214285714286 19  C 6.72916666666667 19  6.51413690476191 18.9010416666667  6.33705357142857 18.703125  C 6.15997023809524 18.5052083333333  6.07142857142857 18.264880952381  6.07142857142857 17.9821428571429  L 6.07142857142857 14.9285714285714  L 0.910714285714286 14.9285714285714  C 0.657738095238095 14.9285714285714  0.442708333333333 14.8296130952381  0.265625 14.6316964285714  C 0.0885416666666667 14.4337797619048  0 14.1934523809524  0 13.9107142857143  L 0 6.78571428571428  C 0 6.50297619047619  0.0632440476190476 6.19196428571428  0.189732142857143 5.85267857142857  C 0.316220238095238 5.51339285714286  0.468005952380952 5.24479166666667  0.645089285714286 5.046875  L 4.515625 0.720982142857143  C 4.69270833333333 0.523065476190475  4.93303571428571 0.353422619047619  5.23660714285714 0.212053571428572  C 5.54017857142857 0.0706845238095246  5.81845238095238 0  6.07142857142857 0  L 10.0178571428571 0  C 10.2708333333333 0  10.4858630952381 0.098958333333334  10.6629464285714 0.296875  C 10.8400297619048 0.494791666666666  10.9285714285714 0.735119047619047  10.9285714285714 1.01785714285714  L 10.9285714285714 4.49553571428572  C 11.358630952381 4.21279761904762  11.7633928571429 4.07142857142857  12.1428571428571 4.07142857142857  Z M 10.9285714285714 9.5  L 10.9285714285714 6.32979910714286  L 8.09207589285714 9.5  L 10.9285714285714 9.5  Z M 4.85714285714286 5.42857142857143  L 4.85714285714286 2.25837053571428  L 2.02064732142857 5.42857142857143  L 4.85714285714286 5.42857142857143  Z M 6.26116071428571 9.92410714285714  C 6.38764880952381 9.58482142857143  6.53943452380952 9.31622023809524  6.71651785714286 9.11830357142857  L 9.71428571428571 5.76785714285714  L 9.71428571428571 1.35714285714286  L 6.07142857142857 1.35714285714286  L 6.07142857142857 5.76785714285714  C 6.07142857142857 6.05059523809524  5.98288690476191 6.29092261904762  5.80580357142857 6.48883928571428  C 5.62872023809524 6.68675595238095  5.41369047619048 6.78571428571428  5.16071428571429 6.78571428571428  L 1.21428571428571 6.78571428571428  L 1.21428571428571 13.5714285714286  L 6.07142857142857 13.5714285714286  L 6.07142857142857 10.8571428571429  C 6.07142857142857 10.5744047619048  6.13467261904762 10.2633928571429  6.26116071428571 9.92410714285714  Z M 7.28571428571429 17.6428571428571  L 15.7857142857143 17.6428571428571  L 15.7857142857143 5.42857142857143  L 12.1428571428571 5.42857142857143  L 12.1428571428571 9.83928571428571  C 12.1428571428571 10.1220238095238  12.0543154761905 10.3623511904762  11.8772321428571 10.5602678571429  C 11.7001488095238 10.7581845238095  11.485119047619 10.8571428571429  11.2321428571429 10.8571428571429  L 7.28571428571429 10.8571428571429  L 7.28571428571429 17.6428571428571  Z " fill-rule="nonzero" fill="#000000" stroke="none" transform="matrix(1 0 0 1 382 251 )" />
  </g>
</svg>