<?xml version="1.0" encoding="utf-8"?>
<svg version="1.1" xmlns:xlink="http://www.w3.org/1999/xlink" width="12px" height="12px" viewBox="264 467.5  12 12" xmlns="http://www.w3.org/2000/svg">
  <path d="M 270 467.5  C 273.36 467.5  276 470.14  276 473.5  C 276 476.86  273.36 479.5  270 479.5  C 266.64 479.5  264 476.86  264 473.5  C 264 470.14  266.64 467.5  270 467.5  Z " fill-rule="nonzero" fill="#f0f0f0" stroke="none" />
  <path d="M 270 468  C 273.08 468  275.5 470.42  275.5 473.5  C 275.5 476.58  273.08 479  270 479  C 266.92 479  264.5 476.58  264.5 473.5  C 264.5 470.42  266.92 468  270 468  Z " stroke-width="1" stroke="#797979" fill="none" />
  <path d="M 270 476.5  C 268.32 476.5  267 475.18  267 473.5  C 267 471.82  268.32 470.5  270 470.5  C 271.68 470.5  273 471.82  273 473.5  C 273 475.18  271.68 476.5  270 476.5  " fill-rule="nonzero" fill="#797979" stroke="none" />
</svg>