<?xml version="1.0" encoding="utf-8"?>
<svg version="1.1" xmlns:xlink="http://www.w3.org/1999/xlink" width="20px" height="20px" xmlns="http://www.w3.org/2000/svg">
  <g transform="matrix(1 0 0 1 -1353 -87 )">
    <path d="M 18.5195130267691 19.9904804367003  C 19.2949131961261 19.9904804367003  20 19.4416455561226  20 18.6564796415594  C 20 18.6076509155294  19.9960937019175 18.5373375500461  19.9843748076703 18.4474926941509  C 19.9687496153408 18.3088191122255  19.9394523797228 18.1564734870118  19.8964831008163 17.9963152656332  C 19.7734347112205 17.5412315390332  19.5527288695648 17.0900541105156  19.2128809363958 16.6701270666572  C 18.7870944454137 16.1447299745739  18.2011497330532 15.7111308874271  17.4472342031493 15.3966738917937  C 16.8007418705115 15.0744042999954  16.4394092978891 14.9220586747816  16.0624515329373 14.8087760303919  C 15.992138167454 14.7872913909387  15.9179185038884 14.7677599005267  15.8358862441578 14.7462752610735  C 15.7694791767569 14.7286969197026  15.3749430704343 14.6310394676426  15.2343163394676 14.5939296358597  C 14.947203430411 14.5197099722941  14.6503247761484 14.4337714144812  14.2928985016083 14.3243950681739  C 13.5214046303338 14.0861108851473  12.96280400455 13.8790770867799  12.5604553020623 13.6915747788245  C 12.5604553020623 13.6915747788245  12.6288155185046 13.1466461963292  12.6288155185046 13.1466461963292  C 12.6893631387818 13.0919580231756  12.749910759059 13.0353167009807  12.8085052302949 12.9786753787859  C 13.0936649903106 12.7013282149352  13.3553869618315 12.4024964116313  13.5936711448583 12.0821799688742  C 14.0956304484471 11.4063904006184  14.4628224681931 10.6700532120853  14.6405590309423 9.88098099943982  C 14.7792326128676 9.80871448491536  14.9022810024633 9.70910388381407  15.0116573487705 9.58605549421836  C 15.1679092720667 9.40831893146899  15.2811919164565 9.1973788350192  15.3866619646815 8.93565686349816  C 15.4374438397526 8.80870217582004  15.5546327822246 8.46299479552733  15.5624453783896 8.44541645415651  C 15.6815874699028 8.12900630948182  15.749947686345 7.5528273423273  15.7089315564797 7.09774361572728  C 15.6815874699028 6.78328662009379  15.605414657296 6.51179890336675  15.4550221811235 6.29109306171095  C 15.4042403060523 6.21492024910408  15.3436926857748 6.14851318170322  15.2753324693329 6.08796556142596  C 15.4159592002993 5.43952007974697  15.4550221811235 4.85357536738643  15.451115883041 4.06645630378211  C 15.3573647290634 3.03128731194517  14.8710306178041 2.07033798367389  14.009691890634 1.34767283842923  C 13.0409299661981 0.542975433454096  11.6581004450272 0.0742196635656676  9.85729702903905 0  C 8.96275476816868 0  8.1834483007292 0.140626730966527  7.39437608808362 0.437505385229201  C 7.37484459767165 0.437505385229201  7.23812416478745 0.431645938105593  7.19320173683991 0.431645938105593  C 6.92366716915399 0.423833341940789  6.70882077462193 0.419927043858383  6.49202123104851 0.423833341940789  C 6.19318942774453 0.427739640023191  5.93928005238831 0.445317981394005  5.72833995593851 0.478521515094435  C 5.58771322497205 0.501959303588858  5.46661798441755 0.531256539206886  5.35724163811028 0.576178967154526  C 5.16973933015493 0.652351779761396  5.01544055589989 0.767587573192301  4.91778310383984 0.958996179230077  C 4.79473471424421 1.2050929584215  4.80645360849121 1.46486178090134  4.91582995479871 1.69533336776315  C 4.93536144521067 1.73634949762839  4.95684608466377 1.77541247845242  4.98028387315821 1.81447545927646  C 4.34551043476768 2.43167055629622  4.10331995365868 2.97659913879152  3.9783184150217 3.87114139966194  C 3.9783184150217 4.09575353940014  4.00370935255728 4.42778887640444  4.06425697283476 4.75005846820274  C 4.08769476132898 4.87115370875725  4.11308569886478 5.00006154547657  4.15019553064758 5.17389181014353  C 4.15410182872984 5.18951700247314  4.22441519421318 5.51764604139504  4.2458998336665 5.61725664249633  C 4.27519706928433 5.75202392633926  4.30254115586126 5.88679121018217  4.32793209339684 6.0215584940251  C 4.23222779037792 6.08405926334355  4.14824238160622 6.16218522499163  4.07792901612311 6.25203008088691  C 3.90214560241498 6.48054851870752  3.82597278980802 6.76375512968178  3.8142538955608 7.09188416860368  C 3.79862870323132 7.49618602013245  3.87480151583804 7.94931659769126  3.99394360735141 8.38877513196166  C 4.08378846324672 8.72081046896596  4.2205088961307 9.05479895501147  4.39043286271544 9.32238037365612  C 4.54473163697025 9.56261770572393  4.72442134876087 9.75402631176171  4.9373145942518 9.87316840327502  C 5.13458264741325 10.6427091255085  5.56232228743647 11.3809994630828  6.15217329787924 12.080226819833  C 6.43342675981239 12.4122621568373  6.73225856311637 12.7150002582236  7.03109036642013 12.9806285278271  C 7.09945058286212 13.0411761481043  7.16781079930433 13.0997706193404  7.23812416478745 13.1583650905764  C 7.23812416478745 13.1583650905764  7.29281233794109 13.6212614133412  7.29281233794109 13.6232145623824  C 6.88069789024757 13.783372783761  6.30647207213428 14.015797519664  5.54474394606564 14.3322076643387  C 5.33966329673945 14.3947084336572  4.08183531420536 14.7775256457327  3.86112947254969 14.8497921602572  C 3.82011334268441 14.8634642035456  3.78105036186048 14.877136246834  3.74198738103632 14.8908082901224  C 3.45878077006205 14.9884657421825  3.23807492840638 15.0744042999954  2.44314326863719 15.3927675937113  C 1.75563480613414 15.6935525460563  1.21656567076252 16.0705103110083  0.818123266357361 16.5080156962375  C 0.44311865044665 16.9201301439311  0.206787616461042 17.3674012743663  0.0876455249479022 17.8244381500075  C 0.00366011617620643 18.1428014437234  -0.0139182251946295 18.42991435278  0.0095195632998184 18.6994489204659  C 0.0349105008353945 19.4611770465346  0.728278410462053 19.9904804367003  1.4900065365307 19.9904804367003  C 1.4900065365307 19.9904804367003  18.5195130267691 19.9904804367003  18.5195130267691 19.9904804367003  Z M 18.6816243971887 18.2599903861955  C 18.7089684837654 18.361554136338  18.7265468251362 18.4553052903156  18.7363125703423 18.5353844010049  C 18.6777180991062 18.5803068289526  18.5585760075928 18.7385119012899  18.4706843007389 18.7385119012899  C 18.4706843007389 18.7385119012899  1.5388352625605 18.7385119012899  1.5388352625605 18.7385119012899  C 1.45094355570632 18.7385119012899  1.36109869981124 18.7092146656719  1.30250422857512 18.6642922377242  C 1.26734754583345 18.6369481511474  1.2595349496687 18.6213229588178  1.2595349496687 18.6056977664882  C 1.2595349496687 18.574447381829  1.25758180062735 18.5412438481285  1.25172235350374 18.5099934634693  C 1.24781605542148 18.4728836316865  1.24781605542148 18.4240549056564  1.25172235350374 18.3635072853792  C 1.25758180062735 18.2678029823603  1.27320699295706 18.1720986793414  1.29859793049263 18.0803006744049  C 1.36891129597598 17.8068598086367  1.51344432502492 17.5353720919096  1.75172850805143 17.2736501203886  C 2.03102882094345 16.9670057209199  2.42556492726612 16.6916117061104  2.95486831743187 16.4591869702074  C 3.70097125117081 16.1603551669036  3.91191134762062 16.0783229071731  4.16582072297683 15.990431200319  C 4.16582072297683 15.990431200319  4.27129077120185 15.9552745175774  4.27129077120185 15.9552745175774  C 4.48809031477526 15.8830080030529  5.87873243211084 15.4611278101533  5.9451394995117 15.4396431707001  C 6.70686762558034 15.1212798769842  7.33187531876501 14.8712767997104  7.73813031933491 14.713071727373  C 7.84750666564219 14.6701024484666  7.95883616099081 14.6271331695602  8.07016565633921 14.5880701887361  C 8.11704123332811 14.5704918473653  8.14243217086369 14.5626792512005  8.1482916179873 14.5587729531181  C 8.41782618567322 14.4689280972228  8.58775015225774 14.2013466785782  8.55259346951607 13.9181400676039  C 8.55259346951607 13.9181400676039  8.406107291426 12.7501569409652  8.406107291426 12.7501569409652  C 8.38657580101403 12.5880455705455  8.30063724320098 12.4415593924554  8.15219791606978 12.3321830461481  C 8.13461957469895 12.3185110028597  8.1111817862045 12.3009326614888  8.08579084866892 12.2794480220356  C 8.00180543989723 12.2110878055936  7.91977318016666 12.1427275891515  7.83969406947745 12.070461074627  C 7.58187839603875 11.8419426368064  7.32406272260027 11.5802206652854  7.08382539053241 11.2970140543111  C 6.53108421187221 10.6427091255085  6.16779849020872 9.9669195572527  6.06623474006619 9.31847407557371  C 6.02326546115978 9.04503320980546  5.80060647046275 8.83995256047927  5.5291187537357 8.81456162294365  C 5.501774667159 8.78917068540803  5.4646648353762 8.74620140650159  5.42560185455204 8.68370063718313  C 5.32794440249199 8.52940186292819  5.23614639755556 8.30674287223118  5.17559877727831 8.08408388153418  C 5.085753921383 7.75400169357108  5.02715945014688 7.40634116423716  5.03692519535298 7.15438493792213  C 5.39044517181037 7.15243178888093  5.67951122990826 6.76961457680538  5.62872935483711 6.40437570610065  C 5.58380692688934 6.08991871046716  5.52716560469457 5.78522746003969  5.44318019592288 5.39069135371692  C 5.20880231097863 4.28520899639672  5.1970834167314 4.23052082324307  5.1970834167314 4.02544017391688  C 5.30255346495642 3.29691558154861  5.47052428249981 3.00003692728594  6.15022014883789 2.43362370533742  C 6.29084687980435 2.2929969743709  6.40022322611185 2.06643168559149  6.38459803378214 1.86721048338891  C 6.37873858665853 1.79885026694684  6.36506654337018 1.73244319954598  6.3396756058346 1.66994243022753  C 6.39631692802936 1.66798928118633  6.45686454830661 1.66603613214512  6.52131846666634 1.66603613214512  C 6.71468022174531 1.66408298310392  6.91585457298902 1.66603613214512  7.16585765026275 1.67384872830993  C 7.20882692916939 1.67580187735113  7.34554736205337 1.67970817543354  7.36703200150669 1.67970817543354  C 7.4373453669898 1.68166132447474  7.48226779493757 1.68361447351594  7.51742447767924 1.68361447351594  C 7.59359729028597 1.68361447351594  7.6678169538518 1.66994243022753  7.73813031933491 1.6406451946095  C 8.41001358950848 1.37111062692366  9.06236536926986 1.24610908828674  9.83971868766821 1.24610908828674  C 11.3514560455583 1.3105630066464  12.4686572971257 1.69142706968075  13.2089007837412 2.31057531574171  C 13.8104706884312 2.81448776837177  14.146412323518 3.46879269717437  14.2167256890014 4.17973894817182  C 14.21477253996 4.99029580027056  14.1600843668064 5.5801468107135  13.9471911213154 6.32234344637017  C 13.8417210730906 6.68953546611611  14.1034430446116 7.04110229353243  14.4550098720279 7.08016527435647  C 14.464775617234 7.12508770230411  14.4706350643576 7.17001013025175  14.47454136244 7.21493255819939  C 14.4882134057284 7.36141873628952  14.4823539586048 7.53720214999768  14.4628224681928 7.71103241466464  C 14.4530567229867 7.78720522727151  14.4413378287395 7.85947174179598  14.4296189344923 7.92197251111443  C 14.4198531892862 7.97275438618568  14.4081342950392 8.00986421796852  14.4022748479156 8.02744255933933  C 14.3866496555859 8.07041183824577  14.271413862155 8.40244717525007  14.2362571794133 8.49619832922776  C 14.1776627081772 8.64073135827669  14.1249276840649 8.74229510841919  14.0643800637877 8.81065532486124  C 13.7753140056898 8.82042107006725  13.5350766736219 9.03722061364065  13.4940605437566 9.32238037365611  C 13.3924967936141 10.037232922736  13.0741334998982 10.7227882361978  12.6034245809685 11.3556085255472  C 12.406097612567 11.6212105662395  12.1879592898108 11.8706981090324  11.9510728012071 12.1017114592862  C 11.8827125847652 12.1681185266871  11.8123992192818 12.2325724450468  11.7401327047573 12.2950732143652  C 11.7049760220159 12.3263235990245  11.6815382335215 12.3439019403953  11.6717724883154 12.3517145365601  C 11.5487240987197 12.4493719886202  11.4666918389892 12.5919518686279  11.4471603485772 12.748203791924  C 11.4471603485772 12.748203791924  11.3006741704871 13.9161869185627  11.3006741704871 13.9161869185627  C 11.2752832329513 14.1173612698065  11.3534091945994 14.3165824720091  11.5096611178956 14.4474434577696  C 11.601459122832 14.5236162703765  11.7733362384579 14.6271331695602  12.0584959984733 14.7599473043619  C 12.4862356384965 14.9591685065645  13.091711841269 15.1837806463027  13.9081281404915 15.4357368726177  C 14.2811796073609 15.5509726660486  14.5917303049121 15.6388643729027  14.8944684062983 15.7169903345508  C 15.0429077334297 15.7560533153748  15.4354906907113 15.8537107674349  15.4940851619472 15.8693359597645  C 15.5643985274305 15.8869143011353  15.6249461477078 15.9044926425061  15.6815874699028 15.9220709838769  C 15.984325571289 16.0119158397722  16.2870636726752 16.1408236764915  16.9237902601069 16.4572338211662  C 17.4999692272615 16.6935648551516  17.9257557182434 17.0080218507851  18.2265406705885 17.3810733176547  C 18.4550591084092 17.6623267795877  18.6015452864992 17.9631117319328  18.6816243971887 18.2599903861955  Z " fill-rule="nonzero" fill="#f1f2f3" stroke="none" transform="matrix(1 0 0 1 1353 87 )" />
  </g>
</svg>