<?xml version="1.0" encoding="utf-8"?>
<svg version="1.1" xmlns:xlink="http://www.w3.org/1999/xlink" width="20px" height="20px" xmlns="http://www.w3.org/2000/svg">
  <g transform="matrix(1 0 0 1 -1429 -85 )">
    <path d="M 20 10  C 20 4.47767857142857  15.5223214285713 0  10 0  C 4.47767857142867 0  0 4.47767857142857  0 10  C 0 15.5223214285714  4.47767857142867 20  10 20  C 15.5223214285713 20  20 15.5223214285714  20 10  Z M 18.5714285714282 10  C 18.5714285714282 14.734375  14.7343749999995 18.5714285714286  9.99999999999955 18.5714285714286  C 5.26562499999977 18.5714285714286  1.4285714285711 14.734375  1.4285714285711 10  C 1.4285714285711 5.265625  5.26562499999977 1.42857142857143  9.99999999999955 1.42857142857143  C 14.7343749999995 1.42857142857143  18.5714285714282 5.265625  18.5714285714282 10  Z M 14.4285714285718 11.2388392857143  C 14.4285714285718 11.2388392857143  14.4285714285718 7.85267857142857  14.4285714285718 7.85267857142857  C 14.4285714285718 7.63839285714286  14.4151785714289 7.46651785714286  14.386160714286 7.33258928571428  C 14.354910714286 7.20089285714286  14.3035714285718 7.10267857142857  14.229910714286 7.03348214285714  C 14.1540178571431 6.96651785714286  14.0491071428576 6.921875  13.9129464285718 6.89955357142857  C 13.776785714286 6.87723214285714  13.6026785714289 6.86830357142857  13.3883928571431 6.86830357142857  C 13.3883928571431 6.86830357142857  10.3906250000005 6.86830357142857  10.3906250000005 6.86830357142857  C 10.3906250000005 6.86830357142857  10.3906250000005 5.27232142857143  10.3906250000005 5.27232142857143  C 10.3906250000005 5.12276785714286  10.3571428571431 5.01785714285715  10.2879464285718 4.95758928571429  C 10.2209821428576 4.89732142857143  10.1138392857147 4.86607142857143  9.97321428571468 4.86607142857143  C 9.81696428571468 4.86607142857143  9.70312500000023 4.89732142857143  9.63616071428601 4.95758928571429  C 9.56919642857179 5.01785714285715  9.53348214285757 5.12276785714286  9.53348214285757 5.27232142857143  C 9.53348214285757 5.27232142857143  9.53348214285757 6.86830357142857  9.53348214285757 6.86830357142857  C 9.53348214285757 6.86830357142857  6.58928571428601 6.86830357142857  6.58928571428601 6.86830357142857  C 6.37500000000023 6.86830357142857  6.20089285714312 6.88169642857143  6.06919642857179 6.91071428571428  C 5.93750000000023 6.93973214285715  5.83258928571468 6.98660714285714  5.7589285714289 7.05580357142857  C 5.68303571428601 7.12276785714286  5.6339285714289 7.22098214285714  5.60937500000023 7.35044642857143  C 5.58482142857179 7.47991071428572  5.5714285714289 7.64285714285714  5.5714285714289 7.84375  C 5.5714285714289 7.84375  5.5714285714289 11.2388392857143  5.5714285714289 11.2388392857143  C 5.5714285714289 11.4308035714286  5.58482142857179 11.5915178571429  5.60937500000023 11.7142857142857  C 5.6339285714289 11.8392857142857  5.68303571428601 11.9397321428571  5.75446428571468 12.0133928571429  C 5.82589285714312 12.0892857142857  5.92857142857179 12.140625  6.06473214285757 12.1696428571429  C 6.20089285714312 12.1986607142857  6.37500000000023 12.2120535714286  6.58928571428601 12.2120535714286  C 6.58928571428601 12.2120535714286  9.53348214285757 12.2120535714286  9.53348214285757 12.2120535714286  C 9.53348214285757 12.2120535714286  9.53348214285757 14.7388392857143  9.53348214285757 14.7388392857143  C 9.53348214285757 14.8816964285714  9.55803571428601 14.984375  9.60937500000023 15.0446428571428  C 9.65848214285757 15.1049107142857  9.77678571428601 15.1361607142857  9.9620535714289 15.1361607142857  C 10.1272321428576 15.1361607142857  10.2388392857147 15.1026785714286  10.2991071428576 15.0334821428571  C 10.3593750000005 14.9665178571428  10.3906250000005 14.8705357142857  10.3906250000005 14.75  C 10.3906250000005 14.75  10.3906250000005 12.2120535714286  10.3906250000005 12.2120535714286  C 10.3906250000005 12.2120535714286  13.3995535714289 12.2120535714286  13.3995535714289 12.2120535714286  C 13.6138392857147 12.2120535714286  13.7879464285718 12.1986607142857  13.9241071428576 12.1696428571429  C 14.0602678571431 12.140625  14.1651785714289 12.0892857142857  14.2410714285718 12.0133928571429  C 14.3169642857147 11.9375  14.3660714285718 11.8392857142857  14.3906250000005 11.7142857142857  C 14.4151785714289 11.5892857142857  14.4285714285718 11.4308035714286  14.4285714285718 11.2388392857143  Z M 9.53348214285711 7.69196428571428  L 9.53348214285711 11.3861607142857  C 9.53348214285711 11.3861607142857  6.578125 11.3861607142857  6.578125 11.3861607142857  C 6.52008928571422 11.3861607142857  6.47767857142867 11.3683035714286  6.44866071428578 11.3325892857143  C 6.41964285714289 11.296875  6.40625 11.2544642857143  6.40625 11.203125  C 6.40625 11.203125  6.40625 7.85267857142857  6.40625 7.85267857142857  C 6.40625 7.81026785714285  6.421875 7.77232142857142  6.45535714285711 7.74107142857142  C 6.48660714285711 7.70982142857142  6.53125 7.69196428571428  6.58928571428578 7.69196428571428  C 6.58928571428578 7.69196428571428  9.53348214285711 7.69196428571428  9.53348214285711 7.69196428571428  Z M 13.59375 7.85267857142857  C 13.59375 7.85267857142857  13.59375 11.1517857142857  13.59375 11.1517857142857  C 13.59375 11.2522321428571  13.5714285714287 11.3169642857143  13.5334821428571 11.34375  C 13.4933035714287 11.3727678571429  13.4464285714287 11.3861607142857  13.3883928571429 11.3861607142857  C 13.3883928571429 11.3861607142857  10.390625 11.3861607142857  10.390625 11.3861607142857  L 10.390625 7.69196428571428  C 10.390625 7.69196428571428  13.3995535714287 7.69196428571428  13.3995535714287 7.69196428571428  C 13.4642857142858 7.69196428571428  13.5111607142858 7.703125  13.5446428571429 7.72321428571428  C 13.5758928571429 7.74553571428571  13.59375 7.78794642857142  13.59375 7.85267857142857  Z " fill-rule="nonzero" fill="#f1f2f3" stroke="none" transform="matrix(1 0 0 1 1429 85 )" />
  </g>
</svg>