<?xml version="1.0" encoding="utf-8"?>
<svg version="1.1" xmlns:xlink="http://www.w3.org/1999/xlink" width="25px" height="29px" xmlns="http://www.w3.org/2000/svg">
  <g transform="matrix(1 0 0 1 -790 -798 )">
    <path d="M 19.482421875 16.5579427083333  C 19.6885850694444 16.3187934027778  19.7916666666667 16.0355902777778  19.7916666666667 15.7083333333333  L 19.7916666666667 13.2916666666667  C 19.7916666666667 12.9644097222222  19.6885850694444 12.6812065972222  19.482421875 12.4420572916667  C 19.2762586805556 12.2029079861111  19.0321180555556 12.0833333333333  18.75 12  L 6.25 12  C 5.96788194444444 12.0833333333333  5.72374131944444 12.2029079861111  5.517578125 12.4420572916667  C 5.31141493055556 12.6812065972222  5.20833333333333 12.9644097222222  5.20833333333333 13.2916666666667  L 5.20833333333333 15.7083333333333  C 5.20833333333333 16.0355902777778  5.31141493055556 16.3187934027778  5.517578125 16.5579427083333  C 5.72374131944444 16.7970920138889  5.96788194444444 16.9166666666667  6.25 17  L 18.75 17  C 19.0321180555556 16.9166666666667  19.2762586805556 16.7970920138889  19.482421875 16.5579427083333  Z M 23.3235677083333 7.2216796875  C 24.4411892361111 9.44325086805555  25 11.8693576388889  25 14.5  C 25 17.1306423611111  24.4411892361111 19.5567491319444  23.3235677083333 21.7783203125  C 22.2059461805556 23.9998914930556  20.6895616319444 25.7588975694444  18.7744140625 27.0553385416667  C 16.8592664930556 28.3517795138889  14.7677951388889 29  12.5 29  C 10.2322048611111 29  8.14073350694444 28.3517795138889  6.2255859375 27.0553385416667  C 4.31043836805556 25.7588975694444  2.79405381944444 23.9998914930556  1.67643229166667 21.7783203125  C 0.558810763888889 19.5567491319444  0 17.1306423611111  0 14.5  C 0 11.8693576388889  0.558810763888889 9.44325086805555  1.67643229166667 7.2216796875  C 2.79405381944444 5.00010850694444  4.31043836805556 3.24110243055555  6.2255859375 1.94466145833333  C 8.14073350694444 0.648220486111109  10.2322048611111 0  12.5 0  C 14.7677951388889 0  16.8592664930556 0.648220486111109  18.7744140625 1.94466145833333  C 20.6895616319444 3.24110243055555  22.2059461805556 5.00010850694444  23.3235677083333 7.2216796875  Z " fill-rule="nonzero" fill="#000000" stroke="none" transform="matrix(1 0 0 1 790 798 )" />
  </g>
</svg>