<?xml version="1.0" encoding="utf-8"?>
<svg version="1.1" xmlns:xlink="http://www.w3.org/1999/xlink" width="24px" height="23px" xmlns="http://www.w3.org/2000/svg">
  <g transform="matrix(1 0 0 1 -792 -717 )">
    <path d="M 18.703125 13.1321614583333  C 18.9010416666667 12.9424913194444  19 12.7178819444444  19 12.4583333333333  L 19 10.5416666666667  C 19 10.2821180555556  18.9010416666667 10.0575086805556  18.703125 9.86783854166667  C 18.5052083333333 9.67816840277778  18.2708333333333 9.58333333333333  18 9.58333333333333  L 14 9.58333333333333  L 14 5.75  C 14 5.49045138888889  13.9010416666667 5.26584201388889  13.703125 5.076171875  C 13.5052083333333 4.88650173611111  13.2708333333333 4.79166666666667  13 4.79166666666667  L 11 4.79166666666667  C 10.7291666666667 4.79166666666667  10.4947916666667 4.88650173611111  10.296875 5.076171875  C 10.0989583333333 5.26584201388889  10 5.49045138888889  10 5.75  L 10 9.58333333333333  L 6 9.58333333333333  C 5.72916666666667 9.58333333333333  5.49479166666667 9.67816840277778  5.296875 9.86783854166667  C 5.09895833333333 10.0575086805556  5 10.2821180555556  5 10.5416666666667  L 5 12.4583333333333  C 5 12.7178819444444  5.09895833333333 12.9424913194444  5.296875 13.1321614583333  C 5.49479166666667 13.3218315972222  5.72916666666667 13.4166666666667  6 13.4166666666667  L 10 13.4166666666667  L 10 17.25  C 10 17.5095486111111  10.0989583333333 17.7341579861111  10.296875 17.923828125  C 10.4947916666667 18.1134982638889  10.7291666666667 18.2083333333333  11 18.2083333333333  L 13 18.2083333333333  C 13.2708333333333 18.2083333333333  13.5052083333333 18.1134982638889  13.703125 17.923828125  C 13.9010416666667 17.7341579861111  14 17.5095486111111  14 17.25  L 14 13.4166666666667  L 18 13.4166666666667  C 18.2708333333333 13.4166666666667  18.5052083333333 13.3218315972222  18.703125 13.1321614583333  Z M 22.390625 5.7275390625  C 23.4635416666667 7.48947482638889  24 9.41362847222222  24 11.5  C 24 13.5863715277778  23.4635416666667 15.5105251736111  22.390625 17.2724609375  C 21.3177083333333 19.0343967013889  19.8619791666667 20.4294704861111  18.0234375 21.4576822916667  C 16.1848958333333 22.4858940972222  14.1770833333333 23  12 23  C 9.82291666666667 23  7.81510416666667 22.4858940972222  5.9765625 21.4576822916667  C 4.13802083333333 20.4294704861111  2.68229166666667 19.0343967013889  1.609375 17.2724609375  C 0.536458333333333 15.5105251736111  0 13.5863715277778  0 11.5  C 0 9.41362847222222  0.536458333333333 7.48947482638889  1.609375 5.7275390625  C 2.68229166666667 3.96560329861111  4.13802083333333 2.57052951388889  5.9765625 1.54231770833333  C 7.81510416666667 0.514105902777776  9.82291666666667 0  12 0  C 14.1770833333333 0  16.1848958333333 0.514105902777776  18.0234375 1.54231770833333  C 19.8619791666667 2.57052951388889  21.3177083333333 3.96560329861111  22.390625 5.7275390625  Z " fill-rule="nonzero" fill="#000000" stroke="none" transform="matrix(1 0 0 1 792 717 )" />
  </g>
</svg>