<?xml version="1.0" encoding="utf-8"?>
<svg version="1.1" xmlns:xlink="http://www.w3.org/1999/xlink" width="15px" height="17px" xmlns="http://www.w3.org/2000/svg">
  <g transform="matrix(1 0 0 1 -237 -201 )">
    <path d="M 14.7422680412371 1.02204408817635  C 14.914089347079 1.13560454241817  15 1.26619906479626  15 1.41382765531062  C 15 1.56145624582498  14.914089347079 1.69205076820307  14.7422680412371 1.80561122244489  L 4.61340206185567 8.5  L 14.7422680412371 15.1943887775551  C 14.914089347079 15.3079492317969  15 15.438543754175  15 15.5861723446894  C 15 15.7338009352037  14.914089347079 15.8643954575818  14.7422680412371 15.9779559118236  L 13.4536082474227 16.8296593186373  C 13.2817869415808 16.9432197728791  13.0841924398625 17  12.860824742268 17  C 12.6374570446735 17  12.4398625429553 16.9432197728791  12.2680412371134 16.8296593186373  L 0.257731958762887 8.89178356713427  C 0.0859106529209623 8.77822311289245  0 8.64762859051436  0 8.5  C 0 8.35237140948564  0.0859106529209623 8.22177688710755  0.257731958762887 8.10821643286573  L 12.2680412371134 0.170340681362726  C 12.4398625429553 0.0567802271209079  12.6374570446735 0  12.860824742268 0  C 13.0841924398625 0  13.2817869415808 0.0567802271209079  13.4536082474227 0.170340681362726  L 14.7422680412371 1.02204408817635  Z " fill-rule="nonzero" fill="#000000" stroke="none" transform="matrix(1 0 0 1 237 201 )" />
  </g>
</svg>