<?xml version="1.0" encoding="utf-8"?>
<svg version="1.1" xmlns:xlink="http://www.w3.org/1999/xlink" width="2px" height="3px" xmlns="http://www.w3.org/2000/svg">
  <g transform="matrix(1 0 0 1 -927 -100 )">
    <path d="M 0.507187500000002 0  C 0.507187500000002 0  1.4928125 0  1.4928125 0  C 1.8309375 0  2 0.130887096774193  2 0.392661290322581  C 2 0.392661290322581  2 2.60733870967742  2 2.60733870967742  C 2 2.86911290322581  1.8309375 3  1.4928125 3  C 1.4928125 3  0.5071875 3  0.5071875 3  C 0.169062500000001 3  0 2.86911290322581  0 2.60733870967742  C 0 2.60733870967742  0 0.392661290322581  0 0.392661290322581  C 0 0.130887096774193  0.169062500000001 0  0.5071875 0  Z " fill-rule="nonzero" fill="#ffffff" stroke="none" transform="matrix(1 0 0 1 927 100 )" />
  </g>
</svg>