<?xml version="1.0" encoding="utf-8"?>
<svg version="1.1" xmlns:xlink="http://www.w3.org/1999/xlink" width="3px" height="3px" xmlns="http://www.w3.org/2000/svg">
  <g transform="matrix(1 0 0 1 -923 -92 )">
    <path d="M 1.95454546883044 0.196969694588866  C 2.21717172828226 -0.0656565648629549  2.47979798773408 -0.0656565648629549  2.7424242471859 0.196969694588866  C 2.7424242471859 0.196969694588866  2.80303030541113 0.257575752814095  2.80303030541113 0.257575752814095  C 3.06565656486296 0.520202012265916  3.06565656486296 0.782828271717738  2.80303030541113 1.04545453116956  C 2.80303030541113 1.04545453116956  1.04545455259704 2.80303030541113  1.04545455259704 2.80303030541113  C 0.782828293145217 3.06565656486296  0.520202026550902 3.06565656486296  0.257575752814095 2.80303030541113  C 0.257575752814095 2.80303030541113  0.196969694588866 2.7424242471859  0.196969694588866 2.7424242471859  C -0.0656565648629549 2.47979798773408  -0.0656565648629549 2.21717172113977  0.196969694588866 1.95454544740296  C 0.196969694588866 1.95454544740296  1.95454546883044 0.196969694588866  1.95454546883044 0.196969694588866  Z " fill-rule="nonzero" fill="#ffffff" stroke="none" transform="matrix(1 0 0 1 923 92 )" />
  </g>
</svg>