<?xml version="1.0" encoding="utf-8"?>
<svg version="1.1" xmlns:xlink="http://www.w3.org/1999/xlink" width="14px" height="2px" xmlns="http://www.w3.org/2000/svg">
  <g transform="matrix(1 0 0 1 -921 -102 )">
    <path d="M 0 0.848437499999999  C 0 0.282812499999999  0.219965277777778 0  0.659895833333334 0  C 0.659895833333334 0  13.3401041666667 0  13.3401041666667 0  C 13.7800347222222 0  14 0.282812499999999  14 0.848437499999999  C 14 0.848437499999999  14 1.1515625  14 1.1515625  C 14 1.7171875  13.7800347222222 2  13.3401041666667 2  C 13.3401041666667 2  0.659895833333334 2  0.659895833333334 2  C 0.219965277777778 2  0 1.7171875  0 1.1515625  C 0 1.1515625  0 0.848437499999999  0 0.848437499999999  Z " fill-rule="nonzero" fill="#ffffff" stroke="none" transform="matrix(1 0 0 1 921 102 )" />
  </g>
</svg>