<?xml version="1.0" encoding="utf-8"?>
<svg version="1.1" xmlns:xlink="http://www.w3.org/1999/xlink" width="3px" height="3px" xmlns="http://www.w3.org/2000/svg">
  <g transform="matrix(1 0 0 1 -923 -90 )">
    <path d="M 0.196969694588866 0.257575750974362  C 0.196969694588866 0.257575750974362  0.257575752814095 0.196969693182011  0.257575752814095 0.196969693182011  C 0.520202012265916 -0.0656565643940034  0.782828271717738 -0.0656565643940034  1.04545453116956 0.196969693182011  C 1.04545453116956 0.196969693182011  2.80303030541113 1.95454545487011  2.80303030541113 1.95454545487011  C 3.06565656486296 2.21717171244613  3.06565656486296 2.47979797716464  2.80303030541113 2.74242424902564  C 2.80303030541113 2.74242424902564  2.7424242471859 2.80303030681799  2.7424242471859 2.80303030681799  C 2.47979798773408 3.065656564394  2.21717172113977 3.065656564394  1.95454544740296 2.80303030681799  C 1.95454544740296 2.80303030681799  0.196969694588866 1.04545454512989  0.196969694588866 1.04545454512989  C -0.0656565648629549 0.782828287553872  -0.0656565648629549 0.520202022835363  0.196969694588866 0.257575750974363  Z " fill-rule="nonzero" fill="#ffffff" stroke="none" transform="matrix(1 0 0 1 923 90 )" />
  </g>
</svg>