<?xml version="1.0" encoding="utf-8"?>
<svg version="1.1" xmlns:xlink="http://www.w3.org/1999/xlink" width="19px" height="16px" xmlns="http://www.w3.org/2000/svg">
  <g transform="matrix(1 0 0 1 -918 -85 )">
    <path d="M 18.75 15.375  C 18.75 15.375  18.75 0.375  18.75 0.375  C 18.75 0.167893218813454  18.5821067811864 0  18.375 0  C 18.375 0  0.375 0  0.375 0  C 0.16789321881356 0  0 0.167893218813454  0 0.375  C 0 0.375  0 15.375  0 15.375  C 0 15.5821067811865  0.16789321881356 15.75  0.375 15.75  C 0.375 15.75  18.375 15.75  18.375 15.75  C 18.5821067811864 15.75  18.75 15.5821067811865  18.75 15.375  Z M 1.5 1.5  L 17 1.5  L 17 14  L 1.5 14  L 1.5 1.5  Z " fill-rule="nonzero" fill="#ffffff" stroke="none" transform="matrix(1 0 0 1 918 85 )" />
  </g>
</svg>