<?xml version="1.0" encoding="utf-8"?>
<svg version="1.1" xmlns:xlink="http://www.w3.org/1999/xlink" width="19px" height="18px" xmlns="http://www.w3.org/2000/svg">
  <g transform="matrix(1 0 0 1 -986 -708 )">
    <path d="M 8.8609865470852 13.5  L 9.45739910313901 13.5  L 10.6928251121076 12.0170454545455  L 9.07399103139013 10.0738636363636  L 7.83856502242153 11.5568181818182  L 7.83856502242153 12.2727272727273  L 8.8609865470852 12.2727272727273  L 8.8609865470852 13.5  Z M 14.1328475336323 4.71732954545455  C 14.2535500747384 4.57244318181818  14.2571001494768 4.43181818181818  14.1434977578475 4.29545454545455  C 14.0298953662182 4.15909090909091  13.9127428998505 4.16335227272727  13.7920403587444 4.30823863636364  L 10.0644618834081 8.78267045454546  C 9.94375934230194 8.92755681818182  9.94020926756353 9.06818181818182  10.0538116591928 9.20454545454546  C 10.1674140508221 9.34090909090909  10.2845665171898 9.33664772727272  10.405269058296 9.19176136363637  L 14.1328475336323 4.71732954545455  Z M 14.7825112107623 11.5184659090909  C 14.924514200299 11.5866477272727  14.9955156950673 11.7102272727273  14.9955156950673 11.8892045454545  L 14.9955156950673 14.3181818181818  C 14.9955156950673 15.3323863636364  14.6955343796712 16.1995738636364  14.0955717488789 16.9197443181818  C 13.4956091180867 17.6399147727273  12.7731689088191 18  11.9282511210762 18  L 3.06726457399103 18  C 2.22234678624813 18  1.49990657698057 17.6399147727273  0.899943946188341 16.9197443181818  C 0.299981315396114 16.1995738636364  0 15.3323863636364  0 14.3181818181818  L 0 3.68181818181818  C 0 2.66761363636363  0.299981315396114 1.80042613636364  0.899943946188341 1.08025568181818  C 1.49990657698057 0.360085227272726  2.22234678624813 0  3.06726457399103 0  L 11.9282511210762 0  C 12.3755605381166 0  12.7909192825112 0.10653409090909  13.1743273542601 0.319602272727272  C 13.2808295964126 0.379261363636362  13.344730941704 0.477272727272727  13.3660313901345 0.613636363636363  C 13.387331838565 0.758522727272727  13.3553811659193 0.882102272727272  13.2701793721973 0.984375  L 12.7483183856502 1.61079545454545  C 12.6489162929746 1.73011363636364  12.5353139013453 1.76420454545455  12.4075112107623 1.71306818181818  C 12.2442077727952 1.66193181818182  12.0844544095665 1.63636363636364  11.9282511210762 1.63636363636364  L 3.06726457399103 1.63636363636364  C 2.59865470852018 1.63636363636364  2.19749626307922 1.83664772727273  1.86378923766816 2.23721590909091  C 1.5300822122571 2.63778409090909  1.36322869955157 3.11931818181818  1.36322869955157 3.68181818181818  L 1.36322869955157 14.3181818181818  C 1.36322869955157 14.8806818181818  1.5300822122571 15.3622159090909  1.86378923766816 15.7627840909091  C 2.19749626307922 16.1633522727273  2.59865470852018 16.3636363636364  3.06726457399103 16.3636363636364  L 11.9282511210762 16.3636363636364  C 12.3968609865471 16.3636363636364  12.798019431988 16.1633522727273  13.1317264573991 15.7627840909091  C 13.4654334828102 15.3622159090909  13.6322869955157 14.8806818181818  13.6322869955157 14.3181818181818  L 13.6322869955157 12.7073863636364  C 13.6322869955157 12.5965909090909  13.6642376681614 12.5028409090909  13.7281390134529 12.4261363636364  L 14.4097533632287 11.6079545454545  C 14.5162556053812 11.4801136363636  14.6405082212257 11.4502840909091  14.7825112107623 11.5184659090909  Z M 6.81614349775785 11.0454545454545  L 13.9730941704036 2.45454545454545  L 17.0403587443946 6.13636363636364  L 9.88340807174888 14.7272727272727  L 6.81614349775785 14.7272727272727  L 6.81614349775785 11.0454545454545  Z M 19 3.27272727272727  C 19 3.61363636363636  18.9005979073244 3.90340909090909  18.7017937219731 4.14204545454545  L 17.7219730941704 5.31818181818182  L 14.6547085201794 1.63636363636364  L 15.6345291479821 0.460227272727272  C 15.8333333333333 0.221590909090907  16.0747384155456 0.102272727272728  16.3587443946188 0.102272727272728  C 16.6427503736921 0.102272727272728  16.8841554559043 0.221590909090907  17.0829596412556 0.460227272727272  L 18.7017937219731 2.40340909090909  C 18.9005979073244 2.64204545454545  19 2.93181818181818  19 3.27272727272727  Z " fill-rule="nonzero" fill="#000000" stroke="none" transform="matrix(1 0 0 1 986 708 )" />
  </g>
</svg>