<?xml version="1.0" encoding="utf-8"?>
<svg version="1.1" xmlns:xlink="http://www.w3.org/1999/xlink" width="10px" height="7px" xmlns="http://www.w3.org/2000/svg">
  <g transform="matrix(1 0 0 1 -517 -331 )">
    <path d="M 9.8997995991984 0.721649484536082  C 9.96659986639947 0.801832760595645  10 0.894043528064146  10 0.998281786941581  C 10 1.10252004581901  9.96659986639947 1.19473081328751  9.8997995991984 1.27491408934708  L 5.23046092184369 6.87972508591065  C 5.16366065464262 6.95990836197022  5.08684034736139 7  5 7  C 4.91315965263861 7  4.83633934535738 6.95990836197022  4.76953907815631 6.87972508591065  L 0.100200400801603 1.27491408934708  C 0.0334001336005345 1.19473081328751  0 1.10252004581901  0 0.998281786941581  C 0 0.894043528064146  0.0334001336005345 0.801832760595645  0.100200400801603 0.721649484536082  L 0.601202404809619 0.120274914089347  C 0.668002672010688 0.0400916380297814  0.744822979291917 0  0.831663326653307 0  C 0.918503674014696 0  0.995323981295925 0.0400916380297814  1.06212424849699 0.120274914089347  L 5 4.84707903780069  L 8.93787575150301 0.120274914089347  C 9.00467601870407 0.0400916380297814  9.0814963259853 0  9.16833667334669 0  C 9.25517702070808 0  9.33199732798931 0.0400916380297814  9.39879759519038 0.120274914089347  L 9.8997995991984 0.721649484536082  Z " fill-rule="nonzero" fill="#333333" stroke="none" transform="matrix(1 0 0 1 517 331 )" />
  </g>
</svg>