<?xml version="1.0" encoding="utf-8"?>
<svg version="1.1" xmlns:xlink="http://www.w3.org/1999/xlink" width="12px" height="12px" viewBox="297 360.5  12 12" xmlns="http://www.w3.org/2000/svg">
  <path d="M 303 360.5  C 306.36 360.5  309 363.14  309 366.5  C 309 369.86  306.36 372.5  303 372.5  C 299.64 372.5  297 369.86  297 366.5  C 297 363.14  299.64 360.5  303 360.5  Z " fill-rule="nonzero" fill="#f0f0f0" stroke="none" />
  <path d="M 303 361  C 306.08 361  308.5 363.42  308.5 366.5  C 308.5 369.58  306.08 372  303 372  C 299.92 372  297.5 369.58  297.5 366.5  C 297.5 363.42  299.92 361  303 361  Z " stroke-width="1" stroke="#797979" fill="none" />
  <path d="M 303 369.5  C 301.32 369.5  300 368.18  300 366.5  C 300 364.82  301.32 363.5  303 363.5  C 304.68 363.5  306 364.82  306 366.5  C 306 368.18  304.68 369.5  303 369.5  " fill-rule="nonzero" fill="#797979" stroke="none" />
</svg>