<?xml version="1.0" encoding="utf-8"?>
<svg version="1.1" xmlns:xlink="http://www.w3.org/1999/xlink" width="12px" height="12px" viewBox="176 149  12 12" xmlns="http://www.w3.org/2000/svg">
  <path d="M 182 149  C 185.36 149  188 151.64  188 155  C 188 158.36  185.36 161  182 161  C 178.64 161  176 158.36  176 155  C 176 151.64  178.64 149  182 149  Z " fill-rule="nonzero" fill="#ffffff" stroke="none" />
  <path d="M 182 149.5  C 185.08 149.5  187.5 151.92  187.5 155  C 187.5 158.08  185.08 160.5  182 160.5  C 178.92 160.5  176.5 158.08  176.5 155  C 176.5 151.92  178.92 149.5  182 149.5  Z " stroke-width="1" stroke="#797979" fill="none" />
  <path d="M 182 158  C 180.32 158  179 156.68  179 155  C 179 153.32  180.32 152  182 152  C 183.68 152  185 153.32  185 155  C 185 156.68  183.68 158  182 158  " fill-rule="nonzero" fill="#797979" stroke="none" />
</svg>