<?xml version="1.0" encoding="utf-8"?>
<svg version="1.1" xmlns:xlink="http://www.w3.org/1999/xlink" width="12px" height="12px" viewBox="305 439.5  12 12" xmlns="http://www.w3.org/2000/svg">
  <path d="M 311 439.5  C 314.36 439.5  317 442.14  317 445.5  C 317 448.86  314.36 451.5  311 451.5  C 307.64 451.5  305 448.86  305 445.5  C 305 442.14  307.64 439.5  311 439.5  Z " fill-rule="nonzero" fill="#ffffff" stroke="none" />
  <path d="M 311 440  C 314.08 440  316.5 442.42  316.5 445.5  C 316.5 448.58  314.08 451  311 451  C 307.92 451  305.5 448.58  305.5 445.5  C 305.5 442.42  307.92 440  311 440  Z " stroke-width="1" stroke="#797979" fill="none" />
  <path d="M 311 448.5  C 309.32 448.5  308 447.18  308 445.5  C 308 443.82  309.32 442.5  311 442.5  C 312.68 442.5  314 443.82  314 445.5  C 314 447.18  312.68 448.5  311 448.5  " fill-rule="nonzero" fill="#797979" stroke="none" />
</svg>