<?xml version="1.0" encoding="utf-8"?>
<svg version="1.1" xmlns:xlink="http://www.w3.org/1999/xlink" width="12px" height="12px" viewBox="184 439.5  12 12" xmlns="http://www.w3.org/2000/svg">
  <path d="M 190 439.5  C 193.36 439.5  196 442.14  196 445.5  C 196 448.86  193.36 451.5  190 451.5  C 186.64 451.5  184 448.86  184 445.5  C 184 442.14  186.64 439.5  190 439.5  Z " fill-rule="nonzero" fill="#ffffff" stroke="none" />
  <path d="M 190 440  C 193.08 440  195.5 442.42  195.5 445.5  C 195.5 448.58  193.08 451  190 451  C 186.92 451  184.5 448.58  184.5 445.5  C 184.5 442.42  186.92 440  190 440  Z " stroke-width="1" stroke="#797979" fill="none" />
  <path d="M 190 448.5  C 188.32 448.5  187 447.18  187 445.5  C 187 443.82  188.32 442.5  190 442.5  C 191.68 442.5  193 443.82  193 445.5  C 193 447.18  191.68 448.5  190 448.5  " fill-rule="nonzero" fill="#797979" stroke="none" />
</svg>