<?xml version="1.0" encoding="utf-8"?>
<svg version="1.1" xmlns:xlink="http://www.w3.org/1999/xlink" width="12px" height="12px" viewBox="324 487.5  12 12" xmlns="http://www.w3.org/2000/svg">
  <path d="M 330 487.5  C 333.36 487.5  336 490.14  336 493.5  C 336 496.86  333.36 499.5  330 499.5  C 326.64 499.5  324 496.86  324 493.5  C 324 490.14  326.64 487.5  330 487.5  Z " fill-rule="nonzero" fill="#ffffff" stroke="none" />
  <path d="M 330 488  C 333.08 488  335.5 490.42  335.5 493.5  C 335.5 496.58  333.08 499  330 499  C 326.92 499  324.5 496.58  324.5 493.5  C 324.5 490.42  326.92 488  330 488  Z " stroke-width="1" stroke="#797979" fill="none" />
  <path d="M 330 496.5  C 328.32 496.5  327 495.18  327 493.5  C 327 491.82  328.32 490.5  330 490.5  C 331.68 490.5  333 491.82  333 493.5  C 333 495.18  331.68 496.5  330 496.5  " fill-rule="nonzero" fill="#797979" stroke="none" />
</svg>