<?xml version="1.0" encoding="utf-8"?>
<svg version="1.1" xmlns:xlink="http://www.w3.org/1999/xlink" width="12px" height="12px" viewBox="441 149  12 12" xmlns="http://www.w3.org/2000/svg">
  <path d="M 447 149  C 450.36 149  453 151.64  453 155  C 453 158.36  450.36 161  447 161  C 443.64 161  441 158.36  441 155  C 441 151.64  443.64 149  447 149  Z " fill-rule="nonzero" fill="#f0f0f0" stroke="none" />
  <path d="M 447 149.5  C 450.08 149.5  452.5 151.92  452.5 155  C 452.5 158.08  450.08 160.5  447 160.5  C 443.92 160.5  441.5 158.08  441.5 155  C 441.5 151.92  443.92 149.5  447 149.5  Z " stroke-width="1" stroke="#797979" fill="none" />
  <path d="M 447 158  C 445.32 158  444 156.68  444 155  C 444 153.32  445.32 152  447 152  C 448.68 152  450 153.32  450 155  C 450 156.68  448.68 158  447 158  " fill-rule="nonzero" fill="#797979" stroke="none" />
</svg>