<?xml version="1.0" encoding="utf-8"?>
<svg version="1.1" xmlns:xlink="http://www.w3.org/1999/xlink" width="12px" height="12px" viewBox="203 487.5  12 12" xmlns="http://www.w3.org/2000/svg">
  <path d="M 209 487.5  C 212.36 487.5  215 490.14  215 493.5  C 215 496.86  212.36 499.5  209 499.5  C 205.64 499.5  203 496.86  203 493.5  C 203 490.14  205.64 487.5  209 487.5  Z " fill-rule="nonzero" fill="#ffffff" stroke="none" />
  <path d="M 209 488  C 212.08 488  214.5 490.42  214.5 493.5  C 214.5 496.58  212.08 499  209 499  C 205.92 499  203.5 496.58  203.5 493.5  C 203.5 490.42  205.92 488  209 488  Z " stroke-width="1" stroke="#797979" fill="none" />
  <path d="M 209 496.5  C 207.32 496.5  206 495.18  206 493.5  C 206 491.82  207.32 490.5  209 490.5  C 210.68 490.5  212 491.82  212 493.5  C 212 495.18  210.68 496.5  209 496.5  " fill-rule="nonzero" fill="#797979" stroke="none" />
</svg>