<?xml version="1.0" encoding="utf-8"?>
<svg version="1.1" xmlns:xlink="http://www.w3.org/1999/xlink" width="12px" height="12px" viewBox="417 149  12 12" xmlns="http://www.w3.org/2000/svg">
  <path d="M 423 149  C 426.36 149  429 151.64  429 155  C 429 158.36  426.36 161  423 161  C 419.64 161  417 158.36  417 155  C 417 151.64  419.64 149  423 149  Z " fill-rule="nonzero" fill="#f0f0f0" stroke="none" />
  <path d="M 423 149.5  C 426.08 149.5  428.5 151.92  428.5 155  C 428.5 158.08  426.08 160.5  423 160.5  C 419.92 160.5  417.5 158.08  417.5 155  C 417.5 151.92  419.92 149.5  423 149.5  Z " stroke-width="1" stroke="#797979" fill="none" />
  <path d="M 423 158  C 421.32 158  420 156.68  420 155  C 420 153.32  421.32 152  423 152  C 424.68 152  426 153.32  426 155  C 426 156.68  424.68 158  423 158  " fill-rule="nonzero" fill="#797979" stroke="none" />
</svg>