<?xml version="1.0" encoding="utf-8"?>
<svg version="1.1" xmlns:xlink="http://www.w3.org/1999/xlink" width="12px" height="12px" viewBox="302 183  12 12" xmlns="http://www.w3.org/2000/svg">
  <path d="M 308 183  C 311.36 183  314 185.64  314 189  C 314 192.36  311.36 195  308 195  C 304.64 195  302 192.36  302 189  C 302 185.64  304.64 183  308 183  Z " fill-rule="nonzero" fill="#f0f0f0" stroke="none" />
  <path d="M 308 183.5  C 311.08 183.5  313.5 185.92  313.5 189  C 313.5 192.08  311.08 194.5  308 194.5  C 304.92 194.5  302.5 192.08  302.5 189  C 302.5 185.92  304.92 183.5  308 183.5  Z " stroke-width="1" stroke="#797979" fill="none" />
  <path d="M 308 192  C 306.32 192  305 190.68  305 189  C 305 187.32  306.32 186  308 186  C 309.68 186  311 187.32  311 189  C 311 190.68  309.68 192  308 192  " fill-rule="nonzero" fill="#797979" stroke="none" />
</svg>