<?xml version="1.0" encoding="utf-8"?>
<svg version="1.1" xmlns:xlink="http://www.w3.org/1999/xlink" width="12px" height="12px" viewBox="150 150  12 12" xmlns="http://www.w3.org/2000/svg">
  <path d="M 156 150  C 159.36 150  162 152.64  162 156  C 162 159.36  159.36 162  156 162  C 152.64 162  150 159.36  150 156  C 150 152.64  152.64 150  156 150  Z " fill-rule="nonzero" fill="#f0f0f0" stroke="none" />
  <path d="M 156 150.5  C 159.08 150.5  161.5 152.92  161.5 156  C 161.5 159.08  159.08 161.5  156 161.5  C 152.92 161.5  150.5 159.08  150.5 156  C 150.5 152.92  152.92 150.5  156 150.5  Z " stroke-width="1" stroke="#797979" fill="none" />
  <path d="M 156 159  C 154.32 159  153 157.68  153 156  C 153 154.32  154.32 153  156 153  C 157.68 153  159 154.32  159 156  C 159 157.68  157.68 159  156 159  " fill-rule="nonzero" fill="#797979" stroke="none" />
</svg>