<?xml version="1.0" encoding="utf-8"?>
<svg version="1.1" xmlns:xlink="http://www.w3.org/1999/xlink" width="12px" height="12px" viewBox="313 181  12 12" xmlns="http://www.w3.org/2000/svg">
  <path d="M 319 181  C 322.36 181  325 183.64  325 187  C 325 190.36  322.36 193  319 193  C 315.64 193  313 190.36  313 187  C 313 183.64  315.64 181  319 181  Z " fill-rule="nonzero" fill="#f0f0f0" stroke="none" />
  <path d="M 319 181.5  C 322.08 181.5  324.5 183.92  324.5 187  C 324.5 190.08  322.08 192.5  319 192.5  C 315.92 192.5  313.5 190.08  313.5 187  C 313.5 183.92  315.92 181.5  319 181.5  Z " stroke-width="1" stroke="#797979" fill="none" />
  <path d="M 319 190  C 317.32 190  316 188.68  316 187  C 316 185.32  317.32 184  319 184  C 320.68 184  322 185.32  322 187  C 322 188.68  320.68 190  319 190  " fill-rule="nonzero" fill="#797979" stroke="none" />
</svg>