<?xml version="1.0" encoding="utf-8"?>
<svg version="1.1" xmlns:xlink="http://www.w3.org/1999/xlink" width="12px" height="12px" viewBox="313 150  12 12" xmlns="http://www.w3.org/2000/svg">
  <path d="M 319 150  C 322.36 150  325 152.64  325 156  C 325 159.36  322.36 162  319 162  C 315.64 162  313 159.36  313 156  C 313 152.64  315.64 150  319 150  Z " fill-rule="nonzero" fill="#ffffff" stroke="none" />
  <path d="M 319 150.5  C 322.08 150.5  324.5 152.92  324.5 156  C 324.5 159.08  322.08 161.5  319 161.5  C 315.92 161.5  313.5 159.08  313.5 156  C 313.5 152.92  315.92 150.5  319 150.5  Z " stroke-width="1" stroke="#797979" fill="none" />
  <path d="M 319 159  C 317.32 159  316 157.68  316 156  C 316 154.32  317.32 153  319 153  C 320.68 153  322 154.32  322 156  C 322 157.68  320.68 159  319 159  " fill-rule="nonzero" fill="#797979" stroke="none" />
</svg>