<?xml version="1.0" encoding="utf-8"?>
<svg version="1.1" xmlns:xlink="http://www.w3.org/1999/xlink" width="12px" height="12px" viewBox="150 181  12 12" xmlns="http://www.w3.org/2000/svg">
  <path d="M 156 181  C 159.36 181  162 183.64  162 187  C 162 190.36  159.36 193  156 193  C 152.64 193  150 190.36  150 187  C 150 183.64  152.64 181  156 181  Z " fill-rule="nonzero" fill="#f0f0f0" stroke="none" />
  <path d="M 156 181.5  C 159.08 181.5  161.5 183.92  161.5 187  C 161.5 190.08  159.08 192.5  156 192.5  C 152.92 192.5  150.5 190.08  150.5 187  C 150.5 183.92  152.92 181.5  156 181.5  Z " stroke-width="1" stroke="#797979" fill="none" />
  <path d="M 156 190  C 154.32 190  153 188.68  153 187  C 153 185.32  154.32 184  156 184  C 157.68 184  159 185.32  159 187  C 159 188.68  157.68 190  156 190  " fill-rule="nonzero" fill="#797979" stroke="none" />
</svg>