<?xml version="1.0" encoding="utf-8"?>
<svg version="1.1" xmlns:xlink="http://www.w3.org/1999/xlink" width="12px" height="12px" viewBox="312 159  12 12" xmlns="http://www.w3.org/2000/svg">
  <path d="M 318 159  C 321.36 159  324 161.64  324 165  C 324 168.36  321.36 171  318 171  C 314.64 171  312 168.36  312 165  C 312 161.64  314.64 159  318 159  Z " fill-rule="nonzero" fill="#f0f0f0" stroke="none" />
  <path d="M 318 159.5  C 321.08 159.5  323.5 161.92  323.5 165  C 323.5 168.08  321.08 170.5  318 170.5  C 314.92 170.5  312.5 168.08  312.5 165  C 312.5 161.92  314.92 159.5  318 159.5  Z " stroke-width="1" stroke="#797979" fill="none" />
  <path d="M 318 168  C 316.32 168  315 166.68  315 165  C 315 163.32  316.32 162  318 162  C 319.68 162  321 163.32  321 165  C 321 166.68  319.68 168  318 168  " fill-rule="nonzero" fill="#797979" stroke="none" />
</svg>