<?xml version="1.0" encoding="utf-8"?>
<svg version="1.1" xmlns:xlink="http://www.w3.org/1999/xlink" width="12px" height="12px" viewBox="364 407  12 12" xmlns="http://www.w3.org/2000/svg">
  <path d="M 370 407  C 373.36 407  376 409.64  376 413  C 376 416.36  373.36 419  370 419  C 366.64 419  364 416.36  364 413  C 364 409.64  366.64 407  370 407  Z " fill-rule="nonzero" fill="#ffffff" stroke="none" />
  <path d="M 370 407.5  C 373.08 407.5  375.5 409.92  375.5 413  C 375.5 416.08  373.08 418.5  370 418.5  C 366.92 418.5  364.5 416.08  364.5 413  C 364.5 409.92  366.92 407.5  370 407.5  Z " stroke-width="1" stroke="#797979" fill="none" />
  <path d="M 370 416  C 368.32 416  367 414.68  367 413  C 367 411.32  368.32 410  370 410  C 371.68 410  373 411.32  373 413  C 373 414.68  371.68 416  370 416  " fill-rule="nonzero" fill="#797979" stroke="none" />
</svg>