<?xml version="1.0" encoding="utf-8"?>
<svg version="1.1" xmlns:xlink="http://www.w3.org/1999/xlink" width="12px" height="12px" viewBox="201 407  12 12" xmlns="http://www.w3.org/2000/svg">
  <path d="M 207 407  C 210.36 407  213 409.64  213 413  C 213 416.36  210.36 419  207 419  C 203.64 419  201 416.36  201 413  C 201 409.64  203.64 407  207 407  Z " fill-rule="nonzero" fill="#f0f0f0" stroke="none" />
  <path d="M 207 407.5  C 210.08 407.5  212.5 409.92  212.5 413  C 212.5 416.08  210.08 418.5  207 418.5  C 203.92 418.5  201.5 416.08  201.5 413  C 201.5 409.92  203.92 407.5  207 407.5  Z " stroke-width="1" stroke="#797979" fill="none" />
  <path d="M 207 416  C 205.32 416  204 414.68  204 413  C 204 411.32  205.32 410  207 410  C 208.68 410  210 411.32  210 413  C 210 414.68  208.68 416  207 416  " fill-rule="nonzero" fill="#797979" stroke="none" />
</svg>