<?xml version="1.0" encoding="utf-8"?>
<svg version="1.1" xmlns:xlink="http://www.w3.org/1999/xlink" width="12px" height="12px" viewBox="301 149  12 12" xmlns="http://www.w3.org/2000/svg">
  <path d="M 307 149  C 310.36 149  313 151.64  313 155  C 313 158.36  310.36 161  307 161  C 303.64 161  301 158.36  301 155  C 301 151.64  303.64 149  307 149  Z " fill-rule="nonzero" fill="#f0f0f0" stroke="none" />
  <path d="M 307 149.5  C 310.08 149.5  312.5 151.92  312.5 155  C 312.5 158.08  310.08 160.5  307 160.5  C 303.92 160.5  301.5 158.08  301.5 155  C 301.5 151.92  303.92 149.5  307 149.5  Z " stroke-width="1" stroke="#797979" fill="none" />
  <path d="M 307 158  C 305.32 158  304 156.68  304 155  C 304 153.32  305.32 152  307 152  C 308.68 152  310 153.32  310 155  C 310 156.68  308.68 158  307 158  " fill-rule="nonzero" fill="#797979" stroke="none" />
</svg>