<?xml version="1.0" encoding="utf-8"?>
<svg version="1.1" xmlns:xlink="http://www.w3.org/1999/xlink" width="12px" height="12px" viewBox="177 183  12 12" xmlns="http://www.w3.org/2000/svg">
  <path d="M 183 183  C 186.36 183  189 185.64  189 189  C 189 192.36  186.36 195  183 195  C 179.64 195  177 192.36  177 189  C 177 185.64  179.64 183  183 183  Z " fill-rule="nonzero" fill="#ffffff" stroke="none" />
  <path d="M 183 183.5  C 186.08 183.5  188.5 185.92  188.5 189  C 188.5 192.08  186.08 194.5  183 194.5  C 179.92 194.5  177.5 192.08  177.5 189  C 177.5 185.92  179.92 183.5  183 183.5  Z " stroke-width="1" stroke="#797979" fill="none" />
  <path d="M 183 192  C 181.32 192  180 190.68  180 189  C 180 187.32  181.32 186  183 186  C 184.68 186  186 187.32  186 189  C 186 190.68  184.68 192  183 192  " fill-rule="nonzero" fill="#797979" stroke="none" />
</svg>