<?xml version="1.0" encoding="utf-8"?>
<svg version="1.1" xmlns:xlink="http://www.w3.org/1999/xlink" width="12px" height="12px" viewBox="341 339  12 12" xmlns="http://www.w3.org/2000/svg">
  <path d="M 347 339  C 350.36 339  353 341.64  353 345  C 353 348.36  350.36 351  347 351  C 343.64 351  341 348.36  341 345  C 341 341.64  343.64 339  347 339  Z " fill-rule="nonzero" fill="#ffffff" stroke="none" />
  <path d="M 347 339.5  C 350.08 339.5  352.5 341.92  352.5 345  C 352.5 348.08  350.08 350.5  347 350.5  C 343.92 350.5  341.5 348.08  341.5 345  C 341.5 341.92  343.92 339.5  347 339.5  Z " stroke-width="1" stroke="#797979" fill="none" />
  <path d="M 347 348  C 345.32 348  344 346.68  344 345  C 344 343.32  345.32 342  347 342  C 348.68 342  350 343.32  350 345  C 350 346.68  348.68 348  347 348  " fill-rule="nonzero" fill="#797979" stroke="none" />
</svg>