<?xml version="1.0" encoding="utf-8"?>
<svg version="1.1" xmlns:xlink="http://www.w3.org/1999/xlink" width="12px" height="12px" viewBox="341 271  12 12" xmlns="http://www.w3.org/2000/svg">
  <path d="M 347 271  C 350.36 271  353 273.64  353 277  C 353 280.36  350.36 283  347 283  C 343.64 283  341 280.36  341 277  C 341 273.64  343.64 271  347 271  Z " fill-rule="nonzero" fill="#f0f0f0" stroke="none" />
  <path d="M 347 271.5  C 350.08 271.5  352.5 273.92  352.5 277  C 352.5 280.08  350.08 282.5  347 282.5  C 343.92 282.5  341.5 280.08  341.5 277  C 341.5 273.92  343.92 271.5  347 271.5  Z " stroke-width="1" stroke="#797979" fill="none" />
  <path d="M 347 280  C 345.32 280  344 278.68  344 277  C 344 275.32  345.32 274  347 274  C 348.68 274  350 275.32  350 277  C 350 278.68  348.68 280  347 280  " fill-rule="nonzero" fill="#797979" stroke="none" />
</svg>