<?xml version="1.0" encoding="utf-8"?>
<svg version="1.1" xmlns:xlink="http://www.w3.org/1999/xlink" width="12px" height="12px" viewBox="203 424  12 12" xmlns="http://www.w3.org/2000/svg">
  <path d="M 209 424  C 212.36 424  215 426.64  215 430  C 215 433.36  212.36 436  209 436  C 205.64 436  203 433.36  203 430  C 203 426.64  205.64 424  209 424  Z " fill-rule="nonzero" fill="#ffffff" stroke="none" />
  <path d="M 209 424.5  C 212.08 424.5  214.5 426.92  214.5 430  C 214.5 433.08  212.08 435.5  209 435.5  C 205.92 435.5  203.5 433.08  203.5 430  C 203.5 426.92  205.92 424.5  209 424.5  Z " stroke-width="1" stroke="#797979" fill="none" />
  <path d="M 209 433  C 207.32 433  206 431.68  206 430  C 206 428.32  207.32 427  209 427  C 210.68 427  212 428.32  212 430  C 212 431.68  210.68 433  209 433  " fill-rule="nonzero" fill="#797979" stroke="none" />
</svg>