<?xml version="1.0" encoding="utf-8"?>
<svg version="1.1" xmlns:xlink="http://www.w3.org/1999/xlink" width="12px" height="12px" viewBox="178 271  12 12" xmlns="http://www.w3.org/2000/svg">
  <path d="M 184 271  C 187.36 271  190 273.64  190 277  C 190 280.36  187.36 283  184 283  C 180.64 283  178 280.36  178 277  C 178 273.64  180.64 271  184 271  Z " fill-rule="nonzero" fill="#ffffff" stroke="none" />
  <path d="M 184 271.5  C 187.08 271.5  189.5 273.92  189.5 277  C 189.5 280.08  187.08 282.5  184 282.5  C 180.92 282.5  178.5 280.08  178.5 277  C 178.5 273.92  180.92 271.5  184 271.5  Z " stroke-width="1" stroke="#797979" fill="none" />
  <path d="M 184 280  C 182.32 280  181 278.68  181 277  C 181 275.32  182.32 274  184 274  C 185.68 274  187 275.32  187 277  C 187 278.68  185.68 280  184 280  " fill-rule="nonzero" fill="#797979" stroke="none" />
</svg>