<?xml version="1.0" encoding="utf-8"?>
<svg version="1.1" xmlns:xlink="http://www.w3.org/1999/xlink" width="12px" height="12px" viewBox="178 339  12 12" xmlns="http://www.w3.org/2000/svg">
  <path d="M 184 339  C 187.36 339  190 341.64  190 345  C 190 348.36  187.36 351  184 351  C 180.64 351  178 348.36  178 345  C 178 341.64  180.64 339  184 339  Z " fill-rule="nonzero" fill="#ffffff" stroke="none" />
  <path d="M 184 339.5  C 187.08 339.5  189.5 341.92  189.5 345  C 189.5 348.08  187.08 350.5  184 350.5  C 180.92 350.5  178.5 348.08  178.5 345  C 178.5 341.92  180.92 339.5  184 339.5  Z " stroke-width="1" stroke="#797979" fill="none" />
  <path d="M 184 348  C 182.32 348  181 346.68  181 345  C 181 343.32  182.32 342  184 342  C 185.68 342  187 343.32  187 345  C 187 346.68  185.68 348  184 348  " fill-rule="nonzero" fill="#797979" stroke="none" />
</svg>