<?xml version="1.0" encoding="utf-8"?>
<svg version="1.1" xmlns:xlink="http://www.w3.org/1999/xlink" width="12px" height="12px" viewBox="200 149  12 12" xmlns="http://www.w3.org/2000/svg">
  <path d="M 206 149  C 209.36 149  212 151.64  212 155  C 212 158.36  209.36 161  206 161  C 202.64 161  200 158.36  200 155  C 200 151.64  202.64 149  206 149  Z " fill-rule="nonzero" fill="#ffffff" stroke="none" />
  <path d="M 206 149.5  C 209.08 149.5  211.5 151.92  211.5 155  C 211.5 158.08  209.08 160.5  206 160.5  C 202.92 160.5  200.5 158.08  200.5 155  C 200.5 151.92  202.92 149.5  206 149.5  Z " stroke-width="1" stroke="#797979" fill="none" />
  <path d="M 206 158  C 204.32 158  203 156.68  203 155  C 203 153.32  204.32 152  206 152  C 207.68 152  209 153.32  209 155  C 209 156.68  207.68 158  206 158  " fill-rule="nonzero" fill="#797979" stroke="none" />
</svg>