<?xml version="1.0" encoding="utf-8"?>
<svg version="1.1" xmlns:xlink="http://www.w3.org/1999/xlink" width="12px" height="12px" viewBox="158 432.5  12 12" xmlns="http://www.w3.org/2000/svg">
  <path d="M 164 432.5  C 167.36 432.5  170 435.14  170 438.5  C 170 441.86  167.36 444.5  164 444.5  C 160.64 444.5  158 441.86  158 438.5  C 158 435.14  160.64 432.5  164 432.5  Z " fill-rule="nonzero" fill="#f0f0f0" stroke="none" />
  <path d="M 164 433  C 167.08 433  169.5 435.42  169.5 438.5  C 169.5 441.58  167.08 444  164 444  C 160.92 444  158.5 441.58  158.5 438.5  C 158.5 435.42  160.92 433  164 433  Z " stroke-width="1" stroke="#797979" fill="none" />
  <path d="M 164 441.5  C 162.32 441.5  161 440.18  161 438.5  C 161 436.82  162.32 435.5  164 435.5  C 165.68 435.5  167 436.82  167 438.5  C 167 440.18  165.68 441.5  164 441.5  " fill-rule="nonzero" fill="#797979" stroke="none" />
</svg>