<?xml version="1.0" encoding="utf-8"?>
<svg version="1.1" xmlns:xlink="http://www.w3.org/1999/xlink" width="12px" height="12px" viewBox="264 316.5  12 12" xmlns="http://www.w3.org/2000/svg">
  <path d="M 270 316.5  C 273.36 316.5  276 319.14  276 322.5  C 276 325.86  273.36 328.5  270 328.5  C 266.64 328.5  264 325.86  264 322.5  C 264 319.14  266.64 316.5  270 316.5  Z " fill-rule="nonzero" fill="#f0f0f0" stroke="none" />
  <path d="M 270 317  C 273.08 317  275.5 319.42  275.5 322.5  C 275.5 325.58  273.08 328  270 328  C 266.92 328  264.5 325.58  264.5 322.5  C 264.5 319.42  266.92 317  270 317  Z " stroke-width="1" stroke="#797979" fill="none" />
  <path d="M 270 325.5  C 268.32 325.5  267 324.18  267 322.5  C 267 320.82  268.32 319.5  270 319.5  C 271.68 319.5  273 320.82  273 322.5  C 273 324.18  271.68 325.5  270 325.5  " fill-rule="nonzero" fill="#797979" stroke="none" />
</svg>