<?xml version="1.0" encoding="utf-8"?>
<svg version="1.1" xmlns:xlink="http://www.w3.org/1999/xlink" width="12px" height="12px" viewBox="181 467.5  12 12" xmlns="http://www.w3.org/2000/svg">
  <path d="M 187 467.5  C 190.36 467.5  193 470.14  193 473.5  C 193 476.86  190.36 479.5  187 479.5  C 183.64 479.5  181 476.86  181 473.5  C 181 470.14  183.64 467.5  187 467.5  Z " fill-rule="nonzero" fill="#ffffff" stroke="none" />
  <path d="M 187 468  C 190.08 468  192.5 470.42  192.5 473.5  C 192.5 476.58  190.08 479  187 479  C 183.92 479  181.5 476.58  181.5 473.5  C 181.5 470.42  183.92 468  187 468  Z " stroke-width="1" stroke="#797979" fill="none" />
  <path d="M 187 476.5  C 185.32 476.5  184 475.18  184 473.5  C 184 471.82  185.32 470.5  187 470.5  C 188.68 470.5  190 471.82  190 473.5  C 190 475.18  188.68 476.5  187 476.5  " fill-rule="nonzero" fill="#797979" stroke="none" />
</svg>