<?xml version="1.0" encoding="utf-8"?>
<svg version="1.1" xmlns:xlink="http://www.w3.org/1999/xlink" width="12px" height="12px" viewBox="185 401  12 12" xmlns="http://www.w3.org/2000/svg">
  <path d="M 191 401  C 194.36 401  197 403.64  197 407  C 197 410.36  194.36 413  191 413  C 187.64 413  185 410.36  185 407  C 185 403.64  187.64 401  191 401  Z " fill-rule="nonzero" fill="#f0f0f0" stroke="none" />
  <path d="M 191 401.5  C 194.08 401.5  196.5 403.92  196.5 407  C 196.5 410.08  194.08 412.5  191 412.5  C 187.92 412.5  185.5 410.08  185.5 407  C 185.5 403.92  187.92 401.5  191 401.5  Z " stroke-width="1" stroke="#797979" fill="none" />
  <path d="M 191 410  C 189.32 410  188 408.68  188 407  C 188 405.32  189.32 404  191 404  C 192.68 404  194 405.32  194 407  C 194 408.68  192.68 410  191 410  " fill-rule="nonzero" fill="#797979" stroke="none" />
</svg>