<?xml version="1.0" encoding="utf-8"?>
<svg version="1.1" xmlns:xlink="http://www.w3.org/1999/xlink" width="12px" height="12px" viewBox="412 179  12 12" xmlns="http://www.w3.org/2000/svg">
  <path d="M 418 179  C 421.36 179  424 181.64  424 185  C 424 188.36  421.36 191  418 191  C 414.64 191  412 188.36  412 185  C 412 181.64  414.64 179  418 179  Z " fill-rule="nonzero" fill="#ffffff" stroke="none" />
  <path d="M 418 179.5  C 421.08 179.5  423.5 181.92  423.5 185  C 423.5 188.08  421.08 190.5  418 190.5  C 414.92 190.5  412.5 188.08  412.5 185  C 412.5 181.92  414.92 179.5  418 179.5  Z " stroke-width="1" stroke="#797979" fill="none" />
  <path d="M 418 188  C 416.32 188  415 186.68  415 185  C 415 183.32  416.32 182  418 182  C 419.68 182  421 183.32  421 185  C 421 186.68  419.68 188  418 188  " fill-rule="nonzero" fill="#797979" stroke="none" />
</svg>