<?xml version="1.0" encoding="utf-8"?>
<svg version="1.1" xmlns:xlink="http://www.w3.org/1999/xlink" width="12px" height="12px" viewBox="180 179  12 12" xmlns="http://www.w3.org/2000/svg">
  <path d="M 186 179  C 189.36 179  192 181.64  192 185  C 192 188.36  189.36 191  186 191  C 182.64 191  180 188.36  180 185  C 180 181.64  182.64 179  186 179  Z " fill-rule="nonzero" fill="#ffffff" stroke="none" />
  <path d="M 186 179.5  C 189.08 179.5  191.5 181.92  191.5 185  C 191.5 188.08  189.08 190.5  186 190.5  C 182.92 190.5  180.5 188.08  180.5 185  C 180.5 181.92  182.92 179.5  186 179.5  Z " stroke-width="1" stroke="#797979" fill="none" />
  <path d="M 186 188  C 184.32 188  183 186.68  183 185  C 183 183.32  184.32 182  186 182  C 187.68 182  189 183.32  189 185  C 189 186.68  187.68 188  186 188  " fill-rule="nonzero" fill="#797979" stroke="none" />
</svg>