<?xml version="1.0" encoding="utf-8"?>
<svg version="1.1" xmlns:xlink="http://www.w3.org/1999/xlink" width="12px" height="12px" viewBox="272 199  12 12" xmlns="http://www.w3.org/2000/svg">
  <path d="M 278 199  C 281.36 199  284 201.64  284 205  C 284 208.36  281.36 211  278 211  C 274.64 211  272 208.36  272 205  C 272 201.64  274.64 199  278 199  Z " fill-rule="nonzero" fill="#ffffff" stroke="none" />
  <path d="M 278 199.5  C 281.08 199.5  283.5 201.92  283.5 205  C 283.5 208.08  281.08 210.5  278 210.5  C 274.92 210.5  272.5 208.08  272.5 205  C 272.5 201.92  274.92 199.5  278 199.5  Z " stroke-width="1" stroke="#797979" fill="none" />
  <path d="M 278 208  C 276.32 208  275 206.68  275 205  C 275 203.32  276.32 202  278 202  C 279.68 202  281 203.32  281 205  C 281 206.68  279.68 208  278 208  " fill-rule="nonzero" fill="#797979" stroke="none" />
</svg>