<?xml version="1.0" encoding="utf-8"?>
<svg version="1.1" xmlns:xlink="http://www.w3.org/1999/xlink" width="26px" height="23px" xmlns="http://www.w3.org/2000/svg">
  <g transform="matrix(1 0 0 1 -26 0 )">
    <path d="M 39 0  C 46.28 0  52 5.06  52 11.5  C 52 17.94  46.28 23  39 23  C 31.72 23  26 17.94  26 11.5  C 26 5.06  31.72 0  39 0  Z " fill-rule="nonzero" fill="#ffffff" stroke="none" />
    <path d="M 39 0.5  C 46 0.5  51.5 5.34  51.5 11.5  C 51.5 17.66  46 22.5  39 22.5  C 32 22.5  26.5 17.66  26.5 11.5  C 26.5 5.34  32 0.5  39 0.5  Z " stroke-width="1" stroke="#169bd5" fill="none" />
  </g>
</svg>