<?xml version="1.0" encoding="utf-8"?>
<svg version="1.1" xmlns:xlink="http://www.w3.org/1999/xlink" width="20px" height="14px" xmlns="http://www.w3.org/2000/svg">
  <g transform="matrix(1 0 0 1 -1440 -281 )">
    <path d="M 9.32735426008969 10.5  L 9.95515695067265 10.5  L 11.2556053811659 9.34659090909091  L 9.55156950672646 7.83522727272727  L 8.25112107623318 8.98863636363636  L 8.25112107623318 9.54545454545455  L 9.32735426008969 9.54545454545455  L 9.32735426008969 10.5  Z M 14.8766816143498 3.66903409090909  C 15.0037369207773 3.5563446969697  15.0074738415546 3.4469696969697  14.8878923766816 3.34090909090909  C 14.7683109118087 3.23484848484848  14.6449925261584 3.23816287878788  14.5179372197309 3.35085227272727  L 10.5941704035874 6.83096590909091  C 10.4671150971599 6.9436553030303  10.4633781763827 7.0530303030303  10.5829596412556 7.15909090909091  C 10.7025411061286 7.26515151515151  10.8258594917788 7.26183712121212  10.9529147982063 7.14914772727273  L 14.8766816143498 3.66903409090909  Z M 15.5605381165919 8.95880681818182  C 15.7100149476831 9.01183712121212  15.7847533632287 9.10795454545455  15.7847533632287 9.24715909090909  L 15.7847533632287 11.1363636363636  C 15.7847533632287 11.9251893939394  15.4689835575486 12.5996685606061  14.8374439461883 13.1598011363636  C 14.2059043348281 13.7199337121212  13.4454409566517 14  12.5560538116592 14  L 3.22869955156951 14  C 2.33931240657698 14  1.5788490284006 13.7199337121212  0.947309417040359 13.1598011363636  C 0.31576980568012 12.5996685606061  0 11.9251893939394  0 11.1363636363636  L 0 2.86363636363636  C 0 2.0748106060606  0.31576980568012 1.40033143939394  0.947309417040359 0.840198863636364  C 1.5788490284006 0.280066287878787  2.33931240657698 0  3.22869955156951 0  L 12.5560538116592 0  C 13.0269058295964 0  13.4641255605381 0.0828598484848477  13.8677130044843 0.248579545454545  C 13.9798206278027 0.29498106060606  14.0470852017937 0.371212121212121  14.0695067264574 0.477272727272727  C 14.0919282511211 0.589962121212121  14.0582959641256 0.686079545454545  13.9686098654709 0.765625  L 13.4192825112108 1.25284090909091  C 13.3146487294469 1.34564393939394  13.195067264574 1.37215909090909  13.0605381165919 1.33238636363636  C 12.8886397608371 1.29261363636364  12.7204783258595 1.27272727272727  12.5560538116592 1.27272727272727  L 3.22869955156951 1.27272727272727  C 2.73542600896861 1.27272727272727  2.31315396113602 1.42850378787879  1.96188340807175 1.74005681818182  C 1.61061285500747 2.05160984848485  1.43497757847534 2.42613636363636  1.43497757847534 2.86363636363636  L 1.43497757847534 11.1363636363636  C 1.43497757847534 11.5738636363636  1.61061285500747 11.9483901515151  1.96188340807175 12.2599431818182  C 2.31315396113602 12.5714962121212  2.73542600896861 12.7272727272727  3.22869955156951 12.7272727272727  L 12.5560538116592 12.7272727272727  C 13.0493273542601 12.7272727272727  13.4715994020927 12.5714962121212  13.822869955157 12.2599431818182  C 14.1741405082212 11.9483901515151  14.3497757847534 11.5738636363636  14.3497757847534 11.1363636363636  L 14.3497757847534 9.88352272727273  C 14.3497757847534 9.79734848484848  14.3834080717489 9.72443181818182  14.4506726457399 9.66477272727273  L 15.1681614349776 9.02840909090909  C 15.280269058296 8.92897727272727  15.4110612855007 8.90577651515152  15.5605381165919 8.95880681818182  Z M 7.17488789237668 8.59090909090909  L 14.7085201793722 1.90909090909091  L 17.9372197309417 4.77272727272727  L 10.4035874439462 11.4545454545455  L 7.17488789237668 11.4545454545455  L 7.17488789237668 8.59090909090909  Z M 20 2.54545454545454  C 20 2.81060606060606  19.8953662182362 3.03598484848485  19.6860986547085 3.22159090909091  L 18.6547085201794 4.13636363636364  L 15.4260089686099 1.27272727272727  L 16.457399103139 0.357954545454545  C 16.6666666666667 0.172348484848484  16.9207772795217 0.0795454545454553  17.219730941704 0.0795454545454553  C 17.5186846038864 0.0795454545454553  17.7727952167414 0.172348484848484  17.9820627802691 0.357954545454545  L 19.6860986547085 1.86931818181818  C 19.8953662182362 2.05492424242424  20 2.28030303030303  20 2.54545454545454  Z " fill-rule="nonzero" fill="#000000" stroke="none" transform="matrix(1 0 0 1 1440 281 )" />
  </g>
</svg>