<?xml version="1.0" encoding="utf-8"?>
<svg version="1.1" xmlns:xlink="http://www.w3.org/1999/xlink" width="21px" height="15px" xmlns="http://www.w3.org/2000/svg">
  <g transform="matrix(1 0 0 1 -400 -251 )">
    <path d="M 11.908203125 10.244140625  C 11.990234375 10.302734375  12.03125 10.3776041666667  12.03125 10.46875  L 12.03125 12.03125  C 12.03125 12.1223958333333  11.990234375 12.197265625  11.908203125 12.255859375  C 11.826171875 12.314453125  11.7213541666667 12.34375  11.59375 12.34375  L 9.40625 12.34375  C 9.27864583333333 12.34375  9.173828125 12.314453125  9.091796875 12.255859375  C 9.009765625 12.197265625  8.96875 12.1223958333333  8.96875 12.03125  L 8.96875 10.46875  C 8.96875 10.3776041666667  9.009765625 10.302734375  9.091796875 10.244140625  C 9.173828125 10.185546875  9.27864583333333 10.15625  9.40625 10.15625  L 11.59375 10.15625  C 11.7213541666667 10.15625  11.826171875 10.185546875  11.908203125 10.244140625  Z M 14.0341796875 3.5302734375  C 15.0322265625 4.11295572916667  15.53125 4.81119791666667  15.53125 5.625  C 15.53125 5.95052083333333  15.462890625 6.24348958333333  15.326171875 6.50390625  C 15.189453125 6.76432291666667  14.9820963541667 6.98893229166667  14.7041015625 7.177734375  C 14.4261067708333 7.36653645833333  14.1891276041667 7.509765625  13.9931640625 7.607421875  C 13.7972005208333 7.705078125  13.5260416666667 7.822265625  13.1796875 7.958984375  C 12.8880208333333 8.076171875  12.6761067708333 8.16731770833333  12.5439453125 8.232421875  C 12.4117838541667 8.29752604166666  12.2932942708333 8.37565104166667  12.1884765625 8.466796875  C 12.0836588541667 8.55794270833333  12.03125 8.65234375  12.03125 8.75  L 12.03125 9.0625  C 12.03125 9.15364583333333  11.990234375 9.228515625  11.908203125 9.287109375  C 11.826171875 9.345703125  11.7213541666667 9.375  11.59375 9.375  L 9.40625 9.375  C 9.27864583333333 9.375  9.173828125 9.345703125  9.091796875 9.287109375  C 9.009765625 9.228515625  8.96875 9.15364583333333  8.96875 9.0625  L 8.96875 8.3984375  C 8.96875 8.17057291666667  9.0166015625 7.96061197916667  9.1123046875 7.7685546875  C 9.2080078125 7.57649739583333  9.3173828125 7.421875  9.4404296875 7.3046875  C 9.5634765625 7.1875  9.7412109375 7.07194010416667  9.9736328125 6.9580078125  C 10.2060546875 6.84407552083333  10.3929036458333 6.76106770833333  10.5341796875 6.708984375  C 10.6754557291667 6.65690104166667  10.8782552083333 6.58854166666667  11.142578125 6.50390625  C 11.6256510416667 6.34114583333333  11.9674479166667 6.201171875  12.16796875 6.083984375  C 12.3684895833333 5.966796875  12.46875 5.80729166666667  12.46875 5.60546875  C 12.46875 5.33203125  12.2705078125 5.09928385416666  11.8740234375 4.9072265625  C 11.4775390625 4.71516927083333  11.0423177083333 4.619140625  10.568359375 4.619140625  C 10.0579427083333 4.619140625  9.625 4.70703125  9.26953125 4.8828125  C 9.00520833333333 5.01302083333333  8.640625 5.283203125  8.17578125 5.693359375  C 8.09375 5.771484375  7.97981770833333 5.810546875  7.833984375 5.810546875  C 7.73372395833333 5.810546875  7.64713541666667 5.791015625  7.57421875 5.751953125  L 6.09765625 4.951171875  C 6.00651041666667 4.90559895833333  5.95182291666667 4.84049479166667  5.93359375 4.755859375  C 5.91536458333333 4.67122395833333  5.93815104166667 4.59635416666667  6.001953125 4.53125  C 7.11393229166667 3.28125  8.70442708333333 2.65625  10.7734375 2.65625  C 11.94921875 2.65625  13.0361328125 2.94759114583333  14.0341796875 3.5302734375  Z M 13.8974609375 1.748046875  C 12.8173828125 1.416015625  11.6848958333333 1.25  10.5 1.25  C 9.31510416666667 1.25  8.1826171875 1.416015625  7.1025390625 1.748046875  C 6.0224609375 2.080078125  5.0927734375 2.5244140625  4.3134765625 3.0810546875  C 3.5341796875 3.6376953125  2.912109375 4.3017578125  2.447265625 5.0732421875  C 1.982421875 5.8447265625  1.75 6.65364583333333  1.75 7.5  C 1.75 8.34635416666667  1.982421875 9.1552734375  2.447265625 9.9267578125  C 2.912109375 10.6982421875  3.5341796875 11.3623046875  4.3134765625 11.9189453125  C 5.0927734375 12.4755859375  6.0224609375 12.919921875  7.1025390625 13.251953125  C 8.1826171875 13.583984375  9.31510416666667 13.75  10.5 13.75  C 11.6848958333333 13.75  12.8173828125 13.583984375  13.8974609375 13.251953125  C 14.9775390625 12.919921875  15.9072265625 12.4755859375  16.6865234375 11.9189453125  C 17.4658203125 11.3623046875  18.087890625 10.6982421875  18.552734375 9.9267578125  C 19.017578125 9.1552734375  19.25 8.34635416666667  19.25 7.5  C 19.25 6.65364583333333  19.017578125 5.8447265625  18.552734375 5.0732421875  C 18.087890625 4.3017578125  17.4658203125 3.6376953125  16.6865234375 3.0810546875  C 15.9072265625 2.5244140625  14.9775390625 2.080078125  13.8974609375 1.748046875  Z M 19.591796875 3.7353515625  C 20.5305989583333 4.88444010416667  21 6.13932291666666  21 7.5  C 21 8.86067708333333  20.5305989583333 10.1155598958333  19.591796875 11.2646484375  C 18.6529947916667 12.4137369791667  17.3792317708333 13.3235677083333  15.7705078125 13.994140625  C 14.1617838541667 14.6647135416667  12.4049479166667 15  10.5 15  C 8.59505208333333 15  6.83821614583333 14.6647135416667  5.2294921875 13.994140625  C 3.62076822916667 13.3235677083333  2.34700520833333 12.4137369791667  1.408203125 11.2646484375  C 0.469401041666667 10.1155598958333  0 8.86067708333333  0 7.5  C 0 6.13932291666666  0.469401041666667 4.88444010416667  1.408203125 3.7353515625  C 2.34700520833333 2.58626302083333  3.62076822916667 1.67643229166667  5.2294921875 1.005859375  C 6.83821614583333 0.335286458333332  8.59505208333333 0  10.5 0  C 12.4049479166667 0  14.1617838541667 0.335286458333332  15.7705078125 1.005859375  C 17.3792317708333 1.67643229166667  18.6529947916667 2.58626302083333  19.591796875 3.7353515625  Z " fill-rule="nonzero" fill="#000000" stroke="none" transform="matrix(1 0 0 1 400 251 )" />
  </g>
</svg>