<?xml version="1.0" encoding="utf-8"?>
<svg version="1.1" xmlns:xlink="http://www.w3.org/1999/xlink" width="19px" height="21px" xmlns="http://www.w3.org/2000/svg">
  <g transform="matrix(1 0 0 1 -1340 -246 )">
    <path d="M 8.8609865470852 15.75  L 9.45739910313901 15.75  L 10.6928251121076 14.0198863636364  L 9.07399103139013 11.7528409090909  L 7.83856502242153 13.4829545454545  L 7.83856502242153 14.3181818181818  L 8.8609865470852 14.3181818181818  L 8.8609865470852 15.75  Z M 14.1328475336323 5.50355113636364  C 14.2535500747384 5.33451704545454  14.2571001494768 5.17045454545454  14.1434977578475 5.01136363636364  C 14.0298953662182 4.85227272727272  13.9127428998505 4.85724431818182  13.7920403587444 5.02627840909091  L 10.0644618834081 10.2464488636364  C 9.94375934230194 10.4154829545455  9.94020926756353 10.5795454545455  10.0538116591928 10.7386363636364  C 10.1674140508221 10.8977272727273  10.2845665171898 10.8927556818182  10.405269058296 10.7237215909091  L 14.1328475336323 5.50355113636364  Z M 14.7825112107623 13.4382102272727  C 14.924514200299 13.5177556818182  14.9955156950673 13.6619318181818  14.9955156950673 13.8707386363636  L 14.9955156950673 16.7045454545455  C 14.9955156950673 17.8877840909091  14.6955343796712 18.8995028409091  14.0955717488789 19.7397017045455  C 13.4956091180867 20.5799005681818  12.7731689088191 21  11.9282511210762 21  L 3.06726457399103 21  C 2.22234678624813 21  1.49990657698057 20.5799005681818  0.899943946188341 19.7397017045455  C 0.299981315396114 18.8995028409091  0 17.8877840909091  0 16.7045454545455  L 0 4.29545454545455  C 0 3.11221590909091  0.299981315396114 2.10049715909091  0.899943946188341 1.26029829545455  C 1.49990657698057 0.42009943181818  2.22234678624813 0  3.06726457399103 0  L 11.9282511210762 0  C 12.3755605381166 0  12.7909192825112 0.124289772727272  13.1743273542601 0.372869318181817  C 13.2808295964126 0.442471590909089  13.344730941704 0.556818181818181  13.3660313901345 0.71590909090909  C 13.387331838565 0.884943181818181  13.3553811659193 1.02911931818182  13.2701793721973 1.1484375  L 12.7483183856502 1.87926136363636  C 12.6489162929746 2.01846590909091  12.5353139013453 2.05823863636364  12.4075112107623 1.99857954545455  C 12.2442077727952 1.93892045454545  12.0844544095665 1.90909090909091  11.9282511210762 1.90909090909091  L 3.06726457399103 1.90909090909091  C 2.59865470852018 1.90909090909091  2.19749626307922 2.14275568181818  1.86378923766816 2.61008522727273  C 1.5300822122571 3.07741477272727  1.36322869955157 3.63920454545455  1.36322869955157 4.29545454545455  L 1.36322869955157 16.7045454545455  C 1.36322869955157 17.3607954545455  1.5300822122571 17.9225852272727  1.86378923766816 18.3899147727273  C 2.19749626307922 18.8572443181818  2.59865470852018 19.0909090909091  3.06726457399103 19.0909090909091  L 11.9282511210762 19.0909090909091  C 12.3968609865471 19.0909090909091  12.798019431988 18.8572443181818  13.1317264573991 18.3899147727273  C 13.4654334828102 17.9225852272727  13.6322869955157 17.3607954545455  13.6322869955157 16.7045454545455  L 13.6322869955157 14.8252840909091  C 13.6322869955157 14.6960227272727  13.6642376681614 14.5866477272727  13.7281390134529 14.4971590909091  L 14.4097533632287 13.5426136363636  C 14.5162556053812 13.3934659090909  14.6405082212257 13.3586647727273  14.7825112107623 13.4382102272727  Z M 6.81614349775785 12.8863636363636  L 13.9730941704036 2.86363636363636  L 17.0403587443946 7.15909090909091  L 9.88340807174888 17.1818181818182  L 6.81614349775785 17.1818181818182  L 6.81614349775785 12.8863636363636  Z M 19 3.81818181818182  C 19 4.21590909090909  18.9005979073244 4.55397727272727  18.7017937219731 4.83238636363636  L 17.7219730941704 6.20454545454545  L 14.6547085201794 1.90909090909091  L 15.6345291479821 0.536931818181817  C 15.8333333333333 0.258522727272725  16.0747384155456 0.119318181818183  16.3587443946188 0.119318181818183  C 16.6427503736921 0.119318181818183  16.8841554559043 0.258522727272725  17.0829596412556 0.536931818181817  L 18.7017937219731 2.80397727272727  C 18.9005979073244 3.08238636363636  19 3.42045454545454  19 3.81818181818182  Z " fill-rule="nonzero" fill="#000000" stroke="none" transform="matrix(1 0 0 1 1340 246 )" />
  </g>
</svg>