<?xml version="1.0" encoding="utf-8"?>
<svg version="1.1" xmlns:xlink="http://www.w3.org/1999/xlink" width="52px" height="51px" xmlns="http://www.w3.org/2000/svg">
  <defs>
    <path d="M 0 0  L 1024 0  L 1024 1024  L 0 1024  Z " fill-rule="evenodd" fill="black" id="path42" />
    <clipPath id="clip43">
      <use xlink:href="#path42" />
    </clipPath>
    <defs>
      <style type="text/css"></style>
    </defs>
    <path d="M210.823529 692.705882v240.941177H150.588235v-240.941177h60.235294z m180.705883-240.941176v-240.941177l90.292706-0.060235L481.882353 90.352941h60.235294l-0.060235 120.470588H632.470588v240.941177H542.117647v481.882353h-60.235294v-481.882353H391.529412z m421.647059-361.411765h60.235294v481.882353h90.352941v240.941177h-90.413177l0.060236 120.470588h-60.235294l-0.060236-120.470588H722.823529v-240.941177H813.176471v-481.882353z m90.352941 542.117647h-120.470588v120.470588h120.470588v-120.470588zM210.823529 90.352941l-0.060235 361.35153L301.176471 451.764706v240.941176h-240.941177v-240.941176l90.292706-0.060235L150.588235 90.352941h60.235294z m-90.352941 421.647059v120.470588h120.470588v-120.470588h-120.470588z m451.764706-240.941176H451.764706v120.470588h120.470588v-120.470588z" fill="#2C374D" p-id="2173"></path>
    <filter x="-50.00%" y="-50.00%" width="200.00%" height="200.00%" filterUnits="objectBoundingBox" id="filter44">
      <feColorMatrix type="matrix" values="1 0 0 0 0  0 1 0 0 0  0 0 1 0 0  0 0 0 1 0  " in="SourceGraphic" />
    </filter>
  </defs>
  <g transform="matrix(1 0 0 1 -1147 -314 )">
    <g transform="matrix(0.0498046875 0 0 0.0498046875 1147.5 314 )" clip-path="url(#clip43)" filter="url(#filter44)">
      <path d="M210.823529 692.705882v240.941177H150.588235v-240.941177h60.235294z m180.705883-240.941176v-240.941177l90.292706-0.060235L481.882353 90.352941h60.235294l-0.060235 120.470588H632.470588v240.941177H542.117647v481.882353h-60.235294v-481.882353H391.529412z m421.647059-361.411765h60.235294v481.882353h90.352941v240.941177h-90.413177l0.060236 120.470588h-60.235294l-0.060236-120.470588H722.823529v-240.941177H813.176471v-481.882353z m90.352941 542.117647h-120.470588v120.470588h120.470588v-120.470588zM210.823529 90.352941l-0.060235 361.35153L301.176471 451.764706v240.941176h-240.941177v-240.941176l90.292706-0.060235L150.588235 90.352941h60.235294z m-90.352941 421.647059v120.470588h120.470588v-120.470588h-120.470588z m451.764706-240.941176H451.764706v120.470588h120.470588v-120.470588z" fill="#2C374D" p-id="2173"></path>
    </g>
  </g>
</svg>