<?xml version="1.0" encoding="utf-8"?>
<svg version="1.1" xmlns:xlink="http://www.w3.org/1999/xlink" width="12px" height="10px" xmlns="http://www.w3.org/2000/svg">
  <g transform="matrix(1 0 0 1 -499 -597 )">
    <path d="M 11.0390625 2.95880681818181  C 10.9421874999998 3.04687499999999  10.7828125000001 3.04687499999999  10.6859374999999 2.95880681818181  C 10.6859374999999 2.95880681818181  8.2109375 0.708806818181806  8.2109375 0.708806818181806  C 8.11406250000027 0.620738636363627  8.11406250000027 0.475852272727263  8.2109375 0.387784090909081  C 8.2109375 0.387784090909081  8.56406250000009 0.0667613636363546  8.56406250000009 0.0667613636363546  C 8.66093750000027 -0.0213068181818279  8.8203125 -0.0213068181818279  8.91718750000018 0.0667613636363546  C 8.91718750000018 0.0667613636363546  11.3921875000001 2.31676136363635  11.3921875000001 2.31676136363635  C 11.4890624999998 2.40482954545454  11.4890624999998 2.5497159090909  11.3921875000001 2.63778409090908  C 11.3921875000001 2.63778409090908  11.0390625 2.95880681818181  11.0390625 2.95880681818181  Z M 1.17343750000009 9.63494318181818  C 1.17343750000009 9.63494318181818  4.5546875 8.81107954545454  4.5546875 8.81107954545454  C 4.6875 8.77840909090908  4.76718750000009 8.65340909090908  4.73124999999982 8.53267045454545  C 4.73124999999982 8.53267045454545  4.6015625 8.09374999999999  4.6015625 8.09374999999999  C 4.56562499999973 7.97301136363635  4.42812499999991 7.90056818181817  4.29531249999991 7.93323863636363  C 4.29531249999991 7.93323863636363  1.05312499999991 8.72301136363636  1.05312499999991 8.72301136363636  L 0.849999999999909 9.41477272727272  C 0.885937499999727 9.53551136363636  1.04062500000009 9.66761363636363  1.17343750000009 9.63494318181818  Z " fill-rule="nonzero" fill="#aaabac" stroke="none" transform="matrix(1 0 0 1 499 597 )" />
  </g>
</svg>