<?xml version="1.0" encoding="utf-8"?>
<svg version="1.1" xmlns:xlink="http://www.w3.org/1999/xlink" width="11px" height="9px" xmlns="http://www.w3.org/2000/svg">
  <g transform="matrix(1 0 0 1 -500 -597 )">
    <path d="M 1.55312500000036 6.74859374999999  C 1.45468750000009 6.83578124999999  1.296875 6.83578124999999  1.19843750000018 6.74859374999999  C 1.19843750000018 6.74859374999999  0.845312500000091 6.43078124999999  0.845312500000091 6.43078124999999  C 0.748437500000364 6.34359374999999  0.748437500000364 6.20015624999999  0.845312500000091 6.11296874999999  C 0.845312500000091 6.11296874999999  7.5625 0.0660937499999911  7.5625 0.0660937499999911  C 7.65937500000018 -0.0210937500000096  7.81874999999991 -0.0210937500000096  7.91562500000009 0.0660937499999911  C 7.91562500000009 0.0660937499999911  8.26875000000018 0.38390624999999  8.26875000000018 0.38390624999999  C 8.36562499999991 0.47109374999999  8.36562499999991 0.614531249999991  8.26875000000018 0.701718749999989  C 8.26875000000018 0.701718749999989  1.55312500000036 6.74859374999999  1.55312500000036 6.74859374999999  Z M 10.390625 2.61281250000001  C 10.390625 2.61281250000001  3.67343750000009 8.65828125000001  3.67343750000009 8.65828125000001  C 3.57656249999991 8.74546875000001  3.41718750000018 8.74546875000001  3.3203125 8.65828125000001  C 3.3203125 8.65828125000001  2.96718749999991 8.34046875000001  2.96718749999991 8.34046875000001  C 2.87031250000018 8.25328125000001  2.87031250000018 8.10984375000001  2.96718749999991 8.02265625000001  C 2.96718749999991 8.02265625000001  9.68437499999982 1.97718750000001  9.68437499999982 1.97718750000001  C 9.78125 1.89000000000001  9.94062499999973 1.89000000000001  10.0374999999999 1.97718750000001  C 10.0374999999999 1.97718750000001  10.390625 2.29500000000001  10.390625 2.29500000000001  C 10.4874999999997 2.38218750000001  10.4874999999997 2.52562500000001  10.390625 2.61281250000001  Z " fill-rule="nonzero" fill="#aaabac" stroke="none" transform="matrix(1 0 0 1 500 597 )" />
  </g>
</svg>