<?xml version="1.0" encoding="utf-8"?>
<svg version="1.1" xmlns:xlink="http://www.w3.org/1999/xlink" width="11px" height="10px" xmlns="http://www.w3.org/2000/svg">
  <g transform="matrix(1 0 0 1 -500 -1019 )">
    <path d="M 1.55312500000036 7.49843749999999  C 1.45468750000009 7.59531249999999  1.296875 7.59531249999999  1.19843750000018 7.49843749999999  C 1.19843750000018 7.49843749999999  0.845312500000091 7.14531249999999  0.845312500000091 7.14531249999999  C 0.748437500000364 7.04843749999999  0.748437500000364 6.88906249999999  0.845312500000091 6.79218749999999  C 0.845312500000091 6.79218749999999  7.5625 0.0734374999999901  7.5625 0.0734374999999901  C 7.65937500000018 -0.0234375000000107  7.81874999999991 -0.0234375000000107  7.91562500000009 0.0734374999999901  C 7.91562500000009 0.0734374999999901  8.26875000000018 0.426562499999989  8.26875000000018 0.426562499999989  C 8.36562499999991 0.523437499999989  8.36562499999991 0.68281249999999  8.26875000000018 0.779687499999987  C 8.26875000000018 0.779687499999987  1.55312500000036 7.49843749999999  1.55312500000036 7.49843749999999  Z M 10.390625 2.90312500000001  C 10.390625 2.90312500000001  3.67343750000009 9.62031250000001  3.67343750000009 9.62031250000001  C 3.57656249999991 9.71718750000002  3.41718750000018 9.71718750000002  3.3203125 9.62031250000001  C 3.3203125 9.62031250000001  2.96718749999991 9.26718750000001  2.96718749999991 9.26718750000001  C 2.87031250000018 9.17031250000001  2.87031250000018 9.01093750000001  2.96718749999991 8.91406250000001  C 2.96718749999991 8.91406250000001  9.68437499999982 2.19687500000001  9.68437499999982 2.19687500000001  C 9.78125 2.10000000000001  9.94062499999973 2.10000000000001  10.0374999999999 2.19687500000001  C 10.0374999999999 2.19687500000001  10.390625 2.55000000000001  10.390625 2.55000000000001  C 10.4874999999997 2.64687500000001  10.4874999999997 2.80625000000001  10.390625 2.90312500000001  Z " fill-rule="nonzero" fill="#aaabac" stroke="none" transform="matrix(1 0 0 1 500 1019 )" />
  </g>
</svg>