<?xml version="1.0" encoding="utf-8"?>
<svg version="1.1" xmlns:xlink="http://www.w3.org/1999/xlink" width="12px" height="11px" xmlns="http://www.w3.org/2000/svg">
  <g transform="matrix(1 0 0 1 -499 -1019 )">
    <path d="M 11.0390625 3.25468749999999  C 10.9421874999998 3.35156249999999  10.7828125000001 3.35156249999999  10.6859374999999 3.25468749999999  C 10.6859374999999 3.25468749999999  8.2109375 0.779687499999987  8.2109375 0.779687499999987  C 8.11406250000027 0.68281249999999  8.11406250000027 0.523437499999989  8.2109375 0.426562499999989  C 8.2109375 0.426562499999989  8.56406250000009 0.0734374999999901  8.56406250000009 0.0734374999999901  C 8.66093750000027 -0.0234375000000107  8.8203125 -0.0234375000000107  8.91718750000018 0.0734374999999901  C 8.91718750000018 0.0734374999999901  11.3921875000001 2.54843749999999  11.3921875000001 2.54843749999999  C 11.4890624999998 2.64531249999999  11.4890624999998 2.80468749999999  11.3921875000001 2.90156249999999  C 11.3921875000001 2.90156249999999  11.0390625 3.25468749999999  11.0390625 3.25468749999999  Z M 1.17343750000009 10.5984375  C 1.17343750000009 10.5984375  4.5546875 9.6921875  4.5546875 9.6921875  C 4.6875 9.65624999999999  4.76718750000009 9.51874999999999  4.73124999999982 9.38593749999999  C 4.73124999999982 9.38593749999999  4.6015625 8.90312499999999  4.6015625 8.90312499999999  C 4.56562499999973 8.77031249999999  4.42812499999991 8.69062499999999  4.29531249999991 8.72656249999999  C 4.29531249999991 8.72656249999999  1.05312499999991 9.59531249999999  1.05312499999991 9.59531249999999  L 0.849999999999909 10.35625  C 0.885937499999727 10.4890625  1.04062500000009 10.634375  1.17343750000009 10.5984375  Z " fill-rule="nonzero" fill="#aaabac" stroke="none" transform="matrix(1 0 0 1 499 1019 )" />
  </g>
</svg>