<?xml version="1.0" encoding="utf-8"?>
<svg version="1.1" xmlns:xlink="http://www.w3.org/1999/xlink" width="13px" height="10px" xmlns="http://www.w3.org/2000/svg">
  <g transform="matrix(1 0 0 1 -498 -599 )">
    <path d="M 1.8671875 7.53835227272727  C 1.83124999999973 7.6590909090909  1.91093749999982 7.7840909090909  2.04374999999982 7.81676136363636  L 2.87031249999973 7.64772727272727  C 2.87031249999973 7.64772727272727  3.73906249999982 4.70028409090908  3.73906249999982 4.70028409090908  C 3.77500000000009 4.57954545454545  3.6953125 4.45454545454545  3.5625 4.42187499999999  C 3.5625 4.42187499999999  3.07968750000009 4.30397727272727  3.07968750000009 4.30397727272727  C 2.94687500000009 4.27130681818181  2.80937499999982 4.34374999999999  2.7734375 4.46448863636363  C 2.7734375 4.46448863636363  1.8671875 7.53835227272727  1.8671875 7.53835227272727  Z M 10.1061875 1.63294034090909  L 9.39909375000025 2.27575284090909  L 7.96279687500009 0.970028409090908  L 8.66989062499988 0.32721590909091  L 10.1061875 1.63294034090909  Z M 12.5 8.86363636363636  C 12.5 8.86363636363636  12.5 9.31818181818182  12.5 9.31818181818182  C 12.5 9.44318181818182  12.3874999999998 9.54545454545455  12.25 9.54545454545455  C 12.25 9.54545454545455  0.25 9.54545454545455  0.25 9.54545454545455  C 0.112500000000182 9.54545454545455  0 9.44318181818182  0 9.31818181818182  C 0 9.31818181818182  0 8.86363636363636  0 8.86363636363636  C 0 8.73863636363636  0.112500000000182 8.63636363636364  0.25 8.63636363636364  C 0.25 8.63636363636364  12.25 8.63636363636364  12.25 8.63636363636364  C 12.3874999999998 8.63636363636364  12.5 8.73863636363636  12.5 8.86363636363636  Z " fill-rule="nonzero" fill="#aaabac" stroke="none" transform="matrix(1 0 0 1 498 599 )" />
  </g>
</svg>