<?xml version="1.0" encoding="utf-8"?>
<svg version="1.1" xmlns:xlink="http://www.w3.org/1999/xlink" width="25px" height="17px" xmlns="http://www.w3.org/2000/svg">
  <g transform="matrix(1 0 0 1 -97 -146 )">
    <path d="M 24.5704467353952 1.02204408817635  C 24.8568155784651 1.13560454241817  25 1.26619906479626  25 1.41382765531062  C 25 1.56145624582498  24.8568155784651 1.69205076820307  24.5704467353952 1.80561122244489  L 7.68900343642612 8.5  L 24.5704467353952 15.1943887775551  C 24.8568155784651 15.3079492317969  25 15.438543754175  25 15.5861723446894  C 25 15.7338009352037  24.8568155784651 15.8643954575818  24.5704467353952 15.9779559118236  L 22.4226804123711 16.8296593186373  C 22.1363115693013 16.9432197728791  21.8069873997709 17  21.4347079037801 17  C 21.0624284077892 17  20.7331042382589 16.9432197728791  20.446735395189 16.8296593186373  L 0.429553264604811 8.89178356713427  C 0.143184421534937 8.77822311289245  0 8.64762859051436  0 8.5  C 0 8.35237140948564  0.143184421534937 8.22177688710755  0.429553264604811 8.10821643286573  L 20.446735395189 0.170340681362726  C 20.7331042382589 0.0567802271209079  21.0624284077892 0  21.4347079037801 0  C 21.8069873997709 0  22.1363115693013 0.0567802271209079  22.4226804123711 0.170340681362726  L 24.5704467353952 1.02204408817635  Z " fill-rule="nonzero" fill="#000000" stroke="none" transform="matrix(1 0 0 1 97 146 )" />
  </g>
</svg>