<?xml version="1.0" encoding="utf-8"?>
<svg version="1.1" xmlns:xlink="http://www.w3.org/1999/xlink" width="22px" height="14px" xmlns="http://www.w3.org/2000/svg">
  <g transform="matrix(1 0 0 1 -247 -156 )">
    <path d="M 4.75566087414429 3.79339933993399  C 5.04528699315429 3.56237623762376  5.19010005265929 3.28360836083608  5.19010005265929 2.95709570957096  C 5.19010005265929 2.63058305830583  5.04528699315429 2.35181518151815  4.75566087414429 2.12079207920792  C 4.46603475513428 1.88976897689769  4.11655257152888 1.77425742574257  3.70721432332807 1.77425742574257  C 3.29787607512726 1.77425742574257  2.94839389152185 1.88976897689769  2.65876777251185 2.12079207920792  C 2.36914165350184 2.35181518151815  2.22432859399684 2.63058305830583  2.22432859399684 2.95709570957096  C 2.22432859399684 3.28360836083608  2.36914165350184 3.56237623762376  2.65876777251185 3.79339933993399  C 2.94839389152185 4.02442244224422  3.29787607512726 4.13993399339934  3.70721432332807 4.13993399339934  C 4.11655257152888 4.13993399339934  4.46603475513428 4.02442244224422  4.75566087414429 3.79339933993399  Z M 17.1226961558715 7.43894389438944  C 17.4084605932947 7.67920792079208  17.5513428120063 7.95951595159516  17.5513428120063 8.27986798679868  C 17.5513428120063 8.6063806380638  17.4084605932947 8.88360836083608  17.1226961558715 9.11155115511551  L 11.434439178515 13.6580858085809  C 11.1332280147446 13.8860286028603  10.7818149903458 14  10.3802001053186 14  C 9.97086185711778 14  9.62331051430578 13.8860286028603  9.33754607688257 13.6580858085809  L 1.05423907319642 7.04158415841584  C 0.760751272599614 6.81364136413641  0.511672810251009 6.5025302530253  0.307003686150606 6.10825082508251  C 0.102334562050202 5.71397139713971  0 5.35357535753575  0 5.02706270627063  L 0 1.18283828382838  C 0 0.862486248624863  0.146743900298403 0.585258525852585  0.440231700895208 0.35115511551155  C 0.733719501492013 0.117051705170516  1.08127084430402 0  1.48288572933123 0  L 6.30226434965771 0  C 6.71160259785852 0  7.16341934351413 0.0816281628162805  7.65771458662454 0.244884488448845  C 8.15200982973495 0.408140814081407  8.54590135158856 0.606820682068205  8.83938915218536 0.840924092409241  L 17.1226961558715 7.43894389438944  Z M 21.5713533438652 7.43894389438944  C 21.8571177812884 7.67920792079208  22 7.95951595159516  22 8.27986798679868  C 22 8.6063806380638  21.8571177812884 8.88360836083608  21.5713533438652 9.11155115511551  L 15.8830963665087 13.6580858085809  C 15.5818852027383 13.8860286028603  15.2304721783395 14  14.8288572933123 14  C 14.5508162190627 14  14.3229770054415 13.9568756875688  14.1453396524487 13.8706270627063  C 13.9677022994559 13.7843784378438  13.7630331753555 13.6457645764576  13.5313322801474 13.4547854785479  L 18.9763033175355 9.11155115511551  C 19.2620677549587 8.88360836083608  19.4049499736704 8.6063806380638  19.4049499736704 8.27986798679868  C 19.4049499736704 7.95951595159516  19.2620677549587 7.67920792079208  18.9763033175355 7.43894389438944  L 10.6929963138494 0.840924092409241  C 10.3995085132526 0.606820682068205  10.005616991399 0.408140814081407  9.51132174828857 0.244884488448845  C 9.01702650517817 0.0816281628162805  8.56520975952256 0  8.15587151132175 0  L 10.7509215376514 0  C 11.1602597858522 0  11.6120765315078 0.0816281628162805  12.1063717746182 0.244884488448845  C 12.6006670177286 0.408140814081407  12.9945585395822 0.606820682068205  13.288046340179 0.840924092409241  L 21.5713533438652 7.43894389438944  Z " fill-rule="nonzero" fill="#000000" stroke="none" transform="matrix(1 0 0 1 247 156 )" />
  </g>
</svg>