<?xml version="1.0" encoding="utf-8"?>
<svg version="1.1" xmlns:xlink="http://www.w3.org/1999/xlink" width="22px" height="19px" xmlns="http://www.w3.org/2000/svg">
  <g transform="matrix(1 0 0 1 -604 -132 )">
    <path d="M 17.14453125 10.8483072916667  C 17.3259548611111 10.6916232638889  17.4166666666667 10.5060763888889  17.4166666666667 10.2916666666667  L 17.4166666666667 8.70833333333333  C 17.4166666666667 8.49392361111111  17.3259548611111 8.30837673611111  17.14453125 8.15169270833333  C 16.9631076388889 7.99500868055556  16.7482638888889 7.91666666666667  16.5 7.91666666666667  L 12.8333333333333 7.91666666666667  L 12.8333333333333 4.75  C 12.8333333333333 4.53559027777778  12.7426215277778 4.35004340277778  12.5611979166667 4.193359375  C 12.3797743055556 4.03667534722222  12.1649305555556 3.95833333333333  11.9166666666667 3.95833333333333  L 10.0833333333333 3.95833333333333  C 9.83506944444445 3.95833333333333  9.62022569444445 4.03667534722222  9.43880208333333 4.193359375  C 9.25737847222222 4.35004340277778  9.16666666666667 4.53559027777778  9.16666666666667 4.75  L 9.16666666666667 7.91666666666667  L 5.5 7.91666666666667  C 5.25173611111111 7.91666666666667  5.03689236111111 7.99500868055556  4.85546875 8.15169270833333  C 4.67404513888889 8.30837673611111  4.58333333333333 8.49392361111111  4.58333333333333 8.70833333333333  L 4.58333333333333 10.2916666666667  C 4.58333333333333 10.5060763888889  4.67404513888889 10.6916232638889  4.85546875 10.8483072916667  C 5.03689236111111 11.0049913194444  5.25173611111111 11.0833333333333  5.5 11.0833333333333  L 9.16666666666667 11.0833333333333  L 9.16666666666667 14.25  C 9.16666666666667 14.4644097222222  9.25737847222222 14.6499565972222  9.43880208333333 14.806640625  C 9.62022569444445 14.9633246527778  9.83506944444445 15.0416666666667  10.0833333333333 15.0416666666667  L 11.9166666666667 15.0416666666667  C 12.1649305555556 15.0416666666667  12.3797743055556 14.9633246527778  12.5611979166667 14.806640625  C 12.7426215277778 14.6499565972222  12.8333333333333 14.4644097222222  12.8333333333333 14.25  L 12.8333333333333 11.0833333333333  L 16.5 11.0833333333333  C 16.7482638888889 11.0833333333333  16.9631076388889 11.0049913194444  17.14453125 10.8483072916667  Z M 20.5247395833333 4.7314453125  C 21.5082465277778 6.18695746527778  22 7.77647569444444  22 9.5  C 22 11.2235243055556  21.5082465277778 12.8130425347222  20.5247395833333 14.2685546875  C 19.5412326388889 15.7240668402778  18.2068142361111 16.8765190972222  16.521484375 17.7259114583333  C 14.8361545138889 18.5753038194444  12.9956597222222 19  11 19  C 9.00434027777778 19  7.16384548611111 18.5753038194444  5.478515625 17.7259114583333  C 3.79318576388889 16.8765190972222  2.45876736111111 15.7240668402778  1.47526041666667 14.2685546875  C 0.491753472222222 12.8130425347222  0 11.2235243055556  0 9.5  C 0 7.77647569444444  0.491753472222222 6.18695746527778  1.47526041666667 4.7314453125  C 2.45876736111111 3.27593315972222  3.79318576388889 2.12348090277778  5.478515625 1.27408854166667  C 7.16384548611111 0.424696180555554  9.00434027777778 0  11 0  C 12.9956597222222 0  14.8361545138889 0.424696180555554  16.521484375 1.27408854166667  C 18.2068142361111 2.12348090277778  19.5412326388889 3.27593315972222  20.5247395833333 4.7314453125  Z " fill-rule="nonzero" fill="#000000" stroke="none" transform="matrix(1 0 0 1 604 132 )" />
  </g>
</svg>