<?xml version="1.0" encoding="utf-8"?>
<svg version="1.1" xmlns:xlink="http://www.w3.org/1999/xlink" width="8px" height="13px" xmlns="http://www.w3.org/2000/svg">
  <g transform="matrix(1 0 0 1 -344 -156 )">
    <path d="M 7.81144781144781 9.71717171717172  C 7.9371492704826 9.92143658810325  8 10.1694725028058  8 10.4612794612795  C 8 10.7530864197531  7.9371492704826 11.0011223344557  7.81144781144781 11.2053872053872  L 6.8956228956229 12.6936026936027  C 6.7699214365881 12.8978675645342  6.61728395061728 13  6.43771043771044 13  C 6.25813692480359 13  6.10549943883277 12.8978675645342  5.97979797979798 12.6936026936027  L 4 9.47643097643098  L 2.02020202020202 12.6936026936027  C 1.89450056116723 12.8978675645342  1.74186307519641 13  1.56228956228956 13  C 1.38271604938272 13  1.2300785634119 12.8978675645342  1.1043771043771 12.6936026936027  L 0.188552188552189 11.2053872053872  C 0.0628507295173962 11.0011223344557  0 10.7530864197531  0 10.4612794612795  C 0 10.1694725028058  0.0628507295173962 9.92143658810325  0.188552188552189 9.71717171717172  L 2.16835016835017 6.5  L 0.188552188552189 3.28282828282828  C 0.0628507295173962 3.07856341189674  0 2.83052749719416  0 2.53872053872054  C 0 2.24691358024691  0.0628507295173962 1.99887766554433  0.188552188552189 1.79461279461279  L 1.1043771043771 0.306397306397306  C 1.2300785634119 0.102132435465768  1.38271604938272 0  1.56228956228956 0  C 1.74186307519641 0  1.89450056116723 0.102132435465768  2.02020202020202 0.306397306397306  L 4 3.52356902356902  L 5.97979797979798 0.306397306397306  C 6.10549943883277 0.102132435465768  6.25813692480359 0  6.43771043771044 0  C 6.61728395061728 0  6.7699214365881 0.102132435465768  6.8956228956229 0.306397306397306  L 7.81144781144781 1.79461279461279  C 7.9371492704826 1.99887766554433  8 2.24691358024691  8 2.53872053872054  C 8 2.83052749719416  7.9371492704826 3.07856341189674  7.81144781144781 3.28282828282828  L 5.83164983164983 6.5  L 7.81144781144781 9.71717171717172  Z " fill-rule="nonzero" fill="#000000" stroke="none" transform="matrix(1 0 0 1 344 156 )" />
  </g>
</svg>