<?xml version="1.0" encoding="utf-8"?>
<svg version="1.1" xmlns:xlink="http://www.w3.org/1999/xlink" width="22px" height="19px" xmlns="http://www.w3.org/2000/svg">
  <g transform="matrix(1 0 0 1 -33 -28 )">
    <path d="M 44 28  C 50.16 28  55 32.18  55 37.5  C 55 42.82  50.16 47  44 47  C 37.84 47  33 42.82  33 37.5  C 33 32.18  37.84 28  44 28  Z " fill-rule="nonzero" fill="#ffffff" stroke="none" />
    <path d="M 44 28.5  C 49.88 28.5  54.5 32.46  54.5 37.5  C 54.5 42.54  49.88 46.5  44 46.5  C 38.12 46.5  33.5 42.54  33.5 37.5  C 33.5 32.46  38.12 28.5  44 28.5  Z " stroke-width="1" stroke="#797979" fill="none" />
  </g>
</svg>