<?xml version="1.0" encoding="utf-8"?>
<svg version="1.1" xmlns:xlink="http://www.w3.org/1999/xlink" width="20px" height="4px" xmlns="http://www.w3.org/2000/svg">
  <g transform="matrix(1 0 0 1 -1314 -723 )">
    <path d="M 4 2  C 4 0.89543050040001  3.10456949960007 0  2 0  C 0.895430500399925 0  0 0.89543050040001  0 2  C 0 3.10456949959999  0.895430500399925 4  2 4  C 3.10456949960007 4  4 3.10456949959999  4 2  Z M 12 2  C 12 0.89543050040001  11.1045694996001 0  10 0  C 8.89543050039993 0  8 0.89543050040001  8 2  C 8 3.10456949959999  8.89543050039993 4  10 4  C 11.1045694996001 4  12 3.10456949959999  12 2  Z M 18 0  C 16.8954305003999 0  16 0.89543050040001  16 2  C 16 3.10456949959999  16.8954305003999 4  18 4  C 19.1045694996001 4  20 3.10456949959999  20 2  C 20 0.89543050040001  19.1045694996001 0  18 0  Z " fill-rule="nonzero" fill="#aaabac" stroke="none" transform="matrix(1 0 0 1 1314 723 )" />
  </g>
</svg>