<?xml version="1.0" encoding="utf-8"?>
<svg version="1.1" xmlns:xlink="http://www.w3.org/1999/xlink" width="32px" height="27px" xmlns="http://www.w3.org/2000/svg">
  <g transform="matrix(1 0 0 1 -1212 -223 )">
    <path d="M 1228 223  C 1236.96 223  1244 228.94  1244 236.5  C 1244 244.06  1236.96 250  1228 250  C 1219.04 250  1212 244.06  1212 236.5  C 1212 228.94  1219.04 223  1228 223  Z " fill-rule="nonzero" fill="#ffffff" stroke="none" />
    <path d="M 1228 223.5  C 1236.68 223.5  1243.5 229.22  1243.5 236.5  C 1243.5 243.78  1236.68 249.5  1228 249.5  C 1219.32 249.5  1212.5 243.78  1212.5 236.5  C 1212.5 229.22  1219.32 223.5  1228 223.5  Z " stroke-width="1" stroke="#797979" fill="none" />
  </g>
</svg>