<?xml version="1.0" encoding="utf-8"?>
<svg version="1.1" xmlns:xlink="http://www.w3.org/1999/xlink" width="14px" height="13px" xmlns="http://www.w3.org/2000/svg">
  <g transform="matrix(1 0 0 1 -1351 -168 )">
    <path d="M 13.685546875 7.66373697916667  C 13.7432725694444 7.71733940972222  13.7721354166667 7.78081597222222  13.7721354166667 7.85416666666667  C 13.7721354166667 7.88237847222222  13.7690972222222 7.90212673611111  13.7630208333333 7.91341145833333  C 13.3741319444444 9.42556423611111  12.5598958333333 10.6513671875  11.3203125 11.5908203125  C 10.0807291666667 12.5302734375  8.62847222222222 13  6.96354166666667 13  C 6.07638888888889 13  5.21809895833333 12.8448350694444  4.388671875 12.5345052083333  C 3.55924479166667 12.2241753472222  2.81944444444445 11.78125  2.16927083333333 11.2057291666667  L 0.993489583333333 12.2975260416667  C 0.878038194444445 12.4047309027778  0.741319444444445 12.4583333333333  0.583333333333333 12.4583333333333  C 0.425347222222222 12.4583333333333  0.288628472222222 12.4047309027778  0.173177083333333 12.2975260416667  C 0.0577256944444444 12.1903211805556  0 12.0633680555556  0 11.9166666666667  L 0 8.125  C 0 7.97829861111111  0.0577256944444444 7.85134548611111  0.173177083333333 7.744140625  C 0.288628472222222 7.63693576388889  0.425347222222222 7.58333333333333  0.583333333333333 7.58333333333333  L 4.66666666666667 7.58333333333333  C 4.82465277777778 7.58333333333333  4.96137152777778 7.63693576388889  5.07682291666667 7.744140625  C 5.19227430555556 7.85134548611111  5.25 7.97829861111111  5.25 8.125  C 5.25 8.27170138888889  5.19227430555556 8.39865451388889  5.07682291666667 8.505859375  L 3.828125 9.66536458333333  C 4.25954861111111 10.0377604166667  4.74869791666667 10.3255208333333  5.29557291666667 10.5286458333333  C 5.84244791666667 10.7317708333333  6.41059027777778 10.8333333333333  7 10.8333333333333  C 7.81423611111111 10.8333333333333  8.57378472222222 10.6499565972222  9.27864583333333 10.283203125  C 9.98350694444444 9.91644965277778  10.5486111111111 9.41145833333333  10.9739583333333 8.76822916666667  C 11.0407986111111 8.67230902777778  11.2018229166667 8.34223090277778  11.45703125 7.77799479166667  C 11.5056423611111 7.64822048611111  11.5967881944444 7.58333333333333  11.73046875 7.58333333333333  L 13.48046875 7.58333333333333  C 13.5594618055556 7.58333333333333  13.6278211805556 7.61013454861111  13.685546875 7.66373697916667  Z M 13.8268229166667 0.702473958333334  C 13.9422743055556 0.809678819444444  14 0.936631944444444  14 1.08333333333333  L 14 4.875  C 14 5.02170138888889  13.9422743055556 5.14865451388889  13.8268229166667 5.255859375  C 13.7113715277778 5.36306423611111  13.5746527777778 5.41666666666667  13.4166666666667 5.41666666666667  L 9.33333333333333 5.41666666666667  C 9.17534722222222 5.41666666666667  9.03862847222222 5.36306423611111  8.92317708333333 5.255859375  C 8.80772569444444 5.14865451388889  8.75 5.02170138888889  8.75 4.875  C 8.75 4.72829861111111  8.80772569444444 4.60134548611111  8.92317708333333 4.494140625  L 10.1809895833333 3.326171875  C 9.28168402777778 2.55316840277778  8.22135416666667 2.16666666666667  7 2.16666666666667  C 6.18576388888889 2.16666666666667  5.42621527777778 2.35004340277778  4.72135416666667 2.716796875  C 4.01649305555556 3.08355034722222  3.45138888888889 3.58854166666667  3.02604166666667 4.23177083333333  C 2.95920138888889 4.32769097222222  2.79817708333333 4.65776909722222  2.54296875 5.22200520833333  C 2.49435763888889 5.35177951388889  2.40321180555556 5.41666666666667  2.26953125 5.41666666666667  L 0.455729166666667 5.41666666666667  C 0.376736111111111 5.41666666666667  0.308376736111111 5.38986545138889  0.250651041666667 5.33626302083333  C 0.192925347222222 5.28266059027778  0.1640625 5.21918402777778  0.1640625 5.14583333333333  L 0.1640625 5.08658854166667  C 0.559027777777778 3.57443576388889  1.37934027777778 2.3486328125  2.625 1.4091796875  C 3.87065972222222 0.4697265625  5.32899305555556 0  7 0  C 7.88715277777778 0  8.75 0.156575520833334  9.58854166666667 0.4697265625  C 10.4270833333333 0.782877604166666  11.1714409722222 1.22439236111111  11.8216145833333 1.79427083333333  L 13.0065104166667 0.702473958333334  C 13.1219618055556 0.595269097222221  13.2586805555556 0.541666666666666  13.4166666666667 0.541666666666666  C 13.5746527777778 0.541666666666666  13.7113715277778 0.595269097222221  13.8268229166667 0.702473958333334  Z " fill-rule="nonzero" fill="#000000" stroke="none" transform="matrix(1 0 0 1 1351 168 )" />
  </g>
</svg>