<?xml version="1.0" encoding="utf-8"?>
<svg version="1.1" xmlns:xlink="http://www.w3.org/1999/xlink" width="18px" height="17px" xmlns="http://www.w3.org/2000/svg">
  <g transform="matrix(1 0 0 1 -1058 -247 )">
    <path d="M 1067 247  C 1072.04 247  1076 250.74  1076 255.5  C 1076 260.26  1072.04 264  1067 264  C 1061.96 264  1058 260.26  1058 255.5  C 1058 250.74  1061.96 247  1067 247  Z " fill-rule="nonzero" fill="#ffffff" stroke="none" />
    <path d="M 1067 247.5  C 1071.76 247.5  1075.5 251.02  1075.5 255.5  C 1075.5 259.98  1071.76 263.5  1067 263.5  C 1062.24 263.5  1058.5 259.98  1058.5 255.5  C 1058.5 251.02  1062.24 247.5  1067 247.5  Z " stroke-width="1" stroke="#797979" fill="none" />
  </g>
</svg>