<?xml version="1.0" encoding="utf-8"?>
<svg version="1.1" xmlns:xlink="http://www.w3.org/1999/xlink" width="17px" height="16px" xmlns="http://www.w3.org/2000/svg">
  <g transform="matrix(1 0 0 1 -1230 -264 )">
    <path d="M 14.01171875 6.78125  C 14.14453125 6.65625  14.2109375 6.5  14.2109375 6.3125  C 14.2109375 6.11805555555556  14.14453125 5.95833333333333  14.01171875 5.83333333333333  L 13.0045572916667 4.89583333333333  C 12.8643663194444 4.76388888888889  12.6983506944444 4.69791666666667  12.5065104166667 4.69791666666667  C 12.3146701388889 4.69791666666667  12.1486545138889 4.76388888888889  12.0084635416667 4.89583333333333  L 7.49283854166667 9.13541666666667  L 4.99153645833333 6.78125  C 4.85134548611111 6.64930555555556  4.68532986111111 6.58333333333333  4.49348958333333 6.58333333333333  C 4.30164930555556 6.58333333333333  4.13563368055556 6.64930555555556  3.99544270833333 6.78125  L 2.98828125 7.71875  C 2.85546875 7.84375  2.7890625 8.00347222222222  2.7890625 8.19791666666667  C 2.7890625 8.38541666666667  2.85546875 8.54166666666667  2.98828125 8.66666666666667  L 6.99479166666667 12.4375  C 7.13498263888889 12.5694444444444  7.30099826388889 12.6354166666667  7.49283854166667 12.6354166666667  C 7.69205729166667 12.6354166666667  7.86176215277778 12.5694444444444  8.001953125 12.4375  L 14.01171875 6.78125  Z M 15.8600260416667 3.984375  C 16.6200086805556 5.21006944444444  17 6.54861111111111  17 8  C 17 9.45138888888889  16.6200086805556 10.7899305555556  15.8600260416667 12.015625  C 15.1000434027778 13.2413194444444  14.0689019097222 14.2118055555556  12.7666015625 14.9270833333333  C 11.4643012152778 15.6423611111111  10.0421006944444 16  8.5 16  C 6.95789930555556 16  5.53569878472222 15.6423611111111  4.2333984375 14.9270833333333  C 2.93109809027778 14.2118055555556  1.89995659722222 13.2413194444444  1.13997395833333 12.015625  C 0.379991319444444 10.7899305555556  0 9.45138888888889  0 8  C 0 6.54861111111111  0.379991319444444 5.21006944444444  1.13997395833333 3.984375  C 1.89995659722222 2.75868055555556  2.93109809027778 1.78819444444444  4.2333984375 1.07291666666667  C 5.53569878472222 0.357638888888888  6.95789930555556 0  8.5 0  C 10.0421006944444 0  11.4643012152778 0.357638888888888  12.7666015625 1.07291666666667  C 14.0689019097222 1.78819444444444  15.1000434027778 2.75868055555556  15.8600260416667 3.984375  Z " fill-rule="nonzero" fill="#588d03" stroke="none" transform="matrix(1 0 0 1 1230 264 )" />
  </g>
</svg>