<?xml version="1.0" encoding="utf-8"?>
<svg version="1.1" xmlns:xlink="http://www.w3.org/1999/xlink" width="33px" height="23px" xmlns="http://www.w3.org/2000/svg">
  <g transform="matrix(1 0 0 1 -1194 -222 )">
    <path d="M 1210.5 222  C 1219.74 222  1227 227.06  1227 233.5  C 1227 239.94  1219.74 245  1210.5 245  C 1201.26 245  1194 239.94  1194 233.5  C 1194 227.06  1201.26 222  1210.5 222  Z " fill-rule="nonzero" fill="#ffffff" stroke="none" />
    <path d="M 1210.5 222.5  C 1219.46 222.5  1226.5 227.34  1226.5 233.5  C 1226.5 239.66  1219.46 244.5  1210.5 244.5  C 1201.54 244.5  1194.5 239.66  1194.5 233.5  C 1194.5 227.34  1201.54 222.5  1210.5 222.5  Z " stroke-width="1" stroke="#797979" fill="none" />
  </g>
</svg>