<?xml version="1.0" encoding="utf-8"?>
<svg version="1.1" xmlns:xlink="http://www.w3.org/1999/xlink" width="18px" height="23px" xmlns="http://www.w3.org/2000/svg">
  <g transform="matrix(1 0 0 1 -1114 -478 )">
    <path d="M 10.39453125 19.0319010416667  C 10.46484375 18.9420572916667  10.5 18.8272569444444  10.5 18.6875  L 10.5 15.8125  C 10.5 15.6727430555556  10.46484375 15.5579427083333  10.39453125 15.4680989583333  C 10.32421875 15.3782552083333  10.234375 15.3333333333333  10.125 15.3333333333333  L 7.875 15.3333333333333  C 7.765625 15.3333333333333  7.67578125 15.3782552083333  7.60546875 15.4680989583333  C 7.53515625 15.5579427083333  7.5 15.6727430555556  7.5 15.8125  L 7.5 18.6875  C 7.5 18.8272569444444  7.53515625 18.9420572916667  7.60546875 19.0319010416667  C 7.67578125 19.1217447916667  7.765625 19.1666666666667  7.875 19.1666666666667  L 10.125 19.1666666666667  C 10.234375 19.1666666666667  10.32421875 19.1217447916667  10.39453125 19.0319010416667  Z M 13.353515625 9.837890625  C 13.451171875 9.46853298611111  13.5 9.06423611111111  13.5 8.625  C 13.5 7.74652777777778  13.283203125 6.93294270833333  12.849609375 6.18424479166667  C 12.416015625 5.435546875  11.875 4.85655381944444  11.2265625 4.447265625  C 10.578125 4.03797743055555  9.9140625 3.83333333333333  9.234375 3.83333333333333  C 7.3359375 3.83333333333333  5.88671875 4.896484375  4.88671875 7.02278645833333  C 4.76953125 7.26236979166667  4.80078125 7.47200520833333  4.98046875 7.65169270833333  L 6.52734375 9.14908854166667  C 6.58203125 9.208984375  6.65625 9.23893229166667  6.75 9.23893229166667  C 6.875 9.23893229166667  6.97265625 9.17903645833333  7.04296875 9.05924479166667  C 7.45703125 8.38042534722222  7.79296875 7.92122395833333  8.05078125 7.681640625  C 8.31640625 7.44205729166667  8.65234375 7.322265625  9.05859375 7.322265625  C 9.43359375 7.322265625  9.767578125 7.45203993055555  10.060546875 7.71158854166667  C 10.353515625 7.97113715277778  10.5 8.265625  10.5 8.59505208333333  C 10.5 8.97439236111111  10.421875 9.27886284722222  10.265625 9.50846354166667  C 10.109375 9.73806423611111  9.84375 9.96267361111111  9.46875 10.1822916666667  C 8.9765625 10.4618055555556  8.525390625 10.8935546875  8.115234375 11.4775390625  C 7.705078125 12.0615234375  7.5 12.6879340277778  7.5 13.3567708333333  L 7.5 13.8958333333333  C 7.5 14.0355902777778  7.53515625 14.150390625  7.60546875 14.240234375  C 7.67578125 14.330078125  7.765625 14.375  7.875 14.375  L 10.125 14.375  C 10.234375 14.375  10.32421875 14.330078125  10.39453125 14.240234375  C 10.46484375 14.150390625  10.5 14.0355902777778  10.5 13.8958333333333  C 10.5 13.7061631944444  10.583984375 13.4590928819444  10.751953125 13.1546223958333  C 10.919921875 12.8501519097222  11.1328125 12.6030815972222  11.390625 12.4134114583333  C 11.640625 12.2337239583333  11.83203125 12.0914713541667  11.96484375 11.9866536458333  C 12.09765625 11.8818359375  12.27734375 11.7071397569444  12.50390625 11.4625651041667  C 12.73046875 11.2179904513889  12.904296875 10.9784071180556  13.025390625 10.7438151041667  C 13.146484375 10.5092230902778  13.255859375 10.2072482638889  13.353515625 9.837890625  Z M 16.79296875 5.7275390625  C 17.59765625 7.48947482638889  18 9.41362847222222  18 11.5  C 18 13.5863715277778  17.59765625 15.5105251736111  16.79296875 17.2724609375  C 15.98828125 19.0343967013889  14.896484375 20.4294704861111  13.517578125 21.4576822916667  C 12.138671875 22.4858940972222  10.6328125 23  9 23  C 7.3671875 23  5.861328125 22.4858940972222  4.482421875 21.4576822916667  C 3.103515625 20.4294704861111  2.01171875 19.0343967013889  1.20703125 17.2724609375  C 0.40234375 15.5105251736111  0 13.5863715277778  0 11.5  C 0 9.41362847222222  0.40234375 7.48947482638889  1.20703125 5.7275390625  C 2.01171875 3.96560329861111  3.103515625 2.57052951388889  4.482421875 1.54231770833333  C 5.861328125 0.514105902777776  7.3671875 0  9 0  C 10.6328125 0  12.138671875 0.514105902777776  13.517578125 1.54231770833333  C 14.896484375 2.57052951388889  15.98828125 3.96560329861111  16.79296875 5.7275390625  Z " fill-rule="nonzero" fill="#000000" stroke="none" transform="matrix(1 0 0 1 1114 478 )" />
  </g>
</svg>