<?xml version="1.0" encoding="utf-8"?>
<svg version="1.1" xmlns:xlink="http://www.w3.org/1999/xlink" width="17px" height="23px" xmlns="http://www.w3.org/2000/svg">
  <g transform="matrix(1 0 0 1 -1115 -513 )">
    <path d="M 7.92825112107623 17.25  L 8.46188340807175 17.25  L 9.56726457399103 15.3551136363636  L 8.11883408071749 12.8721590909091  L 7.01345291479821 14.7670454545455  L 7.01345291479821 15.6818181818182  L 7.92825112107623 15.6818181818182  L 7.92825112107623 17.25  Z M 12.6451793721973 6.02769886363636  C 12.7531763826607 5.84256628787879  12.7563527653214 5.66287878787879  12.6547085201794 5.48863636363636  C 12.5530642750374 5.31439393939394  12.4482436472347 5.31983901515151  12.3402466367713 5.50497159090909  L 9.00504484304933 11.2223011363636  C 8.89704783258595 11.4074337121212  8.89387144992526 11.5871212121212  8.99551569506726 11.7613636363636  C 9.09715994020927 11.9356060606061  9.20198056801196 11.9301609848485  9.30997757847534 11.7450284090909  L 12.6451793721973 6.02769886363636  Z M 13.2264573991031 14.7180397727273  C 13.3535127055306 14.8051609848485  13.4170403587444 14.9630681818182  13.4170403587444 15.1917613636364  L 13.4170403587444 18.2954545454545  C 13.4170403587444 19.5913825757576  13.1486360239163 20.6994554924242  12.6118273542601 21.6196732954545  C 12.0750186846039 22.5398910984848  11.428624813154 23  10.6726457399103 23  L 2.74439461883408 23  C 1.98841554559043 23  1.34202167414051 22.5398910984848  0.805213004484305 21.6196732954545  C 0.268404334828102 20.6994554924242  0 19.5913825757576  0 18.2954545454545  L 0 4.70454545454546  C 0 3.40861742424242  0.268404334828102 2.30054450757576  0.805213004484305 1.38032670454546  C 1.34202167414051 0.460108901515149  1.98841554559043 0  2.74439461883408 0  L 10.6726457399103 0  C 11.072869955157 0  11.4445067264574 0.136126893939393  11.7875560538117 0.408380681818181  C 11.8828475336323 0.484611742424241  11.9400224215247 0.609848484848484  11.9590807174888 0.784090909090908  C 11.9781390134529 0.969223484848484  11.9495515695067 1.12713068181818  11.8733183856502 1.2578125  L 11.4063901345291 2.05823863636364  C 11.3174514200299 2.21070075757576  11.2158071748879 2.25426136363636  11.1014573991031 2.18892045454546  C 10.9553437967115 2.12357954545454  10.8124065769806 2.09090909090909  10.6726457399103 2.09090909090909  L 2.74439461883408 2.09090909090909  C 2.32511210762332 2.09090909090909  1.96618086696562 2.34682765151515  1.66760089686099 2.85866477272727  C 1.36902092675635 3.37050189393939  1.21973094170404 3.98579545454546  1.21973094170404 4.70454545454546  L 1.21973094170404 18.2954545454545  C 1.21973094170404 19.0142045454545  1.36902092675635 19.6294981060606  1.66760089686099 20.1413352272727  C 1.96618086696562 20.6531723484848  2.32511210762332 20.9090909090909  2.74439461883408 20.9090909090909  L 10.6726457399103 20.9090909090909  C 11.0919282511211 20.9090909090909  11.4508594917788 20.6531723484848  11.7494394618834 20.1413352272727  C 12.048019431988 19.6294981060606  12.1973094170404 19.0142045454545  12.1973094170404 18.2954545454545  L 12.1973094170404 16.2372159090909  C 12.1973094170404 16.0956439393939  12.2258968609865 15.9758522727273  12.2830717488789 15.8778409090909  L 12.8929372197309 14.8323863636364  C 12.9882286995516 14.6690340909091  13.0994020926756 14.6309185606061  13.2264573991031 14.7180397727273  Z M 6.09865470852018 14.1136363636364  L 12.5022421524664 3.13636363636364  L 15.2466367713004 7.84090909090909  L 8.84304932735426 18.8181818181818  L 6.09865470852018 18.8181818181818  L 6.09865470852018 14.1136363636364  Z M 17 4.18181818181818  C 17 4.61742424242424  16.9110612855007 4.98768939393939  16.7331838565022 5.29261363636364  L 15.8565022421525 6.79545454545454  L 13.1121076233184 2.09090909090909  L 13.9887892376682 0.588068181818181  C 14.1666666666667 0.283143939393937  14.3826606875934 0.130681818181819  14.6367713004484 0.130681818181819  C 14.8908819133034 0.130681818181819  15.1068759342302 0.283143939393937  15.2847533632287 0.588068181818181  L 16.7331838565022 3.07102272727273  C 16.9110612855007 3.37594696969697  17 3.74621212121212  17 4.18181818181818  Z " fill-rule="nonzero" fill="#000000" stroke="none" transform="matrix(1 0 0 1 1115 513 )" />
  </g>
</svg>