<?xml version="1.0" encoding="utf-8"?>
<svg version="1.1" xmlns:xlink="http://www.w3.org/1999/xlink" width="60px" height="109px" xmlns="http://www.w3.org/2000/svg">
  <defs>
    <path d="M 0 0  L 1024 0  L 1024 1024  L 0 1024  Z " fill-rule="evenodd" fill="black" id="path88" />
    <clipPath id="clip89">
      <use xlink:href="#path88" />
    </clipPath>
    <defs>
      <style type="text/css"></style>
    </defs>
    <path d="M530.432 0C503.296 122.368 225.28 224.768 225.28 523.776c0 270.336 195.584 352.768 236.032 365.568C535.04 830.464 523.264 344.576 530.432 0z" fill="#666666" p-id="5344"></path>
    <path d="M539.648 66.56c34.304 69.632 259.072 242.688 259.072 457.728s-123.904 313.856-231.424 372.736v100.352c0 17.92-18.944 26.624-30.72 26.624s-33.28-8.192-33.28-22.528v-98.816c97.792-32.768 41.472-620.544 36.352-836.096z" fill="#666666" p-id="5345"></path>
    <filter x="-50.00%" y="-50.00%" width="200.00%" height="200.00%" filterUnits="objectBoundingBox" id="filter90">
      <feColorMatrix type="matrix" values="1 0 0 0 0  0 1 0 0 0  0 0 1 0 0  0 0 0 1 0  " in="SourceGraphic" />
    </filter>
  </defs>
  <g transform="matrix(1 0 0 1 -520 -15 )">
    <g transform="matrix(0.05859375 0 0 0.05859375 520 39.5 )" clip-path="url(#clip89)" filter="url(#filter90)">
      <path d="M530.432 0C503.296 122.368 225.28 224.768 225.28 523.776c0 270.336 195.584 352.768 236.032 365.568C535.04 830.464 523.264 344.576 530.432 0z" fill="#666666" p-id="5344"></path>
      <path d="M539.648 66.56c34.304 69.632 259.072 242.688 259.072 457.728s-123.904 313.856-231.424 372.736v100.352c0 17.92-18.944 26.624-30.72 26.624s-33.28-8.192-33.28-22.528v-98.816c97.792-32.768 41.472-620.544 36.352-836.096z" fill="#666666" p-id="5345"></path>
    </g>
  </g>
</svg>