<?xml version="1.0" encoding="utf-8"?>
<svg version="1.1" xmlns:xlink="http://www.w3.org/1999/xlink" width="36px" height="26px" xmlns="http://www.w3.org/2000/svg">
  <g transform="matrix(1 0 0 1 -986 -36 )">
    <path d="M 11.0089285714286 1.03013392857143  C 13.2321428571429 0.343377976190476  15.5625 0  18 0  C 20.4375 0  22.7678571428571 0.343377976190476  24.9910714285714 1.03013392857143  C 27.2142857142857 1.71688988095238  29.1294642857143 2.640625  30.7366071428571 3.80133928571428  C 32.34375 4.96205357142857  33.6227678571429 6.34523809523809  34.5736607142857 7.95089285714286  C 35.5245535714286 9.55654761904762  36 11.2395833333333  36 13  C 36 14.750744047619  35.5279017857143 16.428943452381  34.5837053571429 18.0345982142857  C 33.6395089285714 19.6402529761905  32.3638392857143 21.0234375  30.7566964285714 22.1841517857143  C 29.1495535714286 23.3448660714286  27.234375 24.2710193452381  25.0111607142857 24.9626116071429  C 22.7879464285714 25.6542038690476  20.4508928571429 26  18 26  C 15.5491071428571 26  13.2120535714286 25.6566220238095  10.9888392857143 24.9698660714286  C 8.765625 24.2831101190476  6.85379464285714 23.3569568452381  5.25334821428571 22.19140625  C 3.65290178571429 21.0258556547619  2.37723214285714 19.6426711309524  1.42633928571429 18.0418526785714  C 0.475446428571428 16.4410342261905  0 14.7604166666667  0 13  C 0 11.2395833333333  0.475446428571428 9.55654761904762  1.42633928571429 7.95089285714286  C 2.37723214285714 6.34523809523809  3.65625 4.96205357142857  5.26339285714286 3.80133928571428  C 6.87053571428571 2.640625  8.78571428571429 1.71688988095238  11.0089285714286 1.03013392857143  Z M 24.2879464285714 14.8571428571429  C 27.5022321428571 14.8571428571429  29.5513392857143 16.4386160714286  30.4352678571429 19.6015625  C 32.4308035714286 17.6186755952381  33.4285714285714 15.4181547619048  33.4285714285714 13  C 33.4285714285714 11.4910714285714  33.0200892857143 10.0498511904762  32.203125 8.67633928571428  C 31.3861607142857 7.30282738095238  30.2879464285714 6.11793154761904  28.9084821428571 5.12165178571428  C 27.5290178571429 4.12537202380952  25.8883928571429 3.33221726190476  23.9866071428571 2.7421875  C 22.0848214285714 2.15215773809524  20.0892857142857 1.85714285714286  18 1.85714285714286  C 15.9107142857143 1.85714285714286  13.9151785714286 2.15215773809524  12.0133928571429 2.7421875  C 10.1116071428571 3.33221726190476  8.47098214285714 4.12537202380952  7.09151785714286 5.12165178571428  C 5.71205357142857 6.11793154761904  4.61383928571429 7.30282738095238  3.796875 8.67633928571428  C 2.97991071428571 10.0498511904762  2.57142857142857 11.4910714285714  2.57142857142857 13  C 2.57142857142857 15.4181547619048  3.56919642857143 17.6186755952381  5.56473214285714 19.6015625  C 6.44866071428571 16.4386160714286  8.49776785714286 14.8571428571429  11.7120535714286 14.8571428571429  C 13.4665178571429 16.0952380952381  15.5625 16.7142857142857  18 16.7142857142857  C 20.4375 16.7142857142857  22.5334821428571 16.0952380952381  24.2879464285714 14.8571428571429  Z M 23.4542410714286 14.1534598214286  C 24.9609375 13.0652901785714  25.7142857142857 11.7522321428571  25.7142857142857 10.2142857142857  C 25.7142857142857 8.67633928571428  24.9609375 7.36328125  23.4542410714286 6.27511160714286  C 21.9475446428571 5.18694196428572  20.1294642857143 4.64285714285714  18 4.64285714285714  C 15.8705357142857 4.64285714285714  14.0524553571429 5.18694196428572  12.5457589285714 6.27511160714286  C 11.0390625 7.36328125  10.2857142857143 8.67633928571428  10.2857142857143 10.2142857142857  C 10.2857142857143 11.7522321428571  11.0390625 13.0652901785714  12.5457589285714 14.1534598214286  C 14.0524553571429 15.2416294642857  15.8705357142857 15.7857142857143  18 15.7857142857143  C 20.1294642857143 15.7857142857143  21.9475446428571 15.2416294642857  23.4542410714286 14.1534598214286  Z " fill-rule="nonzero" fill="#000000" stroke="none" transform="matrix(1 0 0 1 986 36 )" />
  </g>
</svg>