<?xml version="1.0" encoding="utf-8"?>
<svg version="1.1" xmlns:xlink="http://www.w3.org/1999/xlink" width="36px" height="20px" xmlns="http://www.w3.org/2000/svg">
  <g transform="matrix(1 0 0 1 -436 -40 )">
    <path d="M 12.6904906117505 9.28372093023256  C 12.6904906117505 9.44496124031008  12.6178073894609 9.5875968992248  12.4724409448819 9.71162790697674  L 2.31132646880678 18.3813953488372  C 2.16596002422774 18.5054263565891  1.99878861296184 18.5674418604651  1.80981223500909 18.5674418604651  C 1.62083585705633 18.5674418604651  1.45366444579043 18.5054263565891  1.30829800121139 18.3813953488372  L 0.218049666868565 17.4511627906977  C 0.0726832222895216 17.3271317829457  0 17.184496124031  0 17.0232558139535  C 0 16.862015503876  0.0726832222895216 16.7193798449612  0.218049666868565 16.5953488372093  L 8.78740157480315 9.28372093023256  L 0.218049666868565 1.97209302325581  C 0.0726832222895216 1.84806201550388  0 1.70542635658915  0 1.54418604651163  C 0 1.38294573643411  0.0726832222895216 1.24031007751938  0.218049666868565 1.11627906976744  L 1.30829800121139 0.186046511627906  C 1.45366444579043 0.0620155038759673  1.62083585705633 0  1.80981223500909 0  C 1.99878861296184 0  2.16596002422774 0.0620155038759673  2.31132646880678 0.186046511627906  L 12.4724409448819 8.85581395348837  C 12.6178073894609 8.97984496124031  12.6904906117505 9.12248062015504  12.6904906117505 9.28372093023256  Z M 35.8037552998183 17.7860465116279  C 35.9345850999394 17.8976744186047  36 18.0403100775194  36 18.2139534883721  L 36 19.4046511627907  C 36 19.5782945736434  35.9345850999394 19.7209302325581  35.8037552998183 19.8325581395349  C 35.6729254996972 19.9441860465116  35.5057540884313 20  35.3022410660206 20  L 14.3694730466384 20  C 14.1659600242277 20  13.9987886129618 19.9441860465116  13.8679588128407 19.8325581395349  C 13.7371290127196 19.7209302325581  13.671714112659 19.5782945736434  13.671714112659 19.4046511627907  L 13.671714112659 18.2139534883721  C 13.671714112659 18.0403100775194  13.7371290127196 17.8976744186047  13.8679588128407 17.7860465116279  C 13.9987886129618 17.6744186046512  14.1659600242277 17.6186046511628  14.3694730466384 17.6186046511628  L 35.3022410660206 17.6186046511628  C 35.5057540884313 17.6186046511628  35.6729254996972 17.6744186046512  35.8037552998183 17.7860465116279  Z " fill-rule="nonzero" fill="#000000" stroke="none" transform="matrix(1 0 0 1 436 40 )" />
  </g>
</svg>