<?xml version="1.0" encoding="utf-8"?>
<svg version="1.1" xmlns:xlink="http://www.w3.org/1999/xlink" width="31px" height="28px" xmlns="http://www.w3.org/2000/svg">
  <g transform="matrix(1 0 0 1 -560 -35 )">
    <path d="M 17.9016927083333 7.1640625  C 18.0227864583333 7.2734375  18.0833333333333 7.41319444444444  18.0833333333333 7.58333333333333  L 18.0833333333333 15.75  C 18.0833333333333 15.9201388888889  18.0227864583333 16.0598958333333  17.9016927083333 16.1692708333333  C 17.7805989583333 16.2786458333333  17.6258680555556 16.3333333333333  17.4375 16.3333333333333  L 10.9791666666667 16.3333333333333  C 10.7907986111111 16.3333333333333  10.6360677083333 16.2786458333333  10.5149739583333 16.1692708333333  C 10.3938802083333 16.0598958333333  10.3333333333333 15.9201388888889  10.3333333333333 15.75  L 10.3333333333333 14.5833333333333  C 10.3333333333333 14.4131944444444  10.3938802083333 14.2734375  10.5149739583333 14.1640625  C 10.6360677083333 14.0546875  10.7907986111111 14  10.9791666666667 14  L 15.5 14  L 15.5 7.58333333333333  C 15.5 7.41319444444444  15.560546875 7.2734375  15.681640625 7.1640625  C 15.802734375 7.0546875  15.9574652777778 7  16.1458333333333 7  L 17.4375 7  C 17.6258680555556 7  17.7805989583333 7.0546875  17.9016927083333 7.1640625  Z M 25.005859375 18.9765625  C 25.9880642361111 17.4574652777778  26.4791666666667 15.7986111111111  26.4791666666667 14  C 26.4791666666667 12.2013888888889  25.9880642361111 10.5425347222222  25.005859375 9.0234375  C 24.0236545138889 7.50434027777778  22.6916232638889 6.30121527777778  21.009765625 5.4140625  C 19.3279079861111 4.52690972222222  17.4913194444444 4.08333333333333  15.5 4.08333333333333  C 13.5086805555556 4.08333333333333  11.6720920138889 4.52690972222222  9.990234375 5.4140625  C 8.30837673611111 6.30121527777778  6.97634548611111 7.50434027777778  5.994140625 9.0234375  C 5.01193576388889 10.5425347222222  4.52083333333333 12.2013888888889  4.52083333333333 14  C 4.52083333333333 15.7986111111111  5.01193576388889 17.4574652777778  5.994140625 18.9765625  C 6.97634548611111 20.4956597222222  8.30837673611111 21.6987847222222  9.990234375 22.5859375  C 11.6720920138889 23.4730902777778  13.5086805555556 23.9166666666667  15.5 23.9166666666667  C 17.4913194444444 23.9166666666667  19.3279079861111 23.4730902777778  21.009765625 22.5859375  C 22.6916232638889 21.6987847222222  24.0236545138889 20.4956597222222  25.005859375 18.9765625  Z M 28.9212239583333 6.97265625  C 30.3070746527778 9.11762152777778  31 11.4600694444444  31 14  C 31 16.5399305555556  30.3070746527778 18.8823784722222  28.9212239583333 21.02734375  C 27.5353732638889 23.1723090277778  25.6550564236111 24.8706597222222  23.2802734375 26.1223958333333  C 20.9054904513889 27.3741319444444  18.3120659722222 28  15.5 28  C 12.6879340277778 28  10.0945095486111 27.3741319444444  7.7197265625 26.1223958333333  C 5.34494357638889 24.8706597222222  3.46462673611111 23.1723090277778  2.07877604166667 21.02734375  C 0.692925347222222 18.8823784722222  0 16.5399305555556  0 14  C 0 11.4600694444444  0.692925347222222 9.11762152777778  2.07877604166667 6.97265625  C 3.46462673611111 4.82769097222222  5.34494357638889 3.12934027777778  7.7197265625 1.87760416666667  C 10.0945095486111 0.625868055555553  12.6879340277778 0  15.5 0  C 18.3120659722222 0  20.9054904513889 0.625868055555553  23.2802734375 1.87760416666667  C 25.6550564236111 3.12934027777778  27.5353732638889 4.82769097222222  28.9212239583333 6.97265625  Z " fill-rule="nonzero" fill="#000000" stroke="none" transform="matrix(1 0 0 1 560 35 )" />
  </g>
</svg>