<?xml version="1.0" encoding="utf-8"?>
<svg version="1.1" xmlns:xlink="http://www.w3.org/1999/xlink" width="31px" height="22px" xmlns="http://www.w3.org/2000/svg">
  <g transform="matrix(1 0 0 1 -881 -38 )">
    <path d="M 29.7688802083333 6.73177083333333  C 30.5896267361111 8.08767361111111  31 9.51041666666667  31 11  C 31 12.4895833333333  30.5896267361111 13.9123263888889  29.7688802083333 15.2682291666667  C 28.9481336805556 16.6241319444444  27.8448350694444 17.7938368055556  26.458984375 18.77734375  C 25.0731336805556 19.7608506944444  23.4249131944444 20.5438368055556  21.5143229166667 21.1263020833333  C 19.6037326388889 21.7087673611111  17.5989583333333 22  15.5 22  C 13.1857638888889 22  10.9858940972222 21.6538628472222  8.900390625 20.9615885416667  C 6.81488715277778 20.2693142361111  5.03884548611111 19.29296875  3.572265625 18.0325520833333  C 3.47808159722222 17.9370659722222  3.43435329861111 17.8296440972222  3.44108072916667 17.7102864583333  C 3.44780815972222 17.5909288194444  3.50499131944444 17.4930555555556  3.61263020833333 17.4166666666667  L 6.37760416666667 15.4401041666667  C 6.51215277777778 15.3541666666667  6.68033854166667 15.3111979166667  6.88216145833333 15.3111979166667  C 7.09743923611111 15.3302951388889  7.25217013888889 15.3875868055556  7.34635416666667 15.4830729166667  C 8.32855902777778 16.3901909722222  9.53276909722222 17.0920138888889  10.958984375 17.5885416666667  C 12.3851996527778 18.0850694444444  13.8988715277778 18.3333333333333  15.5 18.3333333333333  C 16.8993055555556 18.3333333333333  18.2347005208333 18.1399739583333  19.5061848958333 17.7532552083333  C 20.7776692708333 17.3665364583333  21.8776041666667 16.84375  22.8059895833333 16.1848958333333  C 23.734375 15.5260416666667  24.4710286458333 14.7454427083333  25.0159505208333 13.8430989583333  C 25.5608723958333 12.9407552083333  25.8333333333333 11.9930555555556  25.8333333333333 11  C 25.8333333333333 10.0069444444444  25.5608723958333 9.05924479166667  25.0159505208333 8.15690104166667  C 24.4710286458333 7.25455729166667  23.734375 6.47395833333333  22.8059895833333 5.81510416666667  C 21.8776041666667 5.15625  20.7776692708333 4.63346354166667  19.5061848958333 4.24674479166667  C 18.2347005208333 3.86002604166667  16.8993055555556 3.66666666666667  15.5 3.66666666666667  C 14.1814236111111 3.66666666666667  12.9166666666667 3.83615451388889  11.7057291666667 4.17513020833333  C 10.4947916666667 4.51410590277778  9.41840277777778 4.99869791666667  8.4765625 5.62890625  L 11.2415364583333 7.60546875  C 11.6586371527778 7.89192708333333  11.7528211805556 8.22135416666667  11.5240885416667 8.59375  C 11.2953559027778 8.97569444444445  10.8984375 9.16666666666667  10.3333333333333 9.16666666666667  L 1.29166666666667 9.16666666666667  C 0.941840277777778 9.16666666666667  0.639105902777778 9.07595486111111  0.383463541666667 8.89453125  C 0.127821180555556 8.71310763888889  0 8.49826388888889  0 8.25  L 0 1.83333333333333  C 0 1.43229166666667  0.269097222222222 1.15060763888889  0.807291666666667 0.98828125  C 1.33203125 0.825954861111109  1.79622395833333 0.892795138888889  2.19986979166667 1.18880208333333  L 4.82356770833333 3.03645833333333  C 6.26323784722222 2.07204861111111  7.90809461805556 1.32486979166667  9.75813802083333 0.794921875  C 11.6081814236111 0.264973958333334  13.5221354166667 0  15.5 0  C 17.5989583333333 0  19.6037326388889 0.291232638888889  21.5143229166667 0.873697916666666  C 23.4249131944444 1.45616319444444  25.0731336805556 2.23914930555555  26.458984375 3.22265625  C 27.8448350694444 4.20616319444444  28.9481336805556 5.37586805555555  29.7688802083333 6.73177083333333  Z M 17.9016927083333 6.54557291666667  C 18.0227864583333 6.63151041666667  18.0833333333333 6.74131944444444  18.0833333333333 6.875  L 18.0833333333333 13.2916666666667  C 18.0833333333333 13.4253472222222  18.0227864583333 13.53515625  17.9016927083333 13.62109375  C 17.7805989583333 13.70703125  17.6258680555556 13.75  17.4375 13.75  L 10.9791666666667 13.75  C 10.7907986111111 13.75  10.6360677083333 13.70703125  10.5149739583333 13.62109375  C 10.3938802083333 13.53515625  10.3333333333333 13.4253472222222  10.3333333333333 13.2916666666667  L 10.3333333333333 12.375  C 10.3333333333333 12.2413194444444  10.3938802083333 12.1315104166667  10.5149739583333 12.0455729166667  C 10.6360677083333 11.9596354166667  10.7907986111111 11.9166666666667  10.9791666666667 11.9166666666667  L 15.5 11.9166666666667  L 15.5 6.875  C 15.5 6.74131944444444  15.560546875 6.63151041666667  15.681640625 6.54557291666667  C 15.802734375 6.45963541666667  15.9574652777778 6.41666666666667  16.1458333333333 6.41666666666667  L 17.4375 6.41666666666667  C 17.6258680555556 6.41666666666667  17.7805989583333 6.45963541666667  17.9016927083333 6.54557291666667  Z " fill-rule="nonzero" fill="#000000" stroke="none" transform="matrix(1 0 0 1 881 38 )" />
  </g>
</svg>