<?xml version="1.0" encoding="utf-8"?>
<svg version="1.1" xmlns:xlink="http://www.w3.org/1999/xlink" width="30px" height="24px" xmlns="http://www.w3.org/2000/svg">
  <g transform="matrix(1 0 0 1 -786 -38 )">
    <path d="M 13.8324420677362 7.8391959798995  C 14.4979203802733 7.27638190954774  14.8306595365419 6.5929648241206  14.8306595365419 5.78894472361809  C 14.8306595365419 4.98492462311558  14.4979203802733 4.30150753768844  13.8324420677362 3.73869346733668  C 13.1669637551991 3.17587939698492  12.3588829471182 2.89447236180904  11.4081996434938 2.89447236180904  C 10.4575163398693 2.89447236180904  9.64943553178847 3.17587939698492  8.98395721925134 3.73869346733668  C 8.3184789067142 4.30150753768844  7.98573975044563 4.98492462311558  7.98573975044563 5.78894472361809  C 7.98573975044563 6.21105527638191  8.09863339275104 6.62814070351759  8.32442067736185 7.04020100502513  C 7.83719548425431 6.84924623115578  7.34402852049911 6.75376884422111  6.84491978609626 6.75376884422111  C 5.89423648247178 6.75376884422111  5.08615567439097 7.03517587939698  4.42067736185383 7.59798994974874  C 3.7551990493167 8.1608040201005  3.42245989304813 8.84422110552764  3.42245989304813 9.64824120603015  C 3.42245989304813 10.4522613065327  3.7551990493167 11.1356783919598  4.42067736185383 11.6984924623116  C 5.08615567439097 12.2613065326633  5.89423648247178 12.5427135678392  6.84491978609626 12.5427135678392  C 7.79560308972074 12.5427135678392  8.60368389780155 12.2613065326633  9.26916221033868 11.6984924623116  C 9.93464052287582 11.1356783919598  10.2673796791444 10.4522613065327  10.2673796791444 9.64824120603015  C 10.2673796791444 9.22613065326633  10.154486036839 8.80904522613065  9.92869875222816 8.39698492462312  C 10.4159239453357 8.58793969849246  10.9090909090909 8.68341708542714  11.4081996434938 8.68341708542714  C 12.3588829471182 8.68341708542714  13.1669637551991 8.40201005025125  13.8324420677362 7.8391959798995  Z M 29.4919786096257 15.78391959799  C 29.8306595365419 16.1155778894472  30 16.321608040201  30 16.4020100502513  C 30 16.572864321608  29.708853238265 16.9045226130653  29.126559714795 17.3969849246231  C 28.544266191325 17.8894472361809  28.1521093285799 18.1356783919598  27.9500891265597 18.1356783919598  C 27.843137254902 18.1356783919598  27.6737967914439 18.0552763819096  27.4420677361854 17.894472361809  C 27.2103386809269 17.7336683417085  26.9934640522876 17.5678391959799  26.7914438502674 17.3969849246231  C 26.5894236482472 17.2261306532663  26.3606654783125 17.0251256281407  26.1051693404635 16.7939698492462  C 25.8496732026144 16.5628140703518  25.7040998217469 16.4321608040201  25.668449197861 16.4020100502513  L 23.9572192513369 17.8492462311558  L 27.8787878787879 21.1658291457286  C 28.2115270350564 21.4472361809045  28.3778966131907 21.7889447236181  28.3778966131907 22.1909547738693  C 28.3778966131907 22.6130653266332  28.1461675579323 23.0201005025126  27.6827094474153 23.4120603015075  C 27.2192513368984 23.8040201005025  26.7379679144385 24  26.2388591800357 24  C 25.7635175282234 24  25.359477124183 23.8592964824121  25.0267379679144 23.5778894472362  L 13.0659536541889 13.4623115577889  C 10.9744503862151 14.7788944723618  8.80570409982175 15.4371859296482  6.55971479500891 15.4371859296482  C 4.62269756387404 15.4371859296482  3.04515745692216 14.9221105527638  1.8270944741533 13.891959798995  C 0.609031491384433 12.8618090452261  0 11.5276381909548  0 9.8894472361809  C 0 8.28140703517588  0.564468211527035 6.70854271356784  1.69340463458111 5.17085427135678  C 2.82234105763518 3.63316582914573  4.29590017825312 2.38693467336683  6.11408199643494 1.4321608040201  C 7.93226381461676 0.477386934673365  9.79203802733215 0  11.6934046345811 0  C 13.630421865716 0  15.2079619726679 0.51507537688442  16.4260249554367 1.54522613065327  C 17.6440879382056 2.57537688442211  18.25311942959 3.90954773869347  18.25311942959 5.54773869346734  C 18.25311942959 7.44723618090452  17.4747474747475 9.28140703517588  15.9180035650624 11.0502512562814  L 22.2459893048128 16.4020100502513  L 23.9572192513369 14.9547738693467  C 23.921568627451 14.9246231155779  23.767082590612 14.8015075376884  23.49376114082 14.5854271356784  C 23.2204396910279 14.3693467336683  22.9827688651218 14.1758793969849  22.7807486631016 14.0050251256281  C 22.5787284610814 13.8341708542714  22.3826500297089 13.6507537688442  22.192513368984 13.4547738693467  C 22.0023767082591 13.2587939698492  21.9073083778966 13.1155778894472  21.9073083778966 13.0251256281407  C 21.9073083778966 12.8542713567839  22.1984551396316 12.5226130653266  22.7807486631016 12.0301507537688  C 23.3630421865716 11.5376884422111  23.7551990493167 11.2914572864322  23.9572192513369 11.2914572864322  C 24.1117052881759 11.2914572864322  24.2483660130719 11.3417085427136  24.367201426025 11.4422110552764  C 24.4385026737968 11.5025125628141  24.7118241235888 11.7261306532663  25.1871657754011 12.1130653266332  C 25.6625074272133 12.5  26.1497326203209 12.8994974874372  26.6488413547237 13.3115577889447  C 27.1479500891266 13.7236180904523  27.6619132501485 14.1557788944724  28.1907308377897 14.608040201005  C 28.7195484254308 15.0603015075377  29.1532976827095 15.4522613065327  29.4919786096257 15.78391959799  Z " fill-rule="nonzero" fill="#000000" stroke="none" transform="matrix(1 0 0 1 786 38 )" />
  </g>
</svg>