<?xml version="1.0" encoding="utf-8"?>
<svg version="1.1" xmlns:xlink="http://www.w3.org/1999/xlink" width="32px" height="27px" xmlns="http://www.w3.org/2000/svg">
  <g transform="matrix(1 0 0 1 -1089 -36 )">
    <path d="M 13.53125 15.7826450892857  C 13.6215277777778 16.0287388392857  13.6527777777778 16.1819196428571  13.625 16.2421875  C 13.6111111111111 16.2723214285714  13.5243055555556 16.2698102678571  13.3645833333333 16.2346540178571  C 13.2048611111111 16.1994977678571  12.9861111111111 16.1417410714286  12.7083333333333 16.0613839285714  L 12.2916666666667 15.92578125  C 11.6805555555556 15.7248883928571  11.0763888888889 15.4787946428571  10.4791666666667 15.1875  C 10.3819444444444 15.1372767857143  10.0972222222222 14.9790736607143  9.625 14.712890625  C 9.15277777777778 14.4467075892857  8.88888888888889 14.3035714285714  8.83333333333333 14.2834821428571  C 7.90277777777778 15.3180803571429  6.97222222222222 16.2271205357143  6.04166666666667 17.0106026785714  C 4.91666666666667 17.96484375  4.1875 18.5172991071429  3.85416666666667 18.66796875  C 3.79861111111111 18.6880580357143  3.66319444444444 18.7081473214286  3.44791666666667 18.7282366071429  C 3.23263888888889 18.7483258928571  3.10416666666667 18.7483258928571  3.0625 18.7282366071429  C 3.14583333333333 18.6880580357143  3.71527777777778 18.2260044642857  4.77083333333333 17.3420758928571  C 5.0625 17.1010044642857  5.65625 16.5234375  6.55208333333333 15.609375  C 7.44791666666667 14.6953125  7.99305555555556 14.1026785714286  8.1875 13.8314732142857  C 8.42361111111111 13.5301339285714  8.77777777777778 13.0354352678571  9.25 12.3473772321429  C 9.72222222222222 11.6593191964286  9.97222222222222 11.2700892857143  10 11.1796875  C 9.88888888888889 11.1696428571429  9.125 11.3353794642857  7.70833333333333 11.6768973214286  C 7.59722222222222 11.6969866071429  7.40625 11.7346540178571  7.13541666666667 11.7898995535714  C 6.86458333333333 11.8451450892857  6.625 11.8928571428571  6.41666666666667 11.9330357142857  C 6.20833333333333 11.9732142857143  6.09027777777778 11.9983258928571  6.0625 12.0083705357143  C 6.03472222222222 12.0284598214286  6.02083333333333 12.0811941964286  6.02083333333333 12.1665736607143  C 6.02083333333333 12.251953125  6.01388888888889 12.2996651785714  6 12.3097098214286  C 5.93055555555556 12.41015625  5.71527777777778 12.4854910714286  5.35416666666667 12.5357142857143  C 5.03472222222222 12.6060267857143  4.70833333333333 12.6060267857143  4.375 12.5357142857143  C 4.125 12.4955357142857  3.93055555555556 12.3900669642857  3.79166666666667 12.2193080357143  C 3.73611111111111 12.1590401785714  3.70138888888889 12.0435267857143  3.6875 11.8727678571429  C 3.77083333333333 11.8526785714286  3.94097222222222 11.8275669642857  4.19791666666667 11.7974330357143  C 4.45486111111111 11.7672991071429  4.65972222222222 11.7371651785714  4.8125 11.70703125  C 5.61805555555556 11.5463169642857  6.34722222222222 11.3856026785714  7 11.2248883928571  C 8.38888888888889 10.8733258928571  9.09722222222222 10.6975446428571  9.125 10.6975446428571  C 9.26388888888889 10.6774553571429  9.5625 10.5795200892857  10.0208333333333 10.4037388392857  C 10.4791666666667 10.2279575892857  10.7847222222222 10.1199776785714  10.9375 10.0797991071429  C 11.0625 10.0496651785714  11.2118055555556 10.0094866071429  11.3854166666667 9.95926339285714  C 11.5590277777778 9.90904017857143  11.6597222222222 9.88141741071428  11.6875 9.87639508928571  C 11.7152777777778 9.87137276785714  11.7569444444444 9.87388392857143  11.8125 9.88392857142857  C 11.8402777777778 10.0044642857143  11.8333333333333 10.1702008928571  11.7916666666667 10.3811383928571  C 11.7916666666667 10.4012276785714  11.7048611111111 10.5368303571429  11.53125 10.7879464285714  C 11.3576388888889 11.0390625  11.1736111111111 11.3077566964286  10.9791666666667 11.5940290178571  C 10.7847222222222 11.8803013392857  10.6666666666667 12.0485491071429  10.625 12.0987723214286  C 10.2777777777778 12.6010044642857  9.74305555555556 13.2589285714286  9.02083333333333 14.0725446428571  L 10.3541666666667 14.4944196428571  C 10.5208333333333 14.5546875  11.0381944444444 14.7154017857143  11.90625 14.9765625  C 12.7743055555556 15.2377232142857  13.2430555555556 15.3783482142857  13.3125 15.3984375  C 13.3680555555556 15.4084821428571  13.4409722222222 15.5365513392857  13.53125 15.7826450892857  Z M 8.91666666666667 8.66350446428571  C 9.15277777777778 8.66350446428571  9.29861111111111 8.74888392857143  9.35416666666667 8.91964285714286  C 9.39583333333333 9.0703125  9.36805555555556 9.2109375  9.27083333333333 9.34151785714286  C 9.10416666666667 9.57254464285714  8.75694444444444 9.76339285714286  8.22916666666667 9.9140625  C 7.8125 10.0345982142857  7.39583333333333 10.0948660714286  6.97916666666667 10.0948660714286  C 6.61805555555556 10.0647321428571  6.27777777777778 9.93415178571428  5.95833333333333 9.703125  C 5.76388888888889 9.55245535714286  5.63888888888889 9.34654017857143  5.58333333333333 9.08537946428571  L 5.60416666666667 9.04017857142857  C 5.64583333333333 9.0703125  5.78125 9.09542410714285  6.01041666666667 9.11551339285714  C 6.23958333333333 9.13560267857143  6.42361111111111 9.13560267857143  6.5625 9.11551339285714  C 6.70138888888889 9.09542410714285  7.10416666666667 9.01506696428571  7.77083333333333 8.87444196428571  C 8.27083333333333 8.75390625  8.65277777777778 8.68359375  8.91666666666667 8.66350446428571  Z M 22.3125 13.6506696428571  L 23.8958333333333 10.86328125  L 25.2083333333333 14.2834821428571  L 22.3125 13.6506696428571  Z M 1 7.3828125  L 1 22.9168526785714  L 15.2708333333333 19.4213169642857  L 15.2708333333333 3.87220982142857  L 1 7.3828125  Z M 25.8958333333333 16.1065848214286  L 26.6666666666667 18.140625  L 28.7916666666667 18.6077008928571  L 25.0208333333333 8.70870535714286  L 22.9375 8.24162946428571  L 18.4375 16.3175223214286  L 20.5625 16.7845982142857  L 21.5 15.1272321428571  L 25.8958333333333 16.1065848214286  Z M 28.125 0.693080357142858  L 16.1875 3.64620535714286  L 28.125 6.41852678571429  L 28.125 0.693080357142858  Z M 23.5625 24.6796875  L 22.6666666666667 23.5797991071429  L 25.9583333333333 23.7756696428571  L 24.8333333333333 26.1863839285714  L 24 25.1919642857143  C 22.1944444444444 26.0256696428571  20.2777777777778 26.5680803571429  18.25 26.8191964285714  C 17.4444444444444 26.9397321428571  16.8125 27  16.3541666666667 27  L 14.6041666666667 27  C 13.5069444444444 27  12.1215277777778 26.8041294642857  10.4479166666667 26.4123883928571  C 8.77430555555556 26.0206473214286  7.5 25.59375  6.625 25.1316964285714  C 6.51388888888889 25.0613839285714  6.45833333333333 24.9810267857143  6.45833333333333 24.890625  C 6.45833333333333 24.8102678571429  6.49305555555556 24.7424665178571  6.5625 24.6872209821429  C 6.63194444444445 24.6319754464286  6.72222222222222 24.6043526785714  6.83333333333333 24.6043526785714  C 6.88888888888889 24.6043526785714  7.01388888888889 24.6420200892857  7.20833333333333 24.7173549107143  C 7.40277777777778 24.7926897321429  7.61458333333333 24.8755580357143  7.84375 24.9659598214286  C 8.07291666666667 25.0563616071429  8.21527777777778 25.1116071428571  8.27083333333333 25.1316964285714  C 9.28472222222222 25.5033482142857  10.3923611111111 25.8122209821429  11.59375 26.0583147321429  C 12.7951388888889 26.3044084821429  13.8888888888889 26.4274553571429  14.875 26.4274553571429  C 16.1944444444444 26.4274553571429  17.3541666666667 26.3546316964286  18.3541666666667 26.208984375  C 19.3541666666667 26.0633370535714  20.4444444444444 25.8097098214286  21.625 25.4481026785714  C 21.8333333333333 25.3777901785714  22.0451388888889 25.2999441964286  22.2604166666667 25.2145647321429  C 22.4756944444444 25.1291852678571  22.7118055555556 25.0337611607143  22.96875 24.9282924107143  C 23.2256944444444 24.8228236607143  23.4236111111111 24.7399553571429  23.5625 24.6796875  Z M 28.9375 6.61439732142857  L 32 7.32254464285714  L 32 23.5797991071429  L 15.875 19.8733258928571  C 15.6805555555556 19.93359375  13.0763888888889 20.5739397321429  8.0625 21.7943638392857  C 3.04861111111111 23.0147879464286  0.493055555555556 23.625  0.395833333333333 23.625  C 0.215277777777778 23.625  0.0902777777777778 23.5597098214286  0.0208333333333333 23.4291294642857  C 0.0208333333333333 23.4190848214286  0.0138888888888889 23.4040178571429  0 23.3839285714286  L 0 7.14174107142857  C 0.0416666666666667 7.05133928571429  0.0694444444444444 7.00111607142857  0.0833333333333333 6.99107142857143  C 0.152777777777778 6.93080357142857  0.291666666666667 6.87555803571428  0.5 6.82533482142857  C 1.98611111111111 6.46372767857143  3.02083333333333 6.21261160714286  3.60416666666667 6.07198660714286  L 3.60416666666667 0.286272321428572  L 15.2291666666667 3.26953125  C 15.2569444444444 3.26953125  16.3715277777778 2.99330357142857  18.5729166666667 2.44084821428571  C 20.7743055555556 1.88839285714286  22.96875 1.34347098214285  25.15625 0.806082589285714  C 27.34375 0.268694196428573  28.4652777777778 0  28.5208333333333 0  C 28.7986111111111 0  28.9375 0.10546875  28.9375 0.31640625  L 28.9375 6.61439732142857  Z " fill-rule="nonzero" fill="#000000" stroke="none" transform="matrix(1 0 0 1 1089 36 )" />
  </g>
</svg>