<?xml version="1.0" encoding="utf-8"?>
<svg version="1.1" xmlns:xlink="http://www.w3.org/1999/xlink" width="56px" height="32px" xmlns="http://www.w3.org/2000/svg">
  <g transform="matrix(1 0 0 1 -444 -449 )">
    <path d="M 444.5 452  A 2.5 2.5 0 0 1 447 449.5 L 497 449.5  A 2.5 2.5 0 0 1 499.5 452 L 499.5 478  A 2.5 2.5 0 0 1 497 480.5 L 447 480.5  A 2.5 2.5 0 0 1 444.5 478 L 444.5 452  Z " fill-rule="nonzero" fill="#ffffff" stroke="none" />
    <path d="M 444.5 452  A 2.5 2.5 0 0 1 447 449.5 L 497 449.5  A 2.5 2.5 0 0 1 499.5 452 L 499.5 478  A 2.5 2.5 0 0 1 497 480.5 L 447 480.5  A 2.5 2.5 0 0 1 444.5 478 L 444.5 452  Z " stroke-width="1" stroke="#d9d9d9" fill="none" />
  </g>
</svg>