<?xml version="1.0" encoding="utf-8"?>
<svg version="1.1" xmlns:xlink="http://www.w3.org/1999/xlink" width="56px" height="32px" xmlns="http://www.w3.org/2000/svg">
  <g transform="matrix(1 0 0 1 -417 -402 )">
    <path d="M 418 405  A 2 2 0 0 1 420 403 L 470 403  A 2 2 0 0 1 472 405 L 472 431  A 2 2 0 0 1 470 433 L 420 433  A 2 2 0 0 1 418 431 L 418 405  Z " fill-rule="nonzero" fill="#ffffff" stroke="none" />
    <path d="M 417.5 405  A 2.5 2.5 0 0 1 420 402.5 L 470 402.5  A 2.5 2.5 0 0 1 472.5 405 L 472.5 431  A 2.5 2.5 0 0 1 470 433.5 L 420 433.5  A 2.5 2.5 0 0 1 417.5 431 L 417.5 405  Z " stroke-width="1" stroke="#337dff" fill="none" stroke-opacity="0.8" />
  </g>
</svg>