<?xml version="1.0" encoding="utf-8"?>
<svg version="1.1" xmlns:xlink="http://www.w3.org/1999/xlink" width="12px" height="12px" viewBox="179 297  12 12" xmlns="http://www.w3.org/2000/svg">
  <path d="M 185 297  C 188.36 297  191 299.64  191 303  C 191 306.36  188.36 309  185 309  C 181.64 309  179 306.36  179 303  C 179 299.64  181.64 297  185 297  Z " fill-rule="nonzero" fill="#f0f0f0" stroke="none" />
  <path d="M 185 297.5  C 188.08 297.5  190.5 299.92  190.5 303  C 190.5 306.08  188.08 308.5  185 308.5  C 181.92 308.5  179.5 306.08  179.5 303  C 179.5 299.92  181.92 297.5  185 297.5  Z " stroke-width="1" stroke="#797979" fill="none" />
  <path d="M 185 306  C 183.32 306  182 304.68  182 303  C 182 301.32  183.32 300  185 300  C 186.68 300  188 301.32  188 303  C 188 304.68  186.68 306  185 306  " fill-rule="nonzero" fill="#797979" stroke="none" />
</svg>