<?xml version="1.0" encoding="utf-8"?>
<svg version="1.1" xmlns:xlink="http://www.w3.org/1999/xlink" width="12px" height="12px" viewBox="342 257  12 12" xmlns="http://www.w3.org/2000/svg">
  <path d="M 348 257  C 351.36 257  354 259.64  354 263  C 354 266.36  351.36 269  348 269  C 344.64 269  342 266.36  342 263  C 342 259.64  344.64 257  348 257  Z " fill-rule="nonzero" fill="#f0f0f0" stroke="none" />
  <path d="M 348 257.5  C 351.08 257.5  353.5 259.92  353.5 263  C 353.5 266.08  351.08 268.5  348 268.5  C 344.92 268.5  342.5 266.08  342.5 263  C 342.5 259.92  344.92 257.5  348 257.5  Z " stroke-width="1" stroke="#797979" fill="none" />
  <path d="M 348 266  C 346.32 266  345 264.68  345 263  C 345 261.32  346.32 260  348 260  C 349.68 260  351 261.32  351 263  C 351 264.68  349.68 266  348 266  " fill-rule="nonzero" fill="#797979" stroke="none" />
</svg>