<?xml version="1.0" encoding="utf-8"?>
<svg version="1.1" xmlns:xlink="http://www.w3.org/1999/xlink" width="12px" height="12px" viewBox="179 257  12 12" xmlns="http://www.w3.org/2000/svg">
  <path d="M 185 257  C 188.36 257  191 259.64  191 263  C 191 266.36  188.36 269  185 269  C 181.64 269  179 266.36  179 263  C 179 259.64  181.64 257  185 257  Z " fill-rule="nonzero" fill="#ffffff" stroke="none" />
  <path d="M 185 257.5  C 188.08 257.5  190.5 259.92  190.5 263  C 190.5 266.08  188.08 268.5  185 268.5  C 181.92 268.5  179.5 266.08  179.5 263  C 179.5 259.92  181.92 257.5  185 257.5  Z " stroke-width="1" stroke="#797979" fill="none" />
  <path d="M 185 266  C 183.32 266  182 264.68  182 263  C 182 261.32  183.32 260  185 260  C 186.68 260  188 261.32  188 263  C 188 264.68  186.68 266  185 266  " fill-rule="nonzero" fill="#797979" stroke="none" />
</svg>